ISO-10303-21;
HEADER;
FILE_DESCRIPTION(('ViewDefinition [ReferenceView_V1.2]'),'2;1');
FILE_NAME(
/* name */ 'C:\\Users\\a.hernandez\\OneDrive - EGIS Group\\Documents\\APPS\\Reporte-ifc-LOD\\reporte-ifc-lod-main\\models\\IFC\\IfcCourse.BALLASTBED.ifc',
/* time_stamp */ '2026-03-22T21:40:35',
/* author */ ('a.hernandez'),
/* organization */ ('EGIS'),
/* preprocessor_version */ 'GeometryGymIFCcore v25.2.25.0 by Geometry Gym Pty Ltd built 2025-02-25T08:37:52',
/* originating_system */ 'Autodesk - Civil 3D 2026 IfcInfra Plugin - 13.8.378.0',
/* authorization */ 'None'
);

FILE_SCHEMA (('IFC4'));
ENDSEC;

DATA;
#1= IFCORGANIZATION($,'Autodesk',$,$,$);
#2= IFCAPPLICATION(#1,'Civil 3D 2026','Civil 3D','Autodesk - Civil 3D 2026 IfcInfra Plugin - 13.8.378.0');
#3= IFCCARTESIANPOINT((-11.0,-1.0,0.0));
#4= IFCAXIS2PLACEMENT3D(#3,$,$);
#5= IFCLOCALPLACEMENT($,#4);
#6= IFCSITE('1xq3Jx7v1Ei9VLtRWhcAGA',$,'UnknownName',$,$,#5,$,$,$,$,$,$,$,#7);
#7= IFCPOSTALADDRESS($,$,$,$,$,$,$,$,$,'Unknown');
#8= IFCSIUNIT(*,.LENGTHUNIT.,$,.METRE.);
#9= IFCSIUNIT(*,.AREAUNIT.,$,.SQUARE_METRE.);
#10= IFCSIUNIT(*,.VOLUMEUNIT.,$,.CUBIC_METRE.);
#11= IFCSIUNIT(*,.PLANEANGLEUNIT.,$,.RADIAN.);
#12= IFCPROJECT('0wa231yDfCXxnarg_pvOe8',$,'Unknown',$,$,$,$,(#15),#13);
#13= IFCUNITASSIGNMENT((#8,#9,#10,#11));
#14= IFCRELAGGREGATES('2$7AE_vACS8ubTDmUZJtKb',$,$,$,#12,(#6));
#15= IFCGEOMETRICREPRESENTATIONCONTEXT('3D','Model',3,0.0001,#17,#18);
#16= IFCCARTESIANPOINT((0.0,0.0,0.0));
#17= IFCAXIS2PLACEMENT3D(#16,$,$);
#18= IFCDIRECTION((0.0,1.0));
#19= IFCGEOMETRICREPRESENTATIONSUBCONTEXT('Body','Model',*,*,*,*,#15,$,.MODEL_VIEW.,$);
#20= IFCCARTESIANPOINTLIST3D(((3.2502,-10.0,0.322657),(0.0,-10.0,0.387661),(3.2502,-10.0,-0.177343),(-3.2502,-10.0,-0.177343),(-3.2502,-10.0,0.322657),(0.0,10.0,0.177343),(-3.2502,10.0,0.112339),(3.2502,10.0,0.112339),(3.2502,10.0,-0.387661),(-3.2502,10.0,-0.387661)));
#21= IFCTRIANGULATEDFACESET(#20,$,$,((1,2,3),(3,2,4),(4,2,5),(2,6,5),(5,6,7),(2,1,6),(6,1,8),(1,3,8),(8,3,9),(3,4,9),(9,4,10),(5,7,4),(4,7,10),(8,9,6),(6,9,10),(6,10,7)),$);
#22= IFCSHAPEREPRESENTATION(#19,'Body','Tessellation',(#21));
#23= IFCPRODUCTDEFINITIONSHAPE($,$,(#22));
#24= IFCCARTESIANPOINT((3.564663,11.0,-0.517212));
#25= IFCAXIS2PLACEMENT3D(#24,$,$);
#26= IFCLOCALPLACEMENT(#5,#25);
#27= IFCCIVILELEMENT('0AxqsYMdb8Lez3q6ZBRq7A',$,'SUBESTRUCTURA_QS3_GRANULAR_e0.50m',$,$,#26,#23,'FD52');
#28= IFCRELCONTAINEDINSPATIALSTRUCTURE('1qZxRkEmsvzp0ZV4l$EVCk',$,'Site','Site Container for Elements',(#27,#95,#124,#153,#182,#211,#232,#253,#274,#295,#316,#337,#358,#379,#400),#6);
#29= IFCMATERIAL('SUBESTRUCTURA_GRANULAR_GENERICO',$,$);
#30= IFCRELASSOCIATESMATERIAL('2a25Jts8nEHR3vn4ectCL3',$,$,$,(#27,#274),#29);
#31= IFCCOLOURRGB('104,110,102',0.407843137254902,0.431372549019608,0.4);
#32= IFCSURFACESTYLESHADING(#31,$);
#33= IFCSURFACESTYLE($,.BOTH.,(#32));
#34= IFCPRESENTATIONLAYERWITHSTYLE('SUBESTRUCTURA_QS3_GRANULAR_e0.50m',$,(#21,#268),$,.U.,.U.,.U.,(#33));
#35= IFCSTYLEDITEM(#21,(#33),'SUBESTRUCTURA_QS3_GRANULAR_e0.50m');
#36= IFCPROPERTYSET('06tFtd_gT2sxWHxvXGHhYf',$,'Properties',$,(#38,#39,#40,#41,#42,#43,#44,#45,#46,#47,#48,#49,#50,#51,#52,#53,#54,#55,#56,#57,#58,#59,#60,#61,#62,#63,#64,#65));
#37= IFCRELDEFINESBYPROPERTIES('3RHBzCV4D5kvjQjT9B7BG$',$,$,$,(#27),#36);
#38= IFCPROPERTYSINGLEVALUE('Area',$,IFCREAL(286.979326868833),$);
#39= IFCPROPERTYSINGLEVALUE('IsNull',$,IFCBOOLEAN(.F.),$);
#40= IFCPROPERTYSINGLEVALUE('NumChanges',$,IFCINTEGER(2),$);
#41= IFCPROPERTYSINGLEVALUE('RecordHistory',$,IFCBOOLEAN(.T.),$);
#42= IFCPROPERTYSINGLEVALUE('ShowHistory',$,IFCBOOLEAN(.T.),$);
#43= IFCPROPERTYSINGLEVALUE('UsesGraphicsCache',$,IFCBOOLEAN(.T.),$);
#44= IFCPROPERTYSINGLEVALUE('CloneMeForDragging',$,IFCBOOLEAN(.T.),$);
#45= IFCPROPERTYSINGLEVALUE('ForceAnnoAllVisible',$,IFCBOOLEAN(.T.),$);
#46= IFCPROPERTYSINGLEVALUE('HasSaveVersionOverride',$,IFCBOOLEAN(.F.),$);
#47= IFCPROPERTYSINGLEVALUE('IsCancelling',$,IFCBOOLEAN(.F.),$);
#48= IFCPROPERTYSINGLEVALUE('IsErased',$,IFCBOOLEAN(.F.),$);
#49= IFCPROPERTYSINGLEVALUE('IsEraseStatusToggled',$,IFCBOOLEAN(.F.),$);
#50= IFCPROPERTYSINGLEVALUE('IsModified',$,IFCBOOLEAN(.T.),$);
#51= IFCPROPERTYSINGLEVALUE('IsModifiedGraphics',$,IFCBOOLEAN(.T.),$);
#52= IFCPROPERTYSINGLEVALUE('IsModifiedXData',$,IFCBOOLEAN(.F.),$);
#53= IFCPROPERTYSINGLEVALUE('IsNewObject',$,IFCBOOLEAN(.F.),$);
#54= IFCPROPERTYSINGLEVALUE('IsNotifyEnabled',$,IFCBOOLEAN(.F.),$);
#55= IFCPROPERTYSINGLEVALUE('IsNotifying',$,IFCBOOLEAN(.F.),$);
#56= IFCPROPERTYSINGLEVALUE('IsObjectIdsInFlux',$,IFCBOOLEAN(.F.),$);
#57= IFCPROPERTYSINGLEVALUE('IsPersistent',$,IFCBOOLEAN(.T.),$);
#58= IFCPROPERTYSINGLEVALUE('IsReadEnabled',$,IFCBOOLEAN(.T.),$);
#59= IFCPROPERTYSINGLEVALUE('IsReallyClosing',$,IFCBOOLEAN(.F.),$);
#60= IFCPROPERTYSINGLEVALUE('IsTransactionResident',$,IFCBOOLEAN(.T.),$);
#61= IFCPROPERTYSINGLEVALUE('IsUndoing',$,IFCBOOLEAN(.F.),$);
#62= IFCPROPERTYSINGLEVALUE('IsWriteEnabled',$,IFCBOOLEAN(.T.),$);
#63= IFCPROPERTYSINGLEVALUE('Bounds',$,IFCLABEL('((-15.662618229631335,-1.6176510443910956,-0.9048731065254287),(0.7919445782899857,21.617651045322418,-0.12955113065436308))'),$);
#64= IFCPROPERTYSINGLEVALUE('AutoDelete',$,IFCBOOLEAN(.F.),$);
#65= IFCPROPERTYSINGLEVALUE('IsDisposed',$,IFCBOOLEAN(.F.),$);
#66= IFCPROPERTYSET('18WUQO6TX99gCc7vX37XoA',$,'Misc',$,(#68,#69,#70,#71));
#67= IFCRELDEFINESBYPROPERTIES('2mx0nRBirALPqi$57QrnH$',$,$,$,(#27),#66);
#68= IFCPROPERTYSINGLEVALUE('BlockName',$,IFCLABEL('*Model_Space'),$);
#69= IFCPROPERTYSINGLEVALUE('ClassID',$,IFCLABEL('4ca6aa08-5011-4525-8c44-7fb7c2190cb8'),$);
#70= IFCPROPERTYSINGLEVALUE('HasFields',$,IFCBOOLEAN(.F.),$);
#71= IFCPROPERTYSINGLEVALUE('IsAProxy',$,IFCBOOLEAN(.F.),$);
#72= IFCPROPERTYSET('2HrfUvnmz6Ju24Sq4FA8re',$,'3D Visualization',$,(#74,#75,#76));
#73= IFCRELDEFINESBYPROPERTIES('2cq4GwYzT1fAqoRi93qtG$',$,$,$,(#27),#72);
#74= IFCPROPERTYSINGLEVALUE('CastShadows',$,IFCBOOLEAN(.T.),$);
#75= IFCPROPERTYSINGLEVALUE('Material',$,IFCLABEL('SUBESTRUCTURA_GRANULAR_GENERICO'),$);
#76= IFCPROPERTYSINGLEVALUE('ReceiveShadows',$,IFCBOOLEAN(.T.),$);
#77= IFCPROPERTYSET('0vvY9MbQP8kQdyJANUK8fX',$,'General',$,(#79,#80,#81,#82,#83,#84));
#78= IFCRELDEFINESBYPROPERTIES('1gAuXDeML0K92WRCxhK1cT',$,$,$,(#27),#77);
#79= IFCPROPERTYSINGLEVALUE('ColorIndex',$,IFCINTEGER(256),$);
#80= IFCPROPERTYSINGLEVALUE('Layer',$,IFCLABEL('SUBESTRUCTURA_QS3_GRANULAR_e0.50m'),$);
#81= IFCPROPERTYSINGLEVALUE('Linetype',$,IFCLABEL('ByLayer'),$);
#82= IFCPROPERTYSINGLEVALUE('LinetypeScale',$,IFCREAL(1.0),$);
#83= IFCPROPERTYSINGLEVALUE('PlotStyleName',$,IFCLABEL('ByLayer'),$);
#84= IFCPROPERTYSINGLEVALUE('Visible',$,IFCBOOLEAN(.T.),$);
#85= IFCPROPERTYSET('1ww$iUKDDEn93KTvsptL85',$,'Geometry',$,(#87));
#86= IFCRELDEFINESBYPROPERTIES('19eISW0yfDOAAPTc8kvAZj',$,$,$,(#27),#85);
#87= IFCPROPERTYSINGLEVALUE('IsPlanar',$,IFCBOOLEAN(.F.),$);
#88= IFCCARTESIANPOINTLIST3D(((3.2502,-10.0,0.247657),(3.2501,-10.0,0.247659),(3.2502,-10.0,-0.102343),(0.0,-10.0,-0.037339),(0.0,-10.0,0.312661),(-3.2501,-10.0,0.247659),(-3.2502,-10.0,0.247657),(-3.2502,-10.0,-0.102343),(-3.2501,10.0,0.037341),(-3.2502,10.0,0.037339),(0.0,10.0,0.102343),(3.2501,10.0,0.037341),(3.2502,10.0,0.037339),(3.2502,10.0,-0.312661),(0.0,10.0,-0.247657),(-3.2502,10.0,-0.312661)));
#89= IFCTRIANGULATEDFACESET(#88,$,$,((1,2,3),(3,2,4),(4,2,5),(4,5,6),(7,8,6),(6,8,4),(6,9,7),(7,9,10),(5,11,6),(6,11,9),(5,2,11),(11,2,12),(2,1,12),(12,1,13),(1,3,13),(13,3,14),(4,15,3),(3,15,14),(4,8,15),(15,8,16),(7,10,8),(8,10,16),(13,14,12),(12,14,15),(12,15,11),(11,15,9),(9,15,16),(9,16,10)),$);
#90= IFCSHAPEREPRESENTATION(#19,'Body','Tessellation',(#89));
#91= IFCPRODUCTDEFINITIONSHAPE($,$,(#90));
#92= IFCCARTESIANPOINT((3.564663,11.0,-0.092212));
#93= IFCAXIS2PLACEMENT3D(#92,$,$);
#94= IFCLOCALPLACEMENT(#5,#93);
#95= IFCCIVILELEMENT('2LBaqHuxT17feywGJF98qs',$,'SUBBALASTO_SUPERESTRUCTURA_GRANULAR_e0.35m',$,$,#94,#91,'FD4F');
#96= IFCMATERIAL('SUBBALASTO_GRANULAR_GENERICO',$,$);
#97= IFCRELASSOCIATESMATERIAL('2fKkIBiz16BhbmV1aAYpct',$,$,$,(#95,#295),#96);
#98= IFCCOLOURRGB('80,80,80',0.313725490196078,0.313725490196078,0.313725490196078);
#99= IFCSURFACESTYLESHADING(#98,$);
#100= IFCSURFACESTYLE($,.BOTH.,(#99));
#101= IFCPRESENTATIONLAYERWITHSTYLE('SUBBALASTO_SUPERESTRUCTURA_GRANULAR_e0.35m',$,(#89,#289),$,.U.,.U.,.U.,(#100));
#102= IFCSTYLEDITEM(#89,(#100),'SUBBALASTO_SUPERESTRUCTURA_GRANULAR_e0.35m');
#103= IFCPROPERTYSET('1Yxchbwo5AtPuLnS5tXJUZ',$,'Properties',$,(#39,#40,#41,#42,#43,#44,#45,#46,#47,#48,#49,#50,#51,#52,#53,#54,#55,#56,#57,#58,#59,#60,#61,#62,#64,#65,#105,#106));
#104= IFCRELDEFINESBYPROPERTIES('3SyBKIQaDFGxNFsnJvzjiL',$,$,$,(#95),#103);
#105= IFCPROPERTYSINGLEVALUE('Area',$,IFCREAL(278.632652196306),$);
#106= IFCPROPERTYSINGLEVALUE('Bounds',$,IFCLABEL('((-15.662618229631335,-1.6176510443910956,-0.4048731065126958),(0.7919445782899857,21.617651044856757,0.22044886933827001))'),$);
#107= IFCPROPERTYSET('2J14J05Lf9CveKDS2ch7BD',$,'Misc',$,(#68,#69,#70,#71));
#108= IFCRELDEFINESBYPROPERTIES('1iLrt9yC50ZP5fYN9G_nzz',$,$,$,(#95),#107);
#109= IFCPROPERTYSET('0wDu6ws9LCqBTIqXiwsEz3',$,'3D Visualization',$,(#74,#76,#111));
#110= IFCRELDEFINESBYPROPERTIES('38JXHhZ9v26R6Le6wbd8gB',$,$,$,(#95),#109);
#111= IFCPROPERTYSINGLEVALUE('Material',$,IFCLABEL('SUBBALASTO_GRANULAR_GENERICO'),$);
#112= IFCPROPERTYSET('14l0WpCEfFDfwX4pOgJD8k',$,'General',$,(#79,#81,#82,#83,#84,#114));
#113= IFCRELDEFINESBYPROPERTIES('0trTqOwXHDGAmtlRey6FY$',$,$,$,(#95),#112);
#114= IFCPROPERTYSINGLEVALUE('Layer',$,IFCLABEL('SUBBALASTO_SUPERESTRUCTURA_GRANULAR_e0.35m'),$);
#115= IFCPROPERTYSET('0lA$EStsT00uPfig89GcQB',$,'Geometry',$,(#87));
#116= IFCRELDEFINESBYPROPERTIES('2_PzNLW4n70w$81oX$V8Cc',$,$,$,(#95),#115);
#117= IFCCARTESIANPOINTLIST3D(((3.2501,-10.0,0.022658),(3.2501,-10.0,0.122658),(0.0,-10.0,0.08766),(3.25,-10.0,0.12266),(0.0,-10.0,0.18766),(-3.25,-10.0,0.12266),(-3.2501,-10.0,0.122658),(-3.2501,-10.0,0.022658),(-3.25,10.0,-0.087658),(-3.2501,10.0,-0.08766),(0.0,10.0,-0.022658),(3.25,10.0,-0.087658),(3.2501,10.0,-0.08766),(3.2501,10.0,-0.18766),(0.0,10.0,-0.122658),(-3.2501,10.0,-0.18766)));
#118= IFCTRIANGULATEDFACESET(#117,$,$,((1,2,3),(3,2,4),(3,4,5),(5,6,3),(3,6,7),(3,7,8),(6,9,7),(7,9,10),(5,11,6),(6,11,9),(5,4,11),(11,4,12),(4,2,12),(12,2,13),(2,1,13),(13,1,14),(3,15,1),(1,15,14),(3,8,15),(15,8,16),(7,10,8),(8,10,16),(14,15,13),(13,15,12),(12,15,11),(11,15,9),(9,15,10),(10,15,16)),$);
#119= IFCSHAPEREPRESENTATION(#19,'Body','Tessellation',(#118));
#120= IFCPRODUCTDEFINITIONSHAPE($,$,(#119));
#121= IFCCARTESIANPOINT((3.564663,11.0,0.132789));
#122= IFCAXIS2PLACEMENT3D(#121,$,$);
#123= IFCLOCALPLACEMENT(#5,#122);
#124= IFCCIVILELEMENT('2xjVOdiKvENhKN4XgWtguP',$,'DRENAJE_SUPERESTRUCTURA_GRANULAR_e0.10m',$,$,#123,#120,'FD4C');
#125= IFCMATERIAL('DRENAJE_GRANULAR_GENERICO',$,$);
#126= IFCRELASSOCIATESMATERIAL('3yx5sFc7f5yQIXwJy$yARN',$,$,$,(#124),#125);
#127= IFCCOLOURRGB('132,139,136',0.517647058823529,0.545098039215686,0.533333333333333);
#128= IFCSURFACESTYLESHADING(#127,$);
#129= IFCSURFACESTYLE($,.BOTH.,(#128));
#130= IFCPRESENTATIONLAYERWITHSTYLE('DRENAJE_SUPERESTRUCTURA_GRANULAR_e0.10m',$,(#118),$,.U.,.U.,.U.,(#129));
#131= IFCSTYLEDITEM(#118,(#129),'DRENAJE_SUPERESTRUCTURA_GRANULAR_e0.10m');
#132= IFCPROPERTYSET('3tiS8Mzoj0890AbpcYP8Zm',$,'Properties',$,(#39,#40,#41,#42,#43,#44,#45,#46,#47,#48,#49,#50,#51,#52,#53,#54,#55,#56,#57,#58,#59,#60,#61,#62,#64,#65,#134,#135));
#133= IFCRELDEFINESBYPROPERTIES('2pKlCeRdTBcO5oKfruAquZ',$,$,$,(#124),#132);
#134= IFCPROPERTYSINGLEVALUE('Area',$,IFCREAL(265.374409961711),$);
#135= IFCPROPERTYSINGLEVALUE('Bounds',$,IFCLABEL('((-15.662518225610256,-1.6176012717187405,-0.054871106442533346),(0.7918445747345686,21.6176012721844,0.3204488693368148))'),$);
#136= IFCPROPERTYSET('2xynZiAGb9gxhGsXepCyY9',$,'Misc',$,(#68,#69,#70,#71));
#137= IFCRELDEFINESBYPROPERTIES('36umRm1vb6deyZXL6FQ03q',$,$,$,(#124),#136);
#138= IFCPROPERTYSET('29ECeHvqv7rvJ6yZ4gOGWN',$,'3D Visualization',$,(#74,#76,#140));
#139= IFCRELDEFINESBYPROPERTIES('3trpmh_4f7wuqEdB80yd8_',$,$,$,(#124),#138);
#140= IFCPROPERTYSINGLEVALUE('Material',$,IFCLABEL('DRENAJE_GRANULAR_GENERICO'),$);
#141= IFCPROPERTYSET('0EnAfPWu1Dt8Cr2LNRP2wA',$,'General',$,(#79,#81,#82,#83,#84,#143));
#142= IFCRELDEFINESBYPROPERTIES('3FgGT$TQDBSP4Bf4O$4aYo',$,$,$,(#124),#141);
#143= IFCPROPERTYSINGLEVALUE('Layer',$,IFCLABEL('DRENAJE_SUPERESTRUCTURA_GRANULAR_e0.10m'),$);
#144= IFCPROPERTYSET('171H3v0WPARBpX_J_nw9M0',$,'Geometry',$,(#87));
#145= IFCRELDEFINESBYPROPERTIES('23PjXPOLDBSfww2Rojq2Ll',$,$,$,(#124),#144);
#146= IFCCARTESIANPOINTLIST3D(((-3.25,-10.0,-0.169041),(0.0,-10.0,-0.104041),(-3.25,-10.0,0.379359),(3.25,-10.0,0.379359),(3.25,-10.0,-0.169041),(0.0,10.0,-0.314359),(3.25,10.0,-0.379359),(-3.25,10.0,-0.379359),(-3.25,10.0,0.169041),(3.25,10.0,0.169041)));
#147= IFCTRIANGULATEDFACESET(#146,$,$,((1,2,3),(3,2,4),(4,2,5),(2,6,5),(5,6,7),(2,1,6),(6,1,8),(3,9,1),(1,9,8),(4,10,3),(3,10,9),(4,5,10),(10,5,7),(8,9,6),(6,9,10),(6,10,7)),$);
#148= IFCSHAPEREPRESENTATION(#19,'Body','Tessellation',(#147));
#149= IFCPRODUCTDEFINITIONSHAPE($,$,(#148));
#150= IFCCARTESIANPOINT((3.564663,11.0,0.42449));
#151= IFCAXIS2PLACEMENT3D(#150,$,$);
#152= IFCLOCALPLACEMENT(#5,#151);
#153= IFCCIVILELEMENT('0VYo9Z1JP3wPJGSy525ZJd',$,'BALASTO_SUPERESTRUCTURA_GRANULAR_e0.25m',$,$,#152,#149,'FD49');
#154= IFCMATERIAL('BALASTO_GRANULAR_GENERICO',$,$);
#155= IFCRELASSOCIATESMATERIAL('0i9WZatnzA$99C7$R3p6Lr',$,$,$,(#153,#316),#154);
#156= IFCCOLOURRGB('115,104,79',0.450980392156863,0.407843137254902,0.309803921568627);
#157= IFCSURFACESTYLESHADING(#156,$);
#158= IFCSURFACESTYLE($,.BOTH.,(#157));
#159= IFCPRESENTATIONLAYERWITHSTYLE('BALASTO_SUPERESTRUCTURA_GRANULAR_e0.25m',$,(#147,#310),$,.U.,.U.,.U.,(#158));
#160= IFCSTYLEDITEM(#147,(#158),'BALASTO_SUPERESTRUCTURA_GRANULAR_e0.25m');
#161= IFCPROPERTYSET('08MPKXAMHFgvB3eiHisirh',$,'Properties',$,(#39,#40,#41,#42,#43,#44,#45,#46,#47,#48,#49,#50,#51,#52,#53,#54,#55,#56,#57,#58,#59,#60,#61,#62,#64,#65,#163,#164));
#162= IFCRELDEFINESBYPROPERTIES('2y2eTLZFD74A8Tmk8i8lRe',$,$,$,(#153),#161);
#163= IFCPROPERTYSINGLEVALUE('Area',$,IFCREAL(288.683071742944),$);
#164= IFCPROPERTYSINGLEVALUE('Bounds',$,IFCLABEL('((-15.662418225314468,-1.6175514999777079,0.04513089355532429),(0.7917445711791515,21.61755150090903,0.8038488698107358))'),$);
#165= IFCPROPERTYSET('31bM4xB1b5CflebkGt_jCT',$,'Misc',$,(#68,#69,#70,#71));
#166= IFCRELDEFINESBYPROPERTIES('1xulZhJEr4J9nwkuOs_D1p',$,$,$,(#153),#165);
#167= IFCPROPERTYSET('1xKHconE558AkuZ0AJ5FPE',$,'3D Visualization',$,(#74,#76,#169));
#168= IFCRELDEFINESBYPROPERTIES('3XRvIZTvD1f9Z0uASE8VXj',$,$,$,(#153),#167);
#169= IFCPROPERTYSINGLEVALUE('Material',$,IFCLABEL('BALASTO_GRANULAR_GENERICO'),$);
#170= IFCPROPERTYSET('3P1woi0QfFQ9rf84Q83ReO',$,'General',$,(#79,#81,#82,#83,#84,#172));
#171= IFCRELDEFINESBYPROPERTIES('3Cf0hMmdv7ZQoixnltSWVn',$,$,$,(#153),#170);
#172= IFCPROPERTYSINGLEVALUE('Layer',$,IFCLABEL('BALASTO_SUPERESTRUCTURA_GRANULAR_e0.25m'),$);
#173= IFCPROPERTYSET('2EExc9riv3LOavkenjrySV',$,'Geometry',$,(#87));
#174= IFCRELDEFINESBYPROPERTIES('3PT9tq0XT4dBUs$yqzPQBH',$,$,$,(#153),#173);
#175= IFCCARTESIANPOINTLIST3D(((0.03455,-10.0,0.154759),(0.03455,-10.0,0.189309),(0.008638,-10.0,0.154759),(-0.03455,-10.0,0.189309),(-0.008637,-10.0,0.154759),(-0.03455,-10.0,0.154759),(0.008638,-10.0,0.048949),(-0.008637,-10.0,0.048949),(0.06985,-10.0,0.021009),(-0.06985,-10.0,0.021009),(-0.06985,-10.0,0.032185),(0.06985,-10.0,0.032185),(-0.06985,10.0,-0.178133),(-0.06985,10.0,-0.189309),(-0.008638,10.0,-0.161369),(-0.008638,10.0,-0.055559),(-0.03455,10.0,-0.055559),(-0.03455,10.0,-0.021009),(0.03455,10.0,-0.021009),(0.03455,10.0,-0.055559),(0.008637,10.0,-0.055559),(0.008637,10.0,-0.161369),(0.06985,10.0,-0.178133),(0.06985,10.0,-0.189309)));
#176= IFCTRIANGULATEDFACESET(#175,$,$,((1,2,3),(3,2,4),(3,4,5),(5,4,6),(3,5,7),(7,5,8),(7,8,9),(9,8,10),(10,8,11),(9,12,7),(11,13,10),(10,13,14),(8,15,11),(11,15,13),(5,16,8),(8,16,15),(6,17,5),(5,17,16),(4,18,6),(6,18,17),(4,2,18),(18,2,19),(2,1,19),(19,1,20),(1,3,20),(20,3,21),(3,7,21),(21,7,22),(7,12,22),(22,12,23),(12,9,23),(23,9,24),(9,10,24),(24,10,14),(14,15,24),(24,15,22),(24,22,23),(14,13,15),(22,15,21),(21,15,16),(21,16,18),(18,16,17),(18,19,21),(21,19,20)),$);
#177= IFCSHAPEREPRESENTATION(#19,'Body','Tessellation',(#176));
#178= IFCPRODUCTDEFINITIONSHAPE($,$,(#177));
#179= IFCCARTESIANPOINT((6.162428,11.0,0.787173));
#180= IFCAXIS2PLACEMENT3D(#179,$,$);
#181= IFCLOCALPLACEMENT(#5,#180);
#182= IFCCIVILELEMENT('2_9e9HOADDTh9nTfKioxAx',$,'RIEL_60R1_ACERO_a1435mm',$,$,#181,#178,'FD46');
#183= IFCMATERIAL('ACERO _ESTRUCTURAL_GENERICO',$,$);
#184= IFCRELASSOCIATESMATERIAL('3ZqZSivnj9mvY38US3SiRk',$,$,$,(#182,#211,#232,#253,#337,#358,#379,#400),#183);
#185= IFCCOLOURRGB('224,223,219',0.87843137254902,0.874509803921569,0.858823529411765);
#186= IFCSURFACESTYLESHADING(#185,$);
#187= IFCSURFACESTYLE($,.BOTH.,(#186));
#188= IFCPRESENTATIONLAYERWITHSTYLE('RIEL_60R1_ACERO_a1435mm',$,(#176,#205,#226,#247,#331,#352,#373,#394),$,.U.,.U.,.U.,(#187));
#189= IFCSTYLEDITEM(#176,(#187),'RIEL_60R1_ACERO_a1435mm');
#190= IFCPROPERTYSET('13UGJESpbEP8q6Jzbr$3WR',$,'Properties',$,(#39,#40,#41,#42,#43,#44,#45,#46,#47,#48,#49,#50,#51,#52,#53,#54,#55,#56,#57,#58,#59,#60,#61,#62,#64,#65,#192,#193));
#191= IFCRELDEFINESBYPROPERTIES('2nSeXglwjCOR_Y21EBoO5w',$,$,$,(#182),#190);
#192= IFCPROPERTYSINGLEVALUE('Area',$,IFCREAL(13.8272050758089),$);
#193= IFCPROPERTYSINGLEVALUE('Bounds',$,IFCLABEL('((-9.884503933601081,-0.0347649147734046,0.5978637807124869),(0.20935885095968843,20.034764914773405,0.9764817557893366))'),$);
#194= IFCPROPERTYSET('2cR2YnksXAu9mEl89U_Wc2',$,'Misc',$,(#68,#69,#70,#71));
#195= IFCRELDEFINESBYPROPERTIES('01lANrKp54DQoQIOnlT9xF',$,$,$,(#182),#194);
#196= IFCPROPERTYSET('0Pd5ymLKH4NfPQdxCc3p3p',$,'3D Visualization',$,(#74,#76,#198));
#197= IFCRELDEFINESBYPROPERTIES('2xTNVe35j01hmAPWikmJ3i',$,$,$,(#182),#196);
#198= IFCPROPERTYSINGLEVALUE('Material',$,IFCLABEL('ACERO _ESTRUCTURAL_GENERICO'),$);
#199= IFCPROPERTYSET('3mKucExO57xQYGLXubiixm',$,'General',$,(#79,#81,#82,#83,#84,#201));
#200= IFCRELDEFINESBYPROPERTIES('1_294hlmD4rxu410GSY1sP',$,$,$,(#182),#199);
#201= IFCPROPERTYSINGLEVALUE('Layer',$,IFCLABEL('RIEL_60R1_ACERO_a1435mm'),$);
#202= IFCPROPERTYSET('3mcF3cKkvCgPKJWvzHWOlp',$,'Geometry',$,(#87));
#203= IFCRELDEFINESBYPROPERTIES('27UGMFu8r5JhcwuEts7D0X',$,$,$,(#182),#202);
#204= IFCCARTESIANPOINTLIST3D(((0.06985,-10.0,0.021009),(0.008637,-10.0,0.048949),(-0.06985,-10.0,0.021009),(-0.008638,-10.0,0.048949),(-0.06985,-10.0,0.032185),(0.06985,-10.0,0.032185),(-0.008638,-10.0,0.154759),(0.008637,-10.0,0.154759),(-0.03455,-10.0,0.189309),(0.03455,-10.0,0.189309),(0.03455,-10.0,0.154759),(-0.03455,-10.0,0.154759),(-0.03455,10.0,-0.021009),(0.03455,10.0,-0.021009),(0.03455,10.0,-0.055559),(0.008637,10.0,-0.055559),(0.008637,10.0,-0.161369),(0.06985,10.0,-0.178133),(0.06985,10.0,-0.189309),(-0.06985,10.0,-0.189309),(-0.06985,10.0,-0.178133),(-0.008638,10.0,-0.161369),(-0.008638,10.0,-0.055559),(-0.03455,10.0,-0.055559)));
#205= IFCTRIANGULATEDFACESET(#204,$,$,((1,2,3),(3,2,4),(3,4,5),(1,6,2),(4,2,7),(7,2,8),(7,8,9),(9,8,10),(10,8,11),(9,12,7),(9,10,13),(13,10,14),(10,11,14),(14,11,15),(8,16,11),(11,16,15),(8,2,16),(16,2,17),(2,6,17),(17,6,18),(6,1,18),(18,1,19),(3,20,1),(1,20,19),(5,21,3),(3,21,20),(4,22,5),(5,22,21),(7,23,4),(4,23,22),(7,12,23),(23,12,24),(9,13,12),(12,13,24),(21,22,20),(20,22,17),(20,17,19),(19,17,18),(17,22,16),(16,22,23),(16,23,13),(13,23,24),(13,14,16),(16,14,15)),$);
#206= IFCSHAPEREPRESENTATION(#19,'Body','Tessellation',(#205));
#207= IFCPRODUCTDEFINITIONSHAPE($,$,(#206));
#208= IFCCARTESIANPOINT((4.658328,11.0,0.79184));
#209= IFCAXIS2PLACEMENT3D(#208,$,$);
#210= IFCLOCALPLACEMENT(#5,#209);
#211= IFCCIVILELEMENT('1sYWwXz$19puOKoJgPzx2$',$,'RIEL_60R1_ACERO_a1435mm',$,$,#210,#207,'FD43');
#212= IFCSTYLEDITEM(#205,(#187),'RIEL_60R1_ACERO_a1435mm');
#213= IFCPROPERTYSET('0k7_lSwQr6ZvTMs9ibkYEY',$,'Properties',$,(#39,#40,#41,#42,#43,#44,#45,#46,#47,#48,#49,#50,#51,#52,#53,#54,#55,#56,#57,#58,#59,#60,#61,#62,#64,#65,#215,#216));
#214= IFCRELDEFINESBYPROPERTIES('3T3ytODjjDgRPddGLfJvL1',$,$,$,(#211),#213);
#215= IFCPROPERTYSINGLEVALUE('Area',$,IFCREAL(13.8272050190457),$);
#216= IFCPROPERTYSINGLEVALUE('Bounds',$,IFCLABEL('((-11.388603933155537,-0.03476491570472717,0.6025308943703749),(-1.2947411453351378,20.034764914773405,0.9811488694585933))'),$);
#217= IFCPROPERTYSET('0E2MtjxTXCBP9Erylr4xig',$,'Misc',$,(#68,#69,#70,#71));
#218= IFCRELDEFINESBYPROPERTIES('3l1Ibq7eXBLRQHtKXgpFa0',$,$,$,(#211),#217);
#219= IFCPROPERTYSET('1XCOJwdVD7PhQ9N6ReR7kB',$,'3D Visualization',$,(#74,#76,#198));
#220= IFCRELDEFINESBYPROPERTIES('0cKMDAgEf3TuemEkLzseKx',$,$,$,(#211),#219);
#221= IFCPROPERTYSET('3i3OfdawLAEgQ4fe$T1ewr',$,'General',$,(#79,#81,#82,#83,#84,#201));
#222= IFCRELDEFINESBYPROPERTIES('0yM$buaPfEq84UGTN0nLUp',$,$,$,(#211),#221);
#223= IFCPROPERTYSET('01lDDqxkX8TBMFDnWUWB6U',$,'Geometry',$,(#87));
#224= IFCRELDEFINESBYPROPERTIES('0LH0$vcpX2FfM2BMDYCQu5',$,$,$,(#211),#223);
#225= IFCCARTESIANPOINTLIST3D(((0.03455,-10.0,0.154759),(0.03455,-10.0,0.189309),(0.008638,-10.0,0.154759),(-0.008637,-10.0,0.154759),(0.008638,-10.0,0.048949),(-0.008637,-10.0,0.048949),(0.06985,-10.0,0.021009),(-0.06985,-10.0,0.021009),(-0.06985,-10.0,0.032185),(-0.03455,-10.0,0.189309),(-0.03455,-10.0,0.154759),(0.06985,-10.0,0.032185),(-0.06985,10.0,-0.178133),(-0.06985,10.0,-0.189309),(-0.008638,10.0,-0.161369),(-0.008638,10.0,-0.055559),(-0.03455,10.0,-0.055559),(-0.03455,10.0,-0.021009),(0.03455,10.0,-0.021009),(0.03455,10.0,-0.055559),(0.008637,10.0,-0.055559),(0.008637,10.0,-0.161369),(0.06985,10.0,-0.178133),(0.06985,10.0,-0.189309)));
#226= IFCTRIANGULATEDFACESET(#225,$,$,((1,2,3),(3,2,4),(3,4,5),(5,4,6),(5,6,7),(7,6,8),(8,6,9),(2,10,4),(4,10,11),(7,12,5),(9,13,8),(8,13,14),(6,15,9),(9,15,13),(4,16,6),(6,16,15),(11,17,4),(4,17,16),(10,18,11),(11,18,17),(10,2,18),(18,2,19),(2,1,19),(19,1,20),(1,3,20),(20,3,21),(3,5,21),(21,5,22),(5,12,22),(22,12,23),(12,7,23),(23,7,24),(8,14,7),(7,14,24),(14,15,24),(24,15,22),(24,22,23),(14,13,15),(22,15,21),(21,15,16),(21,16,19),(19,16,18),(18,16,17),(19,20,21)),$);
#227= IFCSHAPEREPRESENTATION(#19,'Body','Tessellation',(#226));
#228= IFCPRODUCTDEFINITIONSHAPE($,$,(#227));
#229= IFCCARTESIANPOINT((2.566713,11.0,0.79184));
#230= IFCAXIS2PLACEMENT3D(#229,$,$);
#231= IFCLOCALPLACEMENT(#5,#230);
#232= IFCCIVILELEMENT('0Noncy_$j4Ph_npGqMFs6f',$,'RIEL_60R1_ACERO_a1435mm',$,$,#231,#228,'FD40');
#233= IFCSTYLEDITEM(#226,(#187),'RIEL_60R1_ACERO_a1435mm');
#234= IFCPROPERTYSET('2VautYkan1wP0dIR7E$6Ts',$,'Properties',$,(#39,#40,#41,#42,#43,#44,#45,#46,#47,#48,#49,#50,#51,#52,#53,#54,#55,#56,#57,#58,#59,#60,#61,#62,#64,#65,#236,#237));
#235= IFCRELDEFINESBYPROPERTIES('2ppvRAxYv1bPHegbQbcqCc',$,$,$,(#232),#234);
#236= IFCPROPERTYSINGLEVALUE('Area',$,IFCREAL(13.8272050365628),$);
#237= IFCPROPERTYSINGLEVALUE('Bounds',$,IFCLABEL('((-13.480218220036477,-0.034764913842082024,0.6025308940402283),(-3.3863554350100458,20.034764914773405,0.9811488691125305))'),$);
#238= IFCPROPERTYSET('2xidMLekL7JvvY7ZXQFGAs',$,'Misc',$,(#68,#69,#70,#71));
#239= IFCRELDEFINESBYPROPERTIES('35VhAMyjH9mwHF5ut2lJfG',$,$,$,(#232),#238);
#240= IFCPROPERTYSET('3WxSHV389Cxvgx7pxODdaN',$,'3D Visualization',$,(#74,#76,#198));
#241= IFCRELDEFINESBYPROPERTIES('1vFW$kHIr77B_noCJEY0wg',$,$,$,(#232),#240);
#242= IFCPROPERTYSET('2YcGHNTZHAkOKjq$TCxTzc',$,'General',$,(#79,#81,#82,#83,#84,#201));
#243= IFCRELDEFINESBYPROPERTIES('2$GMPOgm17dh$c4tvip4_5',$,$,$,(#232),#242);
#244= IFCPROPERTYSET('1LoeLkSYzAfevlAQGtcGlA',$,'Geometry',$,(#87));
#245= IFCRELDEFINESBYPROPERTIES('2uFz07bzvD2RcC9SMj2oWf',$,$,$,(#232),#244);
#246= IFCCARTESIANPOINTLIST3D(((0.06985,-10.0,0.021009),(0.008638,-10.0,0.048949),(-0.06985,-10.0,0.021009),(-0.008638,-10.0,0.048949),(-0.06985,-10.0,0.032185),(0.06985,-10.0,0.032185),(-0.008638,-10.0,0.154759),(0.008638,-10.0,0.154759),(-0.03455,-10.0,0.189309),(0.03455,-10.0,0.189309),(0.03455,-10.0,0.154759),(-0.03455,-10.0,0.154759),(-0.03455,10.0,-0.021009),(0.03455,10.0,-0.021009),(0.03455,10.0,-0.055559),(0.008637,10.0,-0.055559),(0.008637,10.0,-0.161369),(0.06985,10.0,-0.178133),(0.06985,10.0,-0.189309),(-0.06985,10.0,-0.189309),(-0.06985,10.0,-0.178133),(-0.008638,10.0,-0.161369),(-0.008638,10.0,-0.055559),(-0.03455,10.0,-0.055559)));
#247= IFCTRIANGULATEDFACESET(#246,$,$,((1,2,3),(3,2,4),(3,4,5),(1,6,2),(4,2,7),(7,2,8),(7,8,9),(9,8,10),(10,8,11),(9,12,7),(9,10,13),(13,10,14),(10,11,14),(14,11,15),(8,16,11),(11,16,15),(8,2,16),(16,2,17),(2,6,17),(17,6,18),(6,1,18),(18,1,19),(1,3,19),(19,3,20),(5,21,3),(3,21,20),(4,22,5),(5,22,21),(7,23,4),(4,23,22),(7,12,23),(23,12,24),(9,13,12),(12,13,24),(21,22,20),(20,22,17),(20,17,19),(19,17,18),(17,22,16),(16,22,23),(16,23,13),(13,23,24),(13,14,16),(16,14,15)),$);
#248= IFCSHAPEREPRESENTATION(#19,'Body','Tessellation',(#247));
#249= IFCPRODUCTDEFINITIONSHAPE($,$,(#248));
#250= IFCCARTESIANPOINT((1.158328,11.0,0.79184));
#251= IFCAXIS2PLACEMENT3D(#250,$,$);
#252= IFCLOCALPLACEMENT(#5,#251);
#253= IFCCIVILELEMENT('1jf0VvzYH6JhjG3mHe0W5O',$,'RIEL_60R1_ACERO_a1435mm',$,$,#252,#249,'FD3D');
#254= IFCSTYLEDITEM(#247,(#187),'RIEL_60R1_ACERO_a1435mm');
#255= IFCPROPERTYSET('15zlX87ZLB0PzlEAGfZ5O8',$,'Properties',$,(#39,#40,#41,#42,#43,#44,#45,#46,#47,#48,#49,#50,#51,#52,#53,#54,#55,#56,#57,#58,#59,#60,#61,#62,#64,#65,#257,#258));
#256= IFCRELDEFINESBYPROPERTIES('2YNp$vcWnALBPlMll91z_S',$,$,$,(#253),#255);
#257= IFCPROPERTYSINGLEVALUE('Area',$,IFCREAL(13.8272050567906),$);
#258= IFCPROPERTYSINGLEVALUE('Bounds',$,IFCLABEL('((-14.888603933155537,-0.034764915239065886,0.602530893796029),(-4.794741144869477,20.034764914773405,0.9811488688746977))'),$);
#259= IFCPROPERTYSET('36oLdAZOzAtOvlmXhPZnyq',$,'Misc',$,(#68,#69,#70,#71));
#260= IFCRELDEFINESBYPROPERTIES('1M2RsdVYfDDAIIaln9rwRW',$,$,$,(#253),#259);
#261= IFCPROPERTYSET('18sIvjG_b4HgrzJp89xfAp',$,'3D Visualization',$,(#74,#76,#198));
#262= IFCRELDEFINESBYPROPERTIES('0c_pVtxy56cB3joagauscS',$,$,$,(#253),#261);
#263= IFCPROPERTYSET('1qHVXxvlfFxALfurPgE5bA',$,'General',$,(#79,#81,#82,#83,#84,#201));
#264= IFCRELDEFINESBYPROPERTIES('1Xs21Crlz5uBlE$IjKDf79',$,$,$,(#253),#263);
#265= IFCPROPERTYSET('1rko2AzwT6YhyCYR25codv',$,'Geometry',$,(#87));
#266= IFCRELDEFINESBYPROPERTIES('0KHBBa_ez41gz6UFYdSr7$',$,$,$,(#253),#265);
#267= IFCCARTESIANPOINTLIST3D(((4.48685,-10.0,0.251595),(0.0,-10.0,0.3862),(4.48685,-10.0,-0.248405),(-4.48685,-10.0,0.251595),(-4.48685,-10.0,-0.248405),(-4.48685,10.0,0.1138),(-4.48685,10.0,-0.3862),(0.0,10.0,0.248405),(4.48685,10.0,0.1138),(4.48685,10.0,-0.3862)));
#268= IFCTRIANGULATEDFACESET(#267,$,$,((1,2,3),(3,2,4),(3,4,5),(4,6,5),(5,6,7),(2,8,4),(4,8,6),(2,1,8),(8,1,9),(1,3,9),(9,3,10),(5,7,3),(3,7,10),(10,7,9),(9,7,8),(8,7,6)),$);
#269= IFCSHAPEREPRESENTATION(#19,'Body','Tessellation',(#268));
#270= IFCPRODUCTDEFINITIONSHAPE($,$,(#269));
#271= IFCCARTESIANPOINT((20.794339,11.0,-0.304617));
#272= IFCAXIS2PLACEMENT3D(#271,$,$);
#273= IFCLOCALPLACEMENT(#5,#272);
#274= IFCCIVILELEMENT('0fFu5eYynAnR1o_7XDQXOJ',$,'SUBESTRUCTURA_QS3_GRANULAR_e0.50m',$,$,#273,#270,'FD2E');
#275= IFCSTYLEDITEM(#268,(#33),'SUBESTRUCTURA_QS3_GRANULAR_e0.50m');
#276= IFCPROPERTYSET('268TnZGOfEGBCWjswN9RIP',$,'Properties',$,(#39,#40,#41,#42,#43,#44,#45,#46,#47,#48,#49,#50,#51,#52,#53,#54,#55,#56,#57,#58,#59,#60,#61,#62,#64,#65,#278,#279));
#277= IFCRELDEFINESBYPROPERTIES('3inp0nvhL1dRSdUqcEii5L',$,$,$,(#274),#276);
#278= IFCPROPERTYSINGLEVALUE('Area',$,IFCREAL(389.218897675589),$);
#279= IFCPROPERTYSINGLEVALUE('Bounds',$,IFCLABEL('((2.350550056435168,-1.32673403294757,-0.6908168599206874),(17.23812762182206,21.32673403271474,0.0815835787807373))'),$);
#280= IFCPROPERTYSET('3YvTEfDej2QwjoChFhAuS_',$,'Misc',$,(#68,#69,#70,#71));
#281= IFCRELDEFINESBYPROPERTIES('3kU$dNaujFAB68ygvHXzyK',$,$,$,(#274),#280);
#282= IFCPROPERTYSET('1vhexLzz5ExQ1FYNjiZ44r',$,'3D Visualization',$,(#74,#75,#76));
#283= IFCRELDEFINESBYPROPERTIES('2pf2cIBML7y8QtbyNMmxJS',$,$,$,(#274),#282);
#284= IFCPROPERTYSET('1eOwchnSb2YfEY6qOIizyP',$,'General',$,(#79,#80,#81,#82,#83,#84));
#285= IFCRELDEFINESBYPROPERTIES('2zMbE36RnF2Q0aJWZtGuQ_',$,$,$,(#274),#284);
#286= IFCPROPERTYSET('0lM6Hjw_b8nvRa0pP$X2BM',$,'Geometry',$,(#87));
#287= IFCRELDEFINESBYPROPERTIES('2GSl8lXDzD1BCnY3gIYLZ6',$,$,$,(#274),#286);
#288= IFCCARTESIANPOINTLIST3D(((0.0,-10.0,0.3112),(-3.975268,-10.0,0.191942),(0.0,-10.0,-0.0388),(-3.975368,-10.0,0.191939),(-4.48685,-10.0,-0.173405),(4.48685,-10.0,-0.173405),(3.975368,-10.0,0.191939),(3.975268,-10.0,0.191942),(3.975368,10.0,0.054144),(4.48685,10.0,-0.3112),(0.0,10.0,-0.176595),(-4.48685,10.0,-0.3112),(-3.975368,10.0,0.054144),(-3.975268,10.0,0.054147),(0.0,10.0,0.173405),(3.975268,10.0,0.054147)));
#289= IFCTRIANGULATEDFACESET(#288,$,$,((1,2,3),(3,2,4),(3,4,5),(6,7,3),(3,7,8),(3,8,1),(7,6,9),(9,6,10),(3,11,6),(6,11,10),(3,5,11),(11,5,12),(4,13,5),(5,13,12),(2,14,4),(4,14,13),(1,15,2),(2,15,14),(1,8,15),(15,8,16),(8,7,16),(16,7,9),(13,14,11),(11,14,15),(11,15,16),(16,9,11),(11,9,10),(11,12,13)),$);
#290= IFCSHAPEREPRESENTATION(#19,'Body','Tessellation',(#289));
#291= IFCPRODUCTDEFINITIONSHAPE($,$,(#290));
#292= IFCCARTESIANPOINT((20.794339,11.0,0.120383));
#293= IFCAXIS2PLACEMENT3D(#292,$,$);
#294= IFCLOCALPLACEMENT(#5,#293);
#295= IFCCIVILELEMENT('1M76BqN_9158nL3WmaVkB3',$,'SUBBALASTO_SUPERESTRUCTURA_GRANULAR_e0.35m',$,$,#294,#291,'FD2B');
#296= IFCSTYLEDITEM(#289,(#100),'SUBBALASTO_SUPERESTRUCTURA_GRANULAR_e0.35m');
#297= IFCPROPERTYSET('1AJ7Ee375CqumQ8bESG0MN',$,'Properties',$,(#39,#40,#41,#42,#43,#44,#45,#46,#47,#48,#49,#50,#51,#52,#53,#54,#55,#56,#57,#58,#59,#60,#61,#62,#64,#65,#299,#300));
#298= IFCRELDEFINESBYPROPERTIES('3U$$qQ1Vv3wAE7Orcc3$yU',$,$,$,(#295),#297);
#299= IFCPROPERTYSINGLEVALUE('Area',$,IFCREAL(369.715494166996),$);
#300= IFCPROPERTYSINGLEVALUE('Bounds',$,IFCLABEL('((2.350550056435168,-1.3267340324819088,-0.1908168606446452),(17.238127620890737,21.326734032249078,0.4315835787820106))'),$);
#301= IFCPROPERTYSET('1CNPKzrRX2QfN14giqtgrm',$,'Misc',$,(#68,#69,#70,#71));
#302= IFCRELDEFINESBYPROPERTIES('1r7s_nDdH4IhLt55y61Y0c',$,$,$,(#295),#301);
#303= IFCPROPERTYSET('16HesGyjPE_9dGFKKlDjza',$,'3D Visualization',$,(#74,#76,#111));
#304= IFCRELDEFINESBYPROPERTIES('17OlrzEAD6ZuaLxZmNuoho',$,$,$,(#295),#303);
#305= IFCPROPERTYSET('0hussVO1XC08GRevic1Ire',$,'General',$,(#79,#81,#82,#83,#84,#114));
#306= IFCRELDEFINESBYPROPERTIES('0H2mf03jrA2elfE6pcxi9J',$,$,$,(#295),#305);
#307= IFCPROPERTYSET('2zm0PAWujAnw8ya1jHTVjD',$,'Geometry',$,(#87));
#308= IFCRELDEFINESBYPROPERTIES('3bPqSd_5nEGg2GKZbybV2X',$,$,$,(#295),#307);
#309= IFCCARTESIANPOINTLIST3D(((3.975268,-10.0,-0.223913),(3.1554,-10.0,0.361707),(0.0,-10.0,-0.104655),(-3.1554,-10.0,0.361707),(-3.975268,-10.0,-0.223913),(3.1554,10.0,0.223913),(-3.1554,10.0,0.223913),(3.975268,10.0,-0.361707),(0.0,10.0,-0.242449),(-3.975268,10.0,-0.361707)));
#310= IFCTRIANGULATEDFACESET(#309,$,$,((1,2,3),(3,2,4),(3,4,5),(2,6,4),(4,6,7),(2,1,6),(6,1,8),(3,9,1),(1,9,8),(3,5,9),(9,5,10),(4,7,5),(5,7,10),(10,7,9),(9,7,6),(9,6,8)),$);
#311= IFCSHAPEREPRESENTATION(#19,'Body','Tessellation',(#310));
#312= IFCPRODUCTDEFINITIONSHAPE($,$,(#311));
#313= IFCCARTESIANPOINT((20.794339,11.0,0.536238));
#314= IFCAXIS2PLACEMENT3D(#313,$,$);
#315= IFCLOCALPLACEMENT(#5,#314);
#316= IFCCIVILELEMENT('3znU1$Aej19hQ_nskSqwQ8',$,'BALASTO_SUPERESTRUCTURA_GRANULAR_e0.25m',$,$,#315,#312,'FD28');
#317= IFCSTYLEDITEM(#310,(#158),'BALASTO_SUPERESTRUCTURA_GRANULAR_e0.25m');
#318= IFCPROPERTYSET('0tOrtYLD5FwAmLEkbLjYs9',$,'Properties',$,(#39,#40,#41,#42,#43,#44,#45,#46,#47,#48,#49,#50,#51,#52,#53,#54,#55,#56,#57,#58,#59,#60,#61,#62,#64,#65,#320,#321));
#319= IFCRELDEFINESBYPROPERTIES('207kDShGT0NuoRbGC5WFaL',$,$,$,(#316),#318);
#320= IFCPROPERTYSINGLEVALUE('Area',$,IFCREAL(333.010773875848),$);
#321= IFCPROPERTYSINGLEVALUE('Bounds',$,IFCLABEL('((2.8621323136612773,-1.175462307408452,0.1745306077209534),(16.726545366458595,21.175462307408452,0.8979455787211919))'),$);
#322= IFCPROPERTYSET('2nV5U8sNXCqxHy2To$rXyJ',$,'Misc',$,(#68,#69,#70,#71));
#323= IFCRELDEFINESBYPROPERTIES('3VId$ilFnArfJxRcL2oCqw',$,$,$,(#316),#322);
#324= IFCPROPERTYSET('1texlbAWDFyBYWhIOZG_Rx',$,'3D Visualization',$,(#74,#76,#169));
#325= IFCRELDEFINESBYPROPERTIES('2CuLuxLo1BeeSXqHXMHGBD',$,$,$,(#316),#324);
#326= IFCPROPERTYSET('0TWloGwMj4iRAkRtQue1Pn',$,'General',$,(#79,#81,#82,#83,#84,#172));
#327= IFCRELDEFINESBYPROPERTIES('0uhd78U59FTODW6OdUOWYF',$,$,$,(#316),#326);
#328= IFCPROPERTYSET('3HKXFVWBH3zuBAiTN7zz7$',$,'Geometry',$,(#87));
#329= IFCRELDEFINESBYPROPERTIES('2vNGjeiRL2x8w54WpXqLHQ',$,$,$,(#316),#328);
#330= IFCCARTESIANPOINTLIST3D(((-0.0345,-10.0,0.153047),(-0.008625,-10.0,0.118547),(0.0345,-10.0,0.153047),(0.008625,-10.0,0.118547),(0.0345,-10.0,0.118547),(-0.0345,-10.0,0.118547),(0.008625,-10.0,0.012687),(-0.008625,-10.0,0.012687),(0.06985,-10.0,-0.015253),(-0.06985,-10.0,-0.015253),(-0.06985,-10.0,-0.004077),(0.06985,-10.0,-0.004077),(0.06985,10.0,-0.153047),(-0.06985,10.0,-0.153047),(-0.06985,10.0,-0.141871),(-0.008625,10.0,-0.125107),(-0.008625,10.0,-0.019247),(-0.0345,10.0,-0.019247),(-0.0345,10.0,0.015253),(0.0345,10.0,0.015253),(0.0345,10.0,-0.019247),(0.008625,10.0,-0.019247),(0.008625,10.0,-0.125107),(0.06985,10.0,-0.141871)));
#331= IFCTRIANGULATEDFACESET(#330,$,$,((1,2,3),(3,2,4),(3,4,5),(1,6,2),(4,2,7),(7,2,8),(7,8,9),(9,8,10),(10,8,11),(9,12,7),(9,10,13),(13,10,14),(11,15,10),(10,15,14),(8,16,11),(11,16,15),(2,17,8),(8,17,16),(6,18,2),(2,18,17),(1,19,6),(6,19,18),(3,20,1),(1,20,19),(3,5,20),(20,5,21),(4,22,5),(5,22,21),(4,7,22),(22,7,23),(7,12,23),(23,12,24),(12,9,24),(24,9,13),(21,22,20),(20,22,17),(20,17,19),(19,17,18),(17,22,16),(16,22,23),(16,23,14),(14,23,13),(13,23,24),(14,15,16)),$);
#332= IFCSHAPEREPRESENTATION(#19,'Body','Tessellation',(#331));
#333= IFCPRODUCTDEFINITIONSHAPE($,$,(#332));
#334= IFCCARTESIANPOINT((23.296339,11.0,0.922198));
#335= IFCAXIS2PLACEMENT3D(#334,$,$);
#336= IFCLOCALPLACEMENT(#5,#335);
#337= IFCCIVILELEMENT('1qPgAAbczCbQR5gVneXp6a',$,'RIEL_60R1_ACERO_a1435mm',$,$,#336,#333,'FD25');
#338= IFCSTYLEDITEM(#331,(#187),'RIEL_60R1_ACERO_a1435mm');
#339= IFCPROPERTYSET('2EAnXjVY50quTyGHTmrA7$',$,'Properties',$,(#39,#40,#41,#42,#43,#44,#45,#46,#47,#48,#49,#50,#51,#52,#53,#54,#55,#56,#57,#58,#59,#60,#61,#62,#64,#65,#341,#342));
#340= IFCRELDEFINESBYPROPERTIES('2$7bmZ6pb99AFsXxgCaj81',$,$,$,(#337),#339);
#341= IFCPROPERTYSINGLEVALUE('Area',$,IFCREAL(13.8239304807156),$);
#342= IFCPROPERTYSINGLEVALUE('Bounds',$,IFCLABEL('((9.26955037098378,-0.02065421547740698,0.7691506494884379),(15.323127309791744,20.020654215477407,1.075245578682825))'),$);
#343= IFCPROPERTYSET('3U_h6sWHLBPvNSK$RnxNkZ',$,'Misc',$,(#68,#69,#70,#71));
#344= IFCRELDEFINESBYPROPERTIES('3DF$ybZGT7gfdSxTGBmjDn',$,$,$,(#337),#343);
#345= IFCPROPERTYSET('2ZpjiXknH8qgKocMc5LoRn',$,'3D Visualization',$,(#74,#76,#198));
#346= IFCRELDEFINESBYPROPERTIES('2aIgg3ogT95fHYDKPkXUEH',$,$,$,(#337),#345);
#347= IFCPROPERTYSET('1d8$knfbT8F9VKfMfRJeKr',$,'General',$,(#79,#81,#82,#83,#84,#201));
#348= IFCRELDEFINESBYPROPERTIES('05Blp4oTz1rPhr63fxbrVZ',$,$,$,(#337),#347);
#349= IFCPROPERTYSET('0N6T5YyAH19xyiQN0l9RmK',$,'Geometry',$,(#87));
#350= IFCRELDEFINESBYPROPERTIES('1bUt_pk5f5KORjQqHot0Yq',$,$,$,(#337),#349);
#351= IFCCARTESIANPOINTLIST3D(((0.0345,-10.0,0.118547),(0.0345,-10.0,0.153047),(0.008625,-10.0,0.118547),(-0.0345,-10.0,0.153047),(-0.008625,-10.0,0.118547),(-0.0345,-10.0,0.118547),(0.008625,-10.0,0.012687),(-0.008625,-10.0,0.012687),(-0.06985,-10.0,-0.015253),(-0.06985,-10.0,-0.004077),(0.06985,-10.0,-0.015253),(0.06985,-10.0,-0.004077),(-0.06985,10.0,-0.153047),(0.06985,10.0,-0.153047),(-0.06985,10.0,-0.141871),(-0.008625,10.0,-0.125107),(-0.008625,10.0,-0.019247),(-0.0345,10.0,-0.019247),(-0.0345,10.0,0.015253),(0.008625,10.0,-0.125107),(0.06985,10.0,-0.141871),(0.008625,10.0,-0.019247),(0.0345,10.0,-0.019247),(0.0345,10.0,0.015253)));
#352= IFCTRIANGULATEDFACESET(#351,$,$,((1,2,3),(3,2,4),(3,4,5),(5,4,6),(3,5,7),(7,5,8),(7,8,9),(9,8,10),(9,11,7),(7,11,12),(9,13,11),(11,13,14),(10,15,9),(9,15,13),(8,16,10),(10,16,15),(5,17,8),(8,17,16),(5,6,17),(17,6,18),(4,19,6),(6,19,18),(7,12,20),(20,12,21),(3,22,1),(1,22,23),(4,2,19),(19,2,24),(3,7,22),(22,7,20),(2,1,24),(24,1,23),(12,11,21),(21,11,14),(21,14,20),(20,14,13),(20,13,16),(16,13,15),(20,16,22),(22,16,17),(22,17,19),(19,17,18),(19,24,22),(22,24,23)),$);
#353= IFCSHAPEREPRESENTATION(#19,'Body','Tessellation',(#352));
#354= IFCPRODUCTDEFINITIONSHAPE($,$,(#353));
#355= IFCCARTESIANPOINT((21.792339,11.0,0.922198));
#356= IFCAXIS2PLACEMENT3D(#355,$,$);
#357= IFCLOCALPLACEMENT(#5,#356);
#358= IFCCIVILELEMENT('3FV$qrUxf6YBwf6OYl5IHI',$,'RIEL_60R1_ACERO_a1435mm',$,$,#357,#354,'FD22');
#359= IFCSTYLEDITEM(#352,(#187),'RIEL_60R1_ACERO_a1435mm');
#360= IFCPROPERTYSET('0B3LDDZ4LD3RnoxVN2Vkr6',$,'Properties',$,(#39,#40,#41,#42,#43,#44,#45,#46,#47,#48,#49,#50,#51,#52,#53,#54,#55,#56,#57,#58,#59,#60,#61,#62,#64,#65,#362,#363));
#361= IFCRELDEFINESBYPROPERTIES('0dnrN$pHvCzRjdKCwva84b',$,$,$,(#358),#360);
#362= IFCPROPERTYSINGLEVALUE('Area',$,IFCREAL(13.823930443502),$);
#363= IFCPROPERTYSINGLEVALUE('Bounds',$,IFCLABEL('((7.765550371259451,-0.020654215943068266,0.7691506494911664),(13.819127309136093,20.02065421594307,1.0752455786869177))'),$);
#364= IFCPROPERTYSET('0Gbup4XdD8whsVOSQzNB8O',$,'Misc',$,(#68,#69,#70,#71));
#365= IFCRELDEFINESBYPROPERTIES('315$qf4Aj3MxpwVgkGMuQD',$,$,$,(#358),#364);
#366= IFCPROPERTYSET('0spj6gfMfEtAaWTQzyjUkH',$,'3D Visualization',$,(#74,#76,#198));
#367= IFCRELDEFINESBYPROPERTIES('0l$0zcuV5FXg1FVH5zL64P',$,$,$,(#358),#366);
#368= IFCPROPERTYSET('09yUHB3SXENPWQPb9Cvywr',$,'General',$,(#79,#81,#82,#83,#84,#201));
#369= IFCRELDEFINESBYPROPERTIES('0XaM9_6A54eBCcmu$CGaVB',$,$,$,(#358),#368);
#370= IFCPROPERTYSET('2phkK2VT5B794$lwkq9xeq',$,'Geometry',$,(#87));
#371= IFCRELDEFINESBYPROPERTIES('2zfOzlZx1BZwnx6BaHMjTz',$,$,$,(#358),#370);
#372= IFCCARTESIANPOINTLIST3D(((-0.0345,-10.0,0.153047),(-0.008625,-10.0,0.118547),(0.0345,-10.0,0.153047),(0.008625,-10.0,0.118547),(0.0345,-10.0,0.118547),(-0.0345,-10.0,0.118547),(0.008625,-10.0,0.012687),(-0.008625,-10.0,0.012687),(0.06985,-10.0,-0.015253),(-0.06985,-10.0,-0.015253),(-0.06985,-10.0,-0.004077),(0.06985,-10.0,-0.004077),(-0.06985,10.0,-0.153047),(0.06985,10.0,-0.153047),(-0.06985,10.0,-0.141871),(-0.008625,10.0,-0.125107),(-0.008625,10.0,-0.019247),(-0.0345,10.0,-0.019247),(-0.0345,10.0,0.015253),(0.0345,10.0,0.015253),(0.0345,10.0,-0.019247),(0.008625,10.0,-0.019247),(0.008625,10.0,-0.125107),(0.06985,10.0,-0.141871)));
#373= IFCTRIANGULATEDFACESET(#372,$,$,((1,2,3),(3,2,4),(3,4,5),(1,6,2),(4,2,7),(7,2,8),(7,8,9),(9,8,10),(10,8,11),(9,12,7),(10,13,9),(9,13,14),(11,15,10),(10,15,13),(8,16,11),(11,16,15),(2,17,8),(8,17,16),(6,18,2),(2,18,17),(1,19,6),(6,19,18),(1,3,19),(19,3,20),(3,5,20),(20,5,21),(5,4,21),(21,4,22),(4,7,22),(22,7,23),(7,12,23),(23,12,24),(12,9,24),(24,9,14),(21,22,20),(20,22,17),(20,17,19),(19,17,18),(17,22,16),(16,22,23),(16,23,14),(14,23,24),(14,13,16),(16,13,15)),$);
#374= IFCSHAPEREPRESENTATION(#19,'Body','Tessellation',(#373));
#375= IFCPRODUCTDEFINITIONSHAPE($,$,(#374));
#376= IFCCARTESIANPOINT((19.796339,11.0,0.922198));
#377= IFCAXIS2PLACEMENT3D(#376,$,$);
#378= IFCLOCALPLACEMENT(#5,#377);
#379= IFCCIVILELEMENT('2GvUySnfv4luXisKTggC3v',$,'RIEL_60R1_ACERO_a1435mm',$,$,#378,#375,'FD1F');
#380= IFCSTYLEDITEM(#373,(#187),'RIEL_60R1_ACERO_a1435mm');
#381= IFCPROPERTYSET('1bwMLw0f523h5pvJ9li805',$,'Properties',$,(#39,#40,#41,#42,#43,#44,#45,#46,#47,#48,#49,#50,#51,#52,#53,#54,#55,#56,#57,#58,#59,#60,#61,#62,#64,#65,#383,#384));
#382= IFCRELDEFINESBYPROPERTIES('3WbMHR9vT0LASN8tOXkKWH',$,$,$,(#379),#381);
#383= IFCPROPERTYSINGLEVALUE('Area',$,IFCREAL(13.8239304434063),$);
#384= IFCPROPERTYSINGLEVALUE('Bounds',$,IFCLABEL('((5.769550372846425,-0.02065421547740698,0.7691506495093563),(11.823127308860421,20.020654215477407,1.0752455787014696))'),$);
#385= IFCPROPERTYSET('11LOoWdcD6nPgvnz6u2SSP',$,'Misc',$,(#68,#69,#70,#71));
#386= IFCRELDEFINESBYPROPERTIES('2c_YO0Vr18Ow7K8YV8wqCi',$,$,$,(#379),#385);
#387= IFCPROPERTYSET('3doYF2XwD8lwLwyPCqGZS6',$,'3D Visualization',$,(#74,#76,#198));
#388= IFCRELDEFINESBYPROPERTIES('2v$JNkKXD3yOBrSXcJBiZP',$,$,$,(#379),#387);
#389= IFCPROPERTYSET('19jDX6zyn0zBYQQXX6jfVZ',$,'General',$,(#79,#81,#82,#83,#84,#201));
#390= IFCRELDEFINESBYPROPERTIES('2fj9k7Ql571APtourhwWu9',$,$,$,(#379),#389);
#391= IFCPROPERTYSET('0kWo0XUBn8gBtRsMLA5jZu',$,'Geometry',$,(#87));
#392= IFCRELDEFINESBYPROPERTIES('3F54q7pYbFkQ8m69W$oSLa',$,$,$,(#379),#391);
#393= IFCCARTESIANPOINTLIST3D(((0.0345,-10.0,0.118547),(0.0345,-10.0,0.153047),(0.008625,-10.0,0.118547),(-0.0345,-10.0,0.153047),(-0.008625,-10.0,0.118547),(-0.0345,-10.0,0.118547),(0.008625,-10.0,0.012687),(-0.008625,-10.0,0.012687),(-0.06985,-10.0,-0.015253),(-0.06985,-10.0,-0.004077),(0.06985,-10.0,-0.015253),(0.06985,-10.0,-0.004077),(0.06985,10.0,-0.153047),(-0.06985,10.0,-0.153047),(-0.06985,10.0,-0.141871),(-0.008625,10.0,-0.125107),(-0.008625,10.0,-0.019247),(-0.0345,10.0,-0.019247),(-0.0345,10.0,0.015253),(0.008625,10.0,-0.125107),(0.06985,10.0,-0.141871),(0.008625,10.0,-0.019247),(0.0345,10.0,-0.019247),(0.0345,10.0,0.015253)));
#394= IFCTRIANGULATEDFACESET(#393,$,$,((1,2,3),(3,2,4),(3,4,5),(5,4,6),(3,5,7),(7,5,8),(7,8,9),(9,8,10),(9,11,7),(7,11,12),(11,9,13),(13,9,14),(10,15,9),(9,15,14),(8,16,10),(10,16,15),(5,17,8),(8,17,16),(6,18,5),(5,18,17),(4,19,6),(6,19,18),(7,12,20),(20,12,21),(3,22,1),(1,22,23),(2,24,4),(4,24,19),(3,7,22),(22,7,20),(2,1,24),(24,1,23),(12,11,21),(21,11,13),(21,13,20),(20,13,14),(20,14,16),(16,14,15),(20,16,22),(22,16,17),(22,17,19),(19,17,18),(19,24,22),(22,24,23)),$);
#395= IFCSHAPEREPRESENTATION(#19,'Body','Tessellation',(#394));
#396= IFCPRODUCTDEFINITIONSHAPE($,$,(#395));
#397= IFCCARTESIANPOINT((18.292339,11.0,0.922198));
#398= IFCAXIS2PLACEMENT3D(#397,$,$);
#399= IFCLOCALPLACEMENT(#5,#398);
#400= IFCCIVILELEMENT('2eZ2Q6gVf4Nem8VVOJoLhU',$,'RIEL_60R1_ACERO_a1435mm',$,$,#399,#396,'FD1C');
#401= IFCSTYLEDITEM(#394,(#187),'RIEL_60R1_ACERO_a1435mm');
#402= IFCPROPERTYSET('1nH$ZqUgPDGRUUkDJvr1Nm',$,'Properties',$,(#39,#40,#41,#42,#43,#44,#45,#46,#47,#48,#49,#50,#51,#52,#53,#54,#55,#56,#57,#58,#59,#60,#61,#62,#64,#65,#404,#405));
#403= IFCRELDEFINESBYPROPERTIES('3Jjca2FKzEgw$TSLP8wXzB',$,$,$,(#400),#402);
#404= IFCPROPERTYSINGLEVALUE('Area',$,IFCREAL(13.8239304618333),$);
#405= IFCPROPERTYSINGLEVALUE('Bounds',$,IFCLABEL('((4.265550370328128,-0.02065421617589891,0.7691506495102658),(10.319127310067415,20.02065421594307,1.0752455787105646))'),$);
#406= IFCPROPERTYSET('2luC7CySzBZPK2ZwltmiyS',$,'Misc',$,(#68,#69,#70,#71));
#407= IFCRELDEFINESBYPROPERTIES('0u3fjlsujBaRkx5l8a$4wW',$,$,$,(#400),#406);
#408= IFCPROPERTYSET('3m3zb8M3X7FwIc4vaOO6SD',$,'3D Visualization',$,(#74,#76,#198));
#409= IFCRELDEFINESBYPROPERTIES('3m17drHnP50B0VCn$BfCEV',$,$,$,(#400),#408);
#410= IFCPROPERTYSET('3f2yqybQj4aR06clWqhQ4j',$,'General',$,(#79,#81,#82,#83,#84,#201));
#411= IFCRELDEFINESBYPROPERTIES('1d68ZAHjzBsfo_obNK_lCc',$,$,$,(#400),#410);
#412= IFCPROPERTYSET('3waUHnWr933RxW64UR3DzC',$,'Geometry',$,(#87));
#413= IFCRELDEFINESBYPROPERTIES('3UKCYnUJ96yRlAzV5DNjOD',$,$,$,(#400),#412);
#414= IFCORGANIZATION($,'EGIS',$,$,$);
ENDSEC;

END-ISO-10303-21;
