ISO-10303-21;
HEADER;
FILE_DESCRIPTION(('ViewDefinition [Alignment-basedView]'),'2;1');
FILE_NAME(
/* name */ 'C:\\Users\\a.hernandez\\OneDrive - EGIS Group\\Documents\\APPS\\Reporte-ifc-LOD\\reporte-ifc-lod-main\\models\\IFC\\IfcCourse.BALLASTBED.ifc',
/* time_stamp */ '2026-03-22T21:04:01',
/* author */ ('a.hernandez'),
/* organization */ ('EGIS'),
/* preprocessor_version */ 'GeometryGymIFCcore v25.2.25.0 by Geometry Gym Pty Ltd built 2025-02-25T08:37:52',
/* originating_system */ 'Autodesk - Civil 3D 2026 IfcInfra Plugin - 13.8.378.0',
/* authorization */ 'None'
);

FILE_SCHEMA (('IFC4X3_ADD2'));
ENDSEC;

DATA;
#1= IFCORGANIZATION($,'Autodesk',$,$,$);
#2= IFCAPPLICATION(#1,'Civil 3D 2026','Civil 3D','Autodesk - Civil 3D 2026 IfcInfra Plugin - 13.8.378.0');
#3= IFCCARTESIANPOINT((-11.0,-1.0,0.0));
#4= IFCAXIS2PLACEMENT3D(#3,$,$);
#5= IFCLOCALPLACEMENT($,#4);
#6= IFCSITE('1xq3Jx7v1Ei9VLtRWhcAGA',$,'UnknownName',$,$,#5,$,$,$,$,$,$,$,$);
#9= IFCSIUNIT(*,.LENGTHUNIT.,$,.METRE.);
#10= IFCSIUNIT(*,.AREAUNIT.,$,.SQUARE_METRE.);
#11= IFCSIUNIT(*,.VOLUMEUNIT.,$,.CUBIC_METRE.);
#12= IFCSIUNIT(*,.PLANEANGLEUNIT.,$,.RADIAN.);
#13= IFCPROJECT('0wa231yDfCXxnarg_pvOe8',#17,'Unknown',$,$,$,$,(#20),#18);
#14= IFCPERSON('a.hernandez',$,$,$,$,$,$,$);
#15= IFCORGANIZATION($,'EGIS',$,$,$);
#16= IFCPERSONANDORGANIZATION(#14,#15,$);
#17= IFCOWNERHISTORY(#16,#2,$,.ADDED.,1774231441,$,$,1774231441);
#18= IFCUNITASSIGNMENT((#9,#10,#11,#12));
#19= IFCRELAGGREGATES('2$7AE_vACS8ubTDmUZJtKb',$,$,$,#13,(#6));
#20= IFCGEOMETRICREPRESENTATIONCONTEXT('3D','Model',3,0.0001,#22,#23);
#21= IFCCARTESIANPOINT((0.0,0.0,0.0));
#22= IFCAXIS2PLACEMENT3D(#21,$,$);
#23= IFCDIRECTION((0.0,1.0));
#24= IFCGEOMETRICREPRESENTATIONSUBCONTEXT('Body','Model',*,*,*,*,#20,$,.MODEL_VIEW.,$);
#25= IFCCARTESIANPOINTLIST3D(((3.2502,-10.0,0.322657),(0.0,-10.0,0.387661),(3.2502,-10.0,-0.177343),(-3.2502,-10.0,-0.177343),(-3.2502,-10.0,0.322657),(0.0,10.0,0.177343),(-3.2502,10.0,0.112339),(3.2502,10.0,0.112339),(3.2502,10.0,-0.387661),(-3.2502,10.0,-0.387661)),$);
#26= IFCTRIANGULATEDFACESET(#25,$,$,((1,2,3),(3,2,4),(4,2,5),(2,6,5),(5,6,7),(2,1,6),(6,1,8),(1,3,8),(8,3,9),(3,4,9),(9,4,10),(5,7,4),(4,7,10),(8,9,6),(6,9,10),(6,10,7)),$);
#27= IFCSHAPEREPRESENTATION(#24,'Body','Tessellation',(#26));
#28= IFCPRODUCTDEFINITIONSHAPE($,$,(#27));
#29= IFCCARTESIANPOINT((3.564663,11.0,-0.517212));
#30= IFCAXIS2PLACEMENT3D(#29,$,$);
#31= IFCLOCALPLACEMENT(#5,#30);
#32= IFCCOURSE('0AxqsYMdb8Lez3q6ZBRq7A',$,'SUBESTRUCTURA_QS3_GRANULAR_e0.50m',$,'BASE',#31,#28,'FD52',.USERDEFINED.);
#33= IFCRELCONTAINEDINSPATIALSTRUCTURE('1qZxRkEmsvzp0ZV4l$EVCk',$,'Site','Site Container for Elements',(#32,#100,#129,#158,#280,#301,#322),#6);
#34= IFCMATERIAL('SUBESTRUCTURA_GRANULAR_GENERICO',$,$);
#35= IFCRELASSOCIATESMATERIAL('3KeBgJo1j4WAnkL9ZX8hIP',$,$,$,(#32,#280),#34);
#36= IFCCOLOURRGB('104,110,102',0.407843137254902,0.431372549019608,0.4);
#37= IFCSURFACESTYLESHADING(#36,$);
#38= IFCSURFACESTYLE($,.BOTH.,(#37));
#39= IFCPRESENTATIONLAYERWITHSTYLE('SUBESTRUCTURA_QS3_GRANULAR_e0.50m',$,(#26,#274),$,.U.,.U.,.U.,(#38));
#40= IFCSTYLEDITEM(#26,(#38),'SUBESTRUCTURA_QS3_GRANULAR_e0.50m');
#41= IFCPROPERTYSET('1ltELi3q50sQqnvJbnUSCJ',$,'Properties',$,(#43,#44,#45,#46,#47,#48,#49,#50,#51,#52,#53,#54,#55,#56,#57,#58,#59,#60,#61,#62,#63,#64,#65,#66,#67,#68,#69,#70));
#42= IFCRELDEFINESBYPROPERTIES('3mG2nyo8XECgsM7k664hFL',$,$,$,(#32),#41);
#43= IFCPROPERTYSINGLEVALUE('Area',$,IFCREAL(286.979326868833),$);
#44= IFCPROPERTYSINGLEVALUE('IsNull',$,IFCBOOLEAN(.F.),$);
#45= IFCPROPERTYSINGLEVALUE('NumChanges',$,IFCINTEGER(2),$);
#46= IFCPROPERTYSINGLEVALUE('RecordHistory',$,IFCBOOLEAN(.T.),$);
#47= IFCPROPERTYSINGLEVALUE('ShowHistory',$,IFCBOOLEAN(.T.),$);
#48= IFCPROPERTYSINGLEVALUE('UsesGraphicsCache',$,IFCBOOLEAN(.T.),$);
#49= IFCPROPERTYSINGLEVALUE('CloneMeForDragging',$,IFCBOOLEAN(.T.),$);
#50= IFCPROPERTYSINGLEVALUE('ForceAnnoAllVisible',$,IFCBOOLEAN(.T.),$);
#51= IFCPROPERTYSINGLEVALUE('HasSaveVersionOverride',$,IFCBOOLEAN(.F.),$);
#52= IFCPROPERTYSINGLEVALUE('IsCancelling',$,IFCBOOLEAN(.F.),$);
#53= IFCPROPERTYSINGLEVALUE('IsErased',$,IFCBOOLEAN(.F.),$);
#54= IFCPROPERTYSINGLEVALUE('IsEraseStatusToggled',$,IFCBOOLEAN(.F.),$);
#55= IFCPROPERTYSINGLEVALUE('IsModified',$,IFCBOOLEAN(.T.),$);
#56= IFCPROPERTYSINGLEVALUE('IsModifiedGraphics',$,IFCBOOLEAN(.T.),$);
#57= IFCPROPERTYSINGLEVALUE('IsModifiedXData',$,IFCBOOLEAN(.F.),$);
#58= IFCPROPERTYSINGLEVALUE('IsNewObject',$,IFCBOOLEAN(.F.),$);
#59= IFCPROPERTYSINGLEVALUE('IsNotifyEnabled',$,IFCBOOLEAN(.F.),$);
#60= IFCPROPERTYSINGLEVALUE('IsNotifying',$,IFCBOOLEAN(.F.),$);
#61= IFCPROPERTYSINGLEVALUE('IsObjectIdsInFlux',$,IFCBOOLEAN(.F.),$);
#62= IFCPROPERTYSINGLEVALUE('IsPersistent',$,IFCBOOLEAN(.T.),$);
#63= IFCPROPERTYSINGLEVALUE('IsReadEnabled',$,IFCBOOLEAN(.T.),$);
#64= IFCPROPERTYSINGLEVALUE('IsReallyClosing',$,IFCBOOLEAN(.F.),$);
#65= IFCPROPERTYSINGLEVALUE('IsTransactionResident',$,IFCBOOLEAN(.T.),$);
#66= IFCPROPERTYSINGLEVALUE('IsUndoing',$,IFCBOOLEAN(.F.),$);
#67= IFCPROPERTYSINGLEVALUE('IsWriteEnabled',$,IFCBOOLEAN(.T.),$);
#68= IFCPROPERTYSINGLEVALUE('Bounds',$,IFCLABEL('((-15.662618229631335,-1.6176510443910956,-0.9048731065254287),(0.7919445782899857,21.617651045322418,-0.12955113065436308))'),$);
#69= IFCPROPERTYSINGLEVALUE('AutoDelete',$,IFCBOOLEAN(.F.),$);
#70= IFCPROPERTYSINGLEVALUE('IsDisposed',$,IFCBOOLEAN(.F.),$);
#71= IFCPROPERTYSET('3LsZZY9Zn4NP1S3fJrnoZI',$,'Misc',$,(#73,#74,#75,#76));
#72= IFCRELDEFINESBYPROPERTIES('1yjPuApgPFkvbfw7YAUkao',$,$,$,(#32),#71);
#73= IFCPROPERTYSINGLEVALUE('BlockName',$,IFCLABEL('*Model_Space'),$);
#74= IFCPROPERTYSINGLEVALUE('ClassID',$,IFCLABEL('4ca6aa08-5011-4525-8c44-7fb7c2190cb8'),$);
#75= IFCPROPERTYSINGLEVALUE('HasFields',$,IFCBOOLEAN(.F.),$);
#76= IFCPROPERTYSINGLEVALUE('IsAProxy',$,IFCBOOLEAN(.F.),$);
#77= IFCPROPERTYSET('13_fy13r5DpQTUEi5CGStx',$,'3D Visualization',$,(#79,#80,#81));
#78= IFCRELDEFINESBYPROPERTIES('3MONkacCfAfxetGHHhp4_4',$,$,$,(#32),#77);
#79= IFCPROPERTYSINGLEVALUE('CastShadows',$,IFCBOOLEAN(.T.),$);
#80= IFCPROPERTYSINGLEVALUE('Material',$,IFCLABEL('SUBESTRUCTURA_GRANULAR_GENERICO'),$);
#81= IFCPROPERTYSINGLEVALUE('ReceiveShadows',$,IFCBOOLEAN(.T.),$);
#82= IFCPROPERTYSET('3320kZXqrBMQ0ImGr8Fcaf',$,'General',$,(#84,#85,#86,#87,#88,#89));
#83= IFCRELDEFINESBYPROPERTIES('29rxYdRK59yuercJu52WCo',$,$,$,(#32),#82);
#84= IFCPROPERTYSINGLEVALUE('ColorIndex',$,IFCINTEGER(256),$);
#85= IFCPROPERTYSINGLEVALUE('Layer',$,IFCLABEL('SUBESTRUCTURA_QS3_GRANULAR_e0.50m'),$);
#86= IFCPROPERTYSINGLEVALUE('Linetype',$,IFCLABEL('ByLayer'),$);
#87= IFCPROPERTYSINGLEVALUE('LinetypeScale',$,IFCREAL(1.0),$);
#88= IFCPROPERTYSINGLEVALUE('PlotStyleName',$,IFCLABEL('ByLayer'),$);
#89= IFCPROPERTYSINGLEVALUE('Visible',$,IFCBOOLEAN(.T.),$);
#90= IFCPROPERTYSET('0oSXaRhIv7oOMvKRFBzhqz',$,'Geometry',$,(#92));
#91= IFCRELDEFINESBYPROPERTIES('3y3$JcnAv42upS_m5JmSb0',$,$,$,(#32),#90);
#92= IFCPROPERTYSINGLEVALUE('IsPlanar',$,IFCBOOLEAN(.F.),$);
#93= IFCCARTESIANPOINTLIST3D(((3.2502,-10.0,0.247657),(3.2501,-10.0,0.247659),(3.2502,-10.0,-0.102343),(0.0,-10.0,-0.037339),(0.0,-10.0,0.312661),(-3.2501,-10.0,0.247659),(-3.2502,-10.0,0.247657),(-3.2502,-10.0,-0.102343),(-3.2501,10.0,0.037341),(-3.2502,10.0,0.037339),(0.0,10.0,0.102343),(3.2501,10.0,0.037341),(3.2502,10.0,0.037339),(3.2502,10.0,-0.312661),(0.0,10.0,-0.247657),(-3.2502,10.0,-0.312661)),$);
#94= IFCTRIANGULATEDFACESET(#93,$,$,((1,2,3),(3,2,4),(4,2,5),(4,5,6),(7,8,6),(6,8,4),(6,9,7),(7,9,10),(5,11,6),(6,11,9),(5,2,11),(11,2,12),(2,1,12),(12,1,13),(1,3,13),(13,3,14),(4,15,3),(3,15,14),(4,8,15),(15,8,16),(7,10,8),(8,10,16),(13,14,12),(12,14,15),(12,15,11),(11,15,9),(9,15,16),(9,16,10)),$);
#95= IFCSHAPEREPRESENTATION(#24,'Body','Tessellation',(#94));
#96= IFCPRODUCTDEFINITIONSHAPE($,$,(#95));
#97= IFCCARTESIANPOINT((3.564663,11.0,-0.092212));
#98= IFCAXIS2PLACEMENT3D(#97,$,$);
#99= IFCLOCALPLACEMENT(#5,#98);
#100= IFCCOURSE('2LBaqHuxT17feywGJF98qs',$,'SUBBALASTO_SUPERESTRUCTURA_GRANULAR_e0.35m',$,'SUBBALLASTBED',#99,#96,'FD4F',.USERDEFINED.);
#101= IFCMATERIAL('SUBBALASTO_GRANULAR_GENERICO',$,$);
#102= IFCRELASSOCIATESMATERIAL('3Mx_M_orr1K8QLlg9jQx9e',$,$,$,(#100,#301),#101);
#103= IFCCOLOURRGB('80,80,80',0.313725490196078,0.313725490196078,0.313725490196078);
#104= IFCSURFACESTYLESHADING(#103,$);
#105= IFCSURFACESTYLE($,.BOTH.,(#104));
#106= IFCPRESENTATIONLAYERWITHSTYLE('SUBBALASTO_SUPERESTRUCTURA_GRANULAR_e0.35m',$,(#94,#295),$,.U.,.U.,.U.,(#105));
#107= IFCSTYLEDITEM(#94,(#105),'SUBBALASTO_SUPERESTRUCTURA_GRANULAR_e0.35m');
#108= IFCPROPERTYSET('3yLz6Lm7n8KAwIk9BuEHKN',$,'Properties',$,(#44,#45,#46,#47,#48,#49,#50,#51,#52,#53,#54,#55,#56,#57,#58,#59,#60,#61,#62,#63,#64,#65,#66,#67,#69,#70,#110,#111));
#109= IFCRELDEFINESBYPROPERTIES('37O$Q6yCf0wuIpzM4IzEIt',$,$,$,(#100),#108);
#110= IFCPROPERTYSINGLEVALUE('Area',$,IFCREAL(278.632652196306),$);
#111= IFCPROPERTYSINGLEVALUE('Bounds',$,IFCLABEL('((-15.662618229631335,-1.6176510443910956,-0.4048731065126958),(0.7919445782899857,21.617651044856757,0.22044886933827001))'),$);
#112= IFCPROPERTYSET('0KHtTpBCP8qPvW_it06Wdu',$,'Misc',$,(#73,#74,#75,#76));
#113= IFCRELDEFINESBYPROPERTIES('3aYz8H8z5EZec7KhN6zzXT',$,$,$,(#100),#112);
#114= IFCPROPERTYSET('2Mz0e3Uc1Bb9au0zYEkr4J',$,'3D Visualization',$,(#79,#81,#116));
#115= IFCRELDEFINESBYPROPERTIES('3cfOBkICr0SQyl5LoNFCbK',$,$,$,(#100),#114);
#116= IFCPROPERTYSINGLEVALUE('Material',$,IFCLABEL('SUBBALASTO_GRANULAR_GENERICO'),$);
#117= IFCPROPERTYSET('39iYRB7SL44RPOqbBBPTeS',$,'General',$,(#84,#86,#87,#88,#89,#119));
#118= IFCRELDEFINESBYPROPERTIES('2yDv5ixWr8nx$sA1RdLneJ',$,$,$,(#100),#117);
#119= IFCPROPERTYSINGLEVALUE('Layer',$,IFCLABEL('SUBBALASTO_SUPERESTRUCTURA_GRANULAR_e0.35m'),$);
#120= IFCPROPERTYSET('3J5IRy1119MAC$zTZDLnKq',$,'Geometry',$,(#92));
#121= IFCRELDEFINESBYPROPERTIES('3Kwl2ZronB5Q1TBuv8hYts',$,$,$,(#100),#120);
#122= IFCCARTESIANPOINTLIST3D(((3.2501,-10.0,0.022658),(3.2501,-10.0,0.122658),(0.0,-10.0,0.08766),(3.25,-10.0,0.12266),(0.0,-10.0,0.18766),(-3.25,-10.0,0.12266),(-3.2501,-10.0,0.122658),(-3.2501,-10.0,0.022658),(-3.25,10.0,-0.087658),(-3.2501,10.0,-0.08766),(0.0,10.0,-0.022658),(3.25,10.0,-0.087658),(3.2501,10.0,-0.08766),(3.2501,10.0,-0.18766),(0.0,10.0,-0.122658),(-3.2501,10.0,-0.18766)),$);
#123= IFCTRIANGULATEDFACESET(#122,$,$,((1,2,3),(3,2,4),(3,4,5),(5,6,3),(3,6,7),(3,7,8),(6,9,7),(7,9,10),(5,11,6),(6,11,9),(5,4,11),(11,4,12),(4,2,12),(12,2,13),(2,1,13),(13,1,14),(3,15,1),(1,15,14),(3,8,15),(15,8,16),(7,10,8),(8,10,16),(14,15,13),(13,15,12),(12,15,11),(11,15,9),(9,15,10),(10,15,16)),$);
#124= IFCSHAPEREPRESENTATION(#24,'Body','Tessellation',(#123));
#125= IFCPRODUCTDEFINITIONSHAPE($,$,(#124));
#126= IFCCARTESIANPOINT((3.564663,11.0,0.132789));
#127= IFCAXIS2PLACEMENT3D(#126,$,$);
#128= IFCLOCALPLACEMENT(#5,#127);
#129= IFCCOURSE('2xjVOdiKvENhKN4XgWtguP',$,'DRENAJE_SUPERESTRUCTURA_GRANULAR_e0.10m',$,$,#128,#125,'FD4C',.FILTER.);
#130= IFCMATERIAL('DRENAJE_GRANULAR_GENERICO',$,$);
#131= IFCRELASSOCIATESMATERIAL('2J977UlwPCcAD5MLOxyD93',$,$,$,(#129),#130);
#132= IFCCOLOURRGB('132,139,136',0.517647058823529,0.545098039215686,0.533333333333333);
#133= IFCSURFACESTYLESHADING(#132,$);
#134= IFCSURFACESTYLE($,.BOTH.,(#133));
#135= IFCPRESENTATIONLAYERWITHSTYLE('DRENAJE_SUPERESTRUCTURA_GRANULAR_e0.10m',$,(#123),$,.U.,.U.,.U.,(#134));
#136= IFCSTYLEDITEM(#123,(#134),'DRENAJE_SUPERESTRUCTURA_GRANULAR_e0.10m');
#137= IFCPROPERTYSET('2GpcvsK1T2LBu_kt_7TOzu',$,'Properties',$,(#44,#45,#46,#47,#48,#49,#50,#51,#52,#53,#54,#55,#56,#57,#58,#59,#60,#61,#62,#63,#64,#65,#66,#67,#69,#70,#139,#140));
#138= IFCRELDEFINESBYPROPERTIES('1f1OkNkSbEmg0zOnaRVeKm',$,$,$,(#129),#137);
#139= IFCPROPERTYSINGLEVALUE('Area',$,IFCREAL(265.374409961711),$);
#140= IFCPROPERTYSINGLEVALUE('Bounds',$,IFCLABEL('((-15.662518225610256,-1.6176012717187405,-0.054871106442533346),(0.7918445747345686,21.6176012721844,0.3204488693368148))'),$);
#141= IFCPROPERTYSET('1PSg0Qq9bBcvwIPlLch_Ol',$,'Misc',$,(#73,#74,#75,#76));
#142= IFCRELDEFINESBYPROPERTIES('2CuQTy07HBUBMuC2QB8tGH',$,$,$,(#129),#141);
#143= IFCPROPERTYSET('0Y2auO0412BvRHnufI9WCt',$,'3D Visualization',$,(#79,#81,#145));
#144= IFCRELDEFINESBYPROPERTIES('1gZrYz8wv8Wu22poZJ5EpD',$,$,$,(#129),#143);
#145= IFCPROPERTYSINGLEVALUE('Material',$,IFCLABEL('DRENAJE_GRANULAR_GENERICO'),$);
#146= IFCPROPERTYSET('3EYJjpuMv2PePwziwEW909',$,'General',$,(#84,#86,#87,#88,#89,#148));
#147= IFCRELDEFINESBYPROPERTIES('3_Bkv8iZrAHhqtsny1a7tj',$,$,$,(#129),#146);
#148= IFCPROPERTYSINGLEVALUE('Layer',$,IFCLABEL('DRENAJE_SUPERESTRUCTURA_GRANULAR_e0.10m'),$);
#149= IFCPROPERTYSET('1vS_4ecs52lA1CppMmLT7V',$,'Geometry',$,(#92));
#150= IFCRELDEFINESBYPROPERTIES('1E8CiSQsP9DfelFaEr_FyO',$,$,$,(#129),#149);
#151= IFCCARTESIANPOINTLIST3D(((-3.25,-10.0,-0.169041),(0.0,-10.0,-0.104041),(-3.25,-10.0,0.379359),(3.25,-10.0,0.379359),(3.25,-10.0,-0.169041),(0.0,10.0,-0.314359),(3.25,10.0,-0.379359),(-3.25,10.0,-0.379359),(-3.25,10.0,0.169041),(3.25,10.0,0.169041)),$);
#152= IFCTRIANGULATEDFACESET(#151,$,$,((1,2,3),(3,2,4),(4,2,5),(2,6,5),(5,6,7),(2,1,6),(6,1,8),(3,9,1),(1,9,8),(4,10,3),(3,10,9),(4,5,10),(10,5,7),(8,9,6),(6,9,10),(6,10,7)),$);
#153= IFCSHAPEREPRESENTATION(#24,'Body','Tessellation',(#152));
#154= IFCPRODUCTDEFINITIONSHAPE($,$,(#153));
#155= IFCCARTESIANPOINT((3.564663,11.0,0.42449));
#156= IFCAXIS2PLACEMENT3D(#155,$,$);
#157= IFCLOCALPLACEMENT(#5,#156);
#158= IFCCOURSE('0VYo9Z1JP3wPJGSy525ZJd',$,'BALASTO_SUPERESTRUCTURA_GRANULAR_e0.25m',$,$,#157,#154,'FD49',.BALLASTBED.);
#159= IFCMATERIAL('BALASTO_GRANULAR_GENERICO',$,$);
#160= IFCRELASSOCIATESMATERIAL('2xeE9gRFDD38nAxbxvB_n4',$,$,$,(#158,#322),#159);
#161= IFCCOLOURRGB('115,104,79',0.450980392156863,0.407843137254902,0.309803921568627);
#162= IFCSURFACESTYLESHADING(#161,$);
#163= IFCSURFACESTYLE($,.BOTH.,(#162));
#164= IFCPRESENTATIONLAYERWITHSTYLE('BALASTO_SUPERESTRUCTURA_GRANULAR_e0.25m',$,(#152,#316),$,.U.,.U.,.U.,(#163));
#165= IFCSTYLEDITEM(#152,(#163),'BALASTO_SUPERESTRUCTURA_GRANULAR_e0.25m');
#166= IFCPROPERTYSET('281MKSU7H3NQ5nqlGzv38I',$,'Properties',$,(#44,#45,#46,#47,#48,#49,#50,#51,#52,#53,#54,#55,#56,#57,#58,#59,#60,#61,#62,#63,#64,#65,#66,#67,#69,#70,#168,#169));
#167= IFCRELDEFINESBYPROPERTIES('2$4f8zNPj2Ovd67jMdFgLD',$,$,$,(#158),#166);
#168= IFCPROPERTYSINGLEVALUE('Area',$,IFCREAL(288.683071742944),$);
#169= IFCPROPERTYSINGLEVALUE('Bounds',$,IFCLABEL('((-15.662418225314468,-1.6175514999777079,0.04513089355532429),(0.7917445711791515,21.61755150090903,0.8038488698107358))'),$);
#170= IFCPROPERTYSET('0Ee1_OZsvC8BWYZYy534Al',$,'Misc',$,(#73,#74,#75,#76));
#171= IFCRELDEFINESBYPROPERTIES('125f0D$PD3yAcKMOG18jZY',$,$,$,(#158),#170);
#172= IFCPROPERTYSET('3VwhT1Cf93PQbteG7MVyBx',$,'3D Visualization',$,(#79,#81,#174));
#173= IFCRELDEFINESBYPROPERTIES('2X05T0ZC9F8PI0KoXj9SKU',$,$,$,(#158),#172);
#174= IFCPROPERTYSINGLEVALUE('Material',$,IFCLABEL('BALASTO_GRANULAR_GENERICO'),$);
#175= IFCPROPERTYSET('2VTrwflKvFruPAz9MoznIa',$,'General',$,(#84,#86,#87,#88,#89,#177));
#176= IFCRELDEFINESBYPROPERTIES('1f2XJqCLTBHxwYgkoEO1gG',$,$,$,(#158),#175);
#177= IFCPROPERTYSINGLEVALUE('Layer',$,IFCLABEL('BALASTO_SUPERESTRUCTURA_GRANULAR_e0.25m'),$);
#178= IFCPROPERTYSET('0GCODfqMj5BOAkWF5SYTMy',$,'Geometry',$,(#92));
#179= IFCRELDEFINESBYPROPERTIES('0a7UVHkCbDcwF_mNBfNUCT',$,$,$,(#158),#178);
#180= IFCCARTESIANPOINTLIST3D(((0.03455,-10.0,0.154759),(0.03455,-10.0,0.189309),(0.008638,-10.0,0.154759),(-0.03455,-10.0,0.189309),(-0.008637,-10.0,0.154759),(-0.03455,-10.0,0.154759),(0.008638,-10.0,0.048949),(-0.008637,-10.0,0.048949),(0.06985,-10.0,0.021009),(-0.06985,-10.0,0.021009),(-0.06985,-10.0,0.032185),(0.06985,-10.0,0.032185),(-0.06985,10.0,-0.178133),(-0.06985,10.0,-0.189309),(-0.008638,10.0,-0.161369),(-0.008638,10.0,-0.055559),(-0.03455,10.0,-0.055559),(-0.03455,10.0,-0.021009),(0.03455,10.0,-0.021009),(0.03455,10.0,-0.055559),(0.008637,10.0,-0.055559),(0.008637,10.0,-0.161369),(0.06985,10.0,-0.178133),(0.06985,10.0,-0.189309)),$);
#181= IFCTRIANGULATEDFACESET(#180,$,$,((1,2,3),(3,2,4),(3,4,5),(5,4,6),(3,5,7),(7,5,8),(7,8,9),(9,8,10),(10,8,11),(9,12,7),(11,13,10),(10,13,14),(8,15,11),(11,15,13),(5,16,8),(8,16,15),(6,17,5),(5,17,16),(4,18,6),(6,18,17),(4,2,18),(18,2,19),(2,1,19),(19,1,20),(1,3,20),(20,3,21),(3,7,21),(21,7,22),(7,12,22),(22,12,23),(12,9,23),(23,9,24),(9,10,24),(24,10,14),(14,15,24),(24,15,22),(24,22,23),(14,13,15),(22,15,21),(21,15,16),(21,16,18),(18,16,17),(18,19,21),(21,19,20)),$);
#182= IFCSHAPEREPRESENTATION(#24,'Body','Tessellation',(#181));
#183= IFCPRODUCTDEFINITIONSHAPE($,$,(#182));
#184= IFCCARTESIANPOINT((6.162428,11.0,0.787173));
#185= IFCAXIS2PLACEMENT3D(#184,$,$);
#186= IFCLOCALPLACEMENT(#5,#185);
#187= IFCRAILWAYPART('2_9e9HOADDTh9nTfKioxAx',$,'RIEL_60R1_ACERO_a1435mm',$,'RAIL',#186,#183,$,$,.NOTDEFINED.,.USERDEFINED.);
#188= IFCRELAGGREGATES('0I_mUze4Lh5dp8UkQjWvjp',$,$,$,#6,(#187,#217,#238,#259,#343,#364,#385,#408));
#189= IFCMATERIAL('ACERO _ESTRUCTURAL_GENERICO',$,$);
#190= IFCRELASSOCIATESMATERIAL('03MVbSuFnFZwefjkKU3trE',$,$,$,(#187,#217,#238,#259,#343,#364,#385,#408),#189);
#191= IFCCOLOURRGB('224,223,219',0.87843137254902,0.874509803921569,0.858823529411765);
#192= IFCSURFACESTYLESHADING(#191,$);
#193= IFCSURFACESTYLE($,.BOTH.,(#192));
#194= IFCPRESENTATIONLAYERWITHSTYLE('RIEL_60R1_ACERO_a1435mm',$,(#181,#211,#232,#253,#337,#358,#379,#402),$,.U.,.U.,.U.,(#193));
#195= IFCSTYLEDITEM(#181,(#193),'RIEL_60R1_ACERO_a1435mm');
#196= IFCPROPERTYSET('2WHYbmJAnAy8Kb8Yttdxu1',$,'Properties',$,(#44,#45,#46,#47,#48,#49,#50,#51,#52,#53,#54,#55,#56,#57,#58,#59,#60,#61,#62,#63,#64,#65,#66,#67,#69,#70,#198,#199));
#197= IFCRELDEFINESBYPROPERTIES('0GiXuGgWPB6vPdcF$UCs4s',$,$,$,(#187),#196);
#198= IFCPROPERTYSINGLEVALUE('Area',$,IFCREAL(13.8272050758089),$);
#199= IFCPROPERTYSINGLEVALUE('Bounds',$,IFCLABEL('((-9.884503933601081,-0.0347649147734046,0.5978637807124869),(0.20935885095968843,20.034764914773405,0.9764817557893366))'),$);
#200= IFCPROPERTYSET('0CPDb0XOj15ApTvuyaCiDN',$,'Misc',$,(#73,#74,#75,#76));
#201= IFCRELDEFINESBYPROPERTIES('0xr6VcpMHFueWDJrVa2pr3',$,$,$,(#187),#200);
#202= IFCPROPERTYSET('06eXxgy3j1sh1DKEtu8MrO',$,'3D Visualization',$,(#79,#81,#204));
#203= IFCRELDEFINESBYPROPERTIES('0Nbp4Zrl58CuVJSClJFL0t',$,$,$,(#187),#202);
#204= IFCPROPERTYSINGLEVALUE('Material',$,IFCLABEL('ACERO _ESTRUCTURAL_GENERICO'),$);
#205= IFCPROPERTYSET('0qluOzE11ESOsroajF_CUS',$,'General',$,(#84,#86,#87,#88,#89,#207));
#206= IFCRELDEFINESBYPROPERTIES('3zZ_KDmsDFYAu3oBg$vOkB',$,$,$,(#187),#205);
#207= IFCPROPERTYSINGLEVALUE('Layer',$,IFCLABEL('RIEL_60R1_ACERO_a1435mm'),$);
#208= IFCPROPERTYSET('34dka2ZEX6rg0SxKwWo$Qz',$,'Geometry',$,(#92));
#209= IFCRELDEFINESBYPROPERTIES('08joOwT1P1LBG4PGVkVpXC',$,$,$,(#187),#208);
#210= IFCCARTESIANPOINTLIST3D(((0.06985,-10.0,0.021009),(0.008637,-10.0,0.048949),(-0.06985,-10.0,0.021009),(-0.008638,-10.0,0.048949),(-0.06985,-10.0,0.032185),(0.06985,-10.0,0.032185),(-0.008638,-10.0,0.154759),(0.008637,-10.0,0.154759),(-0.03455,-10.0,0.189309),(0.03455,-10.0,0.189309),(0.03455,-10.0,0.154759),(-0.03455,-10.0,0.154759),(-0.03455,10.0,-0.021009),(0.03455,10.0,-0.021009),(0.03455,10.0,-0.055559),(0.008637,10.0,-0.055559),(0.008637,10.0,-0.161369),(0.06985,10.0,-0.178133),(0.06985,10.0,-0.189309),(-0.06985,10.0,-0.189309),(-0.06985,10.0,-0.178133),(-0.008638,10.0,-0.161369),(-0.008638,10.0,-0.055559),(-0.03455,10.0,-0.055559)),$);
#211= IFCTRIANGULATEDFACESET(#210,$,$,((1,2,3),(3,2,4),(3,4,5),(1,6,2),(4,2,7),(7,2,8),(7,8,9),(9,8,10),(10,8,11),(9,12,7),(9,10,13),(13,10,14),(10,11,14),(14,11,15),(8,16,11),(11,16,15),(8,2,16),(16,2,17),(2,6,17),(17,6,18),(6,1,18),(18,1,19),(3,20,1),(1,20,19),(5,21,3),(3,21,20),(4,22,5),(5,22,21),(7,23,4),(4,23,22),(7,12,23),(23,12,24),(9,13,12),(12,13,24),(21,22,20),(20,22,17),(20,17,19),(19,17,18),(17,22,16),(16,22,23),(16,23,13),(13,23,24),(13,14,16),(16,14,15)),$);
#212= IFCSHAPEREPRESENTATION(#24,'Body','Tessellation',(#211));
#213= IFCPRODUCTDEFINITIONSHAPE($,$,(#212));
#214= IFCCARTESIANPOINT((4.658328,11.0,0.79184));
#215= IFCAXIS2PLACEMENT3D(#214,$,$);
#216= IFCLOCALPLACEMENT(#5,#215);
#217= IFCRAILWAYPART('1sYWwXz$19puOKoJgPzx2$',$,'RIEL_60R1_ACERO_a1435mm',$,'RAIL',#216,#213,$,$,.NOTDEFINED.,.USERDEFINED.);
#218= IFCSTYLEDITEM(#211,(#193),'RIEL_60R1_ACERO_a1435mm');
#219= IFCPROPERTYSET('1w8Wo_56r4Xhuq_ddMj3AP',$,'Properties',$,(#44,#45,#46,#47,#48,#49,#50,#51,#52,#53,#54,#55,#56,#57,#58,#59,#60,#61,#62,#63,#64,#65,#66,#67,#69,#70,#221,#222));
#220= IFCRELDEFINESBYPROPERTIES('3JdSql61fCRxqllCrC4iYO',$,$,$,(#217),#219);
#221= IFCPROPERTYSINGLEVALUE('Area',$,IFCREAL(13.8272050190457),$);
#222= IFCPROPERTYSINGLEVALUE('Bounds',$,IFCLABEL('((-11.388603933155537,-0.03476491570472717,0.6025308943703749),(-1.2947411453351378,20.034764914773405,0.9811488694585933))'),$);
#223= IFCPROPERTYSET('0tdK2snx9E1B7cP_HD4NMm',$,'Misc',$,(#73,#74,#75,#76));
#224= IFCRELDEFINESBYPROPERTIES('0nTWiNK8H6pftEqdi_2Xg4',$,$,$,(#217),#223);
#225= IFCPROPERTYSET('1HDybGljbDugG$ABYMziil',$,'3D Visualization',$,(#79,#81,#204));
#226= IFCRELDEFINESBYPROPERTIES('20kFNZSbbA6QCsjYVNOnTa',$,$,$,(#217),#225);
#227= IFCPROPERTYSET('05WJJ7eL98EvFXM0rBQO88',$,'General',$,(#84,#86,#87,#88,#89,#207));
#228= IFCRELDEFINESBYPROPERTIES('3s_Q0c1AX4BggxFkeq_n8o',$,$,$,(#217),#227);
#229= IFCPROPERTYSET('0JNXgt5cj4PwaI8uvFj406',$,'Geometry',$,(#92));
#230= IFCRELDEFINESBYPROPERTIES('3Q9KXPtOr26uCLBa9ZaVTr',$,$,$,(#217),#229);
#231= IFCCARTESIANPOINTLIST3D(((0.03455,-10.0,0.154759),(0.03455,-10.0,0.189309),(0.008638,-10.0,0.154759),(-0.008637,-10.0,0.154759),(0.008638,-10.0,0.048949),(-0.008637,-10.0,0.048949),(0.06985,-10.0,0.021009),(-0.06985,-10.0,0.021009),(-0.06985,-10.0,0.032185),(-0.03455,-10.0,0.189309),(-0.03455,-10.0,0.154759),(0.06985,-10.0,0.032185),(-0.06985,10.0,-0.178133),(-0.06985,10.0,-0.189309),(-0.008638,10.0,-0.161369),(-0.008638,10.0,-0.055559),(-0.03455,10.0,-0.055559),(-0.03455,10.0,-0.021009),(0.03455,10.0,-0.021009),(0.03455,10.0,-0.055559),(0.008637,10.0,-0.055559),(0.008637,10.0,-0.161369),(0.06985,10.0,-0.178133),(0.06985,10.0,-0.189309)),$);
#232= IFCTRIANGULATEDFACESET(#231,$,$,((1,2,3),(3,2,4),(3,4,5),(5,4,6),(5,6,7),(7,6,8),(8,6,9),(2,10,4),(4,10,11),(7,12,5),(9,13,8),(8,13,14),(6,15,9),(9,15,13),(4,16,6),(6,16,15),(11,17,4),(4,17,16),(10,18,11),(11,18,17),(10,2,18),(18,2,19),(2,1,19),(19,1,20),(1,3,20),(20,3,21),(3,5,21),(21,5,22),(5,12,22),(22,12,23),(12,7,23),(23,7,24),(8,14,7),(7,14,24),(14,15,24),(24,15,22),(24,22,23),(14,13,15),(22,15,21),(21,15,16),(21,16,19),(19,16,18),(18,16,17),(19,20,21)),$);
#233= IFCSHAPEREPRESENTATION(#24,'Body','Tessellation',(#232));
#234= IFCPRODUCTDEFINITIONSHAPE($,$,(#233));
#235= IFCCARTESIANPOINT((2.566713,11.0,0.79184));
#236= IFCAXIS2PLACEMENT3D(#235,$,$);
#237= IFCLOCALPLACEMENT(#5,#236);
#238= IFCRAILWAYPART('0Noncy_$j4Ph_npGqMFs6f',$,'RIEL_60R1_ACERO_a1435mm',$,'RAIL',#237,#234,$,$,.NOTDEFINED.,.USERDEFINED.);
#239= IFCSTYLEDITEM(#232,(#193),'RIEL_60R1_ACERO_a1435mm');
#240= IFCPROPERTYSET('32bqglhOn1OP6x6gPsRaH3',$,'Properties',$,(#44,#45,#46,#47,#48,#49,#50,#51,#52,#53,#54,#55,#56,#57,#58,#59,#60,#61,#62,#63,#64,#65,#66,#67,#69,#70,#242,#243));
#241= IFCRELDEFINESBYPROPERTIES('1vsu4HZBj2wxuEcQIOrmt2',$,$,$,(#238),#240);
#242= IFCPROPERTYSINGLEVALUE('Area',$,IFCREAL(13.8272050365628),$);
#243= IFCPROPERTYSINGLEVALUE('Bounds',$,IFCLABEL('((-13.480218220036477,-0.034764913842082024,0.6025308940402283),(-3.3863554350100458,20.034764914773405,0.9811488691125305))'),$);
#244= IFCPROPERTYSET('30G5McjMr3LfYYELh6en5d',$,'Misc',$,(#73,#74,#75,#76));
#245= IFCRELDEFINESBYPROPERTIES('3jHwLAaunAAAnXh7vRVHAb',$,$,$,(#238),#244);
#246= IFCPROPERTYSET('3YjpftIMb2BOggXCdvhmYF',$,'3D Visualization',$,(#79,#81,#204));
#247= IFCRELDEFINESBYPROPERTIES('3cwP2ouuz98vNeMAW82QVt',$,$,$,(#238),#246);
#248= IFCPROPERTYSET('1L4LStmqr0IunKCBsf78Qf',$,'General',$,(#84,#86,#87,#88,#89,#207));
#249= IFCRELDEFINESBYPROPERTIES('2K5R6vwiL4kudGcVbiW9KE',$,$,$,(#238),#248);
#250= IFCPROPERTYSET('2FNK2ifWj8aOwSYME9wg_H',$,'Geometry',$,(#92));
#251= IFCRELDEFINESBYPROPERTIES('2DxZXMdiX9o9Oyif_nEmqH',$,$,$,(#238),#250);
#252= IFCCARTESIANPOINTLIST3D(((0.06985,-10.0,0.021009),(0.008638,-10.0,0.048949),(-0.06985,-10.0,0.021009),(-0.008638,-10.0,0.048949),(-0.06985,-10.0,0.032185),(0.06985,-10.0,0.032185),(-0.008638,-10.0,0.154759),(0.008638,-10.0,0.154759),(-0.03455,-10.0,0.189309),(0.03455,-10.0,0.189309),(0.03455,-10.0,0.154759),(-0.03455,-10.0,0.154759),(-0.03455,10.0,-0.021009),(0.03455,10.0,-0.021009),(0.03455,10.0,-0.055559),(0.008637,10.0,-0.055559),(0.008637,10.0,-0.161369),(0.06985,10.0,-0.178133),(0.06985,10.0,-0.189309),(-0.06985,10.0,-0.189309),(-0.06985,10.0,-0.178133),(-0.008638,10.0,-0.161369),(-0.008638,10.0,-0.055559),(-0.03455,10.0,-0.055559)),$);
#253= IFCTRIANGULATEDFACESET(#252,$,$,((1,2,3),(3,2,4),(3,4,5),(1,6,2),(4,2,7),(7,2,8),(7,8,9),(9,8,10),(10,8,11),(9,12,7),(9,10,13),(13,10,14),(10,11,14),(14,11,15),(8,16,11),(11,16,15),(8,2,16),(16,2,17),(2,6,17),(17,6,18),(6,1,18),(18,1,19),(1,3,19),(19,3,20),(5,21,3),(3,21,20),(4,22,5),(5,22,21),(7,23,4),(4,23,22),(7,12,23),(23,12,24),(9,13,12),(12,13,24),(21,22,20),(20,22,17),(20,17,19),(19,17,18),(17,22,16),(16,22,23),(16,23,13),(13,23,24),(13,14,16),(16,14,15)),$);
#254= IFCSHAPEREPRESENTATION(#24,'Body','Tessellation',(#253));
#255= IFCPRODUCTDEFINITIONSHAPE($,$,(#254));
#256= IFCCARTESIANPOINT((1.158328,11.0,0.79184));
#257= IFCAXIS2PLACEMENT3D(#256,$,$);
#258= IFCLOCALPLACEMENT(#5,#257);
#259= IFCRAILWAYPART('1jf0VvzYH6JhjG3mHe0W5O',$,'RIEL_60R1_ACERO_a1435mm',$,'RAIL',#258,#255,$,$,.NOTDEFINED.,.USERDEFINED.);
#260= IFCSTYLEDITEM(#253,(#193),'RIEL_60R1_ACERO_a1435mm');
#261= IFCPROPERTYSET('390awZiR93FwybJs32Jzs5',$,'Properties',$,(#44,#45,#46,#47,#48,#49,#50,#51,#52,#53,#54,#55,#56,#57,#58,#59,#60,#61,#62,#63,#64,#65,#66,#67,#69,#70,#263,#264));
#262= IFCRELDEFINESBYPROPERTIES('1WerEIUoTBbwyXq5Y1IwJ8',$,$,$,(#259),#261);
#263= IFCPROPERTYSINGLEVALUE('Area',$,IFCREAL(13.8272050567906),$);
#264= IFCPROPERTYSINGLEVALUE('Bounds',$,IFCLABEL('((-14.888603933155537,-0.034764915239065886,0.602530893796029),(-4.794741144869477,20.034764914773405,0.9811488688746977))'),$);
#265= IFCPROPERTYSET('0PkJl3YYrEcPSO2JWbWQjv',$,'Misc',$,(#73,#74,#75,#76));
#266= IFCRELDEFINESBYPROPERTIES('3c1mjso$n9AuQ7wa_j_6$1',$,$,$,(#259),#265);
#267= IFCPROPERTYSET('1NgbqeIBv99uoHCtG9FODJ',$,'3D Visualization',$,(#79,#81,#204));
#268= IFCRELDEFINESBYPROPERTIES('2Ix3sZ23L0KhuPGIkaxbfx',$,$,$,(#259),#267);
#269= IFCPROPERTYSET('0uz5bzSjXCdOZdbt5pSFcw',$,'General',$,(#84,#86,#87,#88,#89,#207));
#270= IFCRELDEFINESBYPROPERTIES('3L4Z3vEfnBuwqwY4Fy_vce',$,$,$,(#259),#269);
#271= IFCPROPERTYSET('2NaUsL8c1B7f$kFCYYjNH0',$,'Geometry',$,(#92));
#272= IFCRELDEFINESBYPROPERTIES('0Av1hYh2D8V9$CZLoWypy1',$,$,$,(#259),#271);
#273= IFCCARTESIANPOINTLIST3D(((4.48685,-10.0,0.251595),(0.0,-10.0,0.3862),(4.48685,-10.0,-0.248405),(-4.48685,-10.0,0.251595),(-4.48685,-10.0,-0.248405),(-4.48685,10.0,0.1138),(-4.48685,10.0,-0.3862),(0.0,10.0,0.248405),(4.48685,10.0,0.1138),(4.48685,10.0,-0.3862)),$);
#274= IFCTRIANGULATEDFACESET(#273,$,$,((1,2,3),(3,2,4),(3,4,5),(4,6,5),(5,6,7),(2,8,4),(4,8,6),(2,1,8),(8,1,9),(1,3,9),(9,3,10),(5,7,3),(3,7,10),(10,7,9),(9,7,8),(8,7,6)),$);
#275= IFCSHAPEREPRESENTATION(#24,'Body','Tessellation',(#274));
#276= IFCPRODUCTDEFINITIONSHAPE($,$,(#275));
#277= IFCCARTESIANPOINT((20.794339,11.0,-0.304617));
#278= IFCAXIS2PLACEMENT3D(#277,$,$);
#279= IFCLOCALPLACEMENT(#5,#278);
#280= IFCCOURSE('0fFu5eYynAnR1o_7XDQXOJ',$,'SUBESTRUCTURA_QS3_GRANULAR_e0.50m',$,'BASE',#279,#276,'FD2E',.USERDEFINED.);
#281= IFCSTYLEDITEM(#274,(#38),'SUBESTRUCTURA_QS3_GRANULAR_e0.50m');
#282= IFCPROPERTYSET('3Nnx6ncULCAOFMXZeca8QT',$,'Properties',$,(#44,#45,#46,#47,#48,#49,#50,#51,#52,#53,#54,#55,#56,#57,#58,#59,#60,#61,#62,#63,#64,#65,#66,#67,#69,#70,#284,#285));
#283= IFCRELDEFINESBYPROPERTIES('2b$GeXrMb6y8Lxzbye1OFg',$,$,$,(#280),#282);
#284= IFCPROPERTYSINGLEVALUE('Area',$,IFCREAL(389.218897675589),$);
#285= IFCPROPERTYSINGLEVALUE('Bounds',$,IFCLABEL('((2.350550056435168,-1.32673403294757,-0.6908168599206874),(17.23812762182206,21.32673403271474,0.0815835787807373))'),$);
#286= IFCPROPERTYSET('0aC7AxLqHF0xB$ghuHl32$',$,'Misc',$,(#73,#74,#75,#76));
#287= IFCRELDEFINESBYPROPERTIES('1eY9k93X5AzvWL6W0KfwO8',$,$,$,(#280),#286);
#288= IFCPROPERTYSET('0MarNO0v9EIw0$_SdcKRaA',$,'3D Visualization',$,(#79,#80,#81));
#289= IFCRELDEFINESBYPROPERTIES('29FdTAm$D0GuK0$QzgPQH7',$,$,$,(#280),#288);
#290= IFCPROPERTYSET('0CEQe34r9Cs9Nr527qdgMb',$,'General',$,(#84,#85,#86,#87,#88,#89));
#291= IFCRELDEFINESBYPROPERTIES('1FY843SjjEuxxOeCJR8wkw',$,$,$,(#280),#290);
#292= IFCPROPERTYSET('0sD9ObUUb7FALlXnC0h_Uk',$,'Geometry',$,(#92));
#293= IFCRELDEFINESBYPROPERTIES('2HNXnXdJjA6A0JdfRRHiqj',$,$,$,(#280),#292);
#294= IFCCARTESIANPOINTLIST3D(((0.0,-10.0,0.3112),(-3.975268,-10.0,0.191942),(0.0,-10.0,-0.0388),(-3.975368,-10.0,0.191939),(-4.48685,-10.0,-0.173405),(4.48685,-10.0,-0.173405),(3.975368,-10.0,0.191939),(3.975268,-10.0,0.191942),(3.975368,10.0,0.054144),(4.48685,10.0,-0.3112),(0.0,10.0,-0.176595),(-4.48685,10.0,-0.3112),(-3.975368,10.0,0.054144),(-3.975268,10.0,0.054147),(0.0,10.0,0.173405),(3.975268,10.0,0.054147)),$);
#295= IFCTRIANGULATEDFACESET(#294,$,$,((1,2,3),(3,2,4),(3,4,5),(6,7,3),(3,7,8),(3,8,1),(7,6,9),(9,6,10),(3,11,6),(6,11,10),(3,5,11),(11,5,12),(4,13,5),(5,13,12),(2,14,4),(4,14,13),(1,15,2),(2,15,14),(1,8,15),(15,8,16),(8,7,16),(16,7,9),(13,14,11),(11,14,15),(11,15,16),(16,9,11),(11,9,10),(11,12,13)),$);
#296= IFCSHAPEREPRESENTATION(#24,'Body','Tessellation',(#295));
#297= IFCPRODUCTDEFINITIONSHAPE($,$,(#296));
#298= IFCCARTESIANPOINT((20.794339,11.0,0.120383));
#299= IFCAXIS2PLACEMENT3D(#298,$,$);
#300= IFCLOCALPLACEMENT(#5,#299);
#301= IFCCOURSE('1M76BqN_9158nL3WmaVkB3',$,'SUBBALASTO_SUPERESTRUCTURA_GRANULAR_e0.35m',$,'SUBBALLASTBED',#300,#297,'FD2B',.USERDEFINED.);
#302= IFCSTYLEDITEM(#295,(#105),'SUBBALASTO_SUPERESTRUCTURA_GRANULAR_e0.35m');
#303= IFCPROPERTYSET('0OalttbCT3ORkvJKHzLcMc',$,'Properties',$,(#44,#45,#46,#47,#48,#49,#50,#51,#52,#53,#54,#55,#56,#57,#58,#59,#60,#61,#62,#63,#64,#65,#66,#67,#69,#70,#305,#306));
#304= IFCRELDEFINESBYPROPERTIES('3y0EGbwyf4zgZOACqT91qn',$,$,$,(#301),#303);
#305= IFCPROPERTYSINGLEVALUE('Area',$,IFCREAL(369.715494166996),$);
#306= IFCPROPERTYSINGLEVALUE('Bounds',$,IFCLABEL('((2.350550056435168,-1.3267340324819088,-0.1908168606446452),(17.238127620890737,21.326734032249078,0.4315835787820106))'),$);
#307= IFCPROPERTYSET('29pFrpnHX6BPhmPEMGvBjW',$,'Misc',$,(#73,#74,#75,#76));
#308= IFCRELDEFINESBYPROPERTIES('0vK5pFGcD8yPcaXe11CnK4',$,$,$,(#301),#307);
#309= IFCPROPERTYSET('01WuANrDHBuBWdZ8ZnEy2T',$,'3D Visualization',$,(#79,#81,#116));
#310= IFCRELDEFINESBYPROPERTIES('1rmWozRhH96wMyiNS$1rOl',$,$,$,(#301),#309);
#311= IFCPROPERTYSET('22HLH6AdLANAFAbAKXceRD',$,'General',$,(#84,#86,#87,#88,#89,#119));
#312= IFCRELDEFINESBYPROPERTIES('03wz3S$JrEkRn1NKa4ohgl',$,$,$,(#301),#311);
#313= IFCPROPERTYSET('2zWrhUby56BBhuitGEErFZ',$,'Geometry',$,(#92));
#314= IFCRELDEFINESBYPROPERTIES('29UqHElOr7iAS7GL0WnaZA',$,$,$,(#301),#313);
#315= IFCCARTESIANPOINTLIST3D(((3.975268,-10.0,-0.223913),(3.1554,-10.0,0.361707),(0.0,-10.0,-0.104655),(-3.1554,-10.0,0.361707),(-3.975268,-10.0,-0.223913),(3.1554,10.0,0.223913),(-3.1554,10.0,0.223913),(3.975268,10.0,-0.361707),(0.0,10.0,-0.242449),(-3.975268,10.0,-0.361707)),$);
#316= IFCTRIANGULATEDFACESET(#315,$,$,((1,2,3),(3,2,4),(3,4,5),(2,6,4),(4,6,7),(2,1,6),(6,1,8),(3,9,1),(1,9,8),(3,5,9),(9,5,10),(4,7,5),(5,7,10),(10,7,9),(9,7,6),(9,6,8)),$);
#317= IFCSHAPEREPRESENTATION(#24,'Body','Tessellation',(#316));
#318= IFCPRODUCTDEFINITIONSHAPE($,$,(#317));
#319= IFCCARTESIANPOINT((20.794339,11.0,0.536238));
#320= IFCAXIS2PLACEMENT3D(#319,$,$);
#321= IFCLOCALPLACEMENT(#5,#320);
#322= IFCCOURSE('3znU1$Aej19hQ_nskSqwQ8',$,'BALASTO_SUPERESTRUCTURA_GRANULAR_e0.25m',$,$,#321,#318,'FD28',.BALLASTBED.);
#323= IFCSTYLEDITEM(#316,(#163),'BALASTO_SUPERESTRUCTURA_GRANULAR_e0.25m');
#324= IFCPROPERTYSET('23rjosHOn9AwVj88Y49qG3',$,'Properties',$,(#44,#45,#46,#47,#48,#49,#50,#51,#52,#53,#54,#55,#56,#57,#58,#59,#60,#61,#62,#63,#64,#65,#66,#67,#69,#70,#326,#327));
#325= IFCRELDEFINESBYPROPERTIES('2UsDo40VH0qOPUM1fGLoKf',$,$,$,(#322),#324);
#326= IFCPROPERTYSINGLEVALUE('Area',$,IFCREAL(333.010773875848),$);
#327= IFCPROPERTYSINGLEVALUE('Bounds',$,IFCLABEL('((2.8621323136612773,-1.175462307408452,0.1745306077209534),(16.726545366458595,21.175462307408452,0.8979455787211919))'),$);
#328= IFCPROPERTYSET('2SQMCiI2nAYwHE9OGPTCt3',$,'Misc',$,(#73,#74,#75,#76));
#329= IFCRELDEFINESBYPROPERTIES('1XW7NVfKX6W80FFylKbhl5',$,$,$,(#322),#328);
#330= IFCPROPERTYSET('0NCw1QKbjF$BW08s$7AEor',$,'3D Visualization',$,(#79,#81,#174));
#331= IFCRELDEFINESBYPROPERTIES('3S4rNLWbbDzOXPIo$MF$9L',$,$,$,(#322),#330);
#332= IFCPROPERTYSET('2Ar9ketBf8sfjqM2ncR7Fb',$,'General',$,(#84,#86,#87,#88,#89,#177));
#333= IFCRELDEFINESBYPROPERTIES('0Mhyz7EjPAMfJasilWZCem',$,$,$,(#322),#332);
#334= IFCPROPERTYSET('2PMRIN9D947xnPMrFlG8Jq',$,'Geometry',$,(#92));
#335= IFCRELDEFINESBYPROPERTIES('1$ZINNYxD3GhE12rXjguHM',$,$,$,(#322),#334);
#336= IFCCARTESIANPOINTLIST3D(((-0.0345,-10.0,0.153047),(-0.008625,-10.0,0.118547),(0.0345,-10.0,0.153047),(0.008625,-10.0,0.118547),(0.0345,-10.0,0.118547),(-0.0345,-10.0,0.118547),(0.008625,-10.0,0.012687),(-0.008625,-10.0,0.012687),(0.06985,-10.0,-0.015253),(-0.06985,-10.0,-0.015253),(-0.06985,-10.0,-0.004077),(0.06985,-10.0,-0.004077),(0.06985,10.0,-0.153047),(-0.06985,10.0,-0.153047),(-0.06985,10.0,-0.141871),(-0.008625,10.0,-0.125107),(-0.008625,10.0,-0.019247),(-0.0345,10.0,-0.019247),(-0.0345,10.0,0.015253),(0.0345,10.0,0.015253),(0.0345,10.0,-0.019247),(0.008625,10.0,-0.019247),(0.008625,10.0,-0.125107),(0.06985,10.0,-0.141871)),$);
#337= IFCTRIANGULATEDFACESET(#336,$,$,((1,2,3),(3,2,4),(3,4,5),(1,6,2),(4,2,7),(7,2,8),(7,8,9),(9,8,10),(10,8,11),(9,12,7),(9,10,13),(13,10,14),(11,15,10),(10,15,14),(8,16,11),(11,16,15),(2,17,8),(8,17,16),(6,18,2),(2,18,17),(1,19,6),(6,19,18),(3,20,1),(1,20,19),(3,5,20),(20,5,21),(4,22,5),(5,22,21),(4,7,22),(22,7,23),(7,12,23),(23,12,24),(12,9,24),(24,9,13),(21,22,20),(20,22,17),(20,17,19),(19,17,18),(17,22,16),(16,22,23),(16,23,14),(14,23,13),(13,23,24),(14,15,16)),$);
#338= IFCSHAPEREPRESENTATION(#24,'Body','Tessellation',(#337));
#339= IFCPRODUCTDEFINITIONSHAPE($,$,(#338));
#340= IFCCARTESIANPOINT((23.296339,11.0,0.922198));
#341= IFCAXIS2PLACEMENT3D(#340,$,$);
#342= IFCLOCALPLACEMENT(#5,#341);
#343= IFCRAILWAYPART('1qPgAAbczCbQR5gVneXp6a',$,'RIEL_60R1_ACERO_a1435mm',$,'RAIL',#342,#339,$,$,.NOTDEFINED.,.USERDEFINED.);
#344= IFCSTYLEDITEM(#337,(#193),'RIEL_60R1_ACERO_a1435mm');
#345= IFCPROPERTYSET('1ib3j6FV18Xukj9vzXnFMl',$,'Properties',$,(#44,#45,#46,#47,#48,#49,#50,#51,#52,#53,#54,#55,#56,#57,#58,#59,#60,#61,#62,#63,#64,#65,#66,#67,#69,#70,#347,#348));
#346= IFCRELDEFINESBYPROPERTIES('1HRNMYG2z8h91ijQuJCVud',$,$,$,(#343),#345);
#347= IFCPROPERTYSINGLEVALUE('Area',$,IFCREAL(13.8239304807156),$);
#348= IFCPROPERTYSINGLEVALUE('Bounds',$,IFCLABEL('((9.26955037098378,-0.02065421547740698,0.7691506494884379),(15.323127309791744,20.020654215477407,1.075245578682825))'),$);
#349= IFCPROPERTYSET('083pLMmVz9HgE8tLNp6KLW',$,'Misc',$,(#73,#74,#75,#76));
#350= IFCRELDEFINESBYPROPERTIES('1QEAEBglj5hRk0E_yBmu8X',$,$,$,(#343),#349);
#351= IFCPROPERTYSET('3qt$AniDH8DxotN9j_hjg9',$,'3D Visualization',$,(#79,#81,#204));
#352= IFCRELDEFINESBYPROPERTIES('0l64fXUFTBXRXs8CsqBety',$,$,$,(#343),#351);
#353= IFCPROPERTYSET('2cAKqqqQL9tBMk$Uwgcm7f',$,'General',$,(#84,#86,#87,#88,#89,#207));
#354= IFCRELDEFINESBYPROPERTIES('3Opo$AQV57wvZWUQVoeX6N',$,$,$,(#343),#353);
#355= IFCPROPERTYSET('1uOkvIZp91ahJSREMm5hRp',$,'Geometry',$,(#92));
#356= IFCRELDEFINESBYPROPERTIES('2kO8Z$dXT4vAHHvn2hbNh2',$,$,$,(#343),#355);
#357= IFCCARTESIANPOINTLIST3D(((0.0345,-10.0,0.118547),(0.0345,-10.0,0.153047),(0.008625,-10.0,0.118547),(-0.0345,-10.0,0.153047),(-0.008625,-10.0,0.118547),(-0.0345,-10.0,0.118547),(0.008625,-10.0,0.012687),(-0.008625,-10.0,0.012687),(-0.06985,-10.0,-0.015253),(-0.06985,-10.0,-0.004077),(0.06985,-10.0,-0.015253),(0.06985,-10.0,-0.004077),(-0.06985,10.0,-0.153047),(0.06985,10.0,-0.153047),(-0.06985,10.0,-0.141871),(-0.008625,10.0,-0.125107),(-0.008625,10.0,-0.019247),(-0.0345,10.0,-0.019247),(-0.0345,10.0,0.015253),(0.008625,10.0,-0.125107),(0.06985,10.0,-0.141871),(0.008625,10.0,-0.019247),(0.0345,10.0,-0.019247),(0.0345,10.0,0.015253)),$);
#358= IFCTRIANGULATEDFACESET(#357,$,$,((1,2,3),(3,2,4),(3,4,5),(5,4,6),(3,5,7),(7,5,8),(7,8,9),(9,8,10),(9,11,7),(7,11,12),(9,13,11),(11,13,14),(10,15,9),(9,15,13),(8,16,10),(10,16,15),(5,17,8),(8,17,16),(5,6,17),(17,6,18),(4,19,6),(6,19,18),(7,12,20),(20,12,21),(3,22,1),(1,22,23),(4,2,19),(19,2,24),(3,7,22),(22,7,20),(2,1,24),(24,1,23),(12,11,21),(21,11,14),(21,14,20),(20,14,13),(20,13,16),(16,13,15),(20,16,22),(22,16,17),(22,17,19),(19,17,18),(19,24,22),(22,24,23)),$);
#359= IFCSHAPEREPRESENTATION(#24,'Body','Tessellation',(#358));
#360= IFCPRODUCTDEFINITIONSHAPE($,$,(#359));
#361= IFCCARTESIANPOINT((21.792339,11.0,0.922198));
#362= IFCAXIS2PLACEMENT3D(#361,$,$);
#363= IFCLOCALPLACEMENT(#5,#362);
#364= IFCRAILWAYPART('3FV$qrUxf6YBwf6OYl5IHI',$,'RIEL_60R1_ACERO_a1435mm',$,'RAIL',#363,#360,$,$,.NOTDEFINED.,.USERDEFINED.);
#365= IFCSTYLEDITEM(#358,(#193),'RIEL_60R1_ACERO_a1435mm');
#366= IFCPROPERTYSET('1QLwf$Fzj0Bwk$$RN_AdRu',$,'Properties',$,(#44,#45,#46,#47,#48,#49,#50,#51,#52,#53,#54,#55,#56,#57,#58,#59,#60,#61,#62,#63,#64,#65,#66,#67,#69,#70,#368,#369));
#367= IFCRELDEFINESBYPROPERTIES('0j$GysxWv17B$Qk2C_MrSn',$,$,$,(#364),#366);
#368= IFCPROPERTYSINGLEVALUE('Area',$,IFCREAL(13.823930443502),$);
#369= IFCPROPERTYSINGLEVALUE('Bounds',$,IFCLABEL('((7.765550371259451,-0.020654215943068266,0.7691506494911664),(13.819127309136093,20.02065421594307,1.0752455786869177))'),$);
#370= IFCPROPERTYSET('1_rVH3Po50SvvKLLT4llCF',$,'Misc',$,(#73,#74,#75,#76));
#371= IFCRELDEFINESBYPROPERTIES('3czlH7AIn8d94MOlXjBMQ2',$,$,$,(#364),#370);
#372= IFCPROPERTYSET('0qnaLg18v4ZPGH4d_B3inz',$,'3D Visualization',$,(#79,#81,#204));
#373= IFCRELDEFINESBYPROPERTIES('1JSlIW7kL9NQGs6evnxyoZ',$,$,$,(#364),#372);
#374= IFCPROPERTYSET('3P4Eil1cX0VgBrNfvY1HAq',$,'General',$,(#84,#86,#87,#88,#89,#207));
#375= IFCRELDEFINESBYPROPERTIES('3$fBUM_8v6HvjCCouvr_D1',$,$,$,(#364),#374);
#376= IFCPROPERTYSET('3rT_3wg4n6MQVvV2MfZCqx',$,'Geometry',$,(#92));
#377= IFCRELDEFINESBYPROPERTIES('2C8lurT1L4FfVEjUOASKA2',$,$,$,(#364),#376);
#378= IFCCARTESIANPOINTLIST3D(((-0.0345,-10.0,0.153047),(-0.008625,-10.0,0.118547),(0.0345,-10.0,0.153047),(0.008625,-10.0,0.118547),(0.0345,-10.0,0.118547),(-0.0345,-10.0,0.118547),(0.008625,-10.0,0.012687),(-0.008625,-10.0,0.012687),(0.06985,-10.0,-0.015253),(-0.06985,-10.0,-0.015253),(-0.06985,-10.0,-0.004077),(0.06985,-10.0,-0.004077),(-0.06985,10.0,-0.153047),(0.06985,10.0,-0.153047),(-0.06985,10.0,-0.141871),(-0.008625,10.0,-0.125107),(-0.008625,10.0,-0.019247),(-0.0345,10.0,-0.019247),(-0.0345,10.0,0.015253),(0.0345,10.0,0.015253),(0.0345,10.0,-0.019247),(0.008625,10.0,-0.019247),(0.008625,10.0,-0.125107),(0.06985,10.0,-0.141871)),$);
#379= IFCTRIANGULATEDFACESET(#378,$,$,((1,2,3),(3,2,4),(3,4,5),(1,6,2),(4,2,7),(7,2,8),(7,8,9),(9,8,10),(10,8,11),(9,12,7),(10,13,9),(9,13,14),(11,15,10),(10,15,13),(8,16,11),(11,16,15),(2,17,8),(8,17,16),(6,18,2),(2,18,17),(1,19,6),(6,19,18),(1,3,19),(19,3,20),(3,5,20),(20,5,21),(5,4,21),(21,4,22),(4,7,22),(22,7,23),(7,12,23),(23,12,24),(12,9,24),(24,9,14),(21,22,20),(20,22,17),(20,17,19),(19,17,18),(17,22,16),(16,22,23),(16,23,14),(14,23,24),(14,13,16),(16,13,15)),$);
#380= IFCSHAPEREPRESENTATION(#24,'Body','Tessellation',(#379));
#381= IFCPRODUCTDEFINITIONSHAPE($,$,(#380));
#382= IFCCARTESIANPOINT((19.796339,11.0,0.922198));
#383= IFCAXIS2PLACEMENT3D(#382,$,$);
#384= IFCLOCALPLACEMENT(#5,#383);
#385= IFCRAILWAYPART('2GvUySnfv4luXisKTggC3v',$,'RIEL_60R1_ACERO_a1435mm',$,'RAIL',#384,#381,$,$,.NOTDEFINED.,.USERDEFINED.);
#386= IFCSTYLEDITEM(#379,(#193),'RIEL_60R1_ACERO_a1435mm');
#387= IFCPROPERTYSET('28wlZgzvD1Iv3UHSycLVCB',$,'Properties',$,(#44,#45,#46,#47,#48,#49,#50,#51,#52,#53,#54,#57,#58,#59,#60,#61,#62,#63,#64,#65,#66,#67,#69,#70,#389,#390,#391,#392));
#388= IFCRELDEFINESBYPROPERTIES('0COD1oQDv1ZOedDsSw_Fko',$,$,$,(#385),#387);
#389= IFCPROPERTYSINGLEVALUE('Area',$,IFCREAL(13.8239304434063),$);
#390= IFCPROPERTYSINGLEVALUE('IsModified',$,IFCBOOLEAN(.F.),$);
#391= IFCPROPERTYSINGLEVALUE('IsModifiedGraphics',$,IFCBOOLEAN(.F.),$);
#392= IFCPROPERTYSINGLEVALUE('Bounds',$,IFCLABEL('((5.769550372846425,-0.02065421547740698,0.7691506495093563),(11.823127308860421,20.020654215477407,1.0752455787014696))'),$);
#393= IFCPROPERTYSET('1uTjkVYUP6F9fNuUX6KhvC',$,'Misc',$,(#73,#74,#75,#76));
#394= IFCRELDEFINESBYPROPERTIES('0rZqj525HCaOcGmOSksCoe',$,$,$,(#385),#393);
#395= IFCPROPERTYSET('1fB$Q2F7L629E8hLI5cQ1V',$,'3D Visualization',$,(#79,#81,#204));
#396= IFCRELDEFINESBYPROPERTIES('1yBBOIRcDELuPrL4TKcXeL',$,$,$,(#385),#395);
#397= IFCPROPERTYSET('1GKnDYRP9ADQc$vo1i802v',$,'General',$,(#84,#86,#87,#88,#89,#207));
#398= IFCRELDEFINESBYPROPERTIES('0B5LO8b$r01eRTS9EpR4kr',$,$,$,(#385),#397);
#399= IFCPROPERTYSET('2ZWP756wLCug6TOv3bMfjb',$,'Geometry',$,(#92));
#400= IFCRELDEFINESBYPROPERTIES('3AufQehPv26BuxNnwyEyV0',$,$,$,(#385),#399);
#401= IFCCARTESIANPOINTLIST3D(((0.0345,-10.0,0.118547),(0.0345,-10.0,0.153047),(0.008625,-10.0,0.118547),(-0.0345,-10.0,0.153047),(-0.008625,-10.0,0.118547),(-0.0345,-10.0,0.118547),(0.008625,-10.0,0.012687),(-0.008625,-10.0,0.012687),(-0.06985,-10.0,-0.015253),(-0.06985,-10.0,-0.004077),(0.06985,-10.0,-0.015253),(0.06985,-10.0,-0.004077),(0.06985,10.0,-0.153047),(-0.06985,10.0,-0.153047),(-0.06985,10.0,-0.141871),(-0.008625,10.0,-0.125107),(-0.008625,10.0,-0.019247),(-0.0345,10.0,-0.019247),(-0.0345,10.0,0.015253),(0.008625,10.0,-0.125107),(0.06985,10.0,-0.141871),(0.008625,10.0,-0.019247),(0.0345,10.0,-0.019247),(0.0345,10.0,0.015253)),$);
#402= IFCTRIANGULATEDFACESET(#401,$,$,((1,2,3),(3,2,4),(3,4,5),(5,4,6),(3,5,7),(7,5,8),(7,8,9),(9,8,10),(9,11,7),(7,11,12),(11,9,13),(13,9,14),(10,15,9),(9,15,14),(8,16,10),(10,16,15),(5,17,8),(8,17,16),(6,18,5),(5,18,17),(4,19,6),(6,19,18),(7,12,20),(20,12,21),(3,22,1),(1,22,23),(2,24,4),(4,24,19),(3,7,22),(22,7,20),(2,1,24),(24,1,23),(12,11,21),(21,11,13),(21,13,20),(20,13,14),(20,14,16),(16,14,15),(20,16,22),(22,16,17),(22,17,19),(19,17,18),(19,24,22),(22,24,23)),$);
#403= IFCSHAPEREPRESENTATION(#24,'Body','Tessellation',(#402));
#404= IFCPRODUCTDEFINITIONSHAPE($,$,(#403));
#405= IFCCARTESIANPOINT((18.292339,11.0,0.922198));
#406= IFCAXIS2PLACEMENT3D(#405,$,$);
#407= IFCLOCALPLACEMENT(#5,#406);
#408= IFCRAILWAYPART('2eZ2Q6gVf4Nem8VVOJoLhU',$,'RIEL_60R1_ACERO_a1435mm',$,'RAIL',#407,#404,$,$,.NOTDEFINED.,.USERDEFINED.);
#409= IFCSTYLEDITEM(#402,(#193),'RIEL_60R1_ACERO_a1435mm');
#410= IFCPROPERTYSET('3yxoaLz8z0yBBnhCSL2PcZ',$,'Properties',$,(#44,#45,#46,#47,#48,#49,#50,#51,#52,#53,#54,#57,#58,#59,#60,#61,#62,#63,#64,#65,#66,#67,#69,#70,#390,#391,#412,#413));
#411= IFCRELDEFINESBYPROPERTIES('1a_K5yAFbDaPAwdXoH$MrH',$,$,$,(#408),#410);
#412= IFCPROPERTYSINGLEVALUE('Area',$,IFCREAL(13.8239304618333),$);
#413= IFCPROPERTYSINGLEVALUE('Bounds',$,IFCLABEL('((4.265550370328128,-0.02065421617589891,0.7691506495102658),(10.319127310067415,20.02065421594307,1.0752455787105646))'),$);
#414= IFCPROPERTYSET('2XdXEoTvD35vRxpeiQGmES',$,'Misc',$,(#73,#74,#75,#76));
#415= IFCRELDEFINESBYPROPERTIES('1S1JDQtrX47vwfb3Wh2KtB',$,$,$,(#408),#414);
#416= IFCPROPERTYSET('3v7ctDUrX7bBykZa0NL1uf',$,'3D Visualization',$,(#79,#81,#204));
#417= IFCRELDEFINESBYPROPERTIES('3u1PMEWf5FZAySa_5D3eOf',$,$,$,(#408),#416);
#418= IFCPROPERTYSET('35LgUDTSb8BuUXVuD8lEki',$,'General',$,(#84,#86,#87,#88,#89,#207));
#419= IFCRELDEFINESBYPROPERTIES('0dh7oOk1P7GOjZHZ799IvL',$,$,$,(#408),#418);
#420= IFCPROPERTYSET('1$5V5E1bT43PjoJ7IwfDov',$,'Geometry',$,(#92));
#421= IFCRELDEFINESBYPROPERTIES('2zPCgjc8T4MRkqE_yl8vUP',$,$,$,(#408),#420);
ENDSEC;

END-ISO-10303-21;
