ISO-10303-21;
HEADER;
FILE_DESCRIPTION(('ViewDefinition [Alignment-basedView]'),'2;1');
FILE_NAME(
/* name */ 'C:\\Users\\a.hernandez\\OneDrive - EGIS Group\\Documents\\APPS\\Reporte-ifc-LOD\\reporte-ifc-lod-main\\models\\IFC\\VIA_FEEREA.ifc',
/* time_stamp */ '2026-03-21T18:09:44',
/* author */ ('a.hernandez'),
/* organization */ ('EGIS'),
/* preprocessor_version */ 'GeometryGymIFCcore v25.2.25.0 by Geometry Gym Pty Ltd built 2025-02-25T08:37:52',
/* originating_system */ 'Autodesk - Civil 3D 2026 IfcInfra Plugin - 13.8.378.0',
/* authorization */ 'None'
);

FILE_SCHEMA (('IFC4X3_ADD2'));
ENDSEC;

DATA;
#1= IFCORGANIZATION($,'Autodesk',$,$,$);
#2= IFCAPPLICATION(#1,'Civil 3D 2026','Civil 3D','Autodesk - Civil 3D 2026 IfcInfra Plugin - 13.8.378.0');
#3= IFCCARTESIANPOINT((0.0,0.0,0.0));
#4= IFCAXIS2PLACEMENT3D(#3,$,$);
#5= IFCLOCALPLACEMENT($,#4);
#6= IFCSITE('1xq3Jx7v1Ei9VLtRWhcAGA',$,'UnknownName',$,$,#5,$,$,$,$,$,$,$,$);
#9= IFCSIUNIT(*,.LENGTHUNIT.,$,.METRE.);
#10= IFCSIUNIT(*,.AREAUNIT.,$,.SQUARE_METRE.);
#11= IFCSIUNIT(*,.VOLUMEUNIT.,$,.CUBIC_METRE.);
#12= IFCSIUNIT(*,.PLANEANGLEUNIT.,$,.RADIAN.);
#13= IFCPROJECT('0wa231yDfCXxnarg_pvOe8',#17,'Unknown',$,$,$,$,(#21),#18);
#14= IFCPERSON('a.hernandez',$,$,$,$,$,$,$);
#15= IFCORGANIZATION($,'EGIS',$,$,$);
#16= IFCPERSONANDORGANIZATION(#14,#15,$);
#17= IFCOWNERHISTORY(#16,#2,$,.ADDED.,1774134584,$,$,1774134584);
#18= IFCUNITASSIGNMENT((#9,#10,#11,#12));
#19= IFCRELAGGREGATES('2$7AE_vACS8ubTDmUZJtKb',$,$,$,#13,(#6));
#20= IFCPROJECTEDCRS('MAGNA-SIRGAS NACIONAL',$,'MAGNA',$,'Tm',$,$);
#21= IFCGEOMETRICREPRESENTATIONCONTEXT('3D','Model',3,0.0001,#23,#24);
#22= IFCCARTESIANPOINT((0.0,0.0,0.0));
#23= IFCAXIS2PLACEMENT3D(#22,$,$);
#24= IFCDIRECTION((0.0,1.0));
#25= IFCRIGIDOPERATION(#21,#20,IFCLENGTHMEASURE(-11.0),IFCLENGTHMEASURE(-1.0),0.0);
#26= IFCGEOMETRICREPRESENTATIONSUBCONTEXT('Body','Model',*,*,*,*,#21,$,.MODEL_VIEW.,$);
#27= IFCCARTESIANPOINTLIST3D(((3.975268,-10.0,-0.223913),(3.1554,-10.0,0.361707),(0.0,-10.0,-0.104655),(-3.1554,-10.0,0.361707),(-3.975268,-10.0,-0.223913),(3.1554,10.0,0.223913),(-3.1554,10.0,0.223913),(3.975268,10.0,-0.361707),(0.0,10.0,-0.242449),(-3.975268,10.0,-0.361707)),$);
#28= IFCTRIANGULATEDFACESET(#27,$,$,((1,2,3),(3,2,4),(3,4,5),(2,6,4),(4,6,7),(2,1,6),(6,1,8),(3,9,1),(1,9,8),(3,5,9),(9,5,10),(4,7,5),(5,7,10),(10,7,9),(9,7,6),(9,6,8)),$);
#29= IFCSHAPEREPRESENTATION(#26,'Body','Tessellation',(#28));
#30= IFCPRODUCTDEFINITIONSHAPE($,$,(#29));
#31= IFCCARTESIANPOINT((20.794339,11.0,0.536238));
#32= IFCAXIS2PLACEMENT3D(#31,$,$);
#33= IFCLOCALPLACEMENT(#5,#32);
#34= IFCCOURSE('3znU1$Aej19hQ_nskSqwQ8',$,'BALASTO_SUPERESTRUCTURA_GRANULAR_e0.25m',$,$,#33,#30,'FD28',.BALLASTBED.);
#35= IFCRELCONTAINEDINSPATIALSTRUCTURE('1qZxRkEmsvzp0ZV4l$EVCk',$,'Site','Site Container for Elements',(#34,#102,#123,#152,#181,#202,#253),#6);
#36= IFCMATERIAL('BALASTO_GRANULAR_GENERICO',$,$);
#37= IFCRELASSOCIATESMATERIAL('0MLehX_iT4muiaN_uZ$$n1',$,$,$,(#34,#102),#36);
#38= IFCCOLOURRGB('115,104,79',0.450980392156863,0.407843137254902,0.309803921568627);
#39= IFCSURFACESTYLESHADING(#38,$);
#40= IFCSURFACESTYLE($,.BOTH.,(#39));
#41= IFCPRESENTATIONLAYERWITHSTYLE('BALASTO_SUPERESTRUCTURA_GRANULAR_e0.25m',$,(#28,#96),$,.U.,.U.,.U.,(#40));
#42= IFCSTYLEDITEM(#28,(#40),'BALASTO_SUPERESTRUCTURA_GRANULAR_e0.25m');
#43= IFCPROPERTYSET('0TmZ9JyJn5bPEm8zQntFfn',$,'Properties',$,(#45,#46,#47,#48,#49,#50,#51,#52,#53,#54,#55,#56,#57,#58,#59,#60,#61,#62,#63,#64,#65,#66,#67,#68,#69,#70,#71,#72));
#44= IFCRELDEFINESBYPROPERTIES('1KZqe1kGT7WeKEyObccqhy',$,$,$,(#34),#43);
#45= IFCPROPERTYSINGLEVALUE('Area',$,IFCREAL(333.010773875848),$);
#46= IFCPROPERTYSINGLEVALUE('IsNull',$,IFCBOOLEAN(.F.),$);
#47= IFCPROPERTYSINGLEVALUE('NumChanges',$,IFCINTEGER(5),$);
#48= IFCPROPERTYSINGLEVALUE('RecordHistory',$,IFCBOOLEAN(.T.),$);
#49= IFCPROPERTYSINGLEVALUE('ShowHistory',$,IFCBOOLEAN(.T.),$);
#50= IFCPROPERTYSINGLEVALUE('UsesGraphicsCache',$,IFCBOOLEAN(.T.),$);
#51= IFCPROPERTYSINGLEVALUE('CloneMeForDragging',$,IFCBOOLEAN(.T.),$);
#52= IFCPROPERTYSINGLEVALUE('ForceAnnoAllVisible',$,IFCBOOLEAN(.T.),$);
#53= IFCPROPERTYSINGLEVALUE('HasSaveVersionOverride',$,IFCBOOLEAN(.F.),$);
#54= IFCPROPERTYSINGLEVALUE('IsCancelling',$,IFCBOOLEAN(.F.),$);
#55= IFCPROPERTYSINGLEVALUE('IsErased',$,IFCBOOLEAN(.F.),$);
#56= IFCPROPERTYSINGLEVALUE('IsEraseStatusToggled',$,IFCBOOLEAN(.F.),$);
#57= IFCPROPERTYSINGLEVALUE('IsModified',$,IFCBOOLEAN(.F.),$);
#58= IFCPROPERTYSINGLEVALUE('IsModifiedGraphics',$,IFCBOOLEAN(.F.),$);
#59= IFCPROPERTYSINGLEVALUE('IsModifiedXData',$,IFCBOOLEAN(.F.),$);
#60= IFCPROPERTYSINGLEVALUE('IsNewObject',$,IFCBOOLEAN(.F.),$);
#61= IFCPROPERTYSINGLEVALUE('IsNotifyEnabled',$,IFCBOOLEAN(.F.),$);
#62= IFCPROPERTYSINGLEVALUE('IsNotifying',$,IFCBOOLEAN(.F.),$);
#63= IFCPROPERTYSINGLEVALUE('IsObjectIdsInFlux',$,IFCBOOLEAN(.F.),$);
#64= IFCPROPERTYSINGLEVALUE('IsPersistent',$,IFCBOOLEAN(.T.),$);
#65= IFCPROPERTYSINGLEVALUE('IsReadEnabled',$,IFCBOOLEAN(.T.),$);
#66= IFCPROPERTYSINGLEVALUE('IsReallyClosing',$,IFCBOOLEAN(.F.),$);
#67= IFCPROPERTYSINGLEVALUE('IsTransactionResident',$,IFCBOOLEAN(.T.),$);
#68= IFCPROPERTYSINGLEVALUE('IsUndoing',$,IFCBOOLEAN(.F.),$);
#69= IFCPROPERTYSINGLEVALUE('IsWriteEnabled',$,IFCBOOLEAN(.T.),$);
#70= IFCPROPERTYSINGLEVALUE('Bounds',$,IFCLABEL('((2.8621323136612773,-1.175462307408452,0.1745306077209534),(16.726545366458595,21.175462307408452,0.8979455787211919))'),$);
#71= IFCPROPERTYSINGLEVALUE('AutoDelete',$,IFCBOOLEAN(.F.),$);
#72= IFCPROPERTYSINGLEVALUE('IsDisposed',$,IFCBOOLEAN(.F.),$);
#73= IFCPROPERTYSET('0bR2b3esPExROUaGPVl19i',$,'Misc',$,(#75,#76,#77,#78));
#74= IFCRELDEFINESBYPROPERTIES('2wEH6L2Wv6peY1f7ICwQ0j',$,$,$,(#34),#73);
#75= IFCPROPERTYSINGLEVALUE('BlockName',$,IFCLABEL('*Model_Space'),$);
#76= IFCPROPERTYSINGLEVALUE('ClassID',$,IFCLABEL('4ca6aa08-5011-4525-8c44-7fb7c2190cb8'),$);
#77= IFCPROPERTYSINGLEVALUE('HasFields',$,IFCBOOLEAN(.F.),$);
#78= IFCPROPERTYSINGLEVALUE('IsAProxy',$,IFCBOOLEAN(.F.),$);
#79= IFCPROPERTYSET('1pLUb1NTT3pxqqzMEMDb2R',$,'3D Visualization',$,(#81,#82,#83));
#80= IFCRELDEFINESBYPROPERTIES('1q8hihbkP4NAHQDYccdkS4',$,$,$,(#34),#79);
#81= IFCPROPERTYSINGLEVALUE('CastShadows',$,IFCBOOLEAN(.T.),$);
#82= IFCPROPERTYSINGLEVALUE('Material',$,IFCLABEL('BALASTO_GRANULAR_GENERICO'),$);
#83= IFCPROPERTYSINGLEVALUE('ReceiveShadows',$,IFCBOOLEAN(.T.),$);
#84= IFCPROPERTYSET('3Filws0Zn8rxUGislZlgox',$,'General',$,(#86,#87,#88,#89,#90,#91));
#85= IFCRELDEFINESBYPROPERTIES('29yGgfASb3zeUlLLpyHhZ2',$,$,$,(#34),#84);
#86= IFCPROPERTYSINGLEVALUE('ColorIndex',$,IFCINTEGER(256),$);
#87= IFCPROPERTYSINGLEVALUE('Layer',$,IFCLABEL('BALASTO_SUPERESTRUCTURA_GRANULAR_e0.25m'),$);
#88= IFCPROPERTYSINGLEVALUE('Linetype',$,IFCLABEL('ByLayer'),$);
#89= IFCPROPERTYSINGLEVALUE('LinetypeScale',$,IFCREAL(1.0),$);
#90= IFCPROPERTYSINGLEVALUE('PlotStyleName',$,IFCLABEL('ByLayer'),$);
#91= IFCPROPERTYSINGLEVALUE('Visible',$,IFCBOOLEAN(.T.),$);
#92= IFCPROPERTYSET('02OtZNstL5L9ZSHf5XzJJi',$,'Geometry',$,(#94));
#93= IFCRELDEFINESBYPROPERTIES('0W7JP3GS1D1f03ujkS1_d8',$,$,$,(#34),#92);
#94= IFCPROPERTYSINGLEVALUE('IsPlanar',$,IFCBOOLEAN(.F.),$);
#95= IFCCARTESIANPOINTLIST3D(((-3.25,-10.0,-0.169041),(0.0,-10.0,-0.104041),(-3.25,-10.0,0.379359),(3.25,-10.0,0.379359),(3.25,-10.0,-0.169041),(0.0,10.0,-0.314359),(3.25,10.0,-0.379359),(-3.25,10.0,-0.379359),(-3.25,10.0,0.169041),(3.25,10.0,0.169041)),$);
#96= IFCTRIANGULATEDFACESET(#95,$,$,((1,2,3),(3,2,4),(4,2,5),(2,6,5),(5,6,7),(2,1,6),(6,1,8),(3,9,1),(1,9,8),(4,10,3),(3,10,9),(4,5,10),(10,5,7),(8,9,6),(6,9,10),(6,10,7)),$);
#97= IFCSHAPEREPRESENTATION(#26,'Body','Tessellation',(#96));
#98= IFCPRODUCTDEFINITIONSHAPE($,$,(#97));
#99= IFCCARTESIANPOINT((3.564663,11.0,0.42449));
#100= IFCAXIS2PLACEMENT3D(#99,$,$);
#101= IFCLOCALPLACEMENT(#5,#100);
#102= IFCCOURSE('0VYo9Z1JP3wPJGSy525ZJd',$,'BALASTO_SUPERESTRUCTURA_GRANULAR_e0.25m',$,$,#101,#98,'FD49',.BALLASTBED.);
#103= IFCSTYLEDITEM(#96,(#40),'BALASTO_SUPERESTRUCTURA_GRANULAR_e0.25m');
#104= IFCPROPERTYSET('1rPWo3bwD0KP1Z99TVp8NR',$,'Properties',$,(#46,#47,#48,#49,#50,#51,#52,#53,#54,#55,#56,#57,#58,#59,#60,#61,#62,#63,#64,#65,#66,#67,#68,#69,#71,#72,#106,#107));
#105= IFCRELDEFINESBYPROPERTIES('3sTOiHibX30AGn8$QxZttV',$,$,$,(#102),#104);
#106= IFCPROPERTYSINGLEVALUE('Area',$,IFCREAL(288.683071742944),$);
#107= IFCPROPERTYSINGLEVALUE('Bounds',$,IFCLABEL('((-15.662418225314468,-1.6175514999777079,0.04513089355532429),(0.7917445711791515,21.61755150090903,0.8038488698107358))'),$);
#108= IFCPROPERTYSET('1M5rI5dU15X9Mrm1FliSHt',$,'Misc',$,(#75,#76,#77,#78));
#109= IFCRELDEFINESBYPROPERTIES('2_jS7Xfkn9VRRnzX6HnwOS',$,$,$,(#102),#108);
#110= IFCPROPERTYSET('0MDiAMTjD5WPZr8ujBsk19',$,'3D Visualization',$,(#81,#82,#83));
#111= IFCRELDEFINESBYPROPERTIES('368f4efyz33ullA5EZEvS3',$,$,$,(#102),#110);
#112= IFCPROPERTYSET('0ihTH1DEjAiO3b6z1Vvce1',$,'General',$,(#86,#87,#88,#89,#90,#91));
#113= IFCRELDEFINESBYPROPERTIES('3BkhC5tWr7cQfgvbftTRwS',$,$,$,(#102),#112);
#114= IFCPROPERTYSET('3FJdLLzBH70ABvdefojfEw',$,'Geometry',$,(#94));
#115= IFCRELDEFINESBYPROPERTIES('2959pYpKj2XhIZCMUlNCd1',$,$,$,(#102),#114);
#116= IFCCARTESIANPOINTLIST3D(((0.0,-10.0,0.3112),(-3.975268,-10.0,0.191942),(0.0,-10.0,-0.0388),(-3.975368,-10.0,0.191939),(-4.48685,-10.0,-0.173405),(4.48685,-10.0,-0.173405),(3.975368,-10.0,0.191939),(3.975268,-10.0,0.191942),(3.975368,10.0,0.054144),(4.48685,10.0,-0.3112),(0.0,10.0,-0.176595),(-4.48685,10.0,-0.3112),(-3.975368,10.0,0.054144),(-3.975268,10.0,0.054147),(0.0,10.0,0.173405),(3.975268,10.0,0.054147)),$);
#117= IFCTRIANGULATEDFACESET(#116,$,$,((1,2,3),(3,2,4),(3,4,5),(6,7,3),(3,7,8),(3,8,1),(7,6,9),(9,6,10),(3,11,6),(6,11,10),(3,5,11),(11,5,12),(4,13,5),(5,13,12),(2,14,4),(4,14,13),(1,15,2),(2,15,14),(1,8,15),(15,8,16),(8,7,16),(16,7,9),(13,14,11),(11,14,15),(11,15,16),(16,9,11),(11,9,10),(11,12,13)),$);
#118= IFCSHAPEREPRESENTATION(#26,'Body','Tessellation',(#117));
#119= IFCPRODUCTDEFINITIONSHAPE($,$,(#118));
#120= IFCCARTESIANPOINT((20.794339,11.0,0.120383));
#121= IFCAXIS2PLACEMENT3D(#120,$,$);
#122= IFCLOCALPLACEMENT(#5,#121);
#123= IFCCOURSE('1M76BqN_9158nL3WmaVkB3',$,'SUBBALASTO_SUPERESTRUCTURA_GRANULAR_e0.35m',$,'SUBBALLASTBED',#122,#119,'FD2B',.USERDEFINED.);
#124= IFCMATERIAL('SUBBALASTO_GRANULAR_GENERICO',$,$);
#125= IFCRELASSOCIATESMATERIAL('2KPgckMqX4C9v3DozPpl9d',$,$,$,(#123,#181),#124);
#126= IFCCOLOURRGB('80,80,80',0.313725490196078,0.313725490196078,0.313725490196078);
#127= IFCSURFACESTYLESHADING(#126,$);
#128= IFCSURFACESTYLE($,.BOTH.,(#127));
#129= IFCPRESENTATIONLAYERWITHSTYLE('SUBBALASTO_SUPERESTRUCTURA_GRANULAR_e0.35m',$,(#117,#175),$,.U.,.U.,.U.,(#128));
#130= IFCSTYLEDITEM(#117,(#128),'SUBBALASTO_SUPERESTRUCTURA_GRANULAR_e0.35m');
#131= IFCPROPERTYSET('2dmXcUymD0fPFVtTP0ePqX',$,'Properties',$,(#46,#47,#48,#49,#50,#51,#52,#53,#54,#55,#56,#57,#58,#59,#60,#61,#62,#63,#64,#65,#66,#67,#68,#69,#71,#72,#133,#134));
#132= IFCRELDEFINESBYPROPERTIES('1WXkTRtDL8oA$gmekikjos',$,$,$,(#123),#131);
#133= IFCPROPERTYSINGLEVALUE('Area',$,IFCREAL(369.715494166996),$);
#134= IFCPROPERTYSINGLEVALUE('Bounds',$,IFCLABEL('((2.350550056435168,-1.3267340324819088,-0.1908168606446452),(17.238127620890737,21.326734032249078,0.4315835787820106))'),$);
#135= IFCPROPERTYSET('0nODhMxoH6xhjZSdrvfzQL',$,'Misc',$,(#75,#76,#77,#78));
#136= IFCRELDEFINESBYPROPERTIES('2fL5cBINL7ReOs0yDn7G42',$,$,$,(#123),#135);
#137= IFCPROPERTYSET('2WsvoiON1D0RWYKPZwC_mM',$,'3D Visualization',$,(#81,#83,#139));
#138= IFCRELDEFINESBYPROPERTIES('0Ylq2CbnvCyfv2Z3qCz0bB',$,$,$,(#123),#137);
#139= IFCPROPERTYSINGLEVALUE('Material',$,IFCLABEL('SUBBALASTO_GRANULAR_GENERICO'),$);
#140= IFCPROPERTYSET('182FjVVa5BhhIllhREr6cb',$,'General',$,(#86,#88,#89,#90,#91,#142));
#141= IFCRELDEFINESBYPROPERTIES('3cTRfyDbz0YeO6hb7t2RVW',$,$,$,(#123),#140);
#142= IFCPROPERTYSINGLEVALUE('Layer',$,IFCLABEL('SUBBALASTO_SUPERESTRUCTURA_GRANULAR_e0.35m'),$);
#143= IFCPROPERTYSET('1vVCshwWTFHxUYWT0FPjAt',$,'Geometry',$,(#94));
#144= IFCRELDEFINESBYPROPERTIES('2okaXl$$53iB0p_6ukkrEr',$,$,$,(#123),#143);
#145= IFCCARTESIANPOINTLIST3D(((3.2502,-10.0,0.322657),(0.0,-10.0,0.387661),(3.2502,-10.0,-0.177343),(-3.2502,-10.0,-0.177343),(-3.2502,-10.0,0.322657),(0.0,10.0,0.177343),(-3.2502,10.0,0.112339),(3.2502,10.0,0.112339),(3.2502,10.0,-0.387661),(-3.2502,10.0,-0.387661)),$);
#146= IFCTRIANGULATEDFACESET(#145,$,$,((1,2,3),(3,2,4),(4,2,5),(2,6,5),(5,6,7),(2,1,6),(6,1,8),(1,3,8),(8,3,9),(3,4,9),(9,4,10),(5,7,4),(4,7,10),(8,9,6),(6,9,10),(6,10,7)),$);
#147= IFCSHAPEREPRESENTATION(#26,'Body','Tessellation',(#146));
#148= IFCPRODUCTDEFINITIONSHAPE($,$,(#147));
#149= IFCCARTESIANPOINT((3.564663,11.0,-0.517212));
#150= IFCAXIS2PLACEMENT3D(#149,$,$);
#151= IFCLOCALPLACEMENT(#5,#150);
#152= IFCCOURSE('0AxqsYMdb8Lez3q6ZBRq7A',$,'SUBESTRUCTURA_QS3_GRANULAR_e0.50m',$,'BASE',#151,#148,'FD52',.USERDEFINED.);
#153= IFCMATERIAL('SUBESTRUCTURA_GRANULAR_GENERICO',$,$);
#154= IFCRELASSOCIATESMATERIAL('2WFrR1d9bFEBPInufGNcUG',$,$,$,(#152,#202),#153);
#155= IFCCOLOURRGB('104,110,102',0.407843137254902,0.431372549019608,0.4);
#156= IFCSURFACESTYLESHADING(#155,$);
#157= IFCSURFACESTYLE($,.BOTH.,(#156));
#158= IFCPRESENTATIONLAYERWITHSTYLE('SUBESTRUCTURA_QS3_GRANULAR_e0.50m',$,(#146,#196),$,.U.,.U.,.U.,(#157));
#159= IFCSTYLEDITEM(#146,(#157),'SUBESTRUCTURA_QS3_GRANULAR_e0.50m');
#160= IFCPROPERTYSET('1ZFO3fqIvEJBkopXqWm6j_',$,'Properties',$,(#46,#47,#48,#49,#50,#51,#52,#53,#54,#55,#56,#57,#58,#59,#60,#61,#62,#63,#64,#65,#66,#67,#68,#69,#71,#72,#162,#163));
#161= IFCRELDEFINESBYPROPERTIES('2MB_O_wcj96AICsix7B$HO',$,$,$,(#152),#160);
#162= IFCPROPERTYSINGLEVALUE('Area',$,IFCREAL(286.979326868833),$);
#163= IFCPROPERTYSINGLEVALUE('Bounds',$,IFCLABEL('((-15.662618229631335,-1.6176510443910956,-0.9048731065254287),(0.7919445782899857,21.617651045322418,-0.12955113065436308))'),$);
#164= IFCPROPERTYSET('078LVXpHTDSw1nrz7_Acw2',$,'Misc',$,(#75,#76,#77,#78));
#165= IFCRELDEFINESBYPROPERTIES('2Z4KIDGIT1Kfu6qgz$JcNZ',$,$,$,(#152),#164);
#166= IFCPROPERTYSET('3ootEwmK5BsQ57za6m4Wze',$,'3D Visualization',$,(#81,#83,#168));
#167= IFCRELDEFINESBYPROPERTIES('3w99vk6Z1Cgu6uWmuCMvt_',$,$,$,(#152),#166);
#168= IFCPROPERTYSINGLEVALUE('Material',$,IFCLABEL('SUBESTRUCTURA_GRANULAR_GENERICO'),$);
#169= IFCPROPERTYSET('0rC34CK9zB5hvds9Ya25Bv',$,'General',$,(#86,#88,#89,#90,#91,#171));
#170= IFCRELDEFINESBYPROPERTIES('3MovL7Um54puXI34lbFv6K',$,$,$,(#152),#169);
#171= IFCPROPERTYSINGLEVALUE('Layer',$,IFCLABEL('SUBESTRUCTURA_QS3_GRANULAR_e0.50m'),$);
#172= IFCPROPERTYSET('1hpMCj_eP9KhQPm_UGFe_O',$,'Geometry',$,(#94));
#173= IFCRELDEFINESBYPROPERTIES('09S82gSQr4fRy_DTKkyAii',$,$,$,(#152),#172);
#174= IFCCARTESIANPOINTLIST3D(((3.2502,-10.0,0.247657),(3.2501,-10.0,0.247659),(3.2502,-10.0,-0.102343),(0.0,-10.0,-0.037339),(0.0,-10.0,0.312661),(-3.2501,-10.0,0.247659),(-3.2502,-10.0,0.247657),(-3.2502,-10.0,-0.102343),(-3.2501,10.0,0.037341),(-3.2502,10.0,0.037339),(0.0,10.0,0.102343),(3.2501,10.0,0.037341),(3.2502,10.0,0.037339),(3.2502,10.0,-0.312661),(0.0,10.0,-0.247657),(-3.2502,10.0,-0.312661)),$);
#175= IFCTRIANGULATEDFACESET(#174,$,$,((1,2,3),(3,2,4),(4,2,5),(4,5,6),(7,8,6),(6,8,4),(6,9,7),(7,9,10),(5,11,6),(6,11,9),(5,2,11),(11,2,12),(2,1,12),(12,1,13),(1,3,13),(13,3,14),(4,15,3),(3,15,14),(4,8,15),(15,8,16),(7,10,8),(8,10,16),(13,14,12),(12,14,15),(12,15,11),(11,15,9),(9,15,16),(9,16,10)),$);
#176= IFCSHAPEREPRESENTATION(#26,'Body','Tessellation',(#175));
#177= IFCPRODUCTDEFINITIONSHAPE($,$,(#176));
#178= IFCCARTESIANPOINT((3.564663,11.0,-0.092212));
#179= IFCAXIS2PLACEMENT3D(#178,$,$);
#180= IFCLOCALPLACEMENT(#5,#179);
#181= IFCCOURSE('2LBaqHuxT17feywGJF98qs',$,'SUBBALASTO_SUPERESTRUCTURA_GRANULAR_e0.35m',$,'SUBBALLASTBED',#180,#177,'FD4F',.USERDEFINED.);
#182= IFCSTYLEDITEM(#175,(#128),'SUBBALASTO_SUPERESTRUCTURA_GRANULAR_e0.35m');
#183= IFCPROPERTYSET('2nXNOHHDr5tO9EMdlkzGqX',$,'Properties',$,(#46,#47,#48,#49,#50,#51,#52,#53,#54,#55,#56,#57,#58,#59,#60,#61,#62,#63,#64,#65,#66,#67,#68,#69,#71,#72,#185,#186));
#184= IFCRELDEFINESBYPROPERTIES('0EfhPMKHjE3O5efhPNf84h',$,$,$,(#181),#183);
#185= IFCPROPERTYSINGLEVALUE('Area',$,IFCREAL(278.632652196306),$);
#186= IFCPROPERTYSINGLEVALUE('Bounds',$,IFCLABEL('((-15.662618229631335,-1.6176510443910956,-0.4048731065126958),(0.7919445782899857,21.617651044856757,0.22044886933827001))'),$);
#187= IFCPROPERTYSET('12$7RdDV5EzB08Xz9aMvIJ',$,'Misc',$,(#75,#76,#77,#78));
#188= IFCRELDEFINESBYPROPERTIES('2DYr2boP5BbxCo8NbNBHH4',$,$,$,(#181),#187);
#189= IFCPROPERTYSET('1n6EaHUyn6bhiefgCAVQ1H',$,'3D Visualization',$,(#81,#83,#139));
#190= IFCRELDEFINESBYPROPERTIES('0aUo2feUnFIOLfSz5masBe',$,$,$,(#181),#189);
#191= IFCPROPERTYSET('3Y4UWS42fApeP9Exs_0Ywr',$,'General',$,(#86,#88,#89,#90,#91,#142));
#192= IFCRELDEFINESBYPROPERTIES('3HAYz1ecLEo81dhv0e1uXw',$,$,$,(#181),#191);
#193= IFCPROPERTYSET('3gfh$uJzf198OyWLmE7XZs',$,'Geometry',$,(#94));
#194= IFCRELDEFINESBYPROPERTIES('2zESLB62nFRvL1hqL9RHbd',$,$,$,(#181),#193);
#195= IFCCARTESIANPOINTLIST3D(((4.48685,-10.0,0.251595),(0.0,-10.0,0.3862),(4.48685,-10.0,-0.248405),(-4.48685,-10.0,0.251595),(-4.48685,-10.0,-0.248405),(-4.48685,10.0,0.1138),(-4.48685,10.0,-0.3862),(0.0,10.0,0.248405),(4.48685,10.0,0.1138),(4.48685,10.0,-0.3862)),$);
#196= IFCTRIANGULATEDFACESET(#195,$,$,((1,2,3),(3,2,4),(3,4,5),(4,6,5),(5,6,7),(2,8,4),(4,8,6),(2,1,8),(8,1,9),(1,3,9),(9,3,10),(5,7,3),(3,7,10),(10,7,9),(9,7,8),(8,7,6)),$);
#197= IFCSHAPEREPRESENTATION(#26,'Body','Tessellation',(#196));
#198= IFCPRODUCTDEFINITIONSHAPE($,$,(#197));
#199= IFCCARTESIANPOINT((20.794339,11.0,-0.304617));
#200= IFCAXIS2PLACEMENT3D(#199,$,$);
#201= IFCLOCALPLACEMENT(#5,#200);
#202= IFCCOURSE('0fFu5eYynAnR1o_7XDQXOJ',$,'SUBESTRUCTURA_QS3_GRANULAR_e0.50m',$,'BASE',#201,#198,'FD2E',.USERDEFINED.);
#203= IFCSTYLEDITEM(#196,(#157),'SUBESTRUCTURA_QS3_GRANULAR_e0.50m');
#204= IFCPROPERTYSET('3sgcd5O4v3KQIs5mlP7RGw',$,'Properties',$,(#46,#47,#48,#49,#50,#51,#52,#53,#54,#55,#56,#57,#58,#59,#60,#61,#62,#63,#64,#65,#66,#67,#68,#69,#71,#72,#206,#207));
#205= IFCRELDEFINESBYPROPERTIES('0F0YHOfYb37x$uDloSTuyt',$,$,$,(#202),#204);
#206= IFCPROPERTYSINGLEVALUE('Area',$,IFCREAL(389.218897675589),$);
#207= IFCPROPERTYSINGLEVALUE('Bounds',$,IFCLABEL('((2.350550056435168,-1.32673403294757,-0.6908168599206874),(17.23812762182206,21.32673403271474,0.0815835787807373))'),$);
#208= IFCPROPERTYSET('01qrI8kVPCMwD23PPK8QcD',$,'Misc',$,(#75,#76,#77,#78));
#209= IFCRELDEFINESBYPROPERTIES('0$qQ473JX5CA5XfG5ogRKc',$,$,$,(#202),#208);
#210= IFCPROPERTYSET('3kdB_4y3L9vwuZIYZbZEeQ',$,'3D Visualization',$,(#81,#83,#168));
#211= IFCRELDEFINESBYPROPERTIES('0jpauwhZnCoxAe$HdqgMwR',$,$,$,(#202),#210);
#212= IFCPROPERTYSET('12WiecQcHFqe_Ey4L4akSU',$,'General',$,(#86,#88,#89,#90,#91,#171));
#213= IFCRELDEFINESBYPROPERTIES('2ByJzYSMrEkOqKe4nNJh57',$,$,$,(#202),#212);
#214= IFCPROPERTYSET('01VebEM655IhPt23SZHU8s',$,'Geometry',$,(#94));
#215= IFCRELDEFINESBYPROPERTIES('0fjFRsnp9AChlKVNaNMtrP',$,$,$,(#202),#214);
#216= IFCCARTESIANPOINTLIST3D(((0.0345,-10.0,0.118547),(0.0345,-10.0,0.153047),(0.008625,-10.0,0.118547),(-0.0345,-10.0,0.153047),(-0.008625,-10.0,0.118547),(-0.0345,-10.0,0.118547),(0.008625,-10.0,0.012687),(-0.008625,-10.0,0.012687),(-0.06985,-10.0,-0.015253),(-0.06985,-10.0,-0.004077),(0.06985,-10.0,-0.015253),(0.06985,-10.0,-0.004077),(-0.06985,10.0,-0.153047),(0.06985,10.0,-0.153047),(-0.06985,10.0,-0.141871),(-0.008625,10.0,-0.125107),(-0.008625,10.0,-0.019247),(-0.0345,10.0,-0.019247),(-0.0345,10.0,0.015253),(0.008625,10.0,-0.125107),(0.06985,10.0,-0.141871),(0.008625,10.0,-0.019247),(0.0345,10.0,-0.019247),(0.0345,10.0,0.015253)),$);
#217= IFCTRIANGULATEDFACESET(#216,$,$,((1,2,3),(3,2,4),(3,4,5),(5,4,6),(3,5,7),(7,5,8),(7,8,9),(9,8,10),(9,11,7),(7,11,12),(9,13,11),(11,13,14),(10,15,9),(9,15,13),(8,16,10),(10,16,15),(5,17,8),(8,17,16),(5,6,17),(17,6,18),(4,19,6),(6,19,18),(7,12,20),(20,12,21),(3,22,1),(1,22,23),(4,2,19),(19,2,24),(3,7,22),(22,7,20),(2,1,24),(24,1,23),(12,11,21),(21,11,14),(21,14,20),(20,14,13),(20,13,16),(16,13,15),(20,16,22),(22,16,17),(22,17,19),(19,17,18),(19,24,22),(22,24,23)),$);
#218= IFCSHAPEREPRESENTATION(#26,'Body','Tessellation',(#217));
#219= IFCPRODUCTDEFINITIONSHAPE($,$,(#218));
#220= IFCCARTESIANPOINT((21.792339,11.0,0.922198));
#221= IFCAXIS2PLACEMENT3D(#220,$,$);
#222= IFCLOCALPLACEMENT(#5,#221);
#223= IFCRAILWAYPART('3FV$qrUxf6YBwf6OYl5IHI',$,'RIEL_60R1_ACERO_a1435mm',$,'RAIL',#222,#219,$,$,.NOTDEFINED.,.USERDEFINED.);
#224= IFCRELAGGREGATES('0I_mUze4Lh5dp8UkQjWvjp',$,$,$,#6,(#223,#282,#303,#325,#346,#367,#388,#409));
#225= IFCMATERIAL('ACERO _ESTRUCTURAL_GENERICO',$,$);
#226= IFCRELASSOCIATESMATERIAL('3We6kBv719EA6UvZzvOU59',$,$,$,(#223,#282,#303,#325,#346,#367,#388,#409),#225);
#227= IFCCOLOURRGB('224,223,219',0.87843137254902,0.874509803921569,0.858823529411765);
#228= IFCSURFACESTYLESHADING(#227,$);
#229= IFCSURFACESTYLE($,.BOTH.,(#228));
#230= IFCPRESENTATIONLAYERWITHSTYLE('RIEL_60R1_ACERO_a1435mm',$,(#217,#276,#297,#319,#340,#361,#382,#403),$,.U.,.U.,.U.,(#229));
#231= IFCSTYLEDITEM(#217,(#229),'RIEL_60R1_ACERO_a1435mm');
#232= IFCPROPERTYSET('1Im71XUIjBCh_MqWTo49sS',$,'Properties',$,(#46,#47,#48,#49,#50,#51,#52,#53,#54,#55,#56,#57,#58,#59,#60,#61,#62,#63,#64,#65,#66,#67,#68,#69,#71,#72,#234,#235));
#233= IFCRELDEFINESBYPROPERTIES('1owEOCOOv2mQdSzCwWwTbh',$,$,$,(#223),#232);
#234= IFCPROPERTYSINGLEVALUE('Area',$,IFCREAL(13.823930443502),$);
#235= IFCPROPERTYSINGLEVALUE('Bounds',$,IFCLABEL('((7.765550371259451,-0.020654215943068266,0.7691506494911664),(13.819127309136093,20.02065421594307,1.0752455786869177))'),$);
#236= IFCPROPERTYSET('3v1l6$WV5EeQErvEhNWPPC',$,'Misc',$,(#75,#76,#77,#78));
#237= IFCRELDEFINESBYPROPERTIES('1jvGwHeif5BP1huOyjTGwd',$,$,$,(#223),#236);
#238= IFCPROPERTYSET('1nC$AbW850yf32V5CS5wIt',$,'3D Visualization',$,(#81,#83,#240));
#239= IFCRELDEFINESBYPROPERTIES('15kR2AaWz7sQnazYOiNCcu',$,$,$,(#223),#238);
#240= IFCPROPERTYSINGLEVALUE('Material',$,IFCLABEL('ACERO _ESTRUCTURAL_GENERICO'),$);
#241= IFCPROPERTYSET('2V0nweWtT5Z9Z15gnWgVVq',$,'General',$,(#86,#88,#89,#90,#91,#243));
#242= IFCRELDEFINESBYPROPERTIES('0ILGR6_WTFfA1jKiG32mLm',$,$,$,(#223),#241);
#243= IFCPROPERTYSINGLEVALUE('Layer',$,IFCLABEL('RIEL_60R1_ACERO_a1435mm'),$);
#244= IFCPROPERTYSET('105Yg5UH5FkeDEEwY08HUB',$,'Geometry',$,(#94));
#245= IFCRELDEFINESBYPROPERTIES('06DpF7SkT3ZOHLk$rVHk2y',$,$,$,(#223),#244);
#246= IFCCARTESIANPOINTLIST3D(((3.2501,-10.0,0.022658),(3.2501,-10.0,0.122658),(0.0,-10.0,0.08766),(3.25,-10.0,0.12266),(0.0,-10.0,0.18766),(-3.25,-10.0,0.12266),(-3.2501,-10.0,0.122658),(-3.2501,-10.0,0.022658),(-3.25,10.0,-0.087658),(-3.2501,10.0,-0.08766),(0.0,10.0,-0.022658),(3.25,10.0,-0.087658),(3.2501,10.0,-0.08766),(3.2501,10.0,-0.18766),(0.0,10.0,-0.122658),(-3.2501,10.0,-0.18766)),$);
#247= IFCTRIANGULATEDFACESET(#246,$,$,((1,2,3),(3,2,4),(3,4,5),(5,6,3),(3,6,7),(3,7,8),(6,9,7),(7,9,10),(5,11,6),(6,11,9),(5,4,11),(11,4,12),(4,2,12),(12,2,13),(2,1,13),(13,1,14),(3,15,1),(1,15,14),(3,8,15),(15,8,16),(7,10,8),(8,10,16),(14,15,13),(13,15,12),(12,15,11),(11,15,9),(9,15,10),(10,15,16)),$);
#248= IFCSHAPEREPRESENTATION(#26,'Body','Tessellation',(#247));
#249= IFCPRODUCTDEFINITIONSHAPE($,$,(#248));
#250= IFCCARTESIANPOINT((3.564663,11.0,0.132789));
#251= IFCAXIS2PLACEMENT3D(#250,$,$);
#252= IFCLOCALPLACEMENT(#5,#251);
#253= IFCCOURSE('2xjVOdiKvENhKN4XgWtguP',$,'DRENAJE_SUPERESTRUCTURA_GRANULAR_e0.10m',$,$,#252,#249,'FD4C',.FILTER.);
#254= IFCMATERIAL('DRENAJE_GRANULAR_GENERICO',$,$);
#255= IFCRELASSOCIATESMATERIAL('3E4i11YDr25x9AVIxn6DPM',$,$,$,(#253),#254);
#256= IFCCOLOURRGB('132,139,136',0.517647058823529,0.545098039215686,0.533333333333333);
#257= IFCSURFACESTYLESHADING(#256,$);
#258= IFCSURFACESTYLE($,.BOTH.,(#257));
#259= IFCPRESENTATIONLAYERWITHSTYLE('DRENAJE_SUPERESTRUCTURA_GRANULAR_e0.10m',$,(#247),$,.U.,.U.,.U.,(#258));
#260= IFCSTYLEDITEM(#247,(#258),'DRENAJE_SUPERESTRUCTURA_GRANULAR_e0.10m');
#261= IFCPROPERTYSET('03_bzJls17V9Hdtpchbans',$,'Properties',$,(#46,#47,#48,#49,#50,#51,#52,#53,#54,#55,#56,#57,#58,#59,#60,#61,#62,#63,#64,#65,#66,#67,#68,#69,#71,#72,#263,#264));
#262= IFCRELDEFINESBYPROPERTIES('2emMtiNxf2_xsVpv3KXms_',$,$,$,(#253),#261);
#263= IFCPROPERTYSINGLEVALUE('Area',$,IFCREAL(265.374409961711),$);
#264= IFCPROPERTYSINGLEVALUE('Bounds',$,IFCLABEL('((-15.662518225610256,-1.6176012717187405,-0.054871106442533346),(0.7918445747345686,21.6176012721844,0.3204488693368148))'),$);
#265= IFCPROPERTYSET('0yuISngK176u6WFwq08Q$1',$,'Misc',$,(#75,#76,#77,#78));
#266= IFCRELDEFINESBYPROPERTIES('0aI_$hIKX3RwYkdzFqp3pw',$,$,$,(#253),#265);
#267= IFCPROPERTYSET('28eEiSgJbFqv9RzX3H06c5',$,'3D Visualization',$,(#81,#83,#269));
#268= IFCRELDEFINESBYPROPERTIES('176qXeUdf7gx2GGODHC0lt',$,$,$,(#253),#267);
#269= IFCPROPERTYSINGLEVALUE('Material',$,IFCLABEL('DRENAJE_GRANULAR_GENERICO'),$);
#270= IFCPROPERTYSET('3UosrULfD2Fe_MNZFjY8xB',$,'General',$,(#86,#88,#89,#90,#91,#272));
#271= IFCRELDEFINESBYPROPERTIES('14ZyUwxKX5ouB5aRP_JZzX',$,$,$,(#253),#270);
#272= IFCPROPERTYSINGLEVALUE('Layer',$,IFCLABEL('DRENAJE_SUPERESTRUCTURA_GRANULAR_e0.10m'),$);
#273= IFCPROPERTYSET('1hXJtCcKH6DOgt2iBFW_Ec',$,'Geometry',$,(#94));
#274= IFCRELDEFINESBYPROPERTIES('3kOa07R9jF5B8cvegJmn$z',$,$,$,(#253),#273);
#275= IFCCARTESIANPOINTLIST3D(((0.03455,-10.0,0.154759),(0.03455,-10.0,0.189309),(0.008638,-10.0,0.154759),(-0.008637,-10.0,0.154759),(0.008638,-10.0,0.048949),(-0.008637,-10.0,0.048949),(0.06985,-10.0,0.021009),(-0.06985,-10.0,0.021009),(-0.06985,-10.0,0.032185),(-0.03455,-10.0,0.189309),(-0.03455,-10.0,0.154759),(0.06985,-10.0,0.032185),(-0.06985,10.0,-0.178133),(-0.06985,10.0,-0.189309),(-0.008638,10.0,-0.161369),(-0.008638,10.0,-0.055559),(-0.03455,10.0,-0.055559),(-0.03455,10.0,-0.021009),(0.03455,10.0,-0.021009),(0.03455,10.0,-0.055559),(0.008637,10.0,-0.055559),(0.008637,10.0,-0.161369),(0.06985,10.0,-0.178133),(0.06985,10.0,-0.189309)),$);
#276= IFCTRIANGULATEDFACESET(#275,$,$,((1,2,3),(3,2,4),(3,4,5),(5,4,6),(5,6,7),(7,6,8),(8,6,9),(2,10,4),(4,10,11),(7,12,5),(9,13,8),(8,13,14),(6,15,9),(9,15,13),(4,16,6),(6,16,15),(11,17,4),(4,17,16),(10,18,11),(11,18,17),(10,2,18),(18,2,19),(2,1,19),(19,1,20),(1,3,20),(20,3,21),(3,5,21),(21,5,22),(5,12,22),(22,12,23),(12,7,23),(23,7,24),(8,14,7),(7,14,24),(14,15,24),(24,15,22),(24,22,23),(14,13,15),(22,15,21),(21,15,16),(21,16,19),(19,16,18),(18,16,17),(19,20,21)),$);
#277= IFCSHAPEREPRESENTATION(#26,'Body','Tessellation',(#276));
#278= IFCPRODUCTDEFINITIONSHAPE($,$,(#277));
#279= IFCCARTESIANPOINT((2.566713,11.0,0.79184));
#280= IFCAXIS2PLACEMENT3D(#279,$,$);
#281= IFCLOCALPLACEMENT(#5,#280);
#282= IFCRAILWAYPART('0Noncy_$j4Ph_npGqMFs6f',$,'RIEL_60R1_ACERO_a1435mm',$,'RAIL',#281,#278,$,$,.NOTDEFINED.,.USERDEFINED.);
#283= IFCSTYLEDITEM(#276,(#229),'RIEL_60R1_ACERO_a1435mm');
#284= IFCPROPERTYSET('05djRt9mvDHfkPmSk_6BDT',$,'Properties',$,(#46,#47,#48,#49,#50,#51,#52,#53,#54,#55,#56,#57,#58,#59,#60,#61,#62,#63,#64,#65,#66,#67,#68,#69,#71,#72,#286,#287));
#285= IFCRELDEFINESBYPROPERTIES('0rQRxznDT3juH2jmNuQulH',$,$,$,(#282),#284);
#286= IFCPROPERTYSINGLEVALUE('Area',$,IFCREAL(13.8272050365628),$);
#287= IFCPROPERTYSINGLEVALUE('Bounds',$,IFCLABEL('((-13.480218220036477,-0.034764913842082024,0.6025308940402283),(-3.3863554350100458,20.034764914773405,0.9811488691125305))'),$);
#288= IFCPROPERTYSET('1XqU$YlPz47wzA1YTwY7j6',$,'Misc',$,(#75,#76,#77,#78));
#289= IFCRELDEFINESBYPROPERTIES('0Cwe1yd3z15B24ebrsRTbT',$,$,$,(#282),#288);
#290= IFCPROPERTYSET('2owzxWoRv0xefjHp1lOQ00',$,'3D Visualization',$,(#81,#83,#240));
#291= IFCRELDEFINESBYPROPERTIES('3fSY08LA1DdxeRBaM92dir',$,$,$,(#282),#290);
#292= IFCPROPERTYSET('3lV5acuSD1kQGcD3UKxxzw',$,'General',$,(#86,#88,#89,#90,#91,#243));
#293= IFCRELDEFINESBYPROPERTIES('1WtyjiHCfFduOtvnjv_JYb',$,$,$,(#282),#292);
#294= IFCPROPERTYSET('1C6cX9jrH2$QmhNHuIijXd',$,'Geometry',$,(#94));
#295= IFCRELDEFINESBYPROPERTIES('0cbLPaV0T6pgnC99ZVHcqY',$,$,$,(#282),#294);
#296= IFCCARTESIANPOINTLIST3D(((0.06985,-10.0,0.021009),(0.008637,-10.0,0.048949),(-0.06985,-10.0,0.021009),(-0.008638,-10.0,0.048949),(-0.06985,-10.0,0.032185),(0.06985,-10.0,0.032185),(-0.008638,-10.0,0.154759),(0.008637,-10.0,0.154759),(-0.03455,-10.0,0.189309),(0.03455,-10.0,0.189309),(0.03455,-10.0,0.154759),(-0.03455,-10.0,0.154759),(-0.03455,10.0,-0.021009),(0.03455,10.0,-0.021009),(0.03455,10.0,-0.055559),(0.008637,10.0,-0.055559),(0.008637,10.0,-0.161369),(0.06985,10.0,-0.178133),(0.06985,10.0,-0.189309),(-0.06985,10.0,-0.189309),(-0.06985,10.0,-0.178133),(-0.008638,10.0,-0.161369),(-0.008638,10.0,-0.055559),(-0.03455,10.0,-0.055559)),$);
#297= IFCTRIANGULATEDFACESET(#296,$,$,((1,2,3),(3,2,4),(3,4,5),(1,6,2),(4,2,7),(7,2,8),(7,8,9),(9,8,10),(10,8,11),(9,12,7),(9,10,13),(13,10,14),(10,11,14),(14,11,15),(8,16,11),(11,16,15),(8,2,16),(16,2,17),(2,6,17),(17,6,18),(6,1,18),(18,1,19),(3,20,1),(1,20,19),(5,21,3),(3,21,20),(4,22,5),(5,22,21),(7,23,4),(4,23,22),(7,12,23),(23,12,24),(9,13,12),(12,13,24),(21,22,20),(20,22,17),(20,17,19),(19,17,18),(17,22,16),(16,22,23),(16,23,13),(13,23,24),(13,14,16),(16,14,15)),$);
#298= IFCSHAPEREPRESENTATION(#26,'Body','Tessellation',(#297));
#299= IFCPRODUCTDEFINITIONSHAPE($,$,(#298));
#300= IFCCARTESIANPOINT((4.658328,11.0,0.79184));
#301= IFCAXIS2PLACEMENT3D(#300,$,$);
#302= IFCLOCALPLACEMENT(#5,#301);
#303= IFCRAILWAYPART('1sYWwXz$19puOKoJgPzx2$',$,'RIEL_60R1_ACERO_a1435mm',$,'RAIL',#302,#299,$,$,.NOTDEFINED.,.USERDEFINED.);
#304= IFCSTYLEDITEM(#297,(#229),'RIEL_60R1_ACERO_a1435mm');
#305= IFCPROPERTYSET('2FIiGPx5zEqgoyT6ntAYfx',$,'Properties',$,(#46,#48,#49,#50,#51,#52,#53,#54,#55,#56,#57,#58,#59,#60,#61,#62,#63,#64,#65,#66,#67,#68,#69,#71,#72,#307,#308,#309));
#306= IFCRELDEFINESBYPROPERTIES('3IsSMul5L4qAIXqcg9E1sQ',$,$,$,(#303),#305);
#307= IFCPROPERTYSINGLEVALUE('Area',$,IFCREAL(13.8272050190457),$);
#308= IFCPROPERTYSINGLEVALUE('NumChanges',$,IFCINTEGER(6),$);
#309= IFCPROPERTYSINGLEVALUE('Bounds',$,IFCLABEL('((-11.388603933155537,-0.03476491570472717,0.6025308943703749),(-1.2947411453351378,20.034764914773405,0.9811488694585933))'),$);
#310= IFCPROPERTYSET('1ASH52mDH9ROD0ql2fLh66',$,'Misc',$,(#75,#76,#77,#78));
#311= IFCRELDEFINESBYPROPERTIES('1Fz4JbU7T4NhrMsVvsB_7v',$,$,$,(#303),#310);
#312= IFCPROPERTYSET('0ePggGLsbFSRgWFrOBl4J2',$,'3D Visualization',$,(#81,#83,#240));
#313= IFCRELDEFINESBYPROPERTIES('3EgbJ5Ukz5TQSMmMy5GH3o',$,$,$,(#303),#312);
#314= IFCPROPERTYSET('1KLVOXpR97mOozT6$1hdT_',$,'General',$,(#86,#88,#89,#90,#91,#243));
#315= IFCRELDEFINESBYPROPERTIES('2bp0Yal4TEwgObQ1LMP6qa',$,$,$,(#303),#314);
#316= IFCPROPERTYSET('0FcYlUxOnAExNbcizpQeKm',$,'Geometry',$,(#94));
#317= IFCRELDEFINESBYPROPERTIES('1sbGzvZJjEBOiM9LStRL1k',$,$,$,(#303),#316);
#318= IFCCARTESIANPOINTLIST3D(((-0.0345,-10.0,0.153047),(-0.008625,-10.0,0.118547),(0.0345,-10.0,0.153047),(0.008625,-10.0,0.118547),(0.0345,-10.0,0.118547),(-0.0345,-10.0,0.118547),(0.008625,-10.0,0.012687),(-0.008625,-10.0,0.012687),(0.06985,-10.0,-0.015253),(-0.06985,-10.0,-0.015253),(-0.06985,-10.0,-0.004077),(0.06985,-10.0,-0.004077),(0.06985,10.0,-0.153047),(-0.06985,10.0,-0.153047),(-0.06985,10.0,-0.141871),(-0.008625,10.0,-0.125107),(-0.008625,10.0,-0.019247),(-0.0345,10.0,-0.019247),(-0.0345,10.0,0.015253),(0.0345,10.0,0.015253),(0.0345,10.0,-0.019247),(0.008625,10.0,-0.019247),(0.008625,10.0,-0.125107),(0.06985,10.0,-0.141871)),$);
#319= IFCTRIANGULATEDFACESET(#318,$,$,((1,2,3),(3,2,4),(3,4,5),(1,6,2),(4,2,7),(7,2,8),(7,8,9),(9,8,10),(10,8,11),(9,12,7),(9,10,13),(13,10,14),(11,15,10),(10,15,14),(8,16,11),(11,16,15),(2,17,8),(8,17,16),(6,18,2),(2,18,17),(1,19,6),(6,19,18),(3,20,1),(1,20,19),(3,5,20),(20,5,21),(4,22,5),(5,22,21),(4,7,22),(22,7,23),(7,12,23),(23,12,24),(12,9,24),(24,9,13),(21,22,20),(20,22,17),(20,17,19),(19,17,18),(17,22,16),(16,22,23),(16,23,14),(14,23,13),(13,23,24),(14,15,16)),$);
#320= IFCSHAPEREPRESENTATION(#26,'Body','Tessellation',(#319));
#321= IFCPRODUCTDEFINITIONSHAPE($,$,(#320));
#322= IFCCARTESIANPOINT((23.296339,11.0,0.922198));
#323= IFCAXIS2PLACEMENT3D(#322,$,$);
#324= IFCLOCALPLACEMENT(#5,#323);
#325= IFCRAILWAYPART('1qPgAAbczCbQR5gVneXp6a',$,'RIEL_60R1_ACERO_a1435mm',$,'RAIL',#324,#321,$,$,.NOTDEFINED.,.USERDEFINED.);
#326= IFCSTYLEDITEM(#319,(#229),'RIEL_60R1_ACERO_a1435mm');
#327= IFCPROPERTYSET('1I842gbtX94xjP3Pr1cmdL',$,'Properties',$,(#46,#47,#48,#49,#50,#51,#52,#53,#54,#55,#56,#57,#58,#59,#60,#61,#62,#63,#64,#65,#66,#67,#68,#69,#71,#72,#329,#330));
#328= IFCRELDEFINESBYPROPERTIES('3eIiAaPT9EfPxC1XMDDffp',$,$,$,(#325),#327);
#329= IFCPROPERTYSINGLEVALUE('Area',$,IFCREAL(13.8239304807156),$);
#330= IFCPROPERTYSINGLEVALUE('Bounds',$,IFCLABEL('((9.26955037098378,-0.02065421547740698,0.7691506494884379),(15.323127309791744,20.020654215477407,1.075245578682825))'),$);
#331= IFCPROPERTYSET('24IiqiOY5Bm8xOXG3WX_AT',$,'Misc',$,(#75,#76,#77,#78));
#332= IFCRELDEFINESBYPROPERTIES('30cxtdiEb5vxmJvNUy2SLj',$,$,$,(#325),#331);
#333= IFCPROPERTYSET('0g1BGYK057C8mO0ZuMqyxJ',$,'3D Visualization',$,(#81,#83,#240));
#334= IFCRELDEFINESBYPROPERTIES('3AcngOzB51beLYeSrVCEfb',$,$,$,(#325),#333);
#335= IFCPROPERTYSET('1XqgJGm71BmfAEF68IFhNx',$,'General',$,(#86,#88,#89,#90,#91,#243));
#336= IFCRELDEFINESBYPROPERTIES('3UinkF3zP8Seser7aVSTl5',$,$,$,(#325),#335);
#337= IFCPROPERTYSET('0fyh6vT$H4oO85ep0py2tM',$,'Geometry',$,(#94));
#338= IFCRELDEFINESBYPROPERTIES('2PXk7vg8LAlfNWHtks5HGO',$,$,$,(#325),#337);
#339= IFCCARTESIANPOINTLIST3D(((-0.0345,-10.0,0.153047),(-0.008625,-10.0,0.118547),(0.0345,-10.0,0.153047),(0.008625,-10.0,0.118547),(0.0345,-10.0,0.118547),(-0.0345,-10.0,0.118547),(0.008625,-10.0,0.012687),(-0.008625,-10.0,0.012687),(0.06985,-10.0,-0.015253),(-0.06985,-10.0,-0.015253),(-0.06985,-10.0,-0.004077),(0.06985,-10.0,-0.004077),(-0.06985,10.0,-0.153047),(0.06985,10.0,-0.153047),(-0.06985,10.0,-0.141871),(-0.008625,10.0,-0.125107),(-0.008625,10.0,-0.019247),(-0.0345,10.0,-0.019247),(-0.0345,10.0,0.015253),(0.0345,10.0,0.015253),(0.0345,10.0,-0.019247),(0.008625,10.0,-0.019247),(0.008625,10.0,-0.125107),(0.06985,10.0,-0.141871)),$);
#340= IFCTRIANGULATEDFACESET(#339,$,$,((1,2,3),(3,2,4),(3,4,5),(1,6,2),(4,2,7),(7,2,8),(7,8,9),(9,8,10),(10,8,11),(9,12,7),(10,13,9),(9,13,14),(11,15,10),(10,15,13),(8,16,11),(11,16,15),(2,17,8),(8,17,16),(6,18,2),(2,18,17),(1,19,6),(6,19,18),(1,3,19),(19,3,20),(3,5,20),(20,5,21),(5,4,21),(21,4,22),(4,7,22),(22,7,23),(7,12,23),(23,12,24),(12,9,24),(24,9,14),(21,22,20),(20,22,17),(20,17,19),(19,17,18),(17,22,16),(16,22,23),(16,23,14),(14,23,24),(14,13,16),(16,13,15)),$);
#341= IFCSHAPEREPRESENTATION(#26,'Body','Tessellation',(#340));
#342= IFCPRODUCTDEFINITIONSHAPE($,$,(#341));
#343= IFCCARTESIANPOINT((19.796339,11.0,0.922198));
#344= IFCAXIS2PLACEMENT3D(#343,$,$);
#345= IFCLOCALPLACEMENT(#5,#344);
#346= IFCRAILWAYPART('2GvUySnfv4luXisKTggC3v',$,'RIEL_60R1_ACERO_a1435mm',$,'RAIL',#345,#342,$,$,.NOTDEFINED.,.USERDEFINED.);
#347= IFCSTYLEDITEM(#340,(#229),'RIEL_60R1_ACERO_a1435mm');
#348= IFCPROPERTYSET('0lPqxsnM1FmhfhSOLU$DuZ',$,'Properties',$,(#46,#47,#48,#49,#50,#51,#52,#53,#54,#55,#56,#57,#58,#59,#60,#61,#62,#63,#64,#65,#66,#67,#68,#69,#71,#72,#350,#351));
#349= IFCRELDEFINESBYPROPERTIES('2L_lB$48LAjBg6hY9p6yk_',$,$,$,(#346),#348);
#350= IFCPROPERTYSINGLEVALUE('Area',$,IFCREAL(13.8239304434063),$);
#351= IFCPROPERTYSINGLEVALUE('Bounds',$,IFCLABEL('((5.769550372846425,-0.02065421547740698,0.7691506495093563),(11.823127308860421,20.020654215477407,1.0752455787014696))'),$);
#352= IFCPROPERTYSET('2tUBp5$F93m9zBs$izKEeS',$,'Misc',$,(#75,#76,#77,#78));
#353= IFCRELDEFINESBYPROPERTIES('0WqdkgXWj6WfndiQkQ2BQj',$,$,$,(#346),#352);
#354= IFCPROPERTYSET('0qpq1eWjX7Mw9E2pqu4IoT',$,'3D Visualization',$,(#81,#83,#240));
#355= IFCRELDEFINESBYPROPERTIES('1dULkmGdjCQeskgHlJ_xsO',$,$,$,(#346),#354);
#356= IFCPROPERTYSET('0Bpc3aGD10kg59Fxy5GdOO',$,'General',$,(#86,#88,#89,#90,#91,#243));
#357= IFCRELDEFINESBYPROPERTIES('2mXZ1V_N53_gAfDWjlXpy9',$,$,$,(#346),#356);
#358= IFCPROPERTYSET('0QIZtA5uH1ffbxLcSpltuY',$,'Geometry',$,(#94));
#359= IFCRELDEFINESBYPROPERTIES('0VOltF4UjAthtnDgvTvth$',$,$,$,(#346),#358);
#360= IFCCARTESIANPOINTLIST3D(((0.03455,-10.0,0.154759),(0.03455,-10.0,0.189309),(0.008638,-10.0,0.154759),(-0.03455,-10.0,0.189309),(-0.008637,-10.0,0.154759),(-0.03455,-10.0,0.154759),(0.008638,-10.0,0.048949),(-0.008637,-10.0,0.048949),(0.06985,-10.0,0.021009),(-0.06985,-10.0,0.021009),(-0.06985,-10.0,0.032185),(0.06985,-10.0,0.032185),(-0.06985,10.0,-0.178133),(-0.06985,10.0,-0.189309),(-0.008638,10.0,-0.161369),(-0.008638,10.0,-0.055559),(-0.03455,10.0,-0.055559),(-0.03455,10.0,-0.021009),(0.03455,10.0,-0.021009),(0.03455,10.0,-0.055559),(0.008637,10.0,-0.055559),(0.008637,10.0,-0.161369),(0.06985,10.0,-0.178133),(0.06985,10.0,-0.189309)),$);
#361= IFCTRIANGULATEDFACESET(#360,$,$,((1,2,3),(3,2,4),(3,4,5),(5,4,6),(3,5,7),(7,5,8),(7,8,9),(9,8,10),(10,8,11),(9,12,7),(11,13,10),(10,13,14),(8,15,11),(11,15,13),(5,16,8),(8,16,15),(6,17,5),(5,17,16),(4,18,6),(6,18,17),(4,2,18),(18,2,19),(2,1,19),(19,1,20),(1,3,20),(20,3,21),(3,7,21),(21,7,22),(7,12,22),(22,12,23),(12,9,23),(23,9,24),(9,10,24),(24,10,14),(14,15,24),(24,15,22),(24,22,23),(14,13,15),(22,15,21),(21,15,16),(21,16,18),(18,16,17),(18,19,21),(21,19,20)),$);
#362= IFCSHAPEREPRESENTATION(#26,'Body','Tessellation',(#361));
#363= IFCPRODUCTDEFINITIONSHAPE($,$,(#362));
#364= IFCCARTESIANPOINT((6.162428,11.0,0.787173));
#365= IFCAXIS2PLACEMENT3D(#364,$,$);
#366= IFCLOCALPLACEMENT(#5,#365);
#367= IFCRAILWAYPART('2_9e9HOADDTh9nTfKioxAx',$,'RIEL_60R1_ACERO_a1435mm',$,'RAIL',#366,#363,$,$,.NOTDEFINED.,.USERDEFINED.);
#368= IFCSTYLEDITEM(#361,(#229),'RIEL_60R1_ACERO_a1435mm');
#369= IFCPROPERTYSET('3WocYd2sr2yPcnWNuSP3ln',$,'Properties',$,(#46,#48,#49,#50,#51,#52,#53,#54,#55,#56,#57,#58,#59,#60,#61,#62,#63,#64,#65,#66,#67,#68,#69,#71,#72,#308,#371,#372));
#370= IFCRELDEFINESBYPROPERTIES('09FLwubA98EQzCbZc8HhAF',$,$,$,(#367),#369);
#371= IFCPROPERTYSINGLEVALUE('Area',$,IFCREAL(13.8272050758089),$);
#372= IFCPROPERTYSINGLEVALUE('Bounds',$,IFCLABEL('((-9.884503933601081,-0.0347649147734046,0.5978637807124869),(0.20935885095968843,20.034764914773405,0.9764817557893366))'),$);
#373= IFCPROPERTYSET('3Y6y5xkDT4CRuUjfMOLeLN',$,'Misc',$,(#75,#76,#77,#78));
#374= IFCRELDEFINESBYPROPERTIES('3wMx_6tCvFvA4E6F9tidfs',$,$,$,(#367),#373);
#375= IFCPROPERTYSET('1Xw4hCYvr9q85kiNshHhSt',$,'3D Visualization',$,(#81,#83,#240));
#376= IFCRELDEFINESBYPROPERTIES('3EsiLbE5b2$A00mz$Jy_iv',$,$,$,(#367),#375);
#377= IFCPROPERTYSET('1cEwMxFAT07v_xzf6H4VRz',$,'General',$,(#86,#88,#89,#90,#91,#243));
#378= IFCRELDEFINESBYPROPERTIES('0KmC0UcOfBjvYI_pbr6qja',$,$,$,(#367),#377);
#379= IFCPROPERTYSET('1m5BpToSf9HB2E8Rj9x9yX',$,'Geometry',$,(#94));
#380= IFCRELDEFINESBYPROPERTIES('2KsDqbA298LP6Ypzjj_3LT',$,$,$,(#367),#379);
#381= IFCCARTESIANPOINTLIST3D(((0.0345,-10.0,0.118547),(0.0345,-10.0,0.153047),(0.008625,-10.0,0.118547),(-0.0345,-10.0,0.153047),(-0.008625,-10.0,0.118547),(-0.0345,-10.0,0.118547),(0.008625,-10.0,0.012687),(-0.008625,-10.0,0.012687),(-0.06985,-10.0,-0.015253),(-0.06985,-10.0,-0.004077),(0.06985,-10.0,-0.015253),(0.06985,-10.0,-0.004077),(0.06985,10.0,-0.153047),(-0.06985,10.0,-0.153047),(-0.06985,10.0,-0.141871),(-0.008625,10.0,-0.125107),(-0.008625,10.0,-0.019247),(-0.0345,10.0,-0.019247),(-0.0345,10.0,0.015253),(0.008625,10.0,-0.125107),(0.06985,10.0,-0.141871),(0.008625,10.0,-0.019247),(0.0345,10.0,-0.019247),(0.0345,10.0,0.015253)),$);
#382= IFCTRIANGULATEDFACESET(#381,$,$,((1,2,3),(3,2,4),(3,4,5),(5,4,6),(3,5,7),(7,5,8),(7,8,9),(9,8,10),(9,11,7),(7,11,12),(11,9,13),(13,9,14),(10,15,9),(9,15,14),(8,16,10),(10,16,15),(5,17,8),(8,17,16),(6,18,5),(5,18,17),(4,19,6),(6,19,18),(7,12,20),(20,12,21),(3,22,1),(1,22,23),(2,24,4),(4,24,19),(3,7,22),(22,7,20),(2,1,24),(24,1,23),(12,11,21),(21,11,13),(21,13,20),(20,13,14),(20,14,16),(16,14,15),(20,16,22),(22,16,17),(22,17,19),(19,17,18),(19,24,22),(22,24,23)),$);
#383= IFCSHAPEREPRESENTATION(#26,'Body','Tessellation',(#382));
#384= IFCPRODUCTDEFINITIONSHAPE($,$,(#383));
#385= IFCCARTESIANPOINT((18.292339,11.0,0.922198));
#386= IFCAXIS2PLACEMENT3D(#385,$,$);
#387= IFCLOCALPLACEMENT(#5,#386);
#388= IFCRAILWAYPART('2eZ2Q6gVf4Nem8VVOJoLhU',$,'RIEL_60R1_ACERO_a1435mm',$,'RAIL',#387,#384,$,$,.NOTDEFINED.,.USERDEFINED.);
#389= IFCSTYLEDITEM(#382,(#229),'RIEL_60R1_ACERO_a1435mm');
#390= IFCPROPERTYSET('0mKhXk_arBMAtaJfXhZ8mH',$,'Properties',$,(#46,#47,#48,#49,#50,#51,#52,#53,#54,#55,#56,#57,#58,#59,#60,#61,#62,#63,#64,#65,#66,#67,#68,#69,#71,#72,#392,#393));
#391= IFCRELDEFINESBYPROPERTIES('2D04$f9E5E1fGp8MLCjL_i',$,$,$,(#388),#390);
#392= IFCPROPERTYSINGLEVALUE('Area',$,IFCREAL(13.8239304618333),$);
#393= IFCPROPERTYSINGLEVALUE('Bounds',$,IFCLABEL('((4.265550370328128,-0.02065421617589891,0.7691506495102658),(10.319127310067415,20.02065421594307,1.0752455787105646))'),$);
#394= IFCPROPERTYSET('3sGrHMXAX5l8RjTn9$YQ19',$,'Misc',$,(#75,#76,#77,#78));
#395= IFCRELDEFINESBYPROPERTIES('0j8Gm4iHz0$9OGSq9slWe$',$,$,$,(#388),#394);
#396= IFCPROPERTYSET('0tKXFXbJz1AAHPKl3jA7Jb',$,'3D Visualization',$,(#81,#83,#240));
#397= IFCRELDEFINESBYPROPERTIES('3t4upqRL96P9kzT4g_1Y7t',$,$,$,(#388),#396);
#398= IFCPROPERTYSET('0cLR5miT1FQgA9NVR4mjMs',$,'General',$,(#86,#88,#89,#90,#91,#243));
#399= IFCRELDEFINESBYPROPERTIES('1BIoMcKiT13QTge0$ewIQh',$,$,$,(#388),#398);
#400= IFCPROPERTYSET('2HvGJ52qr0_R35lAZZLKIB',$,'Geometry',$,(#94));
#401= IFCRELDEFINESBYPROPERTIES('1n83sJ4qbCyfOIuq8nltId',$,$,$,(#388),#400);
#402= IFCCARTESIANPOINTLIST3D(((0.06985,-10.0,0.021009),(0.008638,-10.0,0.048949),(-0.06985,-10.0,0.021009),(-0.008638,-10.0,0.048949),(-0.06985,-10.0,0.032185),(0.06985,-10.0,0.032185),(-0.008638,-10.0,0.154759),(0.008638,-10.0,0.154759),(-0.03455,-10.0,0.189309),(0.03455,-10.0,0.189309),(0.03455,-10.0,0.154759),(-0.03455,-10.0,0.154759),(-0.03455,10.0,-0.021009),(0.03455,10.0,-0.021009),(0.03455,10.0,-0.055559),(0.008637,10.0,-0.055559),(0.008637,10.0,-0.161369),(0.06985,10.0,-0.178133),(0.06985,10.0,-0.189309),(-0.06985,10.0,-0.189309),(-0.06985,10.0,-0.178133),(-0.008638,10.0,-0.161369),(-0.008638,10.0,-0.055559),(-0.03455,10.0,-0.055559)),$);
#403= IFCTRIANGULATEDFACESET(#402,$,$,((1,2,3),(3,2,4),(3,4,5),(1,6,2),(4,2,7),(7,2,8),(7,8,9),(9,8,10),(10,8,11),(9,12,7),(9,10,13),(13,10,14),(10,11,14),(14,11,15),(8,16,11),(11,16,15),(8,2,16),(16,2,17),(2,6,17),(17,6,18),(6,1,18),(18,1,19),(1,3,19),(19,3,20),(5,21,3),(3,21,20),(4,22,5),(5,22,21),(7,23,4),(4,23,22),(7,12,23),(23,12,24),(9,13,12),(12,13,24),(21,22,20),(20,22,17),(20,17,19),(19,17,18),(17,22,16),(16,22,23),(16,23,13),(13,23,24),(13,14,16),(16,14,15)),$);
#404= IFCSHAPEREPRESENTATION(#26,'Body','Tessellation',(#403));
#405= IFCPRODUCTDEFINITIONSHAPE($,$,(#404));
#406= IFCCARTESIANPOINT((1.158328,11.0,0.79184));
#407= IFCAXIS2PLACEMENT3D(#406,$,$);
#408= IFCLOCALPLACEMENT(#5,#407);
#409= IFCRAILWAYPART('1jf0VvzYH6JhjG3mHe0W5O',$,'RIEL_60R1_ACERO_a1435mm',$,'RAIL',#408,#405,$,$,.NOTDEFINED.,.USERDEFINED.);
#410= IFCSTYLEDITEM(#403,(#229),'RIEL_60R1_ACERO_a1435mm');
#411= IFCPROPERTYSET('3AWBCPFaP089GQwHltx33Z',$,'Properties',$,(#46,#48,#49,#50,#51,#52,#53,#54,#55,#56,#57,#58,#59,#60,#61,#62,#63,#64,#65,#66,#67,#68,#69,#71,#72,#413,#414,#415));
#412= IFCRELDEFINESBYPROPERTIES('0tQ33rdD1DE8AzrkViMB6c',$,$,$,(#409),#411);
#413= IFCPROPERTYSINGLEVALUE('Area',$,IFCREAL(13.8272050567906),$);
#414= IFCPROPERTYSINGLEVALUE('NumChanges',$,IFCINTEGER(7),$);
#415= IFCPROPERTYSINGLEVALUE('Bounds',$,IFCLABEL('((-14.888603933155537,-0.034764915239065886,0.602530893796029),(-4.794741144869477,20.034764914773405,0.9811488688746977))'),$);
#416= IFCPROPERTYSET('04xiLHXQD8QPgOLqGqkUIG',$,'Misc',$,(#75,#76,#77,#78));
#417= IFCRELDEFINESBYPROPERTIES('1fw8vZlR14hfZJyDlkNxV8',$,$,$,(#409),#416);
#418= IFCPROPERTYSET('3mV0g8TE96mQiz1l4Vptd0',$,'3D Visualization',$,(#81,#83,#240));
#419= IFCRELDEFINESBYPROPERTIES('0XhLPePFT6jBakcOmoBFu0',$,$,$,(#409),#418);
#420= IFCPROPERTYSET('0BaBT$MATAluiRG6QhUiAR',$,'General',$,(#86,#88,#89,#90,#91,#243));
#421= IFCRELDEFINESBYPROPERTIES('119YVJQjHA7f8R_Az$r5Hs',$,$,$,(#409),#420);
#422= IFCPROPERTYSET('0tQ_Wa$ufACxdr3hx2muk9',$,'Geometry',$,(#94));
#423= IFCRELDEFINESBYPROPERTIES('1my_wPWLPBs8mbn5W32na7',$,$,$,(#409),#422);
ENDSEC;

END-ISO-10303-21;
