ISO-10303-21;
HEADER;
FILE_DESCRIPTION(('ViewDefinition [CoordinationView, QuantityTakeOffAddOnView]','RevitIdentifiers [ContentGUID: 2d7a955e-d8ac-43bc-bf72-1435f16c16f1, VersionGUID: 601c450e-ca16-40e8-9245-86918dabc6fa, NumberOfSaves: 6]','CoordinateReference [CoordinateBase: Internal Origin, ProjectSite: Default Site]'),'2;1');
FILE_NAME('IfcDoor.TURNSTILE.ifc','2026-03-21T11:37:31-05:00',(''),(''),'ODA SDAI 25.12','Autodesk - Revit 26.4.0.32 (ENU) - 26.4.0.32','');
FILE_SCHEMA(('IFC4X3_ADD2'));
ENDSEC;

DATA;
#1=IFCORGANIZATION($,'Autodesk Revit 2026 (ENU)',$,$,$);
#2=IFCAPPLICATION(#1,'2026','Autodesk Revit 2026 (ENU)','Revit');
#3=IFCPERSON($,'','alejandro.hernandez3L92L',$,$,$,$,$);
#4=IFCORGANIZATION($,'Organization Name','Organization Description',$,$);
#5=IFCPERSONANDORGANIZATION(#3,#4,$);
#6=IFCOWNERHISTORY(#5,#2,$,.NOCHANGE.,$,$,$,1774110271);
#7=IFCSIUNIT(*,.LENGTHUNIT.,.MILLI.,.METRE.);
#8=IFCSIUNIT(*,.AREAUNIT.,$,.SQUARE_METRE.);
#9=IFCSIUNIT(*,.VOLUMEUNIT.,$,.CUBIC_METRE.);
#10=IFCCARTESIANPOINT((0.,0.,0.));
#11=IFCAXIS2PLACEMENT3D(#10,$,$);
#12=IFCDIRECTION((0.,1.));
#13=IFCGEOMETRICREPRESENTATIONCONTEXT($,'Model',3,0.01,#11,#12);
#14=IFCGEOMETRICREPRESENTATIONSUBCONTEXT('Axis','Model',*,*,*,*,#13,$,.GRAPH_VIEW.,$);
#15=IFCGEOMETRICREPRESENTATIONSUBCONTEXT('Body','Model',*,*,*,*,#13,$,.MODEL_VIEW.,$);
#16=IFCGEOMETRICREPRESENTATIONSUBCONTEXT('Box','Model',*,*,*,*,#13,$,.MODEL_VIEW.,$);
#17=IFCGEOMETRICREPRESENTATIONSUBCONTEXT('FootPrint','Model',*,*,*,*,#13,$,.MODEL_VIEW.,$);
#18=IFCPROJECT('0jUfLUsAn3lBzo53KEa_a1',#6,'Project Number',$,$,'Project Name','Project Status',(#13),#1755);
#19=IFCPOSTALADDRESS($,$,$,$,('Enter address here\X\0D\X\0AAddress Line 2'),$,'','Boston','','MA');
#20=IFCAXIS2PLACEMENT3D(#10,$,$);
#21=IFCLOCALPLACEMENT(#31,#20);
#22=IFCBUILDING('0jUfLUsAn3lBzo53KEa_a0',#6,'Building Name',$,$,#21,$,'Building Name',.ELEMENT.,$,$,#19);
#23=IFCAXIS2PLACEMENT3D(#10,$,$);
#24=IFCLOCALPLACEMENT(#21,#23);
#25=IFCBUILDINGSTOREY('2JF4e6axWHqu3u0C1FZlmi',#6,'L1',$,$,#24,$,'L1',.ELEMENT.,0.);
#26=IFCCARTESIANPOINT((0.,0.,3600.));
#27=IFCAXIS2PLACEMENT3D(#26,$,$);
#28=IFCLOCALPLACEMENT(#21,#27);
#29=IFCBUILDINGSTOREY('1ZGO8hrFCHqw0v0026FpFv',#6,'L2',$,$,#28,$,'L2',.ELEMENT.,3600.0000000000005);
#30=IFCAXIS2PLACEMENT3D(#10,$,$);
#31=IFCLOCALPLACEMENT($,#30);
#32=IFCSITE('0jUfLUsAn3lBzo53KEa_a3',#6,'Default',$,$,#31,$,$,.ELEMENT.,(42,21,31,401672),(-71,-3,-24,-345703),0.,$,$);
#33=IFCPROPERTYSINGLEVALUE('Reference',$,IFCIDENTIFIER('Project Information'),$);
#34=IFCPROPERTYSET('0Xc$fPgffLDLF5vmbvzDHG',#6,'Pset_SiteCommon',$,(#33));
#35=IFCPROPERTYSINGLEVALUE('IsExternal',$,IFCBOOLEAN(.F.),$);
#36=IFCPROPERTYSET('12UC4EkfUpg3hubOD__xOP',#6,'Pset_SpaceCommon',$,(#33,#35));
#37=IFCRELDEFINESBYPROPERTIES('0l45bTVUVhMvGrjeX0Q44$',#6,$,$,(#32),#34);
#38=IFCRELDEFINESBYPROPERTIES('1Qw$vbmNFcmw0o_JkT40It',#6,$,$,(#32),#36);
#39=IFCCARTESIANPOINT((120.,-40.,200.));
#40=IFCCARTESIANPOINT((340.,-40.,200.));
#41=IFCCARTESIANPOINT((352.940952255132,-40.,201.70370868552291));
#42=IFCCARTESIANPOINT((365.,-40.,206.6987298107544));
#43=IFCCARTESIANPOINT((375.35533905933335,-40.,214.64466094064895));
#44=IFCCARTESIANPOINT((383.30127018922792,-40.,225.));
#45=IFCCARTESIANPOINT((388.29629131445944,-40.,237.05904774485029));
#46=IFCCARTESIANPOINT((390.,-40.,250.));
#47=IFCCARTESIANPOINT((390.,-40.,1750.));
#48=IFCCARTESIANPOINT((388.29629131445233,-40.,1762.9409522551059));
#49=IFCCARTESIANPOINT((383.30127018922093,-40.,1775.));
#50=IFCCARTESIANPOINT((375.35533905932647,-40.,1785.3553390593072));
#51=IFCCARTESIANPOINT((365.,-40.,1793.3012701892019));
#52=IFCCARTESIANPOINT((352.94095225512524,-40.,1798.2962913144333));
#53=IFCCARTESIANPOINT((340.,-40.,1800.));
#54=IFCCARTESIANPOINT((170.,-40.,1800.));
#55=IFCCARTESIANPOINT((157.05904774487362,-40.,1798.2962913144356));
#56=IFCCARTESIANPOINT((145.,-40.,1793.3012701892044));
#57=IFCCARTESIANPOINT((134.64466094067228,-40.,1785.3553390593095));
#58=IFCCARTESIANPOINT((126.69872981077773,-40.,1775.));
#59=IFCCARTESIANPOINT((121.70370868554625,-40.,1762.9409522551084));
#60=IFCCARTESIANPOINT((120.,-40.,1750.));
#61=IFCCARTESIANPOINT((120.,-30.,200.));
#62=IFCCARTESIANPOINT((120.,-30.,1750.));
#63=IFCCARTESIANPOINT((121.70370868554625,-30.,1762.9409522551084));
#64=IFCCARTESIANPOINT((126.69872981077773,-30.,1775.));
#65=IFCCARTESIANPOINT((134.64466094067228,-30.,1785.3553390593095));
#66=IFCCARTESIANPOINT((145.,-30.,1793.3012701892044));
#67=IFCCARTESIANPOINT((157.05904774487362,-30.,1798.2962913144356));
#68=IFCCARTESIANPOINT((170.,-30.,1800.));
#69=IFCCARTESIANPOINT((340.,-30.,1800.));
#70=IFCCARTESIANPOINT((352.94095225512524,-30.,1798.2962913144333));
#71=IFCCARTESIANPOINT((365.,-30.,1793.3012701892019));
#72=IFCCARTESIANPOINT((375.35533905932647,-30.,1785.3553390593072));
#73=IFCCARTESIANPOINT((383.30127018922093,-30.,1775.));
#74=IFCCARTESIANPOINT((388.29629131445233,-30.,1762.9409522551059));
#75=IFCCARTESIANPOINT((390.,-30.,1750.));
#76=IFCCARTESIANPOINT((390.,-30.,250.));
#77=IFCCARTESIANPOINT((388.29629131445944,-30.,237.05904774485029));
#78=IFCCARTESIANPOINT((383.30127018922792,-30.,225.));
#79=IFCCARTESIANPOINT((375.35533905933335,-30.,214.64466094064895));
#80=IFCCARTESIANPOINT((365.,-30.,206.6987298107544));
#81=IFCCARTESIANPOINT((352.940952255132,-30.,201.70370868552291));
#82=IFCCARTESIANPOINT((340.,-30.,200.));
#83=IFCPOLYLOOP((#46,#47,#48,#49,#50,#51,#52,#53,#54,#55,#56,#57,#58,#59,#60,#39,#40,#41,#42,#43,#44,#45));
#84=IFCFACEOUTERBOUND(#83,.T.);
#85=IFCFACE((#84));
#86=IFCPOLYLOOP((#82,#61,#62,#63,#64,#65,#66,#67,#68,#69,#70,#71,#72,#73,#74,#75,#76,#77,#78,#79,#80,#81));
#87=IFCFACEOUTERBOUND(#86,.T.);
#88=IFCFACE((#87));
#89=IFCPOLYLOOP((#40,#39,#61,#82));
#90=IFCFACEOUTERBOUND(#89,.T.);
#91=IFCFACE((#90));
#92=IFCPOLYLOOP((#47,#46,#76,#75));
#93=IFCFACEOUTERBOUND(#92,.T.);
#94=IFCFACE((#93));
#95=IFCPOLYLOOP((#54,#53,#69,#68));
#96=IFCFACEOUTERBOUND(#95,.T.);
#97=IFCFACE((#96));
#98=IFCPOLYLOOP((#39,#60,#62,#61));
#99=IFCFACEOUTERBOUND(#98,.T.);
#100=IFCFACE((#99));
#101=IFCPOLYLOOP((#41,#40,#82,#81));
#102=IFCFACEOUTERBOUND(#101,.T.);
#103=IFCFACE((#102));
#104=IFCPOLYLOOP((#42,#41,#81,#80));
#105=IFCFACEOUTERBOUND(#104,.T.);
#106=IFCFACE((#105));
#107=IFCPOLYLOOP((#43,#42,#80,#79));
#108=IFCFACEOUTERBOUND(#107,.T.);
#109=IFCFACE((#108));
#110=IFCPOLYLOOP((#44,#43,#79,#78));
#111=IFCFACEOUTERBOUND(#110,.T.);
#112=IFCFACE((#111));
#113=IFCPOLYLOOP((#45,#44,#78,#77));
#114=IFCFACEOUTERBOUND(#113,.T.);
#115=IFCFACE((#114));
#116=IFCPOLYLOOP((#46,#45,#77,#76));
#117=IFCFACEOUTERBOUND(#116,.T.);
#118=IFCFACE((#117));
#119=IFCPOLYLOOP((#48,#47,#75,#74));
#120=IFCFACEOUTERBOUND(#119,.T.);
#121=IFCFACE((#120));
#122=IFCPOLYLOOP((#49,#48,#74,#73));
#123=IFCFACEOUTERBOUND(#122,.T.);
#124=IFCFACE((#123));
#125=IFCPOLYLOOP((#50,#49,#73,#72));
#126=IFCFACEOUTERBOUND(#125,.T.);
#127=IFCFACE((#126));
#128=IFCPOLYLOOP((#51,#50,#72,#71));
#129=IFCFACEOUTERBOUND(#128,.T.);
#130=IFCFACE((#129));
#131=IFCPOLYLOOP((#52,#51,#71,#70));
#132=IFCFACEOUTERBOUND(#131,.T.);
#133=IFCFACE((#132));
#134=IFCPOLYLOOP((#53,#52,#70,#69));
#135=IFCFACEOUTERBOUND(#134,.T.);
#136=IFCFACE((#135));
#137=IFCPOLYLOOP((#55,#54,#68,#67));
#138=IFCFACEOUTERBOUND(#137,.T.);
#139=IFCFACE((#138));
#140=IFCPOLYLOOP((#56,#55,#67,#66));
#141=IFCFACEOUTERBOUND(#140,.T.);
#142=IFCFACE((#141));
#143=IFCPOLYLOOP((#57,#56,#66,#65));
#144=IFCFACEOUTERBOUND(#143,.T.);
#145=IFCFACE((#144));
#146=IFCPOLYLOOP((#58,#57,#65,#64));
#147=IFCFACEOUTERBOUND(#146,.T.);
#148=IFCFACE((#147));
#149=IFCPOLYLOOP((#59,#58,#64,#63));
#150=IFCFACEOUTERBOUND(#149,.T.);
#151=IFCFACE((#150));
#152=IFCPOLYLOOP((#60,#59,#63,#62));
#153=IFCFACEOUTERBOUND(#152,.T.);
#154=IFCFACE((#153));
#155=IFCCARTESIANPOINT((-150.,50.,1000.));
#156=IFCCARTESIANPOINT((-150.,40.,1000.));
#157=IFCCARTESIANPOINT((-120.,40.,1000.));
#158=IFCCARTESIANPOINT((-120.,30.,1000.));
#159=IFCCARTESIANPOINT((-150.,30.,1000.));
#160=IFCCARTESIANPOINT((-150.,-0.,1000.));
#161=IFCCARTESIANPOINT((-150.,-50.,1000.));
#162=IFCCARTESIANPOINT((-148.61606802342948,-175.0460557855084,1000.));
#163=IFCCARTESIANPOINT((-144.46631666803296,-300.,1000.));
#164=IFCCARTESIANPOINT((144.46631666803185,-300.,1000.));
#165=IFCCARTESIANPOINT((148.61606802342948,-175.04605578556402,1000.));
#166=IFCCARTESIANPOINT((150.,-50.,1000.));
#167=IFCCARTESIANPOINT((150.,-40.,1000.));
#168=IFCCARTESIANPOINT((120.,-40.,1000.));
#169=IFCCARTESIANPOINT((120.,-30.,1000.));
#170=IFCCARTESIANPOINT((150.,-30.,1000.));
#171=IFCCARTESIANPOINT((150.,-0.,1000.));
#172=IFCCARTESIANPOINT((150.,50.,1000.));
#173=IFCCARTESIANPOINT((148.61606802343164,175.04605578551326,1000.));
#174=IFCCARTESIANPOINT((144.46631666803401,300.,1000.));
#175=IFCCARTESIANPOINT((-144.46631666803188,300.,1000.));
#176=IFCCARTESIANPOINT((-148.6160680234284,175.04605578555592,1000.));
#177=IFCCARTESIANPOINT((100.,800.,-0.));
#178=IFCCARTESIANPOINT((127.75953051163121,550.82199106620942,-0.));
#179=IFCCARTESIANPOINT((144.43714409996511,300.65778724116609,-0.));
#180=IFCCARTESIANPOINT((150.,50.,-0.));
#181=IFCCARTESIANPOINT((150.,-30.,-0.));
#182=IFCCARTESIANPOINT((120.,-30.,-0.));
#183=IFCCARTESIANPOINT((120.,-40.,-0.));
#184=IFCCARTESIANPOINT((150.,-40.,-0.));
#185=IFCCARTESIANPOINT((150.,-50.,-0.));
#186=IFCCARTESIANPOINT((144.43714409996295,-300.65778724119644,-0.));
#187=IFCCARTESIANPOINT((127.75953051162688,-550.82199106623898,-0.));
#188=IFCCARTESIANPOINT((100.,-800.,-0.));
#189=IFCCARTESIANPOINT((-100.,-800.,-0.));
#190=IFCCARTESIANPOINT((-127.75953051162907,-550.82199106620806,-0.));
#191=IFCCARTESIANPOINT((-144.43714409996298,-300.65778724116711,-0.));
#192=IFCCARTESIANPOINT((-150.,-50.,-0.));
#193=IFCCARTESIANPOINT((-150.,30.,-0.));
#194=IFCCARTESIANPOINT((-120.,30.,-0.));
#195=IFCCARTESIANPOINT((-120.,40.,-0.));
#196=IFCCARTESIANPOINT((-150.,40.,-0.));
#197=IFCCARTESIANPOINT((-150.,50.,-0.));
#198=IFCCARTESIANPOINT((-144.43714409996082,300.65778724120912,-0.));
#199=IFCCARTESIANPOINT((-127.75953051162473,550.82199106624512,-0.));
#200=IFCCARTESIANPOINT((-100.,800.,-0.));
#201=IFCCARTESIANPOINT((-100.,800.,877.10966802642281));
#202=IFCCARTESIANPOINT((100.,800.,877.10966802636244));
#203=IFCCARTESIANPOINT((50.,800.,777.10966802636199));
#204=IFCCARTESIANPOINT((-50.,800.,777.10966802636199));
#205=IFCCARTESIANPOINT((-50.,800.,677.10966802636199));
#206=IFCCARTESIANPOINT((50.,800.,677.1096680263621));
#207=IFCCARTESIANPOINT((-138.159830136827,415.58682940095412,993.78882732863644));
#208=IFCCARTESIANPOINT((-129.59916262946513,529.70122797591466,975.25763355482081));
#209=IFCCARTESIANPOINT((-124.53816065907088,585.78958490236778,961.44962249505954));
#210=IFCCARTESIANPOINT((-113.03668211241319,695.22802578658604,924.98089102743199));
#211=IFCCARTESIANPOINT((-100.,-800.,877.10966802636233));
#212=IFCCARTESIANPOINT((-113.03668211241644,-695.22802578655637,924.98089102744461));
#213=IFCCARTESIANPOINT((-124.53816065907522,-585.78958490233322,961.44962249506875));
#214=IFCCARTESIANPOINT((-129.59916262946945,-529.70122797588022,975.25763355482832));
#215=IFCCARTESIANPOINT((-138.15983013683024,-415.58682940092217,993.78882732863997));
#216=IFCCARTESIANPOINT((100.,-800.,877.10966802632129));
#217=IFCCARTESIANPOINT((-50.,-800.,777.10966802636199));
#218=IFCCARTESIANPOINT((50.,-800.,777.10966802636199));
#219=IFCCARTESIANPOINT((50.,-800.,677.10966802636199));
#220=IFCCARTESIANPOINT((-50.,-800.,677.10966802636199));
#221=IFCCARTESIANPOINT((138.15983013682592,-415.58682940099339,993.78882732863224));
#222=IFCCARTESIANPOINT((129.59916262946405,-529.70122797595002,975.2576335548124));
#223=IFCCARTESIANPOINT((124.5381606590698,-585.78958490240234,961.44962249504943));
#224=IFCCARTESIANPOINT((113.03668211241103,-695.2280257866214,924.98089102741665));
#225=IFCCARTESIANPOINT((113.03668211241968,695.22802578655421,924.9808910274445));
#226=IFCCARTESIANPOINT((124.53816065907739,585.78958490233231,961.44962249506898));
#227=IFCCARTESIANPOINT((129.59916262947161,529.70122797588124,975.25763355482843));
#228=IFCCARTESIANPOINT((138.1598301368324,415.58682940093212,993.78882732864008));
#229=IFCCARTESIANPOINT((75.,-632.95974255023123,947.32254088747561));
#230=IFCCARTESIANPOINT((-75.,-632.95974255024475,947.32254088747095));
#231=IFCCARTESIANPOINT((-75.,-567.02071428827787,966.42570320952393));
#232=IFCCARTESIANPOINT((-75.,-500.,981.29547506813151));
#233=IFCCARTESIANPOINT((75.,-500.,981.29547506812889));
#234=IFCCARTESIANPOINT((75.,-567.02071428827787,966.42570320952393));
#235=IFCCARTESIANPOINT((-118.78742138574621,-640.50880534444423,943.21525676125657));
#236=IFCCARTESIANPOINT((118.78742138573988,-640.5088053445146,943.21525676123315));
#237=IFCCARTESIANPOINT((-75.,632.95974255021792,947.32254088747993));
#238=IFCCARTESIANPOINT((75.,632.95974255021156,947.32254088748186));
#239=IFCCARTESIANPOINT((75.,567.02071428824411,966.42570320953268));
#240=IFCCARTESIANPOINT((75.,500.,981.29547506813412));
#241=IFCCARTESIANPOINT((-75.,500.,981.29547506813537));
#242=IFCCARTESIANPOINT((-75.,567.02071428824411,966.42570320953268));
#243=IFCCARTESIANPOINT((118.78742138574901,640.50880534444377,943.2152567612568));
#244=IFCCARTESIANPOINT((-118.78742138574196,640.5088053444764,943.21525676124588));
#245=IFCCARTESIANPOINT((-50.,-789.49024589812564,777.10966802636199));
#246=IFCCARTESIANPOINT((50.,-789.49024589812586,777.10966802636199));
#247=IFCCARTESIANPOINT((50.,-789.49024589812586,677.10966802636199));
#248=IFCCARTESIANPOINT((-50.,-789.49024589812564,677.10966802636199));
#249=IFCCARTESIANPOINT((50.,789.49024589812586,777.10966802636199));
#250=IFCCARTESIANPOINT((-50.,789.49024589812564,777.10966802636199));
#251=IFCCARTESIANPOINT((-50.,789.49024589812564,677.10966802636199));
#252=IFCCARTESIANPOINT((50.,789.49024589812586,677.10966802636199));
#253=IFCCARTESIANPOINT((75.,-500.,947.32254088747754));
#254=IFCCARTESIANPOINT((-75.,-500.,947.32254088747754));
#255=IFCCARTESIANPOINT((-75.,500.,947.32254088747754));
#256=IFCCARTESIANPOINT((75.,500.,947.32254088747754));
#257=IFCPOLYLOOP((#171,#172,#173,#174,#175,#176,#155,#156,#157,#158,#159,#160,#161,#162,#163,#164,#165,#166,#167,#168,#169,#170));
#258=IFCFACEOUTERBOUND(#257,.T.);
#259=IFCFACE((#258));
#260=IFCPOLYLOOP((#196,#197,#198,#199,#200,#177,#178,#179,#180,#181,#182,#183,#184,#185,#186,#187,#188,#189,#190,#191,#192,#193,#194,#195));
#261=IFCFACEOUTERBOUND(#260,.T.);
#262=IFCFACE((#261));
#263=IFCPOLYLOOP((#202,#203,#204));
#264=IFCFACEOUTERBOUND(#263,.T.);
#265=IFCFACE((#264));
#266=IFCPOLYLOOP((#203,#202,#206));
#267=IFCFACEOUTERBOUND(#266,.T.);
#268=IFCFACE((#267));
#269=IFCPOLYLOOP((#204,#201,#202));
#270=IFCFACEOUTERBOUND(#269,.T.);
#271=IFCFACE((#270));
#272=IFCPOLYLOOP((#177,#206,#202));
#273=IFCFACEOUTERBOUND(#272,.T.);
#274=IFCFACE((#273));
#275=IFCPOLYLOOP((#206,#177,#200));
#276=IFCFACEOUTERBOUND(#275,.T.);
#277=IFCFACE((#276));
#278=IFCPOLYLOOP((#205,#200,#201));
#279=IFCFACEOUTERBOUND(#278,.T.);
#280=IFCFACE((#279));
#281=IFCPOLYLOOP((#200,#205,#206));
#282=IFCFACEOUTERBOUND(#281,.T.);
#283=IFCFACE((#282));
#284=IFCPOLYLOOP((#201,#204,#205));
#285=IFCFACEOUTERBOUND(#284,.T.);
#286=IFCFACE((#285));
#287=IFCPOLYLOOP((#201,#200,#199));
#288=IFCFACEOUTERBOUND(#287,.T.);
#289=IFCFACE((#288));
#290=IFCPOLYLOOP((#201,#199,#210));
#291=IFCFACEOUTERBOUND(#290,.T.);
#292=IFCFACE((#291));
#293=IFCPOLYLOOP((#199,#209,#244,#210));
#294=IFCFACEOUTERBOUND(#293,.T.);
#295=IFCFACE((#294));
#296=IFCPOLYLOOP((#209,#199,#208));
#297=IFCFACEOUTERBOUND(#296,.T.);
#298=IFCFACE((#297));
#299=IFCPOLYLOOP((#199,#207,#208));
#300=IFCFACEOUTERBOUND(#299,.T.);
#301=IFCFACE((#300));
#302=IFCPOLYLOOP((#175,#207,#198));
#303=IFCFACEOUTERBOUND(#302,.T.);
#304=IFCFACE((#303));
#305=IFCPOLYLOOP((#198,#207,#199));
#306=IFCFACEOUTERBOUND(#305,.T.);
#307=IFCFACE((#306));
#308=IFCPOLYLOOP((#176,#198,#197));
#309=IFCFACEOUTERBOUND(#308,.T.);
#310=IFCFACE((#309));
#311=IFCPOLYLOOP((#176,#175,#198));
#312=IFCFACEOUTERBOUND(#311,.T.);
#313=IFCFACE((#312));
#314=IFCPOLYLOOP((#155,#176,#197));
#315=IFCFACEOUTERBOUND(#314,.T.);
#316=IFCFACE((#315));
#317=IFCPOLYLOOP((#156,#155,#197,#196));
#318=IFCFACEOUTERBOUND(#317,.T.);
#319=IFCFACE((#318));
#320=IFCPOLYLOOP((#160,#159,#193,#192,#161));
#321=IFCFACEOUTERBOUND(#320,.T.);
#322=IFCFACE((#321));
#323=IFCPOLYLOOP((#162,#192,#191));
#324=IFCFACEOUTERBOUND(#323,.T.);
#325=IFCFACE((#324));
#326=IFCPOLYLOOP((#215,#191,#190));
#327=IFCFACEOUTERBOUND(#326,.T.);
#328=IFCFACE((#327));
#329=IFCPOLYLOOP((#163,#191,#215));
#330=IFCFACEOUTERBOUND(#329,.T.);
#331=IFCFACE((#330));
#332=IFCPOLYLOOP((#162,#161,#192));
#333=IFCFACEOUTERBOUND(#332,.T.);
#334=IFCFACE((#333));
#335=IFCPOLYLOOP((#163,#162,#191));
#336=IFCFACEOUTERBOUND(#335,.T.);
#337=IFCFACE((#336));
#338=IFCPOLYLOOP((#190,#189,#211));
#339=IFCFACEOUTERBOUND(#338,.T.);
#340=IFCFACE((#339));
#341=IFCPOLYLOOP((#190,#211,#212));
#342=IFCFACEOUTERBOUND(#341,.T.);
#343=IFCFACE((#342));
#344=IFCPOLYLOOP((#190,#213,#214));
#345=IFCFACEOUTERBOUND(#344,.T.);
#346=IFCFACE((#345));
#347=IFCPOLYLOOP((#190,#212,#235,#213));
#348=IFCFACEOUTERBOUND(#347,.T.);
#349=IFCFACE((#348));
#350=IFCPOLYLOOP((#190,#214,#215));
#351=IFCFACEOUTERBOUND(#350,.T.);
#352=IFCFACE((#351));
#353=IFCPOLYLOOP((#211,#217,#218));
#354=IFCFACEOUTERBOUND(#353,.T.);
#355=IFCFACE((#354));
#356=IFCPOLYLOOP((#217,#211,#220));
#357=IFCFACEOUTERBOUND(#356,.T.);
#358=IFCFACE((#357));
#359=IFCPOLYLOOP((#218,#216,#211));
#360=IFCFACEOUTERBOUND(#359,.T.);
#361=IFCFACE((#360));
#362=IFCPOLYLOOP((#189,#220,#211));
#363=IFCFACEOUTERBOUND(#362,.T.);
#364=IFCFACE((#363));
#365=IFCPOLYLOOP((#220,#189,#188));
#366=IFCFACEOUTERBOUND(#365,.T.);
#367=IFCFACE((#366));
#368=IFCPOLYLOOP((#219,#188,#216));
#369=IFCFACEOUTERBOUND(#368,.T.);
#370=IFCFACE((#369));
#371=IFCPOLYLOOP((#188,#219,#220));
#372=IFCFACEOUTERBOUND(#371,.T.);
#373=IFCFACE((#372));
#374=IFCPOLYLOOP((#216,#218,#219));
#375=IFCFACEOUTERBOUND(#374,.T.);
#376=IFCFACE((#375));
#377=IFCPOLYLOOP((#216,#188,#187));
#378=IFCFACEOUTERBOUND(#377,.T.);
#379=IFCFACE((#378));
#380=IFCPOLYLOOP((#216,#187,#224));
#381=IFCFACEOUTERBOUND(#380,.T.);
#382=IFCFACE((#381));
#383=IFCPOLYLOOP((#187,#223,#236,#224));
#384=IFCFACEOUTERBOUND(#383,.T.);
#385=IFCFACE((#384));
#386=IFCPOLYLOOP((#223,#187,#222));
#387=IFCFACEOUTERBOUND(#386,.T.);
#388=IFCFACE((#387));
#389=IFCPOLYLOOP((#187,#221,#222));
#390=IFCFACEOUTERBOUND(#389,.T.);
#391=IFCFACE((#390));
#392=IFCPOLYLOOP((#164,#221,#186));
#393=IFCFACEOUTERBOUND(#392,.T.);
#394=IFCFACE((#393));
#395=IFCPOLYLOOP((#186,#221,#187));
#396=IFCFACEOUTERBOUND(#395,.T.);
#397=IFCFACE((#396));
#398=IFCPOLYLOOP((#165,#186,#185));
#399=IFCFACEOUTERBOUND(#398,.T.);
#400=IFCFACE((#399));
#401=IFCPOLYLOOP((#165,#164,#186));
#402=IFCFACEOUTERBOUND(#401,.T.);
#403=IFCFACE((#402));
#404=IFCPOLYLOOP((#166,#165,#185));
#405=IFCFACEOUTERBOUND(#404,.T.);
#406=IFCFACE((#405));
#407=IFCPOLYLOOP((#171,#170,#181,#180,#172));
#408=IFCFACEOUTERBOUND(#407,.T.);
#409=IFCFACE((#408));
#410=IFCPOLYLOOP((#167,#166,#185,#184));
#411=IFCFACEOUTERBOUND(#410,.T.);
#412=IFCFACE((#411));
#413=IFCPOLYLOOP((#173,#180,#179));
#414=IFCFACEOUTERBOUND(#413,.T.);
#415=IFCFACE((#414));
#416=IFCPOLYLOOP((#228,#179,#178));
#417=IFCFACEOUTERBOUND(#416,.T.);
#418=IFCFACE((#417));
#419=IFCPOLYLOOP((#174,#179,#228));
#420=IFCFACEOUTERBOUND(#419,.T.);
#421=IFCFACE((#420));
#422=IFCPOLYLOOP((#173,#172,#180));
#423=IFCFACEOUTERBOUND(#422,.T.);
#424=IFCFACE((#423));
#425=IFCPOLYLOOP((#174,#173,#179));
#426=IFCFACEOUTERBOUND(#425,.T.);
#427=IFCFACE((#426));
#428=IFCPOLYLOOP((#178,#177,#202));
#429=IFCFACEOUTERBOUND(#428,.T.);
#430=IFCFACE((#429));
#431=IFCPOLYLOOP((#178,#202,#225));
#432=IFCFACEOUTERBOUND(#431,.T.);
#433=IFCFACE((#432));
#434=IFCPOLYLOOP((#178,#226,#227));
#435=IFCFACEOUTERBOUND(#434,.T.);
#436=IFCFACE((#435));
#437=IFCPOLYLOOP((#178,#225,#243,#226));
#438=IFCFACEOUTERBOUND(#437,.T.);
#439=IFCFACE((#438));
#440=IFCPOLYLOOP((#178,#227,#228));
#441=IFCFACEOUTERBOUND(#440,.T.);
#442=IFCFACE((#441));
#443=IFCPOLYLOOP((#168,#167,#184,#183));
#444=IFCFACEOUTERBOUND(#443,.T.);
#445=IFCFACE((#444));
#446=IFCPOLYLOOP((#169,#168,#183,#182));
#447=IFCFACEOUTERBOUND(#446,.T.);
#448=IFCFACE((#447));
#449=IFCPOLYLOOP((#170,#169,#182,#181));
#450=IFCFACEOUTERBOUND(#449,.T.);
#451=IFCFACE((#450));
#452=IFCPOLYLOOP((#211,#216,#224,#212));
#453=IFCFACEOUTERBOUND(#452,.T.);
#454=IFCFACE((#453));
#455=IFCPOLYLOOP((#229,#223,#234));
#456=IFCFACEOUTERBOUND(#455,.T.);
#457=IFCFACE((#456));
#458=IFCPOLYLOOP((#223,#229,#224,#236));
#459=IFCFACEOUTERBOUND(#458,.T.);
#460=IFCFACE((#459));
#461=IFCPOLYLOOP((#212,#224,#229,#230));
#462=IFCFACEOUTERBOUND(#461,.T.);
#463=IFCFACE((#462));
#464=IFCPOLYLOOP((#213,#230,#231));
#465=IFCFACEOUTERBOUND(#464,.T.);
#466=IFCFACE((#465));
#467=IFCPOLYLOOP((#230,#213,#235,#212));
#468=IFCFACEOUTERBOUND(#467,.T.);
#469=IFCFACE((#468));
#470=IFCPOLYLOOP((#223,#222,#234));
#471=IFCFACEOUTERBOUND(#470,.T.);
#472=IFCFACE((#471));
#473=IFCPOLYLOOP((#233,#222,#221));
#474=IFCFACEOUTERBOUND(#473,.T.);
#475=IFCFACE((#474));
#476=IFCPOLYLOOP((#233,#221,#215,#232));
#477=IFCFACEOUTERBOUND(#476,.T.);
#478=IFCFACE((#477));
#479=IFCPOLYLOOP((#215,#221,#164,#163));
#480=IFCFACEOUTERBOUND(#479,.T.);
#481=IFCFACE((#480));
#482=IFCPOLYLOOP((#231,#214,#213));
#483=IFCFACEOUTERBOUND(#482,.T.);
#484=IFCFACE((#483));
#485=IFCPOLYLOOP((#214,#231,#232));
#486=IFCFACEOUTERBOUND(#485,.T.);
#487=IFCFACE((#486));
#488=IFCPOLYLOOP((#232,#215,#214));
#489=IFCFACEOUTERBOUND(#488,.T.);
#490=IFCFACE((#489));
#491=IFCPOLYLOOP((#233,#234,#222));
#492=IFCFACEOUTERBOUND(#491,.T.);
#493=IFCFACE((#492));
#494=IFCPOLYLOOP((#175,#174,#228,#207));
#495=IFCFACEOUTERBOUND(#494,.T.);
#496=IFCFACE((#495));
#497=IFCPOLYLOOP((#240,#227,#239));
#498=IFCFACEOUTERBOUND(#497,.T.);
#499=IFCFACE((#498));
#500=IFCPOLYLOOP((#227,#240,#228));
#501=IFCFACEOUTERBOUND(#500,.T.);
#502=IFCFACE((#501));
#503=IFCPOLYLOOP((#207,#228,#240,#241));
#504=IFCFACEOUTERBOUND(#503,.T.);
#505=IFCFACE((#504));
#506=IFCPOLYLOOP((#208,#241,#242));
#507=IFCFACEOUTERBOUND(#506,.T.);
#508=IFCFACE((#507));
#509=IFCPOLYLOOP((#241,#208,#207));
#510=IFCFACEOUTERBOUND(#509,.T.);
#511=IFCFACE((#510));
#512=IFCPOLYLOOP((#227,#226,#239));
#513=IFCFACEOUTERBOUND(#512,.T.);
#514=IFCFACE((#513));
#515=IFCPOLYLOOP((#237,#210,#244,#209));
#516=IFCFACEOUTERBOUND(#515,.T.);
#517=IFCFACE((#516));
#518=IFCPOLYLOOP((#238,#226,#243,#225));
#519=IFCFACEOUTERBOUND(#518,.T.);
#520=IFCFACE((#519));
#521=IFCPOLYLOOP((#238,#225,#210,#237));
#522=IFCFACEOUTERBOUND(#521,.T.);
#523=IFCFACE((#522));
#524=IFCPOLYLOOP((#210,#225,#202,#201));
#525=IFCFACEOUTERBOUND(#524,.T.);
#526=IFCFACE((#525));
#527=IFCPOLYLOOP((#242,#209,#208));
#528=IFCFACEOUTERBOUND(#527,.T.);
#529=IFCFACE((#528));
#530=IFCPOLYLOOP((#209,#242,#237));
#531=IFCFACEOUTERBOUND(#530,.T.);
#532=IFCFACE((#531));
#533=IFCPOLYLOOP((#238,#239,#226));
#534=IFCFACEOUTERBOUND(#533,.T.);
#535=IFCFACE((#534));
#536=IFCPOLYLOOP((#245,#246,#218,#217));
#537=IFCFACEOUTERBOUND(#536,.T.);
#538=IFCFACE((#537));
#539=IFCPOLYLOOP((#204,#203,#249,#250));
#540=IFCFACEOUTERBOUND(#539,.T.);
#541=IFCFACE((#540));
#542=IFCPOLYLOOP((#219,#247,#248,#220));
#543=IFCFACEOUTERBOUND(#542,.T.);
#544=IFCFACE((#543));
#545=IFCPOLYLOOP((#252,#206,#205,#251));
#546=IFCFACEOUTERBOUND(#545,.T.);
#547=IFCFACE((#546));
#548=IFCPOLYLOOP((#220,#248,#245,#217));
#549=IFCFACEOUTERBOUND(#548,.T.);
#550=IFCFACE((#549));
#551=IFCPOLYLOOP((#251,#205,#204,#250));
#552=IFCFACEOUTERBOUND(#551,.T.);
#553=IFCFACE((#552));
#554=IFCPOLYLOOP((#247,#219,#218,#246));
#555=IFCFACEOUTERBOUND(#554,.T.);
#556=IFCFACE((#555));
#557=IFCPOLYLOOP((#206,#252,#249,#203));
#558=IFCFACEOUTERBOUND(#557,.T.);
#559=IFCFACE((#558));
#560=IFCPOLYLOOP((#248,#247,#246,#245));
#561=IFCFACEOUTERBOUND(#560,.T.);
#562=IFCFACE((#561));
#563=IFCPOLYLOOP((#252,#251,#250,#249));
#564=IFCFACEOUTERBOUND(#563,.T.);
#565=IFCFACE((#564));
#566=IFCPOLYLOOP((#229,#253,#254,#230));
#567=IFCFACEOUTERBOUND(#566,.T.);
#568=IFCFACE((#567));
#569=IFCPOLYLOOP((#256,#238,#237,#255));
#570=IFCFACEOUTERBOUND(#569,.T.);
#571=IFCFACE((#570));
#572=IFCPOLYLOOP((#253,#229,#234,#233));
#573=IFCFACEOUTERBOUND(#572,.T.);
#574=IFCFACE((#573));
#575=IFCPOLYLOOP((#256,#240,#239,#238));
#576=IFCFACEOUTERBOUND(#575,.T.);
#577=IFCFACE((#576));
#578=IFCPOLYLOOP((#253,#233,#232,#254));
#579=IFCFACEOUTERBOUND(#578,.T.);
#580=IFCFACE((#579));
#581=IFCPOLYLOOP((#254,#232,#231,#230));
#582=IFCFACEOUTERBOUND(#581,.T.);
#583=IFCFACE((#582));
#584=IFCPOLYLOOP((#255,#237,#242,#241));
#585=IFCFACEOUTERBOUND(#584,.T.);
#586=IFCFACE((#585));
#587=IFCPOLYLOOP((#256,#255,#241,#240));
#588=IFCFACEOUTERBOUND(#587,.T.);
#589=IFCFACE((#588));
#590=IFCPOLYLOOP((#157,#156,#196,#195));
#591=IFCFACEOUTERBOUND(#590,.T.);
#592=IFCFACE((#591));
#593=IFCPOLYLOOP((#158,#157,#195,#194));
#594=IFCFACEOUTERBOUND(#593,.T.);
#595=IFCFACE((#594));
#596=IFCPOLYLOOP((#159,#158,#194,#193));
#597=IFCFACEOUTERBOUND(#596,.T.);
#598=IFCFACE((#597));
#599=IFCCARTESIANPOINT((-120.,40.,200.));
#600=IFCCARTESIANPOINT((-340.,40.,200.));
#601=IFCCARTESIANPOINT((-352.940952255132,40.,201.70370868552291));
#602=IFCCARTESIANPOINT((-365.,40.,206.69872981075434));
#603=IFCCARTESIANPOINT((-375.35533905933335,40.,214.64466094064892));
#604=IFCCARTESIANPOINT((-383.30127018922792,40.,225.));
#605=IFCCARTESIANPOINT((-388.29629131445938,40.,237.05904774485018));
#606=IFCCARTESIANPOINT((-390.,40.,250.));
#607=IFCCARTESIANPOINT((-390.,40.,1750.));
#608=IFCCARTESIANPOINT((-388.29629131445233,40.,1762.9409522551059));
#609=IFCCARTESIANPOINT((-383.30127018922093,40.,1775.));
#610=IFCCARTESIANPOINT((-375.35533905932647,40.,1785.3553390593072));
#611=IFCCARTESIANPOINT((-365.,40.,1793.3012701892019));
#612=IFCCARTESIANPOINT((-352.94095225512524,40.,1798.2962913144333));
#613=IFCCARTESIANPOINT((-340.,40.,1800.));
#614=IFCCARTESIANPOINT((-170.,40.,1800.));
#615=IFCCARTESIANPOINT((-157.05904774487362,40.,1798.2962913144356));
#616=IFCCARTESIANPOINT((-145.,40.,1793.3012701892044));
#617=IFCCARTESIANPOINT((-134.64466094067228,40.,1785.3553390593095));
#618=IFCCARTESIANPOINT((-126.69872981077773,40.,1775.));
#619=IFCCARTESIANPOINT((-121.70370868554625,40.,1762.9409522551084));
#620=IFCCARTESIANPOINT((-120.,40.,1750.));
#621=IFCCARTESIANPOINT((-120.,30.,200.));
#622=IFCCARTESIANPOINT((-120.,30.,1750.));
#623=IFCCARTESIANPOINT((-121.70370868554625,30.,1762.9409522551084));
#624=IFCCARTESIANPOINT((-126.69872981077773,30.,1775.));
#625=IFCCARTESIANPOINT((-134.64466094067228,30.,1785.3553390593095));
#626=IFCCARTESIANPOINT((-145.,30.,1793.3012701892044));
#627=IFCCARTESIANPOINT((-157.05904774487362,30.,1798.2962913144356));
#628=IFCCARTESIANPOINT((-170.,30.,1800.));
#629=IFCCARTESIANPOINT((-340.,30.,1800.));
#630=IFCCARTESIANPOINT((-352.94095225512524,30.,1798.2962913144333));
#631=IFCCARTESIANPOINT((-365.,30.,1793.3012701892019));
#632=IFCCARTESIANPOINT((-375.35533905932647,30.,1785.3553390593072));
#633=IFCCARTESIANPOINT((-383.30127018922093,30.,1775.));
#634=IFCCARTESIANPOINT((-388.29629131445233,30.,1762.9409522551059));
#635=IFCCARTESIANPOINT((-390.,30.,1750.));
#636=IFCCARTESIANPOINT((-390.,30.,250.));
#637=IFCCARTESIANPOINT((-388.29629131445938,30.,237.05904774485018));
#638=IFCCARTESIANPOINT((-383.30127018922792,30.,225.));
#639=IFCCARTESIANPOINT((-375.35533905933335,30.,214.64466094064892));
#640=IFCCARTESIANPOINT((-365.,30.,206.69872981075434));
#641=IFCCARTESIANPOINT((-352.940952255132,30.,201.70370868552291));
#642=IFCCARTESIANPOINT((-340.,30.,200.));
#643=IFCPOLYLOOP((#606,#607,#608,#609,#610,#611,#612,#613,#614,#615,#616,#617,#618,#619,#620,#599,#600,#601,#602,#603,#604,#605));
#644=IFCFACEOUTERBOUND(#643,.T.);
#645=IFCFACE((#644));
#646=IFCPOLYLOOP((#642,#621,#622,#623,#624,#625,#626,#627,#628,#629,#630,#631,#632,#633,#634,#635,#636,#637,#638,#639,#640,#641));
#647=IFCFACEOUTERBOUND(#646,.T.);
#648=IFCFACE((#647));
#649=IFCPOLYLOOP((#600,#599,#621,#642));
#650=IFCFACEOUTERBOUND(#649,.T.);
#651=IFCFACE((#650));
#652=IFCPOLYLOOP((#607,#606,#636,#635));
#653=IFCFACEOUTERBOUND(#652,.T.);
#654=IFCFACE((#653));
#655=IFCPOLYLOOP((#614,#613,#629,#628));
#656=IFCFACEOUTERBOUND(#655,.T.);
#657=IFCFACE((#656));
#658=IFCPOLYLOOP((#599,#620,#622,#621));
#659=IFCFACEOUTERBOUND(#658,.T.);
#660=IFCFACE((#659));
#661=IFCPOLYLOOP((#601,#600,#642,#641));
#662=IFCFACEOUTERBOUND(#661,.T.);
#663=IFCFACE((#662));
#664=IFCPOLYLOOP((#602,#601,#641,#640));
#665=IFCFACEOUTERBOUND(#664,.T.);
#666=IFCFACE((#665));
#667=IFCPOLYLOOP((#603,#602,#640,#639));
#668=IFCFACEOUTERBOUND(#667,.T.);
#669=IFCFACE((#668));
#670=IFCPOLYLOOP((#604,#603,#639,#638));
#671=IFCFACEOUTERBOUND(#670,.T.);
#672=IFCFACE((#671));
#673=IFCPOLYLOOP((#605,#604,#638,#637));
#674=IFCFACEOUTERBOUND(#673,.T.);
#675=IFCFACE((#674));
#676=IFCPOLYLOOP((#606,#605,#637,#636));
#677=IFCFACEOUTERBOUND(#676,.T.);
#678=IFCFACE((#677));
#679=IFCPOLYLOOP((#608,#607,#635,#634));
#680=IFCFACEOUTERBOUND(#679,.T.);
#681=IFCFACE((#680));
#682=IFCPOLYLOOP((#609,#608,#634,#633));
#683=IFCFACEOUTERBOUND(#682,.T.);
#684=IFCFACE((#683));
#685=IFCPOLYLOOP((#610,#609,#633,#632));
#686=IFCFACEOUTERBOUND(#685,.T.);
#687=IFCFACE((#686));
#688=IFCPOLYLOOP((#611,#610,#632,#631));
#689=IFCFACEOUTERBOUND(#688,.T.);
#690=IFCFACE((#689));
#691=IFCPOLYLOOP((#612,#611,#631,#630));
#692=IFCFACEOUTERBOUND(#691,.T.);
#693=IFCFACE((#692));
#694=IFCPOLYLOOP((#613,#612,#630,#629));
#695=IFCFACEOUTERBOUND(#694,.T.);
#696=IFCFACE((#695));
#697=IFCPOLYLOOP((#615,#614,#628,#627));
#698=IFCFACEOUTERBOUND(#697,.T.);
#699=IFCFACE((#698));
#700=IFCPOLYLOOP((#616,#615,#627,#626));
#701=IFCFACEOUTERBOUND(#700,.T.);
#702=IFCFACE((#701));
#703=IFCPOLYLOOP((#617,#616,#626,#625));
#704=IFCFACEOUTERBOUND(#703,.T.);
#705=IFCFACE((#704));
#706=IFCPOLYLOOP((#618,#617,#625,#624));
#707=IFCFACEOUTERBOUND(#706,.T.);
#708=IFCFACE((#707));
#709=IFCPOLYLOOP((#619,#618,#624,#623));
#710=IFCFACEOUTERBOUND(#709,.T.);
#711=IFCFACE((#710));
#712=IFCPOLYLOOP((#620,#619,#623,#622));
#713=IFCFACEOUTERBOUND(#712,.T.);
#714=IFCFACE((#713));
#715=IFCCARTESIANPOINT((-29.108419540908766,-800.,740.5324814246668));
#716=IFCCARTESIANPOINT((45.,-800.,682.41928789170663));
#717=IFCCARTESIANPOINT((-13.113193532927291,-800.,756.52770743264796));
#718=IFCCARTESIANPOINT((45.,-800.,772.41928789173699));
#719=IFCCARTESIANPOINT((-45.,-800.,772.41928789173699));
#720=IFCCARTESIANPOINT((-45.,-800.,682.41928789172846));
#721=IFCPOLYLOOP((#715,#716,#717,#718,#719,#720));
#722=IFCFACEOUTERBOUND(#721,.T.);
#723=IFCFACE((#722));
#724=IFCCARTESIANPOINT((-29.108419540908766,-789.49024589812575,740.5324814246668));
#725=IFCCARTESIANPOINT((-45.,-789.49024589812575,682.41928789172846));
#726=IFCCARTESIANPOINT((-45.,-789.49024589812575,772.41928789173699));
#727=IFCCARTESIANPOINT((45.,-789.49024589812575,772.41928789173699));
#728=IFCCARTESIANPOINT((-13.113193532927291,-789.49024589812575,756.52770743264796));
#729=IFCCARTESIANPOINT((45.,-789.49024589812575,682.41928789170663));
#730=IFCPOLYLOOP((#724,#725,#726,#727,#728,#729));
#731=IFCFACEOUTERBOUND(#730,.T.);
#732=IFCFACE((#731));
#733=IFCPOLYLOOP((#716,#715,#724,#729));
#734=IFCFACEOUTERBOUND(#733,.T.);
#735=IFCFACE((#734));
#736=IFCPOLYLOOP((#717,#716,#729,#728));
#737=IFCFACEOUTERBOUND(#736,.T.);
#738=IFCFACE((#737));
#739=IFCPOLYLOOP((#718,#717,#728,#727));
#740=IFCFACEOUTERBOUND(#739,.T.);
#741=IFCFACE((#740));
#742=IFCPOLYLOOP((#719,#718,#727,#726));
#743=IFCFACEOUTERBOUND(#742,.T.);
#744=IFCFACE((#743));
#745=IFCPOLYLOOP((#720,#719,#726,#725));
#746=IFCFACEOUTERBOUND(#745,.T.);
#747=IFCFACE((#746));
#748=IFCPOLYLOOP((#715,#720,#725,#724));
#749=IFCFACEOUTERBOUND(#748,.T.);
#750=IFCFACE((#749));
#751=IFCCARTESIANPOINT((29.108419540908756,800.,740.5324814246668));
#752=IFCCARTESIANPOINT((-45.,800.,682.41928789170629));
#753=IFCCARTESIANPOINT((13.113193532927308,800.,756.52770743264796));
#754=IFCCARTESIANPOINT((-45.,800.,772.41928789173699));
#755=IFCCARTESIANPOINT((45.,800.,772.41928789173699));
#756=IFCCARTESIANPOINT((45.,800.,682.41928789172846));
#757=IFCPOLYLOOP((#751,#752,#753,#754,#755,#756));
#758=IFCFACEOUTERBOUND(#757,.T.);
#759=IFCFACE((#758));
#760=IFCCARTESIANPOINT((29.108419540908756,789.49024589812575,740.5324814246668));
#761=IFCCARTESIANPOINT((45.,789.49024589812575,682.41928789172846));
#762=IFCCARTESIANPOINT((45.,789.49024589812575,772.41928789173699));
#763=IFCCARTESIANPOINT((-45.,789.49024589812575,772.41928789173699));
#764=IFCCARTESIANPOINT((13.113193532927308,789.49024589812575,756.52770743264796));
#765=IFCCARTESIANPOINT((-45.,789.49024589812575,682.41928789170629));
#766=IFCPOLYLOOP((#760,#761,#762,#763,#764,#765));
#767=IFCFACEOUTERBOUND(#766,.T.);
#768=IFCFACE((#767));
#769=IFCPOLYLOOP((#752,#751,#760,#765));
#770=IFCFACEOUTERBOUND(#769,.T.);
#771=IFCFACE((#770));
#772=IFCPOLYLOOP((#753,#752,#765,#764));
#773=IFCFACEOUTERBOUND(#772,.T.);
#774=IFCFACE((#773));
#775=IFCPOLYLOOP((#754,#753,#764,#763));
#776=IFCFACEOUTERBOUND(#775,.T.);
#777=IFCFACE((#776));
#778=IFCPOLYLOOP((#755,#754,#763,#762));
#779=IFCFACEOUTERBOUND(#778,.T.);
#780=IFCFACE((#779));
#781=IFCPOLYLOOP((#756,#755,#762,#761));
#782=IFCFACEOUTERBOUND(#781,.T.);
#783=IFCFACE((#782));
#784=IFCPOLYLOOP((#751,#756,#761,#760));
#785=IFCFACEOUTERBOUND(#784,.T.);
#786=IFCFACE((#785));
#787=IFCCLOSEDSHELL((#85,#88,#91,#94,#97,#100,#103,#106,#109,#112,#115,#118,#121,#124,#127,#130,#133,#136,#139,#142,#145,#148,#151,#154));
#788=IFCFACETEDBREP(#787);
#789=IFCCOLOURRGB($,0.29019607843137257,0.29019607843137257,1.);
#790=IFCSURFACESTYLERENDERING(#789,0.5,$,$,$,$,IFCNORMALISEDRATIOMEASURE(0.5),IFCSPECULAREXPONENT(0.),.NOTDEFINED.);
#791=IFCSURFACESTYLE('Default Form',.BOTH.,(#790));
#792=IFCSTYLEDITEM(#788,(#791),$);
#793=IFCCLOSEDSHELL((#259,#262,#265,#268,#271,#274,#277,#280,#283,#286,#289,#292,#295,#298,#301,#304,#307,#310,#313,#316,#319,#322,#325,#328,#331,#334,#337,#340,#343,#346,#349,#352,#355,#358,#361,#364,#367,#370,#373,#376,#379,#382,#385,#388,#391,#394,#397,#400,#403,#406,#409,#412,#415,#418,#421,#424,#427,#430,#433,#436,#439,#442,#445,#448,#451,#454,#457,#460,#463,#466,#469,#472,#475,#478,#481,#484,#487,#490,#493,#496,#499,#502,#505,#508,#511,#514,#517,#520,#523,#526,#529,#532,#535,#538,#541,#544,#547,#550,#553,#556,#559,#562,#565,#568,#571,#574,#577,#580,#583,#586,#589,#592,#595,#598));
#794=IFCFACETEDBREP(#793);
#795=IFCCOLOURRGB($,0.49803921568627452,0.49803921568627452,0.49803921568627452);
#796=IFCSURFACESTYLERENDERING(#795,0.,$,$,$,$,IFCNORMALISEDRATIOMEASURE(0.5),IFCSPECULAREXPONENT(64.),.NOTDEFINED.);
#797=IFCSURFACESTYLE('Insulation - Rigid Fiber Board',.BOTH.,(#796));
#798=IFCSTYLEDITEM(#794,(#797),$);
#799=IFCCLOSEDSHELL((#645,#648,#651,#654,#657,#660,#663,#666,#669,#672,#675,#678,#681,#684,#687,#690,#693,#696,#699,#702,#705,#708,#711,#714));
#800=IFCFACETEDBREP(#799);
#801=IFCSTYLEDITEM(#800,(#791),$);
#802=IFCCLOSEDSHELL((#723,#732,#735,#738,#741,#744,#747,#750));
#803=IFCFACETEDBREP(#802);
#804=IFCCOLOURRGB($,0.,1.,0.);
#805=IFCSURFACESTYLERENDERING(#804,0.,$,$,$,$,IFCNORMALISEDRATIOMEASURE(0.5),IFCSPECULAREXPONENT(64.),.NOTDEFINED.);
#806=IFCSURFACESTYLE('LUZ_VERDE',.BOTH.,(#805));
#807=IFCSTYLEDITEM(#803,(#806),$);
#808=IFCCLOSEDSHELL((#759,#768,#771,#774,#777,#780,#783,#786));
#809=IFCFACETEDBREP(#808);
#810=IFCSTYLEDITEM(#809,(#806),$);
#811=IFCSHAPEREPRESENTATION(#15,'Body','Brep',(#788,#794,#800,#803,#809));
#812=IFCAXIS2PLACEMENT3D(#10,$,$);
#813=IFCREPRESENTATIONMAP(#812,#811);
#814=IFCDOORLININGPROPERTIES('3oyCt1Qkr1eB4AwAoGn5_Q',#6,'TORNIQUETE-BARRERA-ABATIBLE:TORNIQUETE-BARRERA-ABATIBLE_ACERO-INOXIDABLE_A0.30m:1665203',$,$,$,$,$,$,$,$,$,$,$,$,$,$);
#815=IFCDOORPANELPROPERTIES('3oyCt1Qkr1eB4AwA_Gn5_Q',#6,'TORNIQUETE-BARRERA-ABATIBLE:TORNIQUETE-BARRERA-ABATIBLE_ACERO-INOXIDABLE_A0.30m:1665203:1',$,$,.NOTDEFINED.,$,.NOTDEFINED.,$);
#816=IFCDOORTYPE('3OP3JniZ7TLbiS0yLPlOt3',#6,'TORNIQUETE-BARRERA-ABATIBLE:TORNIQUETE-BARRERA-ABATIBLE_ACERO-INOXIDABLE_A0.30m',$,$,(#814,#815),(#813),'1665178',$,$,.NOTDEFINED.,.F.,$);
#817=IFCMATERIAL('Default Form',$,'Generic');
#818=IFCSTYLEDITEM($,(#791),$);
#819=IFCSTYLEDREPRESENTATION(#13,'Style','Material',(#818));
#820=IFCMATERIALDEFINITIONREPRESENTATION($,$,(#819),#817);
#821=IFCMATERIAL('Insulation - Rigid Fiber Board',$,'Insulation');
#822=IFCCOLOURRGB($,0.,0.,0.);
#823=IFCDRAUGHTINGPREDEFINEDCURVEFONT('continuous');
#824=IFCCURVESTYLE($,#823,$,#822,$);
#825=IFCCARTESIANPOINT((0.,0.));
#826=IFCFILLAREASTYLEHATCHING(#824,IFCPOSITIVELENGTHMEASURE(300.),$,#825,45.);
#827=IFCCURVESTYLE($,#823,$,#822,$);
#828=IFCFILLAREASTYLEHATCHING(#827,IFCPOSITIVELENGTHMEASURE(300.),$,#825,135.);
#829=IFCFILLAREASTYLE('Diagonal cross-hatch',(#826,#828),$);
#830=IFCSTYLEDITEM($,(#797,#829),$);
#831=IFCSTYLEDREPRESENTATION(#13,'Style','Material and Cut Pattern',(#830));
#832=IFCMATERIALDEFINITIONREPRESENTATION($,$,(#831),#821);
#833=IFCMATERIAL('LUZ_VERDE',$,'M\X\E9tal');
#834=IFCSTYLEDITEM($,(#806),$);
#835=IFCSTYLEDREPRESENTATION(#13,'Style','Material',(#834));
#836=IFCMATERIALDEFINITIONREPRESENTATION($,$,(#835),#833);
#837=IFCMATERIALCONSTITUENT('Default Form',$,#817,0.020108624038743056,'Generic');
#838=IFCSHAPEREPRESENTATION(#15,'Body','Brep',(#788,#800));
#839=IFCSHAPEASPECT((#838),'Default Form',$,.U.,#813);
#840=IFCMATERIALCONSTITUENT('Insulation - Rigid Fiber Board',$,#821,0.97975045775664771,'Insulation');
#841=IFCSHAPEREPRESENTATION(#15,'Body','Brep',(#794));
#842=IFCSHAPEASPECT((#841),'Insulation - Rigid Fiber Board',$,.U.,#813);
#843=IFCMATERIALCONSTITUENT('LUZ_VERDE',$,#833,0.00014091820460932839,'M\X\E9tal');
#844=IFCSHAPEREPRESENTATION(#15,'Body','Brep',(#803,#809));
#845=IFCSHAPEASPECT((#844),'LUZ_VERDE',$,.U.,#813);
#846=IFCMATERIALCONSTITUENTSET($,$,(#837,#840,#843));
#847=IFCCARTESIANTRANSFORMATIONOPERATOR3D($,$,#10,1.,$);
#848=IFCMAPPEDITEM(#813,#847);
#849=IFCSHAPEREPRESENTATION(#15,'Body','MappedRepresentation',(#848));
#850=IFCPRODUCTDEFINITIONSHAPE($,$,(#849));
#851=IFCCARTESIANPOINT((-1200.,0.,0.));
#852=IFCAXIS2PLACEMENT3D(#851,$,$);
#853=IFCLOCALPLACEMENT(#24,#852);
#854=IFCDOOR('3oyCt1Qkr1eB4AwAsGn5_Q',#6,'TORNIQUETE-BARRERA-ABATIBLE:TORNIQUETE-BARRERA-ABATIBLE_ACERO-INOXIDABLE_A0.30m:1665203',$,$,#853,#850,'1665203',1600.0000000000855,780.00000000001205,$,$,$);
#855=IFCMATERIALCONSTITUENT('Default Form',$,#817,0.020108624038743056,'Generic');
#856=IFCMATERIALCONSTITUENT('Insulation - Rigid Fiber Board',$,#821,0.97975045775664771,'Insulation');
#857=IFCMATERIALCONSTITUENT('LUZ_VERDE',$,#833,0.00014091820460932839,'M\X\E9tal');
#858=IFCMATERIALCONSTITUENTSET($,$,(#855,#856,#857));
#859=IFCPROPERTYSINGLEVALUE('Reference',$,IFCIDENTIFIER('TORNIQUETE-BARRERA-ABATIBLE_ACERO-INOXIDABLE_A0.30m'),$);
#860=IFCPROPERTYSET('1z41vHOinn8$wN8z_eYqzx',#6,'Pset_DoorCommon',$,(#35,#859));
#861=IFCPROPERTYSET('2hscaGVn3CI5s3GNwHpB0v',#6,'Pset_EnvironmentalImpactIndicators',$,(#859));
#862=IFCRELDEFINESBYPROPERTIES('2pDvKsGfquPvZzXlUOZYPf',#6,$,$,(#854),#860);
#863=IFCRELDEFINESBYPROPERTIES('1mk9K5g$L5iBcmFEO9Hwkj',#6,$,$,(#854),#861);
#864=IFCQUANTITYAREA('NetSurfaceArea','',$,6.3112201922309143,$);
#865=IFCQUANTITYVOLUME('NetVolume','',$,0.42806427514865614,$);
#866=IFCELEMENTQUANTITY('2BGxr6BxkZ_n5ieEP8Jws8',#6,'Qto_BodyGeometryValidation',$,$,(#864,#865));
#867=IFCRELDEFINESBYPROPERTIES('3NRR8WO54lbX8z_u4iEiDQ',#6,$,$,(#854),#866);
#868=IFCQUANTITYAREA('Area','',$,3.1645798237823817,$);
#869=IFCELEMENTQUANTITY('1ho86YhcaVbRdqm1pgw5FV',#6,'Qto_DoorBaseQuantities',$,$,(#868));
#870=IFCRELDEFINESBYPROPERTIES('036rEwOL1zbjcOIkUdEqmK',#6,$,$,(#854),#869);
#871=IFCMAPPEDITEM(#813,#847);
#872=IFCSHAPEREPRESENTATION(#15,'Body','MappedRepresentation',(#871));
#873=IFCPRODUCTDEFINITIONSHAPE($,$,(#872));
#874=IFCCARTESIANPOINT((-400.,0.,0.));
#875=IFCAXIS2PLACEMENT3D(#874,$,$);
#876=IFCLOCALPLACEMENT(#24,#875);
#877=IFCDOOR('3oyCt1Qkr1eB4AwAsGn5$F',#6,'TORNIQUETE-BARRERA-ABATIBLE:TORNIQUETE-BARRERA-ABATIBLE_ACERO-INOXIDABLE_A0.30m:1665254',$,$,#876,#873,'1665254',1600.0000000000855,780.00000000001205,$,$,$);
#878=IFCMATERIALCONSTITUENT('Default Form',$,#817,0.020108624038743056,'Generic');
#879=IFCMATERIALCONSTITUENT('Insulation - Rigid Fiber Board',$,#821,0.97975045775664771,'Insulation');
#880=IFCMATERIALCONSTITUENT('LUZ_VERDE',$,#833,0.00014091820460932839,'M\X\E9tal');
#881=IFCMATERIALCONSTITUENTSET($,$,(#878,#879,#880));
#882=IFCPROPERTYSET('2Vzch8uyVqxwC_bvyGLzeU',#6,'Pset_DoorCommon',$,(#35,#859));
#883=IFCPROPERTYSET('2nQ$TmA$0Q_KcszCAxHFzt',#6,'Pset_EnvironmentalImpactIndicators',$,(#859));
#884=IFCRELDEFINESBYPROPERTIES('03RJCC_m9jaTsDlIisc3V7',#6,$,$,(#877),#882);
#885=IFCRELDEFINESBYPROPERTIES('1p7OpEfG$6pIeltNl2VR5F',#6,$,$,(#877),#883);
#886=IFCQUANTITYAREA('NetSurfaceArea','',$,6.3112201922309143,$);
#887=IFCQUANTITYVOLUME('NetVolume','',$,0.42806427514865614,$);
#888=IFCELEMENTQUANTITY('2Ycg5hKpme5BxtaBIw_9x9',#6,'Qto_BodyGeometryValidation',$,$,(#886,#887));
#889=IFCRELDEFINESBYPROPERTIES('0z2qHWjsPxCkaGF4U6BhJg',#6,$,$,(#877),#888);
#890=IFCQUANTITYAREA('Area','',$,3.1645798237823817,$);
#891=IFCELEMENTQUANTITY('2xUUzuJetepfvdktx8eSxP',#6,'Qto_DoorBaseQuantities',$,$,(#890));
#892=IFCRELDEFINESBYPROPERTIES('3u$JhYwtu8jJ3heMU7NHKq',#6,$,$,(#877),#891);
#893=IFCMAPPEDITEM(#813,#847);
#894=IFCSHAPEREPRESENTATION(#15,'Body','MappedRepresentation',(#893));
#895=IFCPRODUCTDEFINITIONSHAPE($,$,(#894));
#896=IFCCARTESIANPOINT((400.,0.,0.));
#897=IFCAXIS2PLACEMENT3D(#896,$,$);
#898=IFCLOCALPLACEMENT(#24,#897);
#899=IFCDOOR('3oyCt1Qkr1eB4AwAsGn5vn',#6,'TORNIQUETE-BARRERA-ABATIBLE:TORNIQUETE-BARRERA-ABATIBLE_ACERO-INOXIDABLE_A0.30m:1665368',$,$,#898,#895,'1665368',1600.0000000000855,780.00000000001205,$,$,$);
#900=IFCMATERIALCONSTITUENT('Default Form',$,#817,0.020108624038743056,'Generic');
#901=IFCMATERIALCONSTITUENT('Insulation - Rigid Fiber Board',$,#821,0.97975045775664771,'Insulation');
#902=IFCMATERIALCONSTITUENT('LUZ_VERDE',$,#833,0.00014091820460932839,'M\X\E9tal');
#903=IFCMATERIALCONSTITUENTSET($,$,(#900,#901,#902));
#904=IFCPROPERTYSET('1yidcjeeb9qsdDesI6YcYk',#6,'Pset_DoorCommon',$,(#35,#859));
#905=IFCPROPERTYSET('3AafPugUk2t8GN5RuD7ufm',#6,'Pset_EnvironmentalImpactIndicators',$,(#859));
#906=IFCRELDEFINESBYPROPERTIES('3CP9hLXSZk3PUsQbfjK5dw',#6,$,$,(#899),#904);
#907=IFCRELDEFINESBYPROPERTIES('0_LIVHlEtELrFIqIhbpTQY',#6,$,$,(#899),#905);
#908=IFCQUANTITYAREA('NetSurfaceArea','',$,6.3112201922309143,$);
#909=IFCQUANTITYVOLUME('NetVolume','',$,0.42806427514865614,$);
#910=IFCELEMENTQUANTITY('2aMc5xsKp6Ajg3X_F2HmXT',#6,'Qto_BodyGeometryValidation',$,$,(#908,#909));
#911=IFCRELDEFINESBYPROPERTIES('2vxYIK_eNfh1T6VcnRia5R',#6,$,$,(#899),#910);
#912=IFCQUANTITYAREA('Area','',$,3.1645798237823817,$);
#913=IFCELEMENTQUANTITY('33NrTTF12qEhKz1KmTyHU6',#6,'Qto_DoorBaseQuantities',$,$,(#912));
#914=IFCRELDEFINESBYPROPERTIES('1hDYSwolxltJ0Tr_3AMEdy',#6,$,$,(#899),#913);
#915=IFCCARTESIANPOINT((210.,-40.,200.));
#916=IFCCARTESIANPOINT((610.,-40.,200.));
#917=IFCCARTESIANPOINT((622.94095225512706,-40.,201.70370868552521));
#918=IFCCARTESIANPOINT((635.,-40.,206.6987298107567));
#919=IFCCARTESIANPOINT((645.35533905932846,-40.,214.64466094065125));
#920=IFCCARTESIANPOINT((653.30127018922292,-40.,225.));
#921=IFCCARTESIANPOINT((658.29629131445438,-40.,237.05904774485259));
#922=IFCCARTESIANPOINT((660.,-40.,250.));
#923=IFCCARTESIANPOINT((660.,-40.,1750.));
#924=IFCCARTESIANPOINT((658.29629131445449,-40.,1762.9409522551077));
#925=IFCCARTESIANPOINT((653.30127018922303,-40.,1775.));
#926=IFCCARTESIANPOINT((645.35533905932857,-40.,1785.355339059309));
#927=IFCCARTESIANPOINT((635.,-40.,1793.3012701892037));
#928=IFCCARTESIANPOINT((622.9409522551274,-40.,1798.2962913144354));
#929=IFCCARTESIANPOINT((610.,-40.,1800.));
#930=IFCCARTESIANPOINT((260.,-40.,1800.));
#931=IFCCARTESIANPOINT((247.05904774487368,-40.,1798.2962913144354));
#932=IFCCARTESIANPOINT((235.,-40.,1793.3012701892039));
#933=IFCCARTESIANPOINT((224.64466094067231,-40.,1785.3553390593092));
#934=IFCCARTESIANPOINT((216.69872981077779,-40.,1775.));
#935=IFCCARTESIANPOINT((211.70370868554627,-40.,1762.940952255108));
#936=IFCCARTESIANPOINT((210.,-40.,1750.));
#937=IFCCARTESIANPOINT((210.,-30.,200.));
#938=IFCCARTESIANPOINT((210.,-30.,1750.));
#939=IFCCARTESIANPOINT((211.70370868554627,-30.,1762.940952255108));
#940=IFCCARTESIANPOINT((216.69872981077779,-30.,1775.));
#941=IFCCARTESIANPOINT((224.64466094067231,-30.,1785.3553390593092));
#942=IFCCARTESIANPOINT((235.,-30.,1793.3012701892039));
#943=IFCCARTESIANPOINT((247.05904774487368,-30.,1798.2962913144354));
#944=IFCCARTESIANPOINT((260.,-30.,1800.));
#945=IFCCARTESIANPOINT((610.,-30.,1800.));
#946=IFCCARTESIANPOINT((622.9409522551274,-30.,1798.2962913144354));
#947=IFCCARTESIANPOINT((635.,-30.,1793.3012701892037));
#948=IFCCARTESIANPOINT((645.35533905932857,-30.,1785.355339059309));
#949=IFCCARTESIANPOINT((653.30127018922303,-30.,1775.));
#950=IFCCARTESIANPOINT((658.29629131445449,-30.,1762.9409522551077));
#951=IFCCARTESIANPOINT((660.,-30.,1750.));
#952=IFCCARTESIANPOINT((660.,-30.,250.));
#953=IFCCARTESIANPOINT((658.29629131445438,-30.,237.05904774485259));
#954=IFCCARTESIANPOINT((653.30127018922292,-30.,225.));
#955=IFCCARTESIANPOINT((645.35533905932846,-30.,214.64466094065125));
#956=IFCCARTESIANPOINT((635.,-30.,206.6987298107567));
#957=IFCCARTESIANPOINT((622.94095225512706,-30.,201.70370868552521));
#958=IFCCARTESIANPOINT((610.,-30.,200.));
#959=IFCPOLYLOOP((#922,#923,#924,#925,#926,#927,#928,#929,#930,#931,#932,#933,#934,#935,#936,#915,#916,#917,#918,#919,#920,#921));
#960=IFCFACEOUTERBOUND(#959,.T.);
#961=IFCFACE((#960));
#962=IFCPOLYLOOP((#958,#937,#938,#939,#940,#941,#942,#943,#944,#945,#946,#947,#948,#949,#950,#951,#952,#953,#954,#955,#956,#957));
#963=IFCFACEOUTERBOUND(#962,.T.);
#964=IFCFACE((#963));
#965=IFCPOLYLOOP((#916,#915,#937,#958));
#966=IFCFACEOUTERBOUND(#965,.T.);
#967=IFCFACE((#966));
#968=IFCPOLYLOOP((#923,#922,#952,#951));
#969=IFCFACEOUTERBOUND(#968,.T.);
#970=IFCFACE((#969));
#971=IFCPOLYLOOP((#930,#929,#945,#944));
#972=IFCFACEOUTERBOUND(#971,.T.);
#973=IFCFACE((#972));
#974=IFCPOLYLOOP((#915,#936,#938,#937));
#975=IFCFACEOUTERBOUND(#974,.T.);
#976=IFCFACE((#975));
#977=IFCPOLYLOOP((#917,#916,#958,#957));
#978=IFCFACEOUTERBOUND(#977,.T.);
#979=IFCFACE((#978));
#980=IFCPOLYLOOP((#918,#917,#957,#956));
#981=IFCFACEOUTERBOUND(#980,.T.);
#982=IFCFACE((#981));
#983=IFCPOLYLOOP((#919,#918,#956,#955));
#984=IFCFACEOUTERBOUND(#983,.T.);
#985=IFCFACE((#984));
#986=IFCPOLYLOOP((#920,#919,#955,#954));
#987=IFCFACEOUTERBOUND(#986,.T.);
#988=IFCFACE((#987));
#989=IFCPOLYLOOP((#921,#920,#954,#953));
#990=IFCFACEOUTERBOUND(#989,.T.);
#991=IFCFACE((#990));
#992=IFCPOLYLOOP((#922,#921,#953,#952));
#993=IFCFACEOUTERBOUND(#992,.T.);
#994=IFCFACE((#993));
#995=IFCPOLYLOOP((#924,#923,#951,#950));
#996=IFCFACEOUTERBOUND(#995,.T.);
#997=IFCFACE((#996));
#998=IFCPOLYLOOP((#925,#924,#950,#949));
#999=IFCFACEOUTERBOUND(#998,.T.);
#1000=IFCFACE((#999));
#1001=IFCPOLYLOOP((#926,#925,#949,#948));
#1002=IFCFACEOUTERBOUND(#1001,.T.);
#1003=IFCFACE((#1002));
#1004=IFCPOLYLOOP((#927,#926,#948,#947));
#1005=IFCFACEOUTERBOUND(#1004,.T.);
#1006=IFCFACE((#1005));
#1007=IFCPOLYLOOP((#928,#927,#947,#946));
#1008=IFCFACEOUTERBOUND(#1007,.T.);
#1009=IFCFACE((#1008));
#1010=IFCPOLYLOOP((#929,#928,#946,#945));
#1011=IFCFACEOUTERBOUND(#1010,.T.);
#1012=IFCFACE((#1011));
#1013=IFCPOLYLOOP((#931,#930,#944,#943));
#1014=IFCFACEOUTERBOUND(#1013,.T.);
#1015=IFCFACE((#1014));
#1016=IFCPOLYLOOP((#932,#931,#943,#942));
#1017=IFCFACEOUTERBOUND(#1016,.T.);
#1018=IFCFACE((#1017));
#1019=IFCPOLYLOOP((#933,#932,#942,#941));
#1020=IFCFACEOUTERBOUND(#1019,.T.);
#1021=IFCFACE((#1020));
#1022=IFCPOLYLOOP((#934,#933,#941,#940));
#1023=IFCFACEOUTERBOUND(#1022,.T.);
#1024=IFCFACE((#1023));
#1025=IFCPOLYLOOP((#935,#934,#940,#939));
#1026=IFCFACEOUTERBOUND(#1025,.T.);
#1027=IFCFACE((#1026));
#1028=IFCPOLYLOOP((#936,#935,#939,#938));
#1029=IFCFACEOUTERBOUND(#1028,.T.);
#1030=IFCFACE((#1029));
#1031=IFCCARTESIANPOINT((240.,-50.,1000.));
#1032=IFCCARTESIANPOINT((240.,-40.,1000.));
#1033=IFCCARTESIANPOINT((210.,-40.,1000.));
#1034=IFCCARTESIANPOINT((210.,-30.,1000.));
#1035=IFCCARTESIANPOINT((240.,-30.,1000.));
#1036=IFCCARTESIANPOINT((240.,-0.,1000.));
#1037=IFCCARTESIANPOINT((240.,50.,1000.));
#1038=IFCCARTESIANPOINT((236.22419797621004,175.23972506241802,1000.));
#1039=IFCCARTESIANPOINT((224.91347802725855,300.,1000.));
#1040=IFCCARTESIANPOINT((-224.91347802725556,300.,1000.));
#1041=IFCCARTESIANPOINT((-236.22419797620702,175.23972506242507,1000.));
#1042=IFCCARTESIANPOINT((-240.,50.,1000.));
#1043=IFCCARTESIANPOINT((-240.,-0.,1000.));
#1044=IFCCARTESIANPOINT((-240.,-50.,1000.));
#1045=IFCCARTESIANPOINT((-236.22419797620836,-175.2397250624168,1000.));
#1046=IFCCARTESIANPOINT((-224.91347802725718,-300.,1000.));
#1047=IFCCARTESIANPOINT((224.91347802725664,-300.,1000.));
#1048=IFCCARTESIANPOINT((236.22419797620807,-175.23972506242859,1000.));
#1049=IFCCARTESIANPOINT((100.,800.,-0.));
#1050=IFCCARTESIANPOINT((150.03239381508607,654.96139037054695,-0.));
#1051=IFCCARTESIANPOINT((189.23192522129659,506.62786263105738,-0.));
#1052=IFCCARTESIANPOINT((217.38509423666889,355.80731433441537,-0.));
#1053=IFCCARTESIANPOINT((234.3385648170852,203.32118857411098,-0.));
#1054=IFCCARTESIANPOINT((240.,50.,-0.));
#1055=IFCCARTESIANPOINT((240.,-30.,-0.));
#1056=IFCCARTESIANPOINT((210.,-30.,-0.));
#1057=IFCCARTESIANPOINT((210.,-40.,-0.));
#1058=IFCCARTESIANPOINT((240.,-40.,-0.));
#1059=IFCCARTESIANPOINT((240.,-50.,-0.));
#1060=IFCCARTESIANPOINT((234.33856481708384,-203.32118857411055,-0.));
#1061=IFCCARTESIANPOINT((217.38509423666648,-355.80731433441775,-0.));
#1062=IFCCARTESIANPOINT((189.23192522129253,-506.62786263106437,-0.));
#1063=IFCCARTESIANPOINT((150.03239381508038,-654.9613903705565,-0.));
#1064=IFCCARTESIANPOINT((100.,-800.,-0.));
#1065=IFCCARTESIANPOINT((-100.,-800.,-0.));
#1066=IFCCARTESIANPOINT((-150.03239381508527,-654.96139037054843,-0.));
#1067=IFCCARTESIANPOINT((-189.23192522129523,-506.62786263106,-0.));
#1068=IFCCARTESIANPOINT((-217.38509423666727,-355.80731433441815,-0.));
#1069=IFCCARTESIANPOINT((-234.33856481708355,-203.32118857411515,-0.));
#1070=IFCCARTESIANPOINT((-240.,-50.,-0.));
#1071=IFCCARTESIANPOINT((-240.,50.,-0.));
#1072=IFCCARTESIANPOINT((-234.33856481708247,203.32118857411456,-0.));
#1073=IFCCARTESIANPOINT((-217.38509423666486,355.80731433442094,-0.));
#1074=IFCCARTESIANPOINT((-189.23192522129116,506.62786263106665,-0.));
#1075=IFCCARTESIANPOINT((-150.03239381507959,654.96139037055809,-0.));
#1076=IFCCARTESIANPOINT((-100.,800.,-0.));
#1077=IFCCARTESIANPOINT((-100.,800.,877.10966802638234));
#1078=IFCCARTESIANPOINT((100.,800.,877.10966802636244));
#1079=IFCCARTESIANPOINT((50.,800.,777.10966802636199));
#1080=IFCCARTESIANPOINT((-50.,800.,777.10966802636199));
#1081=IFCCARTESIANPOINT((-50.,800.,677.10966802636199));
#1082=IFCCARTESIANPOINT((50.,800.,677.10966802636199));
#1083=IFCCARTESIANPOINT((-209.32324319294872,405.82089455466559,994.79649044909786));
#1084=IFCCARTESIANPOINT((-188.52843761875272,509.74132027359985,979.41088973266255));
#1085=IFCCARTESIANPOINT((-162.97103703663785,610.66207534385262,954.2930991615882));
#1086=IFCCARTESIANPOINT((-133.23393823127424,707.66179803468481,919.99490171518767));
#1087=IFCCARTESIANPOINT((-100.,-800.,877.10966802636233));
#1088=IFCCARTESIANPOINT((-133.23393823128072,-707.66179803467355,919.99490171519221));
#1089=IFCCARTESIANPOINT((-162.97103703664382,-610.66207534384125,954.29309916159173));
#1090=IFCCARTESIANPOINT((-188.52843761875786,-509.74132027358763,979.41088973266505));
#1091=IFCCARTESIANPOINT((-209.32324319295279,-405.82089455465416,994.79649044909888));
#1092=IFCCARTESIANPOINT((100.,-800.,877.10966802634755));
#1093=IFCCARTESIANPOINT((-50.,-800.,777.10966802636199));
#1094=IFCCARTESIANPOINT((50.,-800.,777.10966802636199));
#1095=IFCCARTESIANPOINT((50.,-800.,677.10966802636199));
#1096=IFCCARTESIANPOINT((-50.,-800.,677.10966802636199));
#1097=IFCCARTESIANPOINT((209.32324319294739,-405.82089455467974,994.79649044909627));
#1098=IFCCARTESIANPOINT((188.52843761875002,-509.74132027361401,979.41088973265994));
#1099=IFCCARTESIANPOINT((162.97103703663487,-610.66207534386513,954.29309916158422));
#1100=IFCCARTESIANPOINT((133.23393823127017,-707.66179803469731,919.99490171518232));
#1101=IFCCARTESIANPOINT((133.23393823128046,707.66179803467492,919.99490171519278));
#1102=IFCCARTESIANPOINT((162.97103703664436,610.66207534384159,954.29309916159241));
#1103=IFCCARTESIANPOINT((188.52843761875815,509.74132027358951,979.41088973266528));
#1104=IFCCARTESIANPOINT((209.32324319295415,405.82089455465422,994.796490449099));
#1105=IFCCARTESIANPOINT((75.,-632.95974255023123,947.32254088747561));
#1106=IFCCARTESIANPOINT((-75.,-632.95974255024475,947.32254088747095));
#1107=IFCCARTESIANPOINT((-75.,-567.02071428827787,966.42570320952393));
#1108=IFCCARTESIANPOINT((-75.,-500.,981.29547506813151));
#1109=IFCCARTESIANPOINT((75.,-500.,981.29547506812889));
#1110=IFCCARTESIANPOINT((75.,-567.02071428827787,966.42570320952393));
#1111=IFCCARTESIANPOINT((-75.,632.95974255021792,947.32254088747993));
#1112=IFCCARTESIANPOINT((75.,632.95974255021156,947.32254088748186));
#1113=IFCCARTESIANPOINT((75.,567.02071428824411,966.42570320953268));
#1114=IFCCARTESIANPOINT((75.,500.,981.29547506813412));
#1115=IFCCARTESIANPOINT((-75.,500.,981.29547506813537));
#1116=IFCCARTESIANPOINT((-75.,567.02071428824411,966.42570320953268));
#1117=IFCCARTESIANPOINT((-50.,-789.49024589812564,777.10966802636199));
#1118=IFCCARTESIANPOINT((50.,-789.49024589812586,777.10966802636199));
#1119=IFCCARTESIANPOINT((50.,-789.49024589812586,677.10966802636199));
#1120=IFCCARTESIANPOINT((-50.,-789.49024589812564,677.10966802636199));
#1121=IFCCARTESIANPOINT((50.,789.49024589812586,777.10966802636199));
#1122=IFCCARTESIANPOINT((-50.,789.49024589812564,777.10966802636199));
#1123=IFCCARTESIANPOINT((-50.,789.49024589812564,677.10966802636199));
#1124=IFCCARTESIANPOINT((50.,789.49024589812586,677.10966802636199));
#1125=IFCCARTESIANPOINT((75.,-500.,947.32254088747754));
#1126=IFCCARTESIANPOINT((-75.,-500.,947.32254088747754));
#1127=IFCCARTESIANPOINT((-75.,500.,947.32254088747754));
#1128=IFCCARTESIANPOINT((75.,500.,947.32254088747754));
#1129=IFCPOLYLOOP((#1034,#1035,#1036,#1037,#1038,#1039,#1040,#1041,#1042,#1043,#1044,#1045,#1046,#1047,#1048,#1031,#1032,#1033));
#1130=IFCFACEOUTERBOUND(#1129,.T.);
#1131=IFCFACE((#1130));
#1132=IFCPOLYLOOP((#1072,#1073,#1074,#1075,#1076,#1049,#1050,#1051,#1052,#1053,#1054,#1055,#1056,#1057,#1058,#1059,#1060,#1061,#1062,#1063,#1064,#1065,#1066,#1067,#1068,#1069,#1070,#1071));
#1133=IFCFACEOUTERBOUND(#1132,.T.);
#1134=IFCFACE((#1133));
#1135=IFCPOLYLOOP((#1078,#1079,#1080));
#1136=IFCFACEOUTERBOUND(#1135,.T.);
#1137=IFCFACE((#1136));
#1138=IFCPOLYLOOP((#1079,#1078,#1082));
#1139=IFCFACEOUTERBOUND(#1138,.T.);
#1140=IFCFACE((#1139));
#1141=IFCPOLYLOOP((#1080,#1077,#1078));
#1142=IFCFACEOUTERBOUND(#1141,.T.);
#1143=IFCFACE((#1142));
#1144=IFCPOLYLOOP((#1049,#1082,#1078));
#1145=IFCFACEOUTERBOUND(#1144,.T.);
#1146=IFCFACE((#1145));
#1147=IFCPOLYLOOP((#1082,#1049,#1076));
#1148=IFCFACEOUTERBOUND(#1147,.T.);
#1149=IFCFACE((#1148));
#1150=IFCPOLYLOOP((#1081,#1076,#1077));
#1151=IFCFACEOUTERBOUND(#1150,.T.);
#1152=IFCFACE((#1151));
#1153=IFCPOLYLOOP((#1076,#1081,#1082));
#1154=IFCFACEOUTERBOUND(#1153,.T.);
#1155=IFCFACE((#1154));
#1156=IFCPOLYLOOP((#1077,#1080,#1081));
#1157=IFCFACEOUTERBOUND(#1156,.T.);
#1158=IFCFACE((#1157));
#1159=IFCPOLYLOOP((#1077,#1076,#1075));
#1160=IFCFACEOUTERBOUND(#1159,.T.);
#1161=IFCFACE((#1160));
#1162=IFCPOLYLOOP((#1085,#1075,#1074));
#1163=IFCFACEOUTERBOUND(#1162,.T.);
#1164=IFCFACE((#1163));
#1165=IFCPOLYLOOP((#1077,#1075,#1086));
#1166=IFCFACEOUTERBOUND(#1165,.T.);
#1167=IFCFACE((#1166));
#1168=IFCPOLYLOOP((#1086,#1075,#1085));
#1169=IFCFACEOUTERBOUND(#1168,.T.);
#1170=IFCFACE((#1169));
#1171=IFCPOLYLOOP((#1074,#1084,#1085));
#1172=IFCFACEOUTERBOUND(#1171,.T.);
#1173=IFCFACE((#1172));
#1174=IFCPOLYLOOP((#1074,#1083,#1084));
#1175=IFCFACEOUTERBOUND(#1174,.T.);
#1176=IFCFACE((#1175));
#1177=IFCPOLYLOOP((#1040,#1073,#1072));
#1178=IFCFACEOUTERBOUND(#1177,.T.);
#1179=IFCFACE((#1178));
#1180=IFCPOLYLOOP((#1041,#1072,#1071));
#1181=IFCFACEOUTERBOUND(#1180,.T.);
#1182=IFCFACE((#1181));
#1183=IFCPOLYLOOP((#1083,#1073,#1040));
#1184=IFCFACEOUTERBOUND(#1183,.T.);
#1185=IFCFACE((#1184));
#1186=IFCPOLYLOOP((#1040,#1072,#1041));
#1187=IFCFACEOUTERBOUND(#1186,.T.);
#1188=IFCFACE((#1187));
#1189=IFCPOLYLOOP((#1071,#1042,#1041));
#1190=IFCFACEOUTERBOUND(#1189,.T.);
#1191=IFCFACE((#1190));
#1192=IFCPOLYLOOP((#1073,#1083,#1074));
#1193=IFCFACEOUTERBOUND(#1192,.T.);
#1194=IFCFACE((#1193));
#1195=IFCPOLYLOOP((#1043,#1042,#1071,#1070,#1044));
#1196=IFCFACEOUTERBOUND(#1195,.T.);
#1197=IFCFACE((#1196));
#1198=IFCPOLYLOOP((#1045,#1070,#1069));
#1199=IFCFACEOUTERBOUND(#1198,.T.);
#1200=IFCFACE((#1199));
#1201=IFCPOLYLOOP((#1046,#1069,#1068));
#1202=IFCFACEOUTERBOUND(#1201,.T.);
#1203=IFCFACE((#1202));
#1204=IFCPOLYLOOP((#1044,#1070,#1045));
#1205=IFCFACEOUTERBOUND(#1204,.T.);
#1206=IFCFACE((#1205));
#1207=IFCPOLYLOOP((#1046,#1045,#1069));
#1208=IFCFACEOUTERBOUND(#1207,.T.);
#1209=IFCFACE((#1208));
#1210=IFCPOLYLOOP((#1091,#1046,#1068));
#1211=IFCFACEOUTERBOUND(#1210,.T.);
#1212=IFCFACE((#1211));
#1213=IFCPOLYLOOP((#1068,#1067,#1091));
#1214=IFCFACEOUTERBOUND(#1213,.T.);
#1215=IFCFACE((#1214));
#1216=IFCPOLYLOOP((#1089,#1067,#1066));
#1217=IFCFACEOUTERBOUND(#1216,.T.);
#1218=IFCFACE((#1217));
#1219=IFCPOLYLOOP((#1087,#1066,#1065));
#1220=IFCFACEOUTERBOUND(#1219,.T.);
#1221=IFCFACE((#1220));
#1222=IFCPOLYLOOP((#1090,#1067,#1089));
#1223=IFCFACEOUTERBOUND(#1222,.T.);
#1224=IFCFACE((#1223));
#1225=IFCPOLYLOOP((#1088,#1089,#1066));
#1226=IFCFACEOUTERBOUND(#1225,.T.);
#1227=IFCFACE((#1226));
#1228=IFCPOLYLOOP((#1087,#1088,#1066));
#1229=IFCFACEOUTERBOUND(#1228,.T.);
#1230=IFCFACE((#1229));
#1231=IFCPOLYLOOP((#1067,#1090,#1091));
#1232=IFCFACEOUTERBOUND(#1231,.T.);
#1233=IFCFACE((#1232));
#1234=IFCPOLYLOOP((#1087,#1093,#1094));
#1235=IFCFACEOUTERBOUND(#1234,.T.);
#1236=IFCFACE((#1235));
#1237=IFCPOLYLOOP((#1093,#1087,#1096));
#1238=IFCFACEOUTERBOUND(#1237,.T.);
#1239=IFCFACE((#1238));
#1240=IFCPOLYLOOP((#1094,#1092,#1087));
#1241=IFCFACEOUTERBOUND(#1240,.T.);
#1242=IFCFACE((#1241));
#1243=IFCPOLYLOOP((#1065,#1096,#1087));
#1244=IFCFACEOUTERBOUND(#1243,.T.);
#1245=IFCFACE((#1244));
#1246=IFCPOLYLOOP((#1096,#1065,#1064));
#1247=IFCFACEOUTERBOUND(#1246,.T.);
#1248=IFCFACE((#1247));
#1249=IFCPOLYLOOP((#1095,#1064,#1092));
#1250=IFCFACEOUTERBOUND(#1249,.T.);
#1251=IFCFACE((#1250));
#1252=IFCPOLYLOOP((#1064,#1095,#1096));
#1253=IFCFACEOUTERBOUND(#1252,.T.);
#1254=IFCFACE((#1253));
#1255=IFCPOLYLOOP((#1092,#1094,#1095));
#1256=IFCFACEOUTERBOUND(#1255,.T.);
#1257=IFCFACE((#1256));
#1258=IFCPOLYLOOP((#1092,#1064,#1063));
#1259=IFCFACEOUTERBOUND(#1258,.T.);
#1260=IFCFACE((#1259));
#1261=IFCPOLYLOOP((#1099,#1063,#1062));
#1262=IFCFACEOUTERBOUND(#1261,.T.);
#1263=IFCFACE((#1262));
#1264=IFCPOLYLOOP((#1092,#1063,#1100));
#1265=IFCFACEOUTERBOUND(#1264,.T.);
#1266=IFCFACE((#1265));
#1267=IFCPOLYLOOP((#1100,#1063,#1099));
#1268=IFCFACEOUTERBOUND(#1267,.T.);
#1269=IFCFACE((#1268));
#1270=IFCPOLYLOOP((#1062,#1098,#1099));
#1271=IFCFACEOUTERBOUND(#1270,.T.);
#1272=IFCFACE((#1271));
#1273=IFCPOLYLOOP((#1062,#1097,#1098));
#1274=IFCFACEOUTERBOUND(#1273,.T.);
#1275=IFCFACE((#1274));
#1276=IFCPOLYLOOP((#1047,#1061,#1060));
#1277=IFCFACEOUTERBOUND(#1276,.T.);
#1278=IFCFACE((#1277));
#1279=IFCPOLYLOOP((#1048,#1060,#1059));
#1280=IFCFACEOUTERBOUND(#1279,.T.);
#1281=IFCFACE((#1280));
#1282=IFCPOLYLOOP((#1097,#1061,#1047));
#1283=IFCFACEOUTERBOUND(#1282,.T.);
#1284=IFCFACE((#1283));
#1285=IFCPOLYLOOP((#1047,#1060,#1048));
#1286=IFCFACEOUTERBOUND(#1285,.T.);
#1287=IFCFACE((#1286));
#1288=IFCPOLYLOOP((#1059,#1031,#1048));
#1289=IFCFACEOUTERBOUND(#1288,.T.);
#1290=IFCFACE((#1289));
#1291=IFCPOLYLOOP((#1061,#1097,#1062));
#1292=IFCFACEOUTERBOUND(#1291,.T.);
#1293=IFCFACE((#1292));
#1294=IFCPOLYLOOP((#1036,#1035,#1055,#1054,#1037));
#1295=IFCFACEOUTERBOUND(#1294,.T.);
#1296=IFCFACE((#1295));
#1297=IFCPOLYLOOP((#1032,#1031,#1059,#1058));
#1298=IFCFACEOUTERBOUND(#1297,.T.);
#1299=IFCFACE((#1298));
#1300=IFCPOLYLOOP((#1038,#1054,#1053));
#1301=IFCFACEOUTERBOUND(#1300,.T.);
#1302=IFCFACE((#1301));
#1303=IFCPOLYLOOP((#1039,#1053,#1052));
#1304=IFCFACEOUTERBOUND(#1303,.T.);
#1305=IFCFACE((#1304));
#1306=IFCPOLYLOOP((#1037,#1054,#1038));
#1307=IFCFACEOUTERBOUND(#1306,.T.);
#1308=IFCFACE((#1307));
#1309=IFCPOLYLOOP((#1039,#1038,#1053));
#1310=IFCFACEOUTERBOUND(#1309,.T.);
#1311=IFCFACE((#1310));
#1312=IFCPOLYLOOP((#1104,#1039,#1052));
#1313=IFCFACEOUTERBOUND(#1312,.T.);
#1314=IFCFACE((#1313));
#1315=IFCPOLYLOOP((#1052,#1051,#1104));
#1316=IFCFACEOUTERBOUND(#1315,.T.);
#1317=IFCFACE((#1316));
#1318=IFCPOLYLOOP((#1102,#1051,#1050));
#1319=IFCFACEOUTERBOUND(#1318,.T.);
#1320=IFCFACE((#1319));
#1321=IFCPOLYLOOP((#1078,#1050,#1049));
#1322=IFCFACEOUTERBOUND(#1321,.T.);
#1323=IFCFACE((#1322));
#1324=IFCPOLYLOOP((#1103,#1051,#1102));
#1325=IFCFACEOUTERBOUND(#1324,.T.);
#1326=IFCFACE((#1325));
#1327=IFCPOLYLOOP((#1101,#1102,#1050));
#1328=IFCFACEOUTERBOUND(#1327,.T.);
#1329=IFCFACE((#1328));
#1330=IFCPOLYLOOP((#1078,#1101,#1050));
#1331=IFCFACEOUTERBOUND(#1330,.T.);
#1332=IFCFACE((#1331));
#1333=IFCPOLYLOOP((#1051,#1103,#1104));
#1334=IFCFACEOUTERBOUND(#1333,.T.);
#1335=IFCFACE((#1334));
#1336=IFCPOLYLOOP((#1033,#1032,#1058,#1057));
#1337=IFCFACEOUTERBOUND(#1336,.T.);
#1338=IFCFACE((#1337));
#1339=IFCPOLYLOOP((#1034,#1033,#1057,#1056));
#1340=IFCFACEOUTERBOUND(#1339,.T.);
#1341=IFCFACE((#1340));
#1342=IFCPOLYLOOP((#1035,#1034,#1056,#1055));
#1343=IFCFACEOUTERBOUND(#1342,.T.);
#1344=IFCFACE((#1343));
#1345=IFCPOLYLOOP((#1087,#1092,#1100,#1088));
#1346=IFCFACEOUTERBOUND(#1345,.T.);
#1347=IFCFACE((#1346));
#1348=IFCPOLYLOOP((#1105,#1099,#1110));
#1349=IFCFACEOUTERBOUND(#1348,.T.);
#1350=IFCFACE((#1349));
#1351=IFCPOLYLOOP((#1099,#1105,#1100));
#1352=IFCFACEOUTERBOUND(#1351,.T.);
#1353=IFCFACE((#1352));
#1354=IFCPOLYLOOP((#1088,#1100,#1105,#1106));
#1355=IFCFACEOUTERBOUND(#1354,.T.);
#1356=IFCFACE((#1355));
#1357=IFCPOLYLOOP((#1089,#1106,#1107));
#1358=IFCFACEOUTERBOUND(#1357,.T.);
#1359=IFCFACE((#1358));
#1360=IFCPOLYLOOP((#1106,#1089,#1088));
#1361=IFCFACEOUTERBOUND(#1360,.T.);
#1362=IFCFACE((#1361));
#1363=IFCPOLYLOOP((#1099,#1098,#1110));
#1364=IFCFACEOUTERBOUND(#1363,.T.);
#1365=IFCFACE((#1364));
#1366=IFCPOLYLOOP((#1109,#1098,#1097));
#1367=IFCFACEOUTERBOUND(#1366,.T.);
#1368=IFCFACE((#1367));
#1369=IFCPOLYLOOP((#1109,#1097,#1091,#1108));
#1370=IFCFACEOUTERBOUND(#1369,.T.);
#1371=IFCFACE((#1370));
#1372=IFCPOLYLOOP((#1091,#1097,#1047,#1046));
#1373=IFCFACEOUTERBOUND(#1372,.T.);
#1374=IFCFACE((#1373));
#1375=IFCPOLYLOOP((#1107,#1090,#1089));
#1376=IFCFACEOUTERBOUND(#1375,.T.);
#1377=IFCFACE((#1376));
#1378=IFCPOLYLOOP((#1090,#1107,#1108));
#1379=IFCFACEOUTERBOUND(#1378,.T.);
#1380=IFCFACE((#1379));
#1381=IFCPOLYLOOP((#1108,#1091,#1090));
#1382=IFCFACEOUTERBOUND(#1381,.T.);
#1383=IFCFACE((#1382));
#1384=IFCPOLYLOOP((#1109,#1110,#1098));
#1385=IFCFACEOUTERBOUND(#1384,.T.);
#1386=IFCFACE((#1385));
#1387=IFCPOLYLOOP((#1040,#1039,#1104,#1083));
#1388=IFCFACEOUTERBOUND(#1387,.T.);
#1389=IFCFACE((#1388));
#1390=IFCPOLYLOOP((#1114,#1103,#1113));
#1391=IFCFACEOUTERBOUND(#1390,.T.);
#1392=IFCFACE((#1391));
#1393=IFCPOLYLOOP((#1103,#1114,#1104));
#1394=IFCFACEOUTERBOUND(#1393,.T.);
#1395=IFCFACE((#1394));
#1396=IFCPOLYLOOP((#1083,#1104,#1114,#1115));
#1397=IFCFACEOUTERBOUND(#1396,.T.);
#1398=IFCFACE((#1397));
#1399=IFCPOLYLOOP((#1084,#1115,#1116));
#1400=IFCFACEOUTERBOUND(#1399,.T.);
#1401=IFCFACE((#1400));
#1402=IFCPOLYLOOP((#1115,#1084,#1083));
#1403=IFCFACEOUTERBOUND(#1402,.T.);
#1404=IFCFACE((#1403));
#1405=IFCPOLYLOOP((#1103,#1102,#1113));
#1406=IFCFACEOUTERBOUND(#1405,.T.);
#1407=IFCFACE((#1406));
#1408=IFCPOLYLOOP((#1112,#1102,#1101));
#1409=IFCFACEOUTERBOUND(#1408,.T.);
#1410=IFCFACE((#1409));
#1411=IFCPOLYLOOP((#1112,#1101,#1086,#1111));
#1412=IFCFACEOUTERBOUND(#1411,.T.);
#1413=IFCFACE((#1412));
#1414=IFCPOLYLOOP((#1086,#1101,#1078,#1077));
#1415=IFCFACEOUTERBOUND(#1414,.T.);
#1416=IFCFACE((#1415));
#1417=IFCPOLYLOOP((#1116,#1085,#1084));
#1418=IFCFACEOUTERBOUND(#1417,.T.);
#1419=IFCFACE((#1418));
#1420=IFCPOLYLOOP((#1085,#1116,#1111));
#1421=IFCFACEOUTERBOUND(#1420,.T.);
#1422=IFCFACE((#1421));
#1423=IFCPOLYLOOP((#1111,#1086,#1085));
#1424=IFCFACEOUTERBOUND(#1423,.T.);
#1425=IFCFACE((#1424));
#1426=IFCPOLYLOOP((#1112,#1113,#1102));
#1427=IFCFACEOUTERBOUND(#1426,.T.);
#1428=IFCFACE((#1427));
#1429=IFCPOLYLOOP((#1117,#1118,#1094,#1093));
#1430=IFCFACEOUTERBOUND(#1429,.T.);
#1431=IFCFACE((#1430));
#1432=IFCPOLYLOOP((#1080,#1079,#1121,#1122));
#1433=IFCFACEOUTERBOUND(#1432,.T.);
#1434=IFCFACE((#1433));
#1435=IFCPOLYLOOP((#1095,#1119,#1120,#1096));
#1436=IFCFACEOUTERBOUND(#1435,.T.);
#1437=IFCFACE((#1436));
#1438=IFCPOLYLOOP((#1124,#1082,#1081,#1123));
#1439=IFCFACEOUTERBOUND(#1438,.T.);
#1440=IFCFACE((#1439));
#1441=IFCPOLYLOOP((#1120,#1117,#1093,#1096));
#1442=IFCFACEOUTERBOUND(#1441,.T.);
#1443=IFCFACE((#1442));
#1444=IFCPOLYLOOP((#1123,#1081,#1080,#1122));
#1445=IFCFACEOUTERBOUND(#1444,.T.);
#1446=IFCFACE((#1445));
#1447=IFCPOLYLOOP((#1095,#1094,#1118,#1119));
#1448=IFCFACEOUTERBOUND(#1447,.T.);
#1449=IFCFACE((#1448));
#1450=IFCPOLYLOOP((#1082,#1124,#1121,#1079));
#1451=IFCFACEOUTERBOUND(#1450,.T.);
#1452=IFCFACE((#1451));
#1453=IFCPOLYLOOP((#1120,#1119,#1118,#1117));
#1454=IFCFACEOUTERBOUND(#1453,.T.);
#1455=IFCFACE((#1454));
#1456=IFCPOLYLOOP((#1124,#1123,#1122,#1121));
#1457=IFCFACEOUTERBOUND(#1456,.T.);
#1458=IFCFACE((#1457));
#1459=IFCPOLYLOOP((#1105,#1125,#1126,#1106));
#1460=IFCFACEOUTERBOUND(#1459,.T.);
#1461=IFCFACE((#1460));
#1462=IFCPOLYLOOP((#1128,#1112,#1111,#1127));
#1463=IFCFACEOUTERBOUND(#1462,.T.);
#1464=IFCFACE((#1463));
#1465=IFCPOLYLOOP((#1125,#1105,#1110,#1109));
#1466=IFCFACEOUTERBOUND(#1465,.T.);
#1467=IFCFACE((#1466));
#1468=IFCPOLYLOOP((#1128,#1114,#1113,#1112));
#1469=IFCFACEOUTERBOUND(#1468,.T.);
#1470=IFCFACE((#1469));
#1471=IFCPOLYLOOP((#1125,#1109,#1108,#1126));
#1472=IFCFACEOUTERBOUND(#1471,.T.);
#1473=IFCFACE((#1472));
#1474=IFCPOLYLOOP((#1126,#1108,#1107,#1106));
#1475=IFCFACEOUTERBOUND(#1474,.T.);
#1476=IFCFACE((#1475));
#1477=IFCPOLYLOOP((#1127,#1111,#1116,#1115));
#1478=IFCFACEOUTERBOUND(#1477,.T.);
#1479=IFCFACE((#1478));
#1480=IFCPOLYLOOP((#1128,#1127,#1115,#1114));
#1481=IFCFACEOUTERBOUND(#1480,.T.);
#1482=IFCFACE((#1481));
#1483=IFCCARTESIANPOINT((-210.,40.,200.));
#1484=IFCCARTESIANPOINT((-430.,40.,200.));
#1485=IFCCARTESIANPOINT((-442.94095225512592,40.,201.70370868552683));
#1486=IFCCARTESIANPOINT((-455.,40.,206.69872981075832));
#1487=IFCCARTESIANPOINT((-465.35533905932726,40.,214.64466094065287));
#1488=IFCCARTESIANPOINT((-473.30127018922184,40.,225.));
#1489=IFCCARTESIANPOINT((-478.29629131445336,40.,237.05904774485421));
#1490=IFCCARTESIANPOINT((-480.,40.,250.));
#1491=IFCCARTESIANPOINT((-480.,40.,1750.));
#1492=IFCCARTESIANPOINT((-478.29629131445341,40.,1762.9409522551077));
#1493=IFCCARTESIANPOINT((-473.30127018922201,40.,1775.));
#1494=IFCCARTESIANPOINT((-465.35533905932755,40.,1785.355339059309));
#1495=IFCCARTESIANPOINT((-455.,40.,1793.3012701892037));
#1496=IFCCARTESIANPOINT((-442.94095225512632,40.,1798.2962913144354));
#1497=IFCCARTESIANPOINT((-430.,40.,1800.));
#1498=IFCCARTESIANPOINT((-260.,40.,1800.));
#1499=IFCCARTESIANPOINT((-247.05904774487368,40.,1798.2962913144354));
#1500=IFCCARTESIANPOINT((-235.,40.,1793.3012701892039));
#1501=IFCCARTESIANPOINT((-224.64466094067231,40.,1785.3553390593092));
#1502=IFCCARTESIANPOINT((-216.69872981077779,40.,1775.));
#1503=IFCCARTESIANPOINT((-211.70370868554627,40.,1762.940952255108));
#1504=IFCCARTESIANPOINT((-210.,40.,1750.));
#1505=IFCCARTESIANPOINT((-210.,30.,200.));
#1506=IFCCARTESIANPOINT((-210.,30.,1750.));
#1507=IFCCARTESIANPOINT((-211.70370868554627,30.,1762.940952255108));
#1508=IFCCARTESIANPOINT((-216.69872981077779,30.,1775.));
#1509=IFCCARTESIANPOINT((-224.64466094067231,30.,1785.3553390593092));
#1510=IFCCARTESIANPOINT((-235.,30.,1793.3012701892039));
#1511=IFCCARTESIANPOINT((-247.05904774487368,30.,1798.2962913144354));
#1512=IFCCARTESIANPOINT((-260.,30.,1800.));
#1513=IFCCARTESIANPOINT((-430.,30.,1800.));
#1514=IFCCARTESIANPOINT((-442.94095225512632,30.,1798.2962913144354));
#1515=IFCCARTESIANPOINT((-455.,30.,1793.3012701892037));
#1516=IFCCARTESIANPOINT((-465.35533905932755,30.,1785.355339059309));
#1517=IFCCARTESIANPOINT((-473.30127018922201,30.,1775.));
#1518=IFCCARTESIANPOINT((-478.29629131445341,30.,1762.9409522551077));
#1519=IFCCARTESIANPOINT((-480.,30.,1750.));
#1520=IFCCARTESIANPOINT((-480.,30.,250.));
#1521=IFCCARTESIANPOINT((-478.29629131445336,30.,237.05904774485421));
#1522=IFCCARTESIANPOINT((-473.30127018922184,30.,225.));
#1523=IFCCARTESIANPOINT((-465.35533905932726,30.,214.64466094065287));
#1524=IFCCARTESIANPOINT((-455.,30.,206.69872981075832));
#1525=IFCCARTESIANPOINT((-442.94095225512592,30.,201.70370868552683));
#1526=IFCCARTESIANPOINT((-430.,30.,200.));
#1527=IFCPOLYLOOP((#1490,#1491,#1492,#1493,#1494,#1495,#1496,#1497,#1498,#1499,#1500,#1501,#1502,#1503,#1504,#1483,#1484,#1485,#1486,#1487,#1488,#1489));
#1528=IFCFACEOUTERBOUND(#1527,.T.);
#1529=IFCFACE((#1528));
#1530=IFCPOLYLOOP((#1520,#1521,#1522,#1523,#1524,#1525,#1526,#1505,#1506,#1507,#1508,#1509,#1510,#1511,#1512,#1513,#1514,#1515,#1516,#1517,#1518,#1519));
#1531=IFCFACEOUTERBOUND(#1530,.T.);
#1532=IFCFACE((#1531));
#1533=IFCPOLYLOOP((#1484,#1483,#1505,#1526));
#1534=IFCFACEOUTERBOUND(#1533,.T.);
#1535=IFCFACE((#1534));
#1536=IFCPOLYLOOP((#1491,#1490,#1520,#1519));
#1537=IFCFACEOUTERBOUND(#1536,.T.);
#1538=IFCFACE((#1537));
#1539=IFCPOLYLOOP((#1498,#1497,#1513,#1512));
#1540=IFCFACEOUTERBOUND(#1539,.T.);
#1541=IFCFACE((#1540));
#1542=IFCPOLYLOOP((#1483,#1504,#1506,#1505));
#1543=IFCFACEOUTERBOUND(#1542,.T.);
#1544=IFCFACE((#1543));
#1545=IFCPOLYLOOP((#1485,#1484,#1526,#1525));
#1546=IFCFACEOUTERBOUND(#1545,.T.);
#1547=IFCFACE((#1546));
#1548=IFCPOLYLOOP((#1486,#1485,#1525,#1524));
#1549=IFCFACEOUTERBOUND(#1548,.T.);
#1550=IFCFACE((#1549));
#1551=IFCPOLYLOOP((#1487,#1486,#1524,#1523));
#1552=IFCFACEOUTERBOUND(#1551,.T.);
#1553=IFCFACE((#1552));
#1554=IFCPOLYLOOP((#1488,#1487,#1523,#1522));
#1555=IFCFACEOUTERBOUND(#1554,.T.);
#1556=IFCFACE((#1555));
#1557=IFCPOLYLOOP((#1489,#1488,#1522,#1521));
#1558=IFCFACEOUTERBOUND(#1557,.T.);
#1559=IFCFACE((#1558));
#1560=IFCPOLYLOOP((#1490,#1489,#1521,#1520));
#1561=IFCFACEOUTERBOUND(#1560,.T.);
#1562=IFCFACE((#1561));
#1563=IFCPOLYLOOP((#1492,#1491,#1519,#1518));
#1564=IFCFACEOUTERBOUND(#1563,.T.);
#1565=IFCFACE((#1564));
#1566=IFCPOLYLOOP((#1493,#1492,#1518,#1517));
#1567=IFCFACEOUTERBOUND(#1566,.T.);
#1568=IFCFACE((#1567));
#1569=IFCPOLYLOOP((#1494,#1493,#1517,#1516));
#1570=IFCFACEOUTERBOUND(#1569,.T.);
#1571=IFCFACE((#1570));
#1572=IFCPOLYLOOP((#1495,#1494,#1516,#1515));
#1573=IFCFACEOUTERBOUND(#1572,.T.);
#1574=IFCFACE((#1573));
#1575=IFCPOLYLOOP((#1496,#1495,#1515,#1514));
#1576=IFCFACEOUTERBOUND(#1575,.T.);
#1577=IFCFACE((#1576));
#1578=IFCPOLYLOOP((#1497,#1496,#1514,#1513));
#1579=IFCFACEOUTERBOUND(#1578,.T.);
#1580=IFCFACE((#1579));
#1581=IFCPOLYLOOP((#1499,#1498,#1512,#1511));
#1582=IFCFACEOUTERBOUND(#1581,.T.);
#1583=IFCFACE((#1582));
#1584=IFCPOLYLOOP((#1500,#1499,#1511,#1510));
#1585=IFCFACEOUTERBOUND(#1584,.T.);
#1586=IFCFACE((#1585));
#1587=IFCPOLYLOOP((#1501,#1500,#1510,#1509));
#1588=IFCFACEOUTERBOUND(#1587,.T.);
#1589=IFCFACE((#1588));
#1590=IFCPOLYLOOP((#1502,#1501,#1509,#1508));
#1591=IFCFACEOUTERBOUND(#1590,.T.);
#1592=IFCFACE((#1591));
#1593=IFCPOLYLOOP((#1503,#1502,#1508,#1507));
#1594=IFCFACEOUTERBOUND(#1593,.T.);
#1595=IFCFACE((#1594));
#1596=IFCPOLYLOOP((#1504,#1503,#1507,#1506));
#1597=IFCFACEOUTERBOUND(#1596,.T.);
#1598=IFCFACE((#1597));
#1599=IFCCARTESIANPOINT((-29.108419540908756,800.,740.5324814246668));
#1600=IFCCARTESIANPOINT((-45.,800.,682.41928789172846));
#1601=IFCCARTESIANPOINT((-45.,800.,772.41928789173699));
#1602=IFCCARTESIANPOINT((45.,800.,772.41928789173699));
#1603=IFCCARTESIANPOINT((-13.113193532927301,800.,756.52770743264796));
#1604=IFCCARTESIANPOINT((45.,800.,682.41928789170618));
#1605=IFCPOLYLOOP((#1599,#1600,#1601,#1602,#1603,#1604));
#1606=IFCFACEOUTERBOUND(#1605,.T.);
#1607=IFCFACE((#1606));
#1608=IFCCARTESIANPOINT((-29.108419540908756,789.49024589812575,740.5324814246668));
#1609=IFCCARTESIANPOINT((45.,789.49024589812575,682.41928789170618));
#1610=IFCCARTESIANPOINT((-13.113193532927305,789.49024589812575,756.52770743264796));
#1611=IFCCARTESIANPOINT((45.,789.49024589812575,772.41928789173699));
#1612=IFCCARTESIANPOINT((-45.,789.49024589812575,772.41928789173699));
#1613=IFCCARTESIANPOINT((-45.,789.49024589812575,682.41928789172846));
#1614=IFCPOLYLOOP((#1608,#1609,#1610,#1611,#1612,#1613));
#1615=IFCFACEOUTERBOUND(#1614,.T.);
#1616=IFCFACE((#1615));
#1617=IFCPOLYLOOP((#1599,#1604,#1609,#1608));
#1618=IFCFACEOUTERBOUND(#1617,.T.);
#1619=IFCFACE((#1618));
#1620=IFCPOLYLOOP((#1604,#1603,#1610,#1609));
#1621=IFCFACEOUTERBOUND(#1620,.T.);
#1622=IFCFACE((#1621));
#1623=IFCPOLYLOOP((#1603,#1602,#1611,#1610));
#1624=IFCFACEOUTERBOUND(#1623,.T.);
#1625=IFCFACE((#1624));
#1626=IFCPOLYLOOP((#1602,#1601,#1612,#1611));
#1627=IFCFACEOUTERBOUND(#1626,.T.);
#1628=IFCFACE((#1627));
#1629=IFCPOLYLOOP((#1601,#1600,#1613,#1612));
#1630=IFCFACEOUTERBOUND(#1629,.T.);
#1631=IFCFACE((#1630));
#1632=IFCPOLYLOOP((#1600,#1599,#1608,#1613));
#1633=IFCFACEOUTERBOUND(#1632,.T.);
#1634=IFCFACE((#1633));
#1635=IFCCARTESIANPOINT((29.108419540908756,-800.,740.5324814246668));
#1636=IFCCARTESIANPOINT((45.,-800.,682.41928789172846));
#1637=IFCCARTESIANPOINT((45.,-800.,772.41928789173699));
#1638=IFCCARTESIANPOINT((-45.,-800.,772.41928789173699));
#1639=IFCCARTESIANPOINT((13.113193532927301,-800.,756.52770743264796));
#1640=IFCCARTESIANPOINT((-45.,-800.,682.41928789170618));
#1641=IFCPOLYLOOP((#1635,#1636,#1637,#1638,#1639,#1640));
#1642=IFCFACEOUTERBOUND(#1641,.T.);
#1643=IFCFACE((#1642));
#1644=IFCCARTESIANPOINT((29.108419540908756,-789.49024589812575,740.5324814246668));
#1645=IFCCARTESIANPOINT((-45.,-789.49024589812575,682.41928789170618));
#1646=IFCCARTESIANPOINT((13.113193532927305,-789.49024589812575,756.52770743264796));
#1647=IFCCARTESIANPOINT((-45.,-789.49024589812575,772.41928789173699));
#1648=IFCCARTESIANPOINT((45.,-789.49024589812575,772.41928789173699));
#1649=IFCCARTESIANPOINT((45.,-789.49024589812575,682.41928789172846));
#1650=IFCPOLYLOOP((#1644,#1645,#1646,#1647,#1648,#1649));
#1651=IFCFACEOUTERBOUND(#1650,.T.);
#1652=IFCFACE((#1651));
#1653=IFCPOLYLOOP((#1635,#1640,#1645,#1644));
#1654=IFCFACEOUTERBOUND(#1653,.T.);
#1655=IFCFACE((#1654));
#1656=IFCPOLYLOOP((#1640,#1639,#1646,#1645));
#1657=IFCFACEOUTERBOUND(#1656,.T.);
#1658=IFCFACE((#1657));
#1659=IFCPOLYLOOP((#1639,#1638,#1647,#1646));
#1660=IFCFACEOUTERBOUND(#1659,.T.);
#1661=IFCFACE((#1660));
#1662=IFCPOLYLOOP((#1638,#1637,#1648,#1647));
#1663=IFCFACEOUTERBOUND(#1662,.T.);
#1664=IFCFACE((#1663));
#1665=IFCPOLYLOOP((#1637,#1636,#1649,#1648));
#1666=IFCFACEOUTERBOUND(#1665,.T.);
#1667=IFCFACE((#1666));
#1668=IFCPOLYLOOP((#1636,#1635,#1644,#1649));
#1669=IFCFACEOUTERBOUND(#1668,.T.);
#1670=IFCFACE((#1669));
#1671=IFCCLOSEDSHELL((#961,#964,#967,#970,#973,#976,#979,#982,#985,#988,#991,#994,#997,#1000,#1003,#1006,#1009,#1012,#1015,#1018,#1021,#1024,#1027,#1030));
#1672=IFCFACETEDBREP(#1671);
#1673=IFCSTYLEDITEM(#1672,(#791),$);
#1674=IFCCLOSEDSHELL((#1131,#1134,#1137,#1140,#1143,#1146,#1149,#1152,#1155,#1158,#1161,#1164,#1167,#1170,#1173,#1176,#1179,#1182,#1185,#1188,#1191,#1194,#1197,#1200,#1203,#1206,#1209,#1212,#1215,#1218,#1221,#1224,#1227,#1230,#1233,#1236,#1239,#1242,#1245,#1248,#1251,#1254,#1257,#1260,#1263,#1266,#1269,#1272,#1275,#1278,#1281,#1284,#1287,#1290,#1293,#1296,#1299,#1302,#1305,#1308,#1311,#1314,#1317,#1320,#1323,#1326,#1329,#1332,#1335,#1338,#1341,#1344,#1347,#1350,#1353,#1356,#1359,#1362,#1365,#1368,#1371,#1374,#1377,#1380,#1383,#1386,#1389,#1392,#1395,#1398,#1401,#1404,#1407,#1410,#1413,#1416,#1419,#1422,#1425,#1428,#1431,#1434,#1437,#1440,#1443,#1446,#1449,#1452,#1455,#1458,#1461,#1464,#1467,#1470,#1473,#1476,#1479,#1482));
#1675=IFCFACETEDBREP(#1674);
#1676=IFCSTYLEDITEM(#1675,(#797),$);
#1677=IFCCLOSEDSHELL((#1529,#1532,#1535,#1538,#1541,#1544,#1547,#1550,#1553,#1556,#1559,#1562,#1565,#1568,#1571,#1574,#1577,#1580,#1583,#1586,#1589,#1592,#1595,#1598));
#1678=IFCFACETEDBREP(#1677);
#1679=IFCSTYLEDITEM(#1678,(#791),$);
#1680=IFCCLOSEDSHELL((#1607,#1616,#1619,#1622,#1625,#1628,#1631,#1634));
#1681=IFCFACETEDBREP(#1680);
#1682=IFCSTYLEDITEM(#1681,(#806),$);
#1683=IFCCLOSEDSHELL((#1643,#1652,#1655,#1658,#1661,#1664,#1667,#1670));
#1684=IFCFACETEDBREP(#1683);
#1685=IFCSTYLEDITEM(#1684,(#806),$);
#1686=IFCSHAPEREPRESENTATION(#15,'Body','Brep',(#1672,#1675,#1678,#1681,#1684));
#1687=IFCAXIS2PLACEMENT3D(#10,$,$);
#1688=IFCREPRESENTATIONMAP(#1687,#1686);
#1689=IFCDOORLININGPROPERTIES('3oyCt1Qkr1eB4AwAoGn5cA',#6,'ORNIQUETE-BARRERA-ABATIBLE-ACCESO-UNIVERSAL:TORNIQUETE-BARRERA-ABATIBLE-ACCESO-UNIVERSAL_ACERO-INOXIDABLE_A0.48m:1666723',$,$,$,$,$,$,$,$,$,$,$,$,$,$);
#1690=IFCDOORPANELPROPERTIES('3oyCt1Qkr1eB4AwA_Gn5cA',#6,'ORNIQUETE-BARRERA-ABATIBLE-ACCESO-UNIVERSAL:TORNIQUETE-BARRERA-ABATIBLE-ACCESO-UNIVERSAL_ACERO-INOXIDABLE_A0.48m:1666723:1',$,$,.NOTDEFINED.,$,.NOTDEFINED.,$);
#1691=IFCDOORTYPE('18ZEtPLHhOv8MzhgPwwM3d',#6,'ORNIQUETE-BARRERA-ABATIBLE-ACCESO-UNIVERSAL:TORNIQUETE-BARRERA-ABATIBLE-ACCESO-UNIVERSAL_ACERO-INOXIDABLE_A0.48m',$,$,(#1689,#1690),(#1688),'1666698',$,$,.NOTDEFINED.,.F.,$);
#1692=IFCMATERIALCONSTITUENT('Default Form',$,#817,0.018262452487084611,'Generic');
#1693=IFCSHAPEREPRESENTATION(#15,'Body','Brep',(#1672,#1678));
#1694=IFCSHAPEASPECT((#1693),'Default Form',$,.U.,#1688);
#1695=IFCMATERIALCONSTITUENT('Insulation - Rigid Fiber Board',$,#821,0.98154575619846696,'Insulation');
#1696=IFCSHAPEREPRESENTATION(#15,'Body','Brep',(#1675));
#1697=IFCSHAPEASPECT((#1696),'Insulation - Rigid Fiber Board',$,.U.,#1688);
#1698=IFCMATERIALCONSTITUENT('LUZ_VERDE',$,#833,0.00019179131444852315,'M\X\E9tal');
#1699=IFCSHAPEREPRESENTATION(#15,'Body','Brep',(#1681,#1684));
#1700=IFCSHAPEASPECT((#1699),'LUZ_VERDE',$,.U.,#1688);
#1701=IFCMATERIALCONSTITUENTSET($,$,(#1692,#1695,#1698));
#1702=IFCMAPPEDITEM(#1688,#847);
#1703=IFCSHAPEREPRESENTATION(#15,'Body','MappedRepresentation',(#1702));
#1704=IFCPRODUCTDEFINITIONSHAPE($,$,(#1703));
#1705=IFCCARTESIANPOINT((1440.,0.,0.));
#1706=IFCDIRECTION((0.,0.,1.));
#1707=IFCDIRECTION((-1.,0.,0.));
#1708=IFCAXIS2PLACEMENT3D(#1705,#1706,#1707);
#1709=IFCLOCALPLACEMENT(#24,#1708);
#1710=IFCDOOR('3oyCt1Qkr1eB4AwAsGn5cA',#6,'ORNIQUETE-BARRERA-ABATIBLE-ACCESO-UNIVERSAL:TORNIQUETE-BARRERA-ABATIBLE-ACCESO-UNIVERSAL_ACERO-INOXIDABLE_A0.48m:1666723',$,$,#1709,#1704,'1666723',1600.0000000000355,1140.0000000000009,$,$,$);
#1711=IFCMATERIALCONSTITUENT('Default Form',$,#817,0.018264203944925585,'Generic');
#1712=IFCMATERIALCONSTITUENT('Insulation - Rigid Fiber Board',$,#821,0.98163989120099115,'Insulation');
#1713=IFCMATERIALCONSTITUENT('LUZ_VERDE',$,#833,9.5904854083274938E-005,'M\X\E9tal');
#1714=IFCMATERIALCONSTITUENTSET($,$,(#1711,#1712,#1713));
#1715=IFCPROPERTYSINGLEVALUE('Reference',$,IFCIDENTIFIER('TORNIQUETE-BARRERA-ABATIBLE-ACCESO-UNIVERSAL_ACERO-INOXIDABLE_A0.48m'),$);
#1716=IFCPROPERTYSET('2W32vQnj2ZcLc4N_zCvR4I',#6,'Pset_DoorCommon',$,(#35,#1715));
#1717=IFCPROPERTYSET('1knBjK3i2XXU66SWPCzCDo',#6,'Pset_EnvironmentalImpactIndicators',$,(#1715));
#1718=IFCRELDEFINESBYPROPERTIES('1FZpEgwdxarSs$MDV5RziL',#6,$,$,(#1710),#1716);
#1719=IFCRELDEFINESBYPROPERTIES('2cvSeB7KztiyOIGsWHmT7w',#6,$,$,(#1710),#1717);
#1720=IFCQUANTITYAREA('NetSurfaceArea','',$,7.2899501044799004,$);
#1721=IFCQUANTITYVOLUME('NetVolume','',$,0.62897806047402072,$);
#1722=IFCELEMENTQUANTITY('1mwRgWRxGc2yvpaxfyFiri',#6,'Qto_BodyGeometryValidation',$,$,(#1720,#1721));
#1723=IFCRELDEFINESBYPROPERTIES('1Ogo23VmJIGSt7iJDiA4Oi',#6,$,$,(#1710),#1722);
#1724=IFCQUANTITYAREA('Area','',$,3.6648220628010582,$);
#1725=IFCELEMENTQUANTITY('0k2ivBwj9IbsF3oE4HUEKL',#6,'Qto_DoorBaseQuantities',$,$,(#1724));
#1726=IFCRELDEFINESBYPROPERTIES('2VGmGk25jbdZQM5dpfLZYk',#6,$,$,(#1710),#1725);
#1727=IFCPROPERTYSINGLEVALUE('Reference',$,IFCIDENTIFIER('8mm Head'),$);
#1728=IFCPROPERTYSINGLEVALUE('AboveGround',$,IFCLOGICAL(.U.),$);
#1729=IFCPROPERTYSET('16L50AfyZF4hYq5TGET4H4',#6,'Pset_BuildingStoreyCommon',$,(#1727,#1728));
#1730=IFCPROPERTYSET('2J7ac_h5ujdwWuzVwBIIta',#6,'Pset_SpaceCommon',$,(#35,#1727));
#1731=IFCRELDEFINESBYPROPERTIES('2VdfSfkgzGoZi_3SgzE8$0',#6,$,$,(#25),#1729);
#1732=IFCRELDEFINESBYPROPERTIES('3$YdOpA8iaPobC8MDiWxoI',#6,$,$,(#25),#1730);
#1733=IFCRELCONTAINEDINSPATIALSTRUCTURE('2JF4e6axWHqu3u0C5FZlmi',#6,$,$,(#854,#877,#899,#1710),#25);
#1734=IFCPROPERTYSET('1n34enW33Z_3Qq2Pm1kjQZ',#6,'Pset_BuildingStoreyCommon',$,(#1727,#1728));
#1735=IFCPROPERTYSET('0qNc4$IaPwTvoqOd7IlIE4',#6,'Pset_SpaceCommon',$,(#35,#1727));
#1736=IFCRELDEFINESBYPROPERTIES('36oM8gyLQ5_Z6XoGK5uP1E',#6,$,$,(#29),#1734);
#1737=IFCRELDEFINESBYPROPERTIES('0jA6Vdz$3CfPvu_I1iTL6J',#6,$,$,(#29),#1735);
#1738=IFCRELAGGREGATES('0PN3_VuVmIgbokgOQnVjEB',#6,$,$,#18,(#32));
#1739=IFCRELAGGREGATES('0CovtW4OaOep_OtNqpJooX',#6,$,$,#32,(#22));
#1740=IFCRELAGGREGATES('1yhDISh1T5aQqAoygxGIhP',#6,$,$,#22,(#25,#29));
#1741=IFCPROPERTYSINGLEVALUE('NumberOfStoreys',$,IFCCOUNTMEASURE(2),$);
#1742=IFCPROPERTYSINGLEVALUE('IsLandmarked',$,IFCLOGICAL(.U.),$);
#1743=IFCPROPERTYSET('0XX7wmeXt6npcl4Fr9tjz8',#6,'Pset_BuildingCommon',$,(#33,#1741,#1742));
#1744=IFCPROPERTYSET('3M_YymEMRqMM3cEV2cV2zM',#6,'Pset_SpaceCommon',$,(#33,#35));
#1745=IFCRELDEFINESBYPROPERTIES('3oOkLIvXI$piAbiC0VjwKL',#6,$,$,(#22),#1743);
#1746=IFCRELDEFINESBYPROPERTIES('2ln1rw7kvW6wdVZcmBDDrf',#6,$,$,(#22),#1744);
#1747=IFCRELASSOCIATESMATERIAL('1UDrZf8wRea94WFLn10i5M',#6,$,$,(#816),#846);
#1748=IFCRELASSOCIATESMATERIAL('36WDDWpxKd4uHeI6X3Gzdn',#6,$,$,(#854),#858);
#1749=IFCRELASSOCIATESMATERIAL('3jIzg4pf1EVHh8GLa00bEe',#6,$,$,(#877),#881);
#1750=IFCRELASSOCIATESMATERIAL('00Mm7TAaABCEde_Omqqw20',#6,$,$,(#899),#903);
#1751=IFCRELASSOCIATESMATERIAL('1cvV2NTptLs4Pj5hSBVCnK',#6,$,$,(#1691),#1701);
#1752=IFCRELASSOCIATESMATERIAL('29dzjfGsrLCZCPNKKoSumG',#6,$,$,(#1710),#1714);
#1753=IFCRELDEFINESBYTYPE('0j2C1ilcse4rpzPIBAwpGI',#6,$,$,(#854,#877,#899),#816);
#1754=IFCRELDEFINESBYTYPE('130maIL8eZ9TknD_ky8_Vj',#6,$,$,(#1710),#1691);
#1755=IFCUNITASSIGNMENT((#7,#8,#9));
ENDSEC;

END-ISO-10303-21;
