ISO-10303-21;
HEADER;
FILE_DESCRIPTION(('ViewDefinition [Alignment-basedView]'),'2;1');
FILE_NAME(
/* name */ 'C:\\Users\\a.hernandez\\OneDrive - EGIS Group\\Documents\\APPS\\Reporte-ifc-LOD\\reporte-ifc-lod-thatopen\\thatopen\\models\\IFC\\IfcEarthworksFill.SUBGRADE.ifc',
/* time_stamp */ '2026-03-23T01:04:58',
/* author */ ('a.hernandez'),
/* organization */ ('EGIS'),
/* preprocessor_version */ 'GeometryGymIFCcore v25.2.25.0 by Geometry Gym Pty Ltd built 2025-02-25T08:37:52',
/* originating_system */ 'Autodesk - Civil 3D 2026 IfcInfra Plugin - 13.8.378.0',
/* authorization */ 'None'
);

FILE_SCHEMA (('IFC4X3_ADD2'));
ENDSEC;

DATA;
#1= IFCORGANIZATION($,'Autodesk',$,$,$);
#2= IFCAPPLICATION(#1,'Civil 3D 2026','Civil 3D','Autodesk - Civil 3D 2026 IfcInfra Plugin - 13.8.378.0');
#3= IFCCARTESIANPOINT((0.0,0.0,0.0));
#4= IFCAXIS2PLACEMENT3D(#3,$,$);
#5= IFCLOCALPLACEMENT($,#4);
#6= IFCSITE('1xq3Jx7v1Ei9VLtRWhcAGA',$,'UnknownName',$,$,#5,$,$,$,$,$,$,$,$);
#9= IFCSIUNIT(*,.LENGTHUNIT.,$,.METRE.);
#10= IFCSIUNIT(*,.AREAUNIT.,$,.SQUARE_METRE.);
#11= IFCSIUNIT(*,.VOLUMEUNIT.,$,.CUBIC_METRE.);
#12= IFCSIUNIT(*,.PLANEANGLEUNIT.,$,.RADIAN.);
#13= IFCPROJECT('0wa231yDfCXxnarg_pvOe8',#17,'Unknown',$,$,$,$,(#21),#18);
#14= IFCPERSON('a.hernandez',$,$,$,$,$,$,$);
#15= IFCORGANIZATION($,'EGIS',$,$,$);
#16= IFCPERSONANDORGANIZATION(#14,#15,$);
#17= IFCOWNERHISTORY(#16,#2,$,.ADDED.,1774245898,$,$,1774245898);
#18= IFCUNITASSIGNMENT((#9,#10,#11,#12));
#19= IFCRELAGGREGATES('2$7AE_vACS8ubTDmUZJtKb',$,$,$,#13,(#6));
#20= IFCPROJECTEDCRS('MAGNA-SIRGAS NACIONAL',$,'MAGNA',$,'Tm',$,$);
#21= IFCGEOMETRICREPRESENTATIONCONTEXT('3D','Model',3,0.0001,#23,#24);
#22= IFCCARTESIANPOINT((0.0,0.0,0.0));
#23= IFCAXIS2PLACEMENT3D(#22,$,$);
#24= IFCDIRECTION((0.0,1.0));
#25= IFCRIGIDOPERATION(#21,#20,IFCLENGTHMEASURE(0.3741322477822),IFCLENGTHMEASURE(0.0495706723002058),0.0);
#26= IFCGEOMETRICREPRESENTATIONSUBCONTEXT('Body','Model',*,*,*,*,#21,$,.MODEL_VIEW.,$);
#27= IFCCARTESIANPOINTLIST3D(((7.151856,13.300406,-0.750857),(5.243761,13.300406,0.750857),(7.151856,-13.300406,-0.750857),(5.243761,-13.300406,0.750857),(-7.151856,13.300406,-0.750857),(-7.151856,-13.300406,-0.750857),(-4.756239,13.300406,0.750857),(-4.756239,-13.300406,0.750857)),$);
#28= IFCTRIANGULATEDFACESET(#27,$,$,((1,2,3),(3,2,4),(5,1,6),(6,1,3),(7,5,8),(8,5,6),(2,7,4),(4,7,8),(4,8,3),(3,8,6),(2,1,7),(7,1,5)),$);
#29= IFCSHAPEREPRESENTATION(#26,'Body','Tessellation',(#28));
#30= IFCPRODUCTDEFINITIONSHAPE($,$,(#29));
#31= IFCCARTESIANPOINT((9.176446,10.880524,-1.441674));
#32= IFCAXIS2PLACEMENT3D(#31,$,$);
#33= IFCLOCALPLACEMENT(#5,#32);
#34= IFCEARTHWORKSFILL('0Ya7ZUvPDFVhUgMB_aXCvV',$,'SUBESTRUCTURA_QS3_GRANULAR_e0.50m',$,$,#33,#30,'10017',.SUBGRADE.);
#35= IFCRELCONTAINEDINSPATIALSTRUCTURE('1qZxRkEmsvzp0ZV4l$EVCk',$,'Site','Site Container for Elements',(#34,#105,#129,#158),#6);
#36= IFCMATERIAL('SUBESTRUCTURA_GRANULAR_GENERICO',$,$);
#37= IFCRELASSOCIATESMATERIAL('2SoWUVAvrBwvYzvqoylo2w',$,$,$,(#34,#105),#36);
#38= IFCCOLOURRGB('104,110,102',0.407843137254902,0.431372549019608,0.4);
#39= IFCSURFACESTYLESHADING(#38,$);
#40= IFCSURFACESTYLE($,.BOTH.,(#39));
#41= IFCPRESENTATIONLAYERWITHSTYLE('SUBESTRUCTURA_QS3_GRANULAR_e0.50m',$,(#28,#99),$,.U.,.U.,.U.,(#40));
#42= IFCCOLOURRGB('ff00ff00',0.0,1.0,0.0);
#43= IFCSURFACESTYLESHADING(#42,$);
#44= IFCSURFACESTYLE($,.BOTH.,(#43));
#45= IFCSTYLEDITEM(#28,(#44),$);
#46= IFCPROPERTYSET('3vYDHF3cvEeg3QA4ukO5Vy',$,'Properties',$,(#48,#49,#50,#51,#52,#53,#54,#55,#56,#57,#58,#59,#60,#61,#62,#63,#64,#65,#66,#67,#68,#69,#70,#71,#72,#73,#74,#75));
#47= IFCRELDEFINESBYPROPERTIES('2ycyfM7aj8jeT9rysR2w1q',$,$,$,(#34),#46);
#48= IFCPROPERTYSINGLEVALUE('Area',$,IFCREAL(822.797551633191),$);
#49= IFCPROPERTYSINGLEVALUE('IsNull',$,IFCBOOLEAN(.F.),$);
#50= IFCPROPERTYSINGLEVALUE('NumChanges',$,IFCINTEGER(22),$);
#51= IFCPROPERTYSINGLEVALUE('RecordHistory',$,IFCBOOLEAN(.T.),$);
#52= IFCPROPERTYSINGLEVALUE('ShowHistory',$,IFCBOOLEAN(.T.),$);
#53= IFCPROPERTYSINGLEVALUE('UsesGraphicsCache',$,IFCBOOLEAN(.T.),$);
#54= IFCPROPERTYSINGLEVALUE('CloneMeForDragging',$,IFCBOOLEAN(.T.),$);
#55= IFCPROPERTYSINGLEVALUE('ForceAnnoAllVisible',$,IFCBOOLEAN(.T.),$);
#56= IFCPROPERTYSINGLEVALUE('HasSaveVersionOverride',$,IFCBOOLEAN(.F.),$);
#57= IFCPROPERTYSINGLEVALUE('IsCancelling',$,IFCBOOLEAN(.F.),$);
#58= IFCPROPERTYSINGLEVALUE('IsErased',$,IFCBOOLEAN(.F.),$);
#59= IFCPROPERTYSINGLEVALUE('IsEraseStatusToggled',$,IFCBOOLEAN(.F.),$);
#60= IFCPROPERTYSINGLEVALUE('IsModified',$,IFCBOOLEAN(.F.),$);
#61= IFCPROPERTYSINGLEVALUE('IsModifiedGraphics',$,IFCBOOLEAN(.F.),$);
#62= IFCPROPERTYSINGLEVALUE('IsModifiedXData',$,IFCBOOLEAN(.F.),$);
#63= IFCPROPERTYSINGLEVALUE('IsNewObject',$,IFCBOOLEAN(.F.),$);
#64= IFCPROPERTYSINGLEVALUE('IsNotifyEnabled',$,IFCBOOLEAN(.F.),$);
#65= IFCPROPERTYSINGLEVALUE('IsNotifying',$,IFCBOOLEAN(.F.),$);
#66= IFCPROPERTYSINGLEVALUE('IsObjectIdsInFlux',$,IFCBOOLEAN(.F.),$);
#67= IFCPROPERTYSINGLEVALUE('IsPersistent',$,IFCBOOLEAN(.T.),$);
#68= IFCPROPERTYSINGLEVALUE('IsReadEnabled',$,IFCBOOLEAN(.T.),$);
#69= IFCPROPERTYSINGLEVALUE('IsReallyClosing',$,IFCBOOLEAN(.F.),$);
#70= IFCPROPERTYSINGLEVALUE('IsTransactionResident',$,IFCBOOLEAN(.T.),$);
#71= IFCPROPERTYSINGLEVALUE('IsUndoing',$,IFCBOOLEAN(.F.),$);
#72= IFCPROPERTYSINGLEVALUE('IsWriteEnabled',$,IFCBOOLEAN(.T.),$);
#73= IFCPROPERTYSINGLEVALUE('Bounds',$,IFCLABEL('((2.3987225970090407,-2.3703106436250323,-2.1925308830516457),(16.702433662526786,24.230500811916556,-0.6908168598970406))'),$);
#74= IFCPROPERTYSINGLEVALUE('AutoDelete',$,IFCBOOLEAN(.F.),$);
#75= IFCPROPERTYSINGLEVALUE('IsDisposed',$,IFCBOOLEAN(.F.),$);
#76= IFCPROPERTYSET('2$zaA$VPzABRiuu2ruLt$W',$,'Misc',$,(#78,#79,#80,#81));
#77= IFCRELDEFINESBYPROPERTIES('3fgvQwSkH9A9S6GafcotSD',$,$,$,(#34),#76);
#78= IFCPROPERTYSINGLEVALUE('BlockName',$,IFCLABEL('*Model_Space'),$);
#79= IFCPROPERTYSINGLEVALUE('ClassID',$,IFCLABEL('4ca6aa08-5011-4525-8c44-7fb7c2190cb8'),$);
#80= IFCPROPERTYSINGLEVALUE('HasFields',$,IFCBOOLEAN(.F.),$);
#81= IFCPROPERTYSINGLEVALUE('IsAProxy',$,IFCBOOLEAN(.F.),$);
#82= IFCPROPERTYSET('06S7pEGoP02xtnF$16sVUR',$,'3D Visualization',$,(#84,#85,#86));
#83= IFCRELDEFINESBYPROPERTIES('2Y6uX9FSPBmOOKyifV6xkW',$,$,$,(#34),#82);
#84= IFCPROPERTYSINGLEVALUE('CastShadows',$,IFCBOOLEAN(.T.),$);
#85= IFCPROPERTYSINGLEVALUE('Material',$,IFCLABEL('SUBESTRUCTURA_GRANULAR_GENERICO'),$);
#86= IFCPROPERTYSINGLEVALUE('ReceiveShadows',$,IFCBOOLEAN(.T.),$);
#87= IFCPROPERTYSET('3GDPcV1nHAnQMdoc3isiOP',$,'General',$,(#89,#90,#91,#92,#93,#94));
#88= IFCRELDEFINESBYPROPERTIES('1uvBQzOf5DIhFnv$A$972v',$,$,$,(#34),#87);
#89= IFCPROPERTYSINGLEVALUE('ColorIndex',$,IFCINTEGER(3),$);
#90= IFCPROPERTYSINGLEVALUE('Layer',$,IFCLABEL('SUBESTRUCTURA_QS3_GRANULAR_e0.50m'),$);
#91= IFCPROPERTYSINGLEVALUE('Linetype',$,IFCLABEL('ByLayer'),$);
#92= IFCPROPERTYSINGLEVALUE('LinetypeScale',$,IFCREAL(1.0),$);
#93= IFCPROPERTYSINGLEVALUE('PlotStyleName',$,IFCLABEL('Color_3'),$);
#94= IFCPROPERTYSINGLEVALUE('Visible',$,IFCBOOLEAN(.T.),$);
#95= IFCPROPERTYSET('0NqH19HVH3nfIsUVOWeCFn',$,'Geometry',$,(#97));
#96= IFCRELDEFINESBYPROPERTIES('2YZU7ga0n4qBwWM1htUbzG',$,$,$,(#34),#95);
#97= IFCPROPERTYSINGLEVALUE('IsPlanar',$,IFCBOOLEAN(.F.),$);
#98= IFCCARTESIANPOINTLIST3D(((4.48685,-10.0,0.251595),(0.0,-10.0,0.3862),(4.48685,-10.0,-0.248405),(-4.48685,-10.0,0.251595),(-4.48685,-10.0,-0.248405),(-4.48685,10.0,0.1138),(-4.48685,10.0,-0.3862),(0.0,10.0,0.248405),(4.48685,10.0,0.1138),(4.48685,10.0,-0.3862)),$);
#99= IFCTRIANGULATEDFACESET(#98,$,$,((1,2,3),(3,2,4),(3,4,5),(4,6,5),(5,6,7),(2,8,4),(4,8,6),(2,1,8),(8,1,9),(1,3,9),(9,3,10),(5,7,3),(3,7,10),(10,7,9),(9,7,8),(8,7,6)),$);
#100= IFCSHAPEREPRESENTATION(#26,'Body','Tessellation',(#99));
#101= IFCPRODUCTDEFINITIONSHAPE($,$,(#100));
#102= IFCCARTESIANPOINT((9.420207,9.950429,-0.304617));
#103= IFCAXIS2PLACEMENT3D(#102,$,$);
#104= IFCLOCALPLACEMENT(#5,#103);
#105= IFCCOURSE('0fFu5eYynAnR1o_7XDQXOJ',$,'SUBESTRUCTURA_QS3_GRANULAR_e0.50m',$,'BASE',#104,#101,'FD2E',.USERDEFINED.);
#106= IFCSTYLEDITEM(#99,(#40),'SUBESTRUCTURA_QS3_GRANULAR_e0.50m');
#107= IFCPROPERTYSET('2RHPhwaIj3SAAO3zf1ykBA',$,'Properties',$,(#49,#51,#52,#53,#54,#55,#56,#57,#58,#59,#60,#61,#62,#63,#64,#65,#66,#67,#68,#69,#70,#71,#72,#74,#75,#109,#110,#111));
#108= IFCRELDEFINESBYPROPERTIES('0mGJSz9e91KfVzGcR0_nUO',$,$,$,(#105),#107);
#109= IFCPROPERTYSINGLEVALUE('Area',$,IFCREAL(389.218897675589),$);
#110= IFCPROPERTYSINGLEVALUE('NumChanges',$,IFCINTEGER(2),$);
#111= IFCPROPERTYSINGLEVALUE('Bounds',$,IFCLABEL('((2.350550056435168,-1.32673403294757,-0.6908168599206874),(17.23812762182206,21.32673403271474,0.0815835787807373))'),$);
#112= IFCPROPERTYSET('2O0RiuP2H0lRSmOOOqWfoG',$,'Misc',$,(#78,#79,#80,#81));
#113= IFCRELDEFINESBYPROPERTIES('04yGj48yr7TBrQWYDUi0E1',$,$,$,(#105),#112);
#114= IFCPROPERTYSET('30qa3LfXfCjeloqQq7EOG9',$,'3D Visualization',$,(#84,#85,#86));
#115= IFCRELDEFINESBYPROPERTIES('0brGPpc$9078LfnI_EEYz7',$,$,$,(#105),#114);
#116= IFCPROPERTYSET('0wJI1RgsH2tQp5Sxf0MOJ6',$,'General',$,(#90,#91,#92,#94,#118,#119));
#117= IFCRELDEFINESBYPROPERTIES('3VZdTuEqT0YPti5v6wqA71',$,$,$,(#105),#116);
#118= IFCPROPERTYSINGLEVALUE('ColorIndex',$,IFCINTEGER(256),$);
#119= IFCPROPERTYSINGLEVALUE('PlotStyleName',$,IFCLABEL('ByLayer'),$);
#120= IFCPROPERTYSET('1yT3pb6J1AxgH6Y72mlQXm',$,'Geometry',$,(#97));
#121= IFCRELDEFINESBYPROPERTIES('1t8kfX_cX3tR7d$lVlPIrx',$,$,$,(#105),#120);
#122= IFCCARTESIANPOINTLIST3D(((0.0,-10.0,0.3112),(-3.975268,-10.0,0.191942),(0.0,-10.0,-0.0388),(-3.975368,-10.0,0.191939),(-4.48685,-10.0,-0.173405),(4.48685,-10.0,-0.173405),(3.975368,-10.0,0.191939),(3.975268,-10.0,0.191942),(3.975368,10.0,0.054144),(4.48685,10.0,-0.3112),(0.0,10.0,-0.176595),(-4.48685,10.0,-0.3112),(-3.975368,10.0,0.054144),(-3.975268,10.0,0.054147),(0.0,10.0,0.173405),(3.975268,10.0,0.054147)),$);
#123= IFCTRIANGULATEDFACESET(#122,$,$,((1,2,3),(3,2,4),(3,4,5),(6,7,3),(3,7,8),(3,8,1),(7,6,9),(9,6,10),(3,11,6),(6,11,10),(3,5,11),(11,5,12),(4,13,5),(5,13,12),(2,14,4),(4,14,13),(1,15,2),(2,15,14),(1,8,15),(15,8,16),(8,7,16),(16,7,9),(13,14,11),(11,14,15),(11,15,16),(16,9,11),(11,9,10),(11,12,13)),$);
#124= IFCSHAPEREPRESENTATION(#26,'Body','Tessellation',(#123));
#125= IFCPRODUCTDEFINITIONSHAPE($,$,(#124));
#126= IFCCARTESIANPOINT((9.420207,9.950429,0.120383));
#127= IFCAXIS2PLACEMENT3D(#126,$,$);
#128= IFCLOCALPLACEMENT(#5,#127);
#129= IFCCOURSE('1M76BqN_9158nL3WmaVkB3',$,'SUBBALASTO_SUPERESTRUCTURA_GRANULAR_e0.35m',$,'SUBBALLASTBED',#128,#125,'FD2B',.USERDEFINED.);
#130= IFCMATERIAL('SUBBALASTO_GRANULAR_GENERICO',$,$);
#131= IFCRELASSOCIATESMATERIAL('28Ng9alWDDZ8pXlmi4AX4b',$,$,$,(#129),#130);
#132= IFCCOLOURRGB('80,80,80',0.313725490196078,0.313725490196078,0.313725490196078);
#133= IFCSURFACESTYLESHADING(#132,$);
#134= IFCSURFACESTYLE($,.BOTH.,(#133));
#135= IFCPRESENTATIONLAYERWITHSTYLE('SUBBALASTO_SUPERESTRUCTURA_GRANULAR_e0.35m',$,(#123),$,.U.,.U.,.U.,(#134));
#136= IFCSTYLEDITEM(#123,(#134),'SUBBALASTO_SUPERESTRUCTURA_GRANULAR_e0.35m');
#137= IFCPROPERTYSET('2tBB7fzEX1SvEtkfrIlH$b',$,'Properties',$,(#49,#51,#52,#53,#54,#55,#56,#57,#58,#59,#60,#61,#62,#63,#64,#65,#66,#67,#68,#69,#70,#71,#72,#74,#75,#110,#139,#140));
#138= IFCRELDEFINESBYPROPERTIES('3bSr1yQer0jQGJfyWS0aEw',$,$,$,(#129),#137);
#139= IFCPROPERTYSINGLEVALUE('Area',$,IFCREAL(369.715494166996),$);
#140= IFCPROPERTYSINGLEVALUE('Bounds',$,IFCLABEL('((2.350550056435168,-1.3267340324819088,-0.1908168606446452),(17.238127620890737,21.326734032249078,0.4315835787820106))'),$);
#141= IFCPROPERTYSET('12cJ_tAkb1BuoW$hgj56eZ',$,'Misc',$,(#78,#79,#80,#81));
#142= IFCRELDEFINESBYPROPERTIES('3lfB_1UaPD7gsj3Hs39gia',$,$,$,(#129),#141);
#143= IFCPROPERTYSET('1Ppujz5WD0nBxZsNa6g9ox',$,'3D Visualization',$,(#84,#86,#145));
#144= IFCRELDEFINESBYPROPERTIES('1YETu7XQzDfPPpDPwVShcd',$,$,$,(#129),#143);
#145= IFCPROPERTYSINGLEVALUE('Material',$,IFCLABEL('SUBBALASTO_GRANULAR_GENERICO'),$);
#146= IFCPROPERTYSET('00DVI51KzCzeCCSZHmJ30l',$,'General',$,(#91,#92,#94,#118,#119,#148));
#147= IFCRELDEFINESBYPROPERTIES('1qkU2kE6vEqvdAdXZAJjJB',$,$,$,(#129),#146);
#148= IFCPROPERTYSINGLEVALUE('Layer',$,IFCLABEL('SUBBALASTO_SUPERESTRUCTURA_GRANULAR_e0.35m'),$);
#149= IFCPROPERTYSET('2MURNV1Z57u9HVQI9iC6Hu',$,'Geometry',$,(#97));
#150= IFCRELDEFINESBYPROPERTIES('1QiTIpf_rBDuBzJN8AybVv',$,$,$,(#129),#149);
#151= IFCCARTESIANPOINTLIST3D(((3.975268,-10.0,-0.223913),(3.1554,-10.0,0.361707),(0.0,-10.0,-0.104655),(-3.1554,-10.0,0.361707),(-3.975268,-10.0,-0.223913),(3.1554,10.0,0.223913),(-3.1554,10.0,0.223913),(3.975268,10.0,-0.361707),(0.0,10.0,-0.242449),(-3.975268,10.0,-0.361707)),$);
#152= IFCTRIANGULATEDFACESET(#151,$,$,((1,2,3),(3,2,4),(3,4,5),(2,6,4),(4,6,7),(2,1,6),(6,1,8),(3,9,1),(1,9,8),(3,5,9),(9,5,10),(4,7,5),(5,7,10),(10,7,9),(9,7,6),(9,6,8)),$);
#153= IFCSHAPEREPRESENTATION(#26,'Body','Tessellation',(#152));
#154= IFCPRODUCTDEFINITIONSHAPE($,$,(#153));
#155= IFCCARTESIANPOINT((9.420207,9.950429,0.536238));
#156= IFCAXIS2PLACEMENT3D(#155,$,$);
#157= IFCLOCALPLACEMENT(#5,#156);
#158= IFCCOURSE('3znU1$Aej19hQ_nskSqwQ8',$,'BALASTO_SUPERESTRUCTURA_GRANULAR_e0.25m',$,$,#157,#154,'FD28',.BALLASTBED.);
#159= IFCMATERIAL('BALASTO_GRANULAR_GENERICO',$,$);
#160= IFCRELASSOCIATESMATERIAL('3CInQT7BT7uPABp4V6f6a5',$,$,$,(#158),#159);
#161= IFCCOLOURRGB('115,104,79',0.450980392156863,0.407843137254902,0.309803921568627);
#162= IFCSURFACESTYLESHADING(#161,$);
#163= IFCSURFACESTYLE($,.BOTH.,(#162));
#164= IFCPRESENTATIONLAYERWITHSTYLE('BALASTO_SUPERESTRUCTURA_GRANULAR_e0.25m',$,(#152),$,.U.,.U.,.U.,(#163));
#165= IFCSTYLEDITEM(#152,(#163),'BALASTO_SUPERESTRUCTURA_GRANULAR_e0.25m');
#166= IFCPROPERTYSET('0dAqRri99ATfL3LFTjxDqt',$,'Properties',$,(#49,#51,#52,#53,#54,#55,#56,#57,#58,#59,#60,#61,#62,#63,#64,#65,#66,#67,#68,#69,#70,#71,#72,#74,#75,#110,#168,#169));
#167= IFCRELDEFINESBYPROPERTIES('3EFSyaiT5F8g3bSVmsiZ$z',$,$,$,(#158),#166);
#168= IFCPROPERTYSINGLEVALUE('Area',$,IFCREAL(333.010773875848),$);
#169= IFCPROPERTYSINGLEVALUE('Bounds',$,IFCLABEL('((2.8621323136612773,-1.175462307408452,0.1745306077209534),(16.726545366458595,21.175462307408452,0.8979455787211919))'),$);
#170= IFCPROPERTYSET('3GI5z8Jrj4WADxPogtt0jP',$,'Misc',$,(#78,#79,#80,#81));
#171= IFCRELDEFINESBYPROPERTIES('1lm5c32W1FCg$SYfoLT$DR',$,$,$,(#158),#170);
#172= IFCPROPERTYSET('2KfdhahXf4JxnXDCn_26zB',$,'3D Visualization',$,(#84,#86,#174));
#173= IFCRELDEFINESBYPROPERTIES('247O$qJV1Dgxx2h7lggOmW',$,$,$,(#158),#172);
#174= IFCPROPERTYSINGLEVALUE('Material',$,IFCLABEL('BALASTO_GRANULAR_GENERICO'),$);
#175= IFCPROPERTYSET('1xqZyh$fz9ZPPU8LdkkZ8E',$,'General',$,(#91,#92,#94,#118,#119,#177));
#176= IFCRELDEFINESBYPROPERTIES('1XbXluOQTBLwRPOZTQCqB0',$,$,$,(#158),#175);
#177= IFCPROPERTYSINGLEVALUE('Layer',$,IFCLABEL('BALASTO_SUPERESTRUCTURA_GRANULAR_e0.25m'),$);
#178= IFCPROPERTYSET('3I$NFGWaf0jf5mO9sSDisl',$,'Geometry',$,(#97));
#179= IFCRELDEFINESBYPROPERTIES('2aI9R59kj1dPaoXtwiQW$A',$,$,$,(#158),#178);
#180= IFCCARTESIANPOINTLIST3D(((-0.0345,-10.0,0.153047),(-0.008625,-10.0,0.118547),(0.0345,-10.0,0.153047),(0.008625,-10.0,0.118547),(0.0345,-10.0,0.118547),(-0.0345,-10.0,0.118547),(0.008625,-10.0,0.012687),(-0.008625,-10.0,0.012687),(0.06985,-10.0,-0.015253),(-0.06985,-10.0,-0.015253),(-0.06985,-10.0,-0.004077),(0.06985,-10.0,-0.004077),(0.06985,10.0,-0.153047),(-0.06985,10.0,-0.153047),(-0.06985,10.0,-0.141871),(-0.008625,10.0,-0.125107),(-0.008625,10.0,-0.019247),(-0.0345,10.0,-0.019247),(-0.0345,10.0,0.015253),(0.0345,10.0,0.015253),(0.0345,10.0,-0.019247),(0.008625,10.0,-0.019247),(0.008625,10.0,-0.125107),(0.06985,10.0,-0.141871)),$);
#181= IFCTRIANGULATEDFACESET(#180,$,$,((1,2,3),(3,2,4),(3,4,5),(1,6,2),(4,2,7),(7,2,8),(7,8,9),(9,8,10),(10,8,11),(9,12,7),(9,10,13),(13,10,14),(11,15,10),(10,15,14),(8,16,11),(11,16,15),(2,17,8),(8,17,16),(6,18,2),(2,18,17),(1,19,6),(6,19,18),(3,20,1),(1,20,19),(3,5,20),(20,5,21),(4,22,5),(5,22,21),(4,7,22),(22,7,23),(7,12,23),(23,12,24),(12,9,24),(24,9,13),(21,22,20),(20,22,17),(20,17,19),(19,17,18),(17,22,16),(16,22,23),(16,23,14),(14,23,13),(13,23,24),(14,15,16)),$);
#182= IFCSHAPEREPRESENTATION(#26,'Body','Tessellation',(#181));
#183= IFCPRODUCTDEFINITIONSHAPE($,$,(#182));
#184= IFCCARTESIANPOINT((11.922207,9.950429,0.922198));
#185= IFCAXIS2PLACEMENT3D(#184,$,$);
#186= IFCLOCALPLACEMENT(#5,#185);
#187= IFCRAILWAYPART('1qPgAAbczCbQR5gVneXp6a',$,'RIEL_60R1_ACERO_a1435mm',$,'RAIL',#186,#183,$,$,.NOTDEFINED.,.USERDEFINED.);
#188= IFCRELAGGREGATES('0I_mUze4Lh5dp8UkQjWvjp',$,$,$,#6,(#187,#217,#238,#259));
#189= IFCMATERIAL('ACERO _ESTRUCTURAL_GENERICO',$,$);
#190= IFCRELASSOCIATESMATERIAL('1yG6RZOXL4kxlF0BlYjcHw',$,$,$,(#187,#217,#238,#259),#189);
#191= IFCCOLOURRGB('224,223,219',0.87843137254902,0.874509803921569,0.858823529411765);
#192= IFCSURFACESTYLESHADING(#191,$);
#193= IFCSURFACESTYLE($,.BOTH.,(#192));
#194= IFCPRESENTATIONLAYERWITHSTYLE('RIEL_60R1_ACERO_a1435mm',$,(#181,#211,#232,#253),$,.U.,.U.,.U.,(#193));
#195= IFCSTYLEDITEM(#181,(#193),'RIEL_60R1_ACERO_a1435mm');
#196= IFCPROPERTYSET('3JnEonqyX9tO3PRsGnrV$V',$,'Properties',$,(#49,#51,#52,#53,#54,#55,#56,#57,#58,#59,#60,#61,#62,#63,#64,#65,#66,#67,#68,#69,#70,#71,#72,#74,#75,#110,#198,#199));
#197= IFCRELDEFINESBYPROPERTIES('2WJTXY1515WxfDwbvaSAUX',$,$,$,(#187),#196);
#198= IFCPROPERTYSINGLEVALUE('Area',$,IFCREAL(13.8239304807156),$);
#199= IFCPROPERTYSINGLEVALUE('Bounds',$,IFCLABEL('((9.26955037098378,-0.02065421547740698,0.7691506494884379),(15.323127309791744,20.020654215477407,1.075245578682825))'),$);
#200= IFCPROPERTYSET('1Nzq0tfmn18u9JoMAAzzNq',$,'Misc',$,(#78,#79,#80,#81));
#201= IFCRELDEFINESBYPROPERTIES('3i5xzQnzv6AfdYKMa7T5Zm',$,$,$,(#187),#200);
#202= IFCPROPERTYSET('0fTW8msEL6wvDg5R4$2oAG',$,'3D Visualization',$,(#84,#86,#204));
#203= IFCRELDEFINESBYPROPERTIES('1yVmZTmv95GQOeyE4JoRCD',$,$,$,(#187),#202);
#204= IFCPROPERTYSINGLEVALUE('Material',$,IFCLABEL('ACERO _ESTRUCTURAL_GENERICO'),$);
#205= IFCPROPERTYSET('1SHB_uevP7xwQ1K4gaFt0X',$,'General',$,(#91,#92,#94,#118,#119,#207));
#206= IFCRELDEFINESBYPROPERTIES('0KV476xs54dhykeU2sRb3w',$,$,$,(#187),#205);
#207= IFCPROPERTYSINGLEVALUE('Layer',$,IFCLABEL('RIEL_60R1_ACERO_a1435mm'),$);
#208= IFCPROPERTYSET('1mnjLXanX2pRWz558xJLVH',$,'Geometry',$,(#97));
#209= IFCRELDEFINESBYPROPERTIES('3pZWza3WrAZPXcd59KQ_lz',$,$,$,(#187),#208);
#210= IFCCARTESIANPOINTLIST3D(((0.0345,-10.0,0.118547),(0.0345,-10.0,0.153047),(0.008625,-10.0,0.118547),(-0.0345,-10.0,0.153047),(-0.008625,-10.0,0.118547),(-0.0345,-10.0,0.118547),(0.008625,-10.0,0.012687),(-0.008625,-10.0,0.012687),(-0.06985,-10.0,-0.015253),(-0.06985,-10.0,-0.004077),(0.06985,-10.0,-0.015253),(0.06985,-10.0,-0.004077),(-0.06985,10.0,-0.153047),(0.06985,10.0,-0.153047),(-0.06985,10.0,-0.141871),(-0.008625,10.0,-0.125107),(-0.008625,10.0,-0.019247),(-0.0345,10.0,-0.019247),(-0.0345,10.0,0.015253),(0.008625,10.0,-0.125107),(0.06985,10.0,-0.141871),(0.008625,10.0,-0.019247),(0.0345,10.0,-0.019247),(0.0345,10.0,0.015253)),$);
#211= IFCTRIANGULATEDFACESET(#210,$,$,((1,2,3),(3,2,4),(3,4,5),(5,4,6),(3,5,7),(7,5,8),(7,8,9),(9,8,10),(9,11,7),(7,11,12),(9,13,11),(11,13,14),(10,15,9),(9,15,13),(8,16,10),(10,16,15),(5,17,8),(8,17,16),(5,6,17),(17,6,18),(4,19,6),(6,19,18),(7,12,20),(20,12,21),(3,22,1),(1,22,23),(4,2,19),(19,2,24),(3,7,22),(22,7,20),(2,1,24),(24,1,23),(12,11,21),(21,11,14),(21,14,20),(20,14,13),(20,13,16),(16,13,15),(20,16,22),(22,16,17),(22,17,19),(19,17,18),(19,24,22),(22,24,23)),$);
#212= IFCSHAPEREPRESENTATION(#26,'Body','Tessellation',(#211));
#213= IFCPRODUCTDEFINITIONSHAPE($,$,(#212));
#214= IFCCARTESIANPOINT((10.418207,9.950429,0.922198));
#215= IFCAXIS2PLACEMENT3D(#214,$,$);
#216= IFCLOCALPLACEMENT(#5,#215);
#217= IFCRAILWAYPART('3FV$qrUxf6YBwf6OYl5IHI',$,'RIEL_60R1_ACERO_a1435mm',$,'RAIL',#216,#213,$,$,.NOTDEFINED.,.USERDEFINED.);
#218= IFCSTYLEDITEM(#211,(#193),'RIEL_60R1_ACERO_a1435mm');
#219= IFCPROPERTYSET('0qn5xUG_5DQRXzNvyPfnua',$,'Properties',$,(#49,#51,#52,#53,#54,#55,#56,#57,#58,#59,#60,#61,#62,#63,#64,#65,#66,#67,#68,#69,#70,#71,#72,#74,#75,#110,#221,#222));
#220= IFCRELDEFINESBYPROPERTIES('1LjSWeLhj8Vf77dUAea$ef',$,$,$,(#217),#219);
#221= IFCPROPERTYSINGLEVALUE('Area',$,IFCREAL(13.823930443502),$);
#222= IFCPROPERTYSINGLEVALUE('Bounds',$,IFCLABEL('((7.765550371259451,-0.020654215943068266,0.7691506494911664),(13.819127309136093,20.02065421594307,1.0752455786869177))'),$);
#223= IFCPROPERTYSET('0JvyAs1FT7Evlwefs_XZo6',$,'Misc',$,(#78,#79,#80,#81));
#224= IFCRELDEFINESBYPROPERTIES('2h_JAvxvf77fBYal_VriuJ',$,$,$,(#217),#223);
#225= IFCPROPERTYSET('1QrAgJqnj9mQP$REuBoMJ4',$,'3D Visualization',$,(#84,#86,#204));
#226= IFCRELDEFINESBYPROPERTIES('3_cPwEorD3VOMOUrReRyVU',$,$,$,(#217),#225);
#227= IFCPROPERTYSET('1OW1yH9W14yexwmmxOoye_',$,'General',$,(#91,#92,#94,#118,#119,#207));
#228= IFCRELDEFINESBYPROPERTIES('3UoHedTW18lgZHNcO0QZjp',$,$,$,(#217),#227);
#229= IFCPROPERTYSET('2MyhWiYQ1158ub8qs722Hg',$,'Geometry',$,(#97));
#230= IFCRELDEFINESBYPROPERTIES('0ijuysRHrD5vR2Xq$e0gy3',$,$,$,(#217),#229);
#231= IFCCARTESIANPOINTLIST3D(((-0.0345,-10.0,0.153047),(-0.008625,-10.0,0.118547),(0.0345,-10.0,0.153047),(0.008625,-10.0,0.118547),(0.0345,-10.0,0.118547),(-0.0345,-10.0,0.118547),(0.008625,-10.0,0.012687),(-0.008625,-10.0,0.012687),(0.06985,-10.0,-0.015253),(-0.06985,-10.0,-0.015253),(-0.06985,-10.0,-0.004077),(0.06985,-10.0,-0.004077),(-0.06985,10.0,-0.153047),(0.06985,10.0,-0.153047),(-0.06985,10.0,-0.141871),(-0.008625,10.0,-0.125107),(-0.008625,10.0,-0.019247),(-0.0345,10.0,-0.019247),(-0.0345,10.0,0.015253),(0.0345,10.0,0.015253),(0.0345,10.0,-0.019247),(0.008625,10.0,-0.019247),(0.008625,10.0,-0.125107),(0.06985,10.0,-0.141871)),$);
#232= IFCTRIANGULATEDFACESET(#231,$,$,((1,2,3),(3,2,4),(3,4,5),(1,6,2),(4,2,7),(7,2,8),(7,8,9),(9,8,10),(10,8,11),(9,12,7),(10,13,9),(9,13,14),(11,15,10),(10,15,13),(8,16,11),(11,16,15),(2,17,8),(8,17,16),(6,18,2),(2,18,17),(1,19,6),(6,19,18),(1,3,19),(19,3,20),(3,5,20),(20,5,21),(5,4,21),(21,4,22),(4,7,22),(22,7,23),(7,12,23),(23,12,24),(12,9,24),(24,9,14),(21,22,20),(20,22,17),(20,17,19),(19,17,18),(17,22,16),(16,22,23),(16,23,14),(14,23,24),(14,13,16),(16,13,15)),$);
#233= IFCSHAPEREPRESENTATION(#26,'Body','Tessellation',(#232));
#234= IFCPRODUCTDEFINITIONSHAPE($,$,(#233));
#235= IFCCARTESIANPOINT((8.422207,9.950429,0.922198));
#236= IFCAXIS2PLACEMENT3D(#235,$,$);
#237= IFCLOCALPLACEMENT(#5,#236);
#238= IFCRAILWAYPART('2GvUySnfv4luXisKTggC3v',$,'RIEL_60R1_ACERO_a1435mm',$,'RAIL',#237,#234,$,$,.NOTDEFINED.,.USERDEFINED.);
#239= IFCSTYLEDITEM(#232,(#193),'RIEL_60R1_ACERO_a1435mm');
#240= IFCPROPERTYSET('2XCLz2tjj7au$7OR$hnpUw',$,'Properties',$,(#49,#51,#52,#53,#54,#55,#56,#57,#58,#59,#60,#61,#62,#63,#64,#65,#66,#67,#68,#69,#70,#71,#72,#74,#75,#110,#242,#243));
#241= IFCRELDEFINESBYPROPERTIES('3QvlTRx7P3zvMFrExQYsN5',$,$,$,(#238),#240);
#242= IFCPROPERTYSINGLEVALUE('Area',$,IFCREAL(13.8239304434063),$);
#243= IFCPROPERTYSINGLEVALUE('Bounds',$,IFCLABEL('((5.769550372846425,-0.02065421547740698,0.7691506495093563),(11.823127308860421,20.020654215477407,1.0752455787014696))'),$);
#244= IFCPROPERTYSET('1we9YSwSv0fQnujlu_6Jaj',$,'Misc',$,(#78,#79,#80,#81));
#245= IFCRELDEFINESBYPROPERTIES('1jfEaNoL56jAv19q1DV4ee',$,$,$,(#238),#244);
#246= IFCPROPERTYSET('0ubS$G84j8TgI$K5dVSkyi',$,'3D Visualization',$,(#84,#86,#204));
#247= IFCRELDEFINESBYPROPERTIES('0hXWNs33j06wYcyul_yqfv',$,$,$,(#238),#246);
#248= IFCPROPERTYSET('0n7cjMoP5019E76cHPY8eX',$,'General',$,(#91,#92,#94,#118,#119,#207));
#249= IFCRELDEFINESBYPROPERTIES('0rYj2e86n16v35kpqaBOqP',$,$,$,(#238),#248);
#250= IFCPROPERTYSET('2oquPJXQvFkhrs1FRW46Bf',$,'Geometry',$,(#97));
#251= IFCRELDEFINESBYPROPERTIES('1UOxLJaJr7k8mwVKvuciu5',$,$,$,(#238),#250);
#252= IFCCARTESIANPOINTLIST3D(((0.0345,-10.0,0.118547),(0.0345,-10.0,0.153047),(0.008625,-10.0,0.118547),(-0.0345,-10.0,0.153047),(-0.008625,-10.0,0.118547),(-0.0345,-10.0,0.118547),(0.008625,-10.0,0.012687),(-0.008625,-10.0,0.012687),(-0.06985,-10.0,-0.015253),(-0.06985,-10.0,-0.004077),(0.06985,-10.0,-0.015253),(0.06985,-10.0,-0.004077),(0.06985,10.0,-0.153047),(-0.06985,10.0,-0.153047),(-0.06985,10.0,-0.141871),(-0.008625,10.0,-0.125107),(-0.008625,10.0,-0.019247),(-0.0345,10.0,-0.019247),(-0.0345,10.0,0.015253),(0.008625,10.0,-0.125107),(0.06985,10.0,-0.141871),(0.008625,10.0,-0.019247),(0.0345,10.0,-0.019247),(0.0345,10.0,0.015253)),$);
#253= IFCTRIANGULATEDFACESET(#252,$,$,((1,2,3),(3,2,4),(3,4,5),(5,4,6),(3,5,7),(7,5,8),(7,8,9),(9,8,10),(9,11,7),(7,11,12),(11,9,13),(13,9,14),(10,15,9),(9,15,14),(8,16,10),(10,16,15),(5,17,8),(8,17,16),(6,18,5),(5,18,17),(4,19,6),(6,19,18),(7,12,20),(20,12,21),(3,22,1),(1,22,23),(2,24,4),(4,24,19),(3,7,22),(22,7,20),(2,1,24),(24,1,23),(12,11,21),(21,11,13),(21,13,20),(20,13,14),(20,14,16),(16,14,15),(20,16,22),(22,16,17),(22,17,19),(19,17,18),(19,24,22),(22,24,23)),$);
#254= IFCSHAPEREPRESENTATION(#26,'Body','Tessellation',(#253));
#255= IFCPRODUCTDEFINITIONSHAPE($,$,(#254));
#256= IFCCARTESIANPOINT((6.918207,9.950429,0.922198));
#257= IFCAXIS2PLACEMENT3D(#256,$,$);
#258= IFCLOCALPLACEMENT(#5,#257);
#259= IFCRAILWAYPART('2eZ2Q6gVf4Nem8VVOJoLhU',$,'RIEL_60R1_ACERO_a1435mm',$,'RAIL',#258,#255,$,$,.NOTDEFINED.,.USERDEFINED.);
#260= IFCSTYLEDITEM(#253,(#193),'RIEL_60R1_ACERO_a1435mm');
#261= IFCPROPERTYSET('197Y9wo3nFTgDaFdfI5loq',$,'Properties',$,(#49,#51,#52,#53,#54,#55,#56,#57,#58,#59,#60,#61,#62,#63,#64,#65,#66,#67,#68,#69,#70,#71,#72,#74,#75,#110,#263,#264));
#262= IFCRELDEFINESBYPROPERTIES('0ig39qEGn3KPvwzpb_OusW',$,$,$,(#259),#261);
#263= IFCPROPERTYSINGLEVALUE('Area',$,IFCREAL(13.8239304618333),$);
#264= IFCPROPERTYSINGLEVALUE('Bounds',$,IFCLABEL('((4.265550370328128,-0.02065421617589891,0.7691506495102658),(10.319127310067415,20.02065421594307,1.0752455787105646))'),$);
#265= IFCPROPERTYSET('28HGDrw1HFWPhNsqTMsHo2',$,'Misc',$,(#78,#79,#80,#81));
#266= IFCRELDEFINESBYPROPERTIES('3QSCtOZV568hOu9zLBZSdT',$,$,$,(#259),#265);
#267= IFCPROPERTYSET('0dMzvAhvH9Yuw4M03J70vc',$,'3D Visualization',$,(#84,#86,#204));
#268= IFCRELDEFINESBYPROPERTIES('1NgeOHpwD72xhUYtVXnfYR',$,$,$,(#259),#267);
#269= IFCPROPERTYSET('3pD0XL37bB3Ohiu0tb08gw',$,'General',$,(#91,#92,#94,#118,#119,#207));
#270= IFCRELDEFINESBYPROPERTIES('148pHuCHHDTvx8ti7Bt_NZ',$,$,$,(#259),#269);
#271= IFCPROPERTYSET('1Iqqa12fzC4hHLdD35JRbI',$,'Geometry',$,(#97));
#272= IFCRELDEFINESBYPROPERTIES('0Z2HRBekT5WxYJAOXLo6Ip',$,$,$,(#259),#271);
ENDSEC;

END-ISO-10303-21;
