ISO-10303-21;
HEADER;
FILE_DESCRIPTION(('ViewDefinition [Alignment-basedView]'),'2;1');
FILE_NAME(
/* name */ 'C:\\Users\\a.hernandez\\OneDrive - EGIS Group\\Documents\\APPS\\Reporte-ifc-LOD\\reporte-ifc-lod-thatopen\\thatopen\\models\\IFC\\IfcRailwayPart.RAIL.ifc',
/* time_stamp */ '2026-03-23T09:34:01',
/* author */ ('a.hernandez'),
/* organization */ ('EGIS'),
/* preprocessor_version */ 'GeometryGymIFCcore v25.2.25.0 by Geometry Gym Pty Ltd built 2025-02-25T08:37:52',
/* originating_system */ 'Autodesk - Civil 3D 2026 IfcInfra Plugin - 13.8.378.0',
/* authorization */ 'None'
);

FILE_SCHEMA (('IFC4X3_ADD2'));
ENDSEC;

DATA;
#1= IFCORGANIZATION($,'Autodesk',$,$,$);
#2= IFCAPPLICATION(#1,'Civil 3D 2026','Civil 3D','Autodesk - Civil 3D 2026 IfcInfra Plugin - 13.8.378.0');
#3= IFCCARTESIANPOINT((0.0,0.0,0.0));
#4= IFCAXIS2PLACEMENT3D(#3,$,$);
#5= IFCLOCALPLACEMENT($,#4);
#6= IFCSITE('1xq3Jx7v1Ei9VLtRWhcAGA',$,'UnknownName',$,$,#5,$,$,$,$,$,$,$,$);
#9= IFCSIUNIT(*,.LENGTHUNIT.,$,.METRE.);
#10= IFCSIUNIT(*,.AREAUNIT.,$,.SQUARE_METRE.);
#11= IFCSIUNIT(*,.VOLUMEUNIT.,$,.CUBIC_METRE.);
#12= IFCSIUNIT(*,.PLANEANGLEUNIT.,$,.RADIAN.);
#13= IFCPROJECT('0wa231yDfCXxnarg_pvOe8',#17,'Unknown',$,$,$,$,(#21),#18);
#14= IFCPERSON('a.hernandez',$,$,$,$,$,$,$);
#15= IFCORGANIZATION($,'EGIS',$,$,$);
#16= IFCPERSONANDORGANIZATION(#14,#15,$);
#17= IFCOWNERHISTORY(#16,#2,$,.ADDED.,1774276441,$,$,1774276441);
#18= IFCUNITASSIGNMENT((#9,#10,#11,#12));
#19= IFCRELAGGREGATES('2$7AE_vACS8ubTDmUZJtKb',$,$,$,#13,(#6));
#20= IFCPROJECTEDCRS('MAGNA-SIRGAS NACIONAL',$,'MAGNA',$,'Tm',$,$);
#21= IFCGEOMETRICREPRESENTATIONCONTEXT('3D','Model',3,0.0001,#23,#24);
#22= IFCCARTESIANPOINT((0.0,0.0,0.0));
#23= IFCAXIS2PLACEMENT3D(#22,$,$);
#24= IFCDIRECTION((0.0,1.0));
#25= IFCRIGIDOPERATION(#21,#20,IFCLENGTHMEASURE(0.3741322477822),IFCLENGTHMEASURE(0.0495706723002058),0.0);
#26= IFCGEOMETRICREPRESENTATIONSUBCONTEXT('Body','Model',*,*,*,*,#21,$,.MODEL_VIEW.,$);
#27= IFCCARTESIANPOINTLIST3D(((0.85,0.115,-0.0975),(0.85,-0.115,-0.0975),(-0.85,0.115,-0.0975),(-0.85,-0.115,-0.0975),(0.85,0.085,0.0975),(-0.85,0.085,0.0975),(0.85,-0.085,0.0975),(-0.85,-0.085,0.0975)),$);
#28= IFCTRIANGULATEDFACESET(#27,$,$,((1,2,3),(3,2,4),(5,1,6),(6,1,3),(7,5,8),(8,5,6),(2,7,4),(4,7,8),(8,6,4),(4,6,3),(7,2,5),(5,2,1)),$);
#29= IFCSHAPEREPRESENTATION(#26,'Body','Tessellation',(#28));
#30= IFCPRODUCTDEFINITIONSHAPE($,$,(#29));
#31= IFCCARTESIANPOINT((20.863404,3.794087,0.022589));
#32= IFCAXIS2PLACEMENT3D(#31,$,$);
#33= IFCLOCALPLACEMENT(#5,#32);
#34= IFCCIVILELEMENT('07MD4i4hv4hw_iRQMIS0iS',$,'0',$,$,#33,#30,'100DC');
#35= IFCRELCONTAINEDINSPATIALSTRUCTURE('1qZxRkEmsvzp0ZV4l$EVCk',$,'Site','Site Container for Elements',(#34,#105,#125,#145,#166,#198,#220),#6);
#36= IFCMATERIAL('CONCRETO_REFORZADO_GENERICO',$,$);
#37= IFCRELASSOCIATESMATERIAL('3DAP5egFDF0QLA$dCQyKLy',$,$,$,(#34,#105,#125,#145,#220),#36);
#38= IFCCOLOURRGB('white',1.0,1.0,1.0);
#39= IFCSURFACESTYLESHADING(#38,$);
#40= IFCSURFACESTYLE($,.BOTH.,(#39));
#41= IFCPRESENTATIONLAYERWITHSTYLE('0',$,(#28,#99,#119,#139,#214),$,.U.,.U.,.U.,(#40));
#42= IFCCOLOURRGB('ff666666',0.4,0.4,0.4);
#43= IFCSURFACESTYLESHADING(#42,$);
#44= IFCSURFACESTYLE($,.BOTH.,(#43));
#45= IFCSTYLEDITEM(#28,(#44),$);
#46= IFCPROPERTYSET('3izVmrNTv7heC0WfQk5K9F',$,'Properties',$,(#48,#49,#50,#51,#52,#53,#54,#55,#56,#57,#58,#59,#60,#61,#62,#63,#64,#65,#66,#67,#68,#69,#70,#71,#72,#73,#74,#75));
#47= IFCRELDEFINESBYPROPERTIES('1NZk78ofL4fQxlchumxZ4V',$,$,$,(#34),#46);
#48= IFCPROPERTYSINGLEVALUE('Area',$,IFCREAL(1.42880026833626),$);
#49= IFCPROPERTYSINGLEVALUE('IsNull',$,IFCBOOLEAN(.F.),$);
#50= IFCPROPERTYSINGLEVALUE('NumChanges',$,IFCINTEGER(94),$);
#51= IFCPROPERTYSINGLEVALUE('RecordHistory',$,IFCBOOLEAN(.T.),$);
#52= IFCPROPERTYSINGLEVALUE('ShowHistory',$,IFCBOOLEAN(.T.),$);
#53= IFCPROPERTYSINGLEVALUE('UsesGraphicsCache',$,IFCBOOLEAN(.T.),$);
#54= IFCPROPERTYSINGLEVALUE('CloneMeForDragging',$,IFCBOOLEAN(.T.),$);
#55= IFCPROPERTYSINGLEVALUE('ForceAnnoAllVisible',$,IFCBOOLEAN(.T.),$);
#56= IFCPROPERTYSINGLEVALUE('HasSaveVersionOverride',$,IFCBOOLEAN(.F.),$);
#57= IFCPROPERTYSINGLEVALUE('IsCancelling',$,IFCBOOLEAN(.F.),$);
#58= IFCPROPERTYSINGLEVALUE('IsErased',$,IFCBOOLEAN(.F.),$);
#59= IFCPROPERTYSINGLEVALUE('IsEraseStatusToggled',$,IFCBOOLEAN(.F.),$);
#60= IFCPROPERTYSINGLEVALUE('IsModified',$,IFCBOOLEAN(.F.),$);
#61= IFCPROPERTYSINGLEVALUE('IsModifiedGraphics',$,IFCBOOLEAN(.F.),$);
#62= IFCPROPERTYSINGLEVALUE('IsModifiedXData',$,IFCBOOLEAN(.F.),$);
#63= IFCPROPERTYSINGLEVALUE('IsNewObject',$,IFCBOOLEAN(.F.),$);
#64= IFCPROPERTYSINGLEVALUE('IsNotifyEnabled',$,IFCBOOLEAN(.F.),$);
#65= IFCPROPERTYSINGLEVALUE('IsNotifying',$,IFCBOOLEAN(.F.),$);
#66= IFCPROPERTYSINGLEVALUE('IsObjectIdsInFlux',$,IFCBOOLEAN(.F.),$);
#67= IFCPROPERTYSINGLEVALUE('IsPersistent',$,IFCBOOLEAN(.T.),$);
#68= IFCPROPERTYSINGLEVALUE('IsReadEnabled',$,IFCBOOLEAN(.T.),$);
#69= IFCPROPERTYSINGLEVALUE('IsReallyClosing',$,IFCBOOLEAN(.F.),$);
#70= IFCPROPERTYSINGLEVALUE('IsTransactionResident',$,IFCBOOLEAN(.T.),$);
#71= IFCPROPERTYSINGLEVALUE('IsUndoing',$,IFCBOOLEAN(.F.),$);
#72= IFCPROPERTYSINGLEVALUE('IsWriteEnabled',$,IFCBOOLEAN(.T.),$);
#73= IFCPROPERTYSINGLEVALUE('Bounds',$,IFCLABEL('((20.38753650273735,3.728657359704375,-0.07491075099873722),(22.08753650273735,3.9586573597043753,0.12008924900126279))'),$);
#74= IFCPROPERTYSINGLEVALUE('AutoDelete',$,IFCBOOLEAN(.F.),$);
#75= IFCPROPERTYSINGLEVALUE('IsDisposed',$,IFCBOOLEAN(.F.),$);
#76= IFCPROPERTYSET('3WT9jG_kD34x6aqaZKURuc',$,'Misc',$,(#78,#79,#80,#81));
#77= IFCRELDEFINESBYPROPERTIES('1jdO9h7SPABAfQXD7OOIKu',$,$,$,(#34),#76);
#78= IFCPROPERTYSINGLEVALUE('BlockName',$,IFCLABEL('*Model_Space'),$);
#79= IFCPROPERTYSINGLEVALUE('ClassID',$,IFCLABEL('4ca6aa08-5011-4525-8c44-7fb7c2190cb8'),$);
#80= IFCPROPERTYSINGLEVALUE('HasFields',$,IFCBOOLEAN(.F.),$);
#81= IFCPROPERTYSINGLEVALUE('IsAProxy',$,IFCBOOLEAN(.F.),$);
#82= IFCPROPERTYSET('0oiFHzWpHBzR2KXf8eQ_7Q',$,'3D Visualization',$,(#84,#85,#86));
#83= IFCRELDEFINESBYPROPERTIES('3ktFZRjNXDnxNrPDYPZv79',$,$,$,(#34),#82);
#84= IFCPROPERTYSINGLEVALUE('CastShadows',$,IFCBOOLEAN(.T.),$);
#85= IFCPROPERTYSINGLEVALUE('Material',$,IFCLABEL('CONCRETO_REFORZADO_GENERICO'),$);
#86= IFCPROPERTYSINGLEVALUE('ReceiveShadows',$,IFCBOOLEAN(.T.),$);
#87= IFCPROPERTYSET('2VwcvqrW1BV9VG4vuffJ8o',$,'General',$,(#89,#90,#91,#92,#93,#94));
#88= IFCRELDEFINESBYPROPERTIES('2tm8YxCeL7jx$p5yX0v3tq',$,$,$,(#34),#87);
#89= IFCPROPERTYSINGLEVALUE('ColorIndex',$,IFCINTEGER(252),$);
#90= IFCPROPERTYSINGLEVALUE('Layer',$,IFCLABEL('0'),$);
#91= IFCPROPERTYSINGLEVALUE('Linetype',$,IFCLABEL('ByLayer'),$);
#92= IFCPROPERTYSINGLEVALUE('LinetypeScale',$,IFCREAL(1.0),$);
#93= IFCPROPERTYSINGLEVALUE('PlotStyleName',$,IFCLABEL('Color_252'),$);
#94= IFCPROPERTYSINGLEVALUE('Visible',$,IFCBOOLEAN(.T.),$);
#95= IFCPROPERTYSET('3bHjRH2jfADxwrOeWxbYA5',$,'Geometry',$,(#97));
#96= IFCRELDEFINESBYPROPERTIES('0IEjbvk49BwxCQeWmZVIuD',$,$,$,(#34),#95);
#97= IFCPROPERTYSINGLEVALUE('IsPlanar',$,IFCBOOLEAN(.F.),$);
#98= IFCCARTESIANPOINTLIST3D(((0.85,0.115,-0.0975),(0.85,-0.115,-0.0975),(-0.85,0.115,-0.0975),(-0.85,-0.115,-0.0975),(0.85,0.085,0.0975),(-0.85,0.085,0.0975),(0.85,-0.085,0.0975),(-0.85,-0.085,0.0975)),$);
#99= IFCTRIANGULATEDFACESET(#98,$,$,((1,2,3),(3,2,4),(5,1,6),(6,1,3),(7,5,8),(8,5,6),(2,7,4),(4,7,8),(8,6,4),(4,6,3),(7,2,5),(5,2,1)),$);
#100= IFCSHAPEREPRESENTATION(#26,'Body','Tessellation',(#99));
#101= IFCPRODUCTDEFINITIONSHAPE($,$,(#100));
#102= IFCCARTESIANPOINT((20.863404,2.994087,0.022589));
#103= IFCAXIS2PLACEMENT3D(#102,$,$);
#104= IFCLOCALPLACEMENT(#5,#103);
#105= IFCCIVILELEMENT('1hTyMO2lzDAecSQj1q5uNB',$,'0',$,$,#104,#101,'100D5');
#106= IFCSTYLEDITEM(#99,(#44),$);
#107= IFCPROPERTYSET('1UmUHczyz89BP_LrgbvmXO',$,'Properties',$,(#48,#49,#50,#51,#52,#53,#54,#55,#56,#57,#58,#59,#60,#61,#62,#63,#64,#65,#66,#67,#68,#69,#70,#71,#72,#74,#75,#109));
#108= IFCRELDEFINESBYPROPERTIES('3rE02WcY9CPBsLhDOZhtOG',$,$,$,(#105),#107);
#109= IFCPROPERTYSINGLEVALUE('Bounds',$,IFCLABEL('((20.38753650273735,2.928657359704374,-0.07491075099873722),(22.08753650273735,3.1586573597043746,0.12008924900126279))'),$);
#110= IFCPROPERTYSET('2DsGvR7$v6WRaPdWj4$anI',$,'Misc',$,(#78,#79,#80,#81));
#111= IFCRELDEFINESBYPROPERTIES('3QUTJEdBvBAeV4lV$k2_SF',$,$,$,(#105),#110);
#112= IFCPROPERTYSET('3$PxOVqab0GfIvk18NxB_F',$,'3D Visualization',$,(#84,#85,#86));
#113= IFCRELDEFINESBYPROPERTIES('1he$Mnfnb6IuCserTVb2Qc',$,$,$,(#105),#112);
#114= IFCPROPERTYSET('163HJ_yyLCaxlMk9AKXCmw',$,'General',$,(#89,#90,#91,#92,#93,#94));
#115= IFCRELDEFINESBYPROPERTIES('3jDSibtRH3AxiN1P9Ml7cV',$,$,$,(#105),#114);
#116= IFCPROPERTYSET('0zIuHzx$1BkByhNHDE7dYl',$,'Geometry',$,(#97));
#117= IFCRELDEFINESBYPROPERTIES('3FYRjJ8$z4gOZBzDgViLPc',$,$,$,(#105),#116);
#118= IFCCARTESIANPOINTLIST3D(((0.85,0.115,-0.0975),(0.85,-0.115,-0.0975),(-0.85,0.115,-0.0975),(-0.85,-0.115,-0.0975),(0.85,0.085,0.0975),(-0.85,0.085,0.0975),(0.85,-0.085,0.0975),(-0.85,-0.085,0.0975)),$);
#119= IFCTRIANGULATEDFACESET(#118,$,$,((1,2,3),(3,2,4),(5,1,6),(6,1,3),(7,5,8),(8,5,6),(2,7,4),(4,7,8),(8,6,4),(4,6,3),(7,2,5),(5,2,1)),$);
#120= IFCSHAPEREPRESENTATION(#26,'Body','Tessellation',(#119));
#121= IFCPRODUCTDEFINITIONSHAPE($,$,(#120));
#122= IFCCARTESIANPOINT((20.863404,2.194087,0.022589));
#123= IFCAXIS2PLACEMENT3D(#122,$,$);
#124= IFCLOCALPLACEMENT(#5,#123);
#125= IFCCIVILELEMENT('2LF$vRIoLDbAdfwruq3$nk',$,'0',$,$,#124,#121,'100CE');
#126= IFCSTYLEDITEM(#119,(#44),$);
#127= IFCPROPERTYSET('1ADdirenvAswOHP6Tc6vcD',$,'Properties',$,(#48,#49,#50,#51,#52,#53,#54,#55,#56,#57,#58,#59,#60,#61,#62,#63,#64,#65,#66,#67,#68,#69,#70,#71,#72,#74,#75,#129));
#128= IFCRELDEFINESBYPROPERTIES('28TWXbdw10DRzXdqypTg7A',$,$,$,(#125),#127);
#129= IFCPROPERTYSINGLEVALUE('Bounds',$,IFCLABEL('((20.38753650273735,2.128657359704375,-0.07491075099873722),(22.08753650273735,2.3586573597043756,0.12008924900126279))'),$);
#130= IFCPROPERTYSET('3Z5HtpSlHByeRQ6rRSbiUg',$,'Misc',$,(#78,#79,#80,#81));
#131= IFCRELDEFINESBYPROPERTIES('1ddkI7Bkv5gACo2Ni4IuRF',$,$,$,(#125),#130);
#132= IFCPROPERTYSET('327qfWtQ12iB3LTGrrBPJt',$,'3D Visualization',$,(#84,#85,#86));
#133= IFCRELDEFINESBYPROPERTIES('1HjvTIC2X5ZfBdhnPhDoD8',$,$,$,(#125),#132);
#134= IFCPROPERTYSET('16yzq_Iwf1VPjRJH2rBGuR',$,'General',$,(#89,#90,#91,#92,#93,#94));
#135= IFCRELDEFINESBYPROPERTIES('26TJKqnXf7SeLY0101cWlg',$,$,$,(#125),#134);
#136= IFCPROPERTYSET('1IFIcO8OT3bf8D68iKpfXg',$,'Geometry',$,(#97));
#137= IFCRELDEFINESBYPROPERTIES('31tALMlZDFSQDXUrm0J0a3',$,$,$,(#125),#136);
#138= IFCCARTESIANPOINTLIST3D(((0.85,0.115,-0.0975),(0.85,-0.115,-0.0975),(-0.85,0.115,-0.0975),(-0.85,-0.115,-0.0975),(0.85,0.085,0.0975),(-0.85,0.085,0.0975),(0.85,-0.085,0.0975),(-0.85,-0.085,0.0975)),$);
#139= IFCTRIANGULATEDFACESET(#138,$,$,((1,2,3),(3,2,4),(5,1,6),(6,1,3),(7,5,8),(8,5,6),(2,7,4),(4,7,8),(8,6,4),(4,6,3),(7,2,5),(5,2,1)),$);
#140= IFCSHAPEREPRESENTATION(#26,'Body','Tessellation',(#139));
#141= IFCPRODUCTDEFINITIONSHAPE($,$,(#140));
#142= IFCCARTESIANPOINT((20.863404,1.394087,0.045217));
#143= IFCAXIS2PLACEMENT3D(#142,$,$);
#144= IFCLOCALPLACEMENT(#5,#143);
#145= IFCCIVILELEMENT('2Lnwlw2uXCQRuu8$4OL18M',$,'0',$,$,#144,#141,'100C7');
#146= IFCSTYLEDITEM(#139,(#44),$);
#147= IFCPROPERTYSET('0jxpbeYNT3mx$goHmcTGMA',$,'Properties',$,(#48,#49,#51,#52,#53,#54,#55,#56,#57,#58,#59,#60,#61,#62,#63,#64,#65,#66,#67,#68,#69,#70,#71,#72,#74,#75,#149,#150));
#148= IFCRELDEFINESBYPROPERTIES('2gzUWUOVrDAA0JaWxGVBP0',$,$,$,(#145),#147);
#149= IFCPROPERTYSINGLEVALUE('NumChanges',$,IFCINTEGER(93),$);
#150= IFCPROPERTYSINGLEVALUE('Bounds',$,IFCLABEL('((20.38753650273735,1.3286573597043754,-0.05228286568433127),(22.08753650273735,1.5586573597043758,0.14271713431566874))'),$);
#151= IFCPROPERTYSET('1u5aI3aK14dANwMn3_moEF',$,'Misc',$,(#78,#79,#80,#81));
#152= IFCRELDEFINESBYPROPERTIES('2yc0MAUffFEOZLl6SZrjoB',$,$,$,(#145),#151);
#153= IFCPROPERTYSET('3ZhfTWArv8PxqkVJ4e7xsq',$,'3D Visualization',$,(#84,#85,#86));
#154= IFCRELDEFINESBYPROPERTIES('3a5CdhihzDDgxmps_8S2jt',$,$,$,(#145),#153);
#155= IFCPROPERTYSET('0HkLkA6Z97YgDWgsOEaMX4',$,'General',$,(#89,#90,#91,#92,#93,#94));
#156= IFCRELDEFINESBYPROPERTIES('1Ee5Fp3kT3vhWuQFUwi8aq',$,$,$,(#145),#155);
#157= IFCPROPERTYSET('0gJHjC6kbAKgYgwgWyZg6o',$,'Geometry',$,(#97));
#158= IFCRELDEFINESBYPROPERTIES('3mKOT7b3L1ygAGLtMj5dOF',$,$,$,(#145),#157);
#159= IFCCARTESIANPOINTLIST3D(((0.06985,2.374896,-0.100512),(0.06985,2.374896,-0.089336),(0.06985,-2.374896,-0.067788),(0.06985,-2.374896,-0.056612),(0.008625,2.374896,-0.072572),(0.008625,-2.374896,-0.039848),(0.008625,2.374896,0.033288),(0.008625,-2.374896,0.066012),(0.0345,2.374896,0.033288),(0.0345,-2.374896,0.066012),(0.0345,2.374896,0.067788),(0.0345,-2.374896,0.100512),(-0.0345,2.374896,0.067788),(-0.0345,-2.374896,0.100512),(-0.008625,-2.374896,0.066012),(-0.0345,-2.374896,0.066012),(-0.008625,-2.374896,-0.039848),(-0.06985,-2.374896,-0.067788),(-0.06985,-2.374896,-0.056612),(-0.06985,2.374896,-0.100512),(-0.06985,2.374896,-0.089336),(-0.008625,2.374896,-0.072572),(-0.008625,2.374896,0.033288),(-0.0345,2.374896,0.033288)),$);
#160= IFCTRIANGULATEDFACESET(#159,$,$,((1,2,3),(3,2,4),(2,5,4),(4,5,6),(5,7,6),(6,7,8),(9,10,7),(7,10,8),(9,11,10),(10,11,12),(13,14,11),(11,14,12),(14,15,12),(12,15,8),(12,8,10),(14,16,15),(8,15,6),(6,15,17),(6,17,3),(3,17,18),(18,17,19),(3,4,6),(20,1,18),(18,1,3),(20,18,21),(21,18,19),(21,19,22),(22,19,17),(22,17,23),(23,17,15),(23,15,24),(24,15,16),(24,16,13),(13,16,14),(2,1,5),(5,1,20),(5,20,22),(22,20,21),(5,22,7),(7,22,23),(7,23,11),(11,23,13),(13,23,24),(11,9,7)),$);
#161= IFCSHAPEREPRESENTATION(#26,'Body','Tessellation',(#160));
#162= IFCPRODUCTDEFINITIONSHAPE($,$,(#161));
#163= IFCCARTESIANPOINT((21.415052,2.113245,0.224911));
#164= IFCAXIS2PLACEMENT3D(#163,$,$);
#165= IFCLOCALPLACEMENT(#5,#164);
#166= IFCCIVILELEMENT('1qPgAAbczCbQR5gVneXp6a',$,'RIEL_60R1_ACERO_a1435mm',$,$,#165,#162,'100A5');
#167= IFCMATERIAL('ACERO _ESTRUCTURAL_GENERICO',$,$);
#168= IFCRELASSOCIATESMATERIAL('02EkZLvXTAXfT$k1zgSHJF',$,$,$,(#166,#198),#167);
#169= IFCCOLOURRGB('224,223,219',0.87843137254902,0.874509803921569,0.858823529411765);
#170= IFCSURFACESTYLESHADING(#169,$);
#171= IFCSURFACESTYLE($,.BOTH.,(#170));
#172= IFCPRESENTATIONLAYERWITHSTYLE('RIEL_60R1_ACERO_a1435mm',$,(#160,#192),$,.U.,.U.,.U.,(#171));
#173= IFCSTYLEDITEM(#160,(#171),'RIEL_60R1_ACERO_a1435mm');
#174= IFCPROPERTYSET('1sizv9TzHDF8KRWHcH_y3v',$,'Properties',$,(#49,#51,#52,#53,#54,#55,#56,#57,#58,#59,#60,#61,#62,#63,#64,#65,#66,#67,#68,#69,#70,#71,#72,#74,#75,#176,#177,#178));
#175= IFCRELDEFINESBYPROPERTIES('2PpFSYu4n1I9NHnQgNUSFr',$,$,$,(#166),#174);
#176= IFCPROPERTYSINGLEVALUE('Area',$,IFCREAL(3.29384240205601),$);
#177= IFCPROPERTYSINGLEVALUE('NumChanges',$,IFCINTEGER(9),$);
#178= IFCPROPERTYSINGLEVALUE('Bounds',$,IFCLABEL('((21.01709214132279,-0.23273520567454398,0.12439901658854069),(22.561276542954147,4.558365671662614,0.3254238822823936))'),$);
#179= IFCPROPERTYSET('1bkh3sKmTAqxyCDpI9s_Qg',$,'Misc',$,(#78,#79,#80,#81));
#180= IFCRELDEFINESBYPROPERTIES('2FOqCEdgDEfgaTNPUikwmB',$,$,$,(#166),#179);
#181= IFCPROPERTYSET('14T6RbayzD5R9qBclxMbYn',$,'3D Visualization',$,(#84,#86,#183));
#182= IFCRELDEFINESBYPROPERTIES('2KoHahkfXF$hI7xtM5W9EX',$,$,$,(#166),#181);
#183= IFCPROPERTYSINGLEVALUE('Material',$,IFCLABEL('ACERO _ESTRUCTURAL_GENERICO'),$);
#184= IFCPROPERTYSET('0fgPoecvb7Fv_nLsQfYQXD',$,'General',$,(#91,#92,#94,#186,#187,#188));
#185= IFCRELDEFINESBYPROPERTIES('0UVHgFqEHDvA5btRS4HR5T',$,$,$,(#166),#184);
#186= IFCPROPERTYSINGLEVALUE('ColorIndex',$,IFCINTEGER(256),$);
#187= IFCPROPERTYSINGLEVALUE('Layer',$,IFCLABEL('RIEL_60R1_ACERO_a1435mm'),$);
#188= IFCPROPERTYSINGLEVALUE('PlotStyleName',$,IFCLABEL('ByLayer'),$);
#189= IFCPROPERTYSET('3ICjKydZH7TOmdRTfCTJQO',$,'Geometry',$,(#97));
#190= IFCRELDEFINESBYPROPERTIES('1rPPQqc497oxCQHNO$Rd$X',$,$,$,(#166),#189);
#191= IFCCARTESIANPOINTLIST3D(((0.0345,2.374896,0.033288),(0.0345,2.374896,0.067788),(0.0345,-2.374896,0.066012),(0.0345,-2.374896,0.100512),(-0.0345,2.374896,0.067788),(-0.0345,-2.374896,0.100512),(-0.0345,2.374896,0.033288),(-0.0345,-2.374896,0.066012),(-0.008625,2.374896,0.033288),(-0.008625,-2.374896,0.066012),(-0.008625,2.374896,-0.072572),(-0.008625,-2.374896,-0.039848),(-0.06985,2.374896,-0.089336),(-0.06985,-2.374896,-0.056612),(0.008625,-2.374896,0.066012),(0.008625,-2.374896,-0.039848),(-0.06985,-2.374896,-0.067788),(0.06985,-2.374896,-0.067788),(0.06985,-2.374896,-0.056612),(0.008625,2.374896,0.033288),(0.008625,2.374896,-0.072572),(0.06985,2.374896,-0.089336),(0.06985,2.374896,-0.100512),(-0.06985,2.374896,-0.100512)),$);
#192= IFCTRIANGULATEDFACESET(#191,$,$,((1,2,3),(3,2,4),(2,5,4),(4,5,6),(7,8,5),(5,8,6),(7,9,8),(8,9,10),(11,12,9),(9,12,10),(13,14,11),(11,14,12),(3,4,15),(15,4,6),(15,6,10),(10,6,8),(15,10,16),(16,10,12),(16,12,17),(17,12,14),(17,18,16),(16,18,19),(1,3,20),(20,3,15),(21,20,16),(16,20,15),(22,21,19),(19,21,16),(23,22,18),(18,22,19),(23,18,24),(24,18,17),(24,17,13),(13,17,14),(1,20,2),(2,20,5),(5,20,9),(5,9,7),(9,20,11),(11,20,21),(11,21,24),(24,21,23),(23,21,22),(24,13,11)),$);
#193= IFCSHAPEREPRESENTATION(#26,'Body','Tessellation',(#192));
#194= IFCPRODUCTDEFINITIONSHAPE($,$,(#193));
#195= IFCCARTESIANPOINT((20.258843,2.113245,0.224911));
#196= IFCAXIS2PLACEMENT3D(#195,$,$);
#197= IFCLOCALPLACEMENT(#5,#196);
#198= IFCCIVILELEMENT('3FV$qrUxf6YBwf6OYl5IHI',$,'RIEL_60R1_ACERO_a1435mm',$,$,#197,#194,'1009F');
#199= IFCSTYLEDITEM(#192,(#171),'RIEL_60R1_ACERO_a1435mm');
#200= IFCPROPERTYSET('24GQssqZnDGg0kcBPJAFIU',$,'Properties',$,(#49,#51,#52,#53,#54,#55,#56,#57,#58,#59,#60,#61,#62,#63,#64,#65,#66,#67,#68,#69,#70,#71,#72,#74,#75,#202,#203,#204));
#201= IFCRELDEFINESBYPROPERTIES('2PRWSex9r7ZBiWnt4sA59g',$,$,$,(#198),#200);
#202= IFCPROPERTYSINGLEVALUE('Area',$,IFCREAL(3.29384239322296),$);
#203= IFCPROPERTYSINGLEVALUE('NumChanges',$,IFCINTEGER(8),$);
#204= IFCPROPERTYSINGLEVALUE('Bounds',$,IFCLABEL('((19.86088270507753,-0.23273520614020526,0.12439901658945018),(21.405067106708884,4.558365671662614,0.32542388228648633))'),$);
#205= IFCPROPERTYSET('21MIRHlIf5LAU0ZEurh6gc',$,'Misc',$,(#78,#79,#80,#81));
#206= IFCRELDEFINESBYPROPERTIES('3rpD00ldzE0OSo2FF4DyVc',$,$,$,(#198),#205);
#207= IFCPROPERTYSET('3eowhsCp13jv7c2N0kzTDF',$,'3D Visualization',$,(#84,#86,#183));
#208= IFCRELDEFINESBYPROPERTIES('3Z9jWp7tvEPg5qcXqr8mrT',$,$,$,(#198),#207);
#209= IFCPROPERTYSET('1yevm7nmv5ZRULQb7$Azwk',$,'General',$,(#91,#92,#94,#186,#187,#188));
#210= IFCRELDEFINESBYPROPERTIES('2nUn1QArj3zvBMUxklBaF7',$,$,$,(#198),#209);
#211= IFCPROPERTYSET('3uC_cUsij9LxN1uK1jcq8m',$,'Geometry',$,(#97));
#212= IFCRELDEFINESBYPROPERTIES('1LR5nOo1TDbx6nemAD49tr',$,$,$,(#198),#211);
#213= IFCCARTESIANPOINTLIST3D(((0.85,0.115,-0.0975),(0.85,-0.115,-0.0975),(-0.85,0.115,-0.0975),(-0.85,-0.115,-0.0975),(0.85,0.085,0.0975),(-0.85,0.085,0.0975),(0.85,-0.085,0.0975),(-0.85,-0.085,0.0975)),$);
#214= IFCTRIANGULATEDFACESET(#213,$,$,((1,2,3),(3,2,4),(5,1,6),(6,1,3),(7,5,8),(8,5,6),(2,7,4),(4,7,8),(8,6,4),(4,6,3),(7,2,5),(5,2,1)),$);
#215= IFCSHAPEREPRESENTATION(#26,'Body','Tessellation',(#214));
#216= IFCPRODUCTDEFINITIONSHAPE($,$,(#215));
#217= IFCCARTESIANPOINT((20.863404,0.594087,0.045217));
#218= IFCAXIS2PLACEMENT3D(#217,$,$);
#219= IFCLOCALPLACEMENT(#5,#218);
#220= IFCCIVILELEMENT('0ye91x9KjF9xdFPNaK4Zbo',$,'0',$,$,#219,#216,'10086');
#221= IFCSTYLEDITEM(#214,(#44),$);
#222= IFCPROPERTYSET('0qEmbcSNPB_BM5$Qm62X3R',$,'Properties',$,(#48,#49,#51,#52,#53,#54,#55,#56,#57,#58,#59,#60,#61,#62,#63,#64,#65,#66,#67,#68,#69,#70,#71,#72,#74,#75,#224,#225));
#223= IFCRELDEFINESBYPROPERTIES('09AJTmgHfAwghoS$waP1Rh',$,$,$,(#220),#222);
#224= IFCPROPERTYSINGLEVALUE('NumChanges',$,IFCINTEGER(96),$);
#225= IFCPROPERTYSINGLEVALUE('Bounds',$,IFCLABEL('((20.38753650273735,0.5286573597043756,-0.05228286568433127),(22.08753650273735,0.758657359704376,0.14271713431566874))'),$);
#226= IFCPROPERTYSET('2vUx096S9EWQjSAjdAGbSA',$,'Misc',$,(#78,#79,#80,#81));
#227= IFCRELDEFINESBYPROPERTIES('35ooKdDlvFwBtEw7zXVulP',$,$,$,(#220),#226);
#228= IFCPROPERTYSET('1nF9hSUsr33RQIaHDgllwZ',$,'3D Visualization',$,(#84,#85,#86));
#229= IFCRELDEFINESBYPROPERTIES('20JyFODMv06QZxZJ_ozF$6',$,$,$,(#220),#228);
#230= IFCPROPERTYSET('3X5$tSX551juymyUbRo8kL',$,'General',$,(#89,#90,#91,#92,#93,#94));
#231= IFCRELDEFINESBYPROPERTIES('3u$HwViOHFReTWJ9wroY_q',$,$,$,(#220),#230);
#232= IFCPROPERTYSET('0ZHhUOzHD4sO3WK2bibV3P',$,'Geometry',$,(#97));
#233= IFCRELDEFINESBYPROPERTIES('2ScTXNNrX4zRjta5hxARRS',$,$,$,(#220),#232);
ENDSEC;

END-ISO-10303-21;
