ISO-10303-21;
HEADER;
FILE_DESCRIPTION(('ViewDefinition [CoordinationView, QuantityTakeOffAddOnView]','RevitIdentifiers [ContentGUID: 2d7a955e-d8ac-43bc-bf72-1435f16c16f1, VersionGUID: 1340e99a-c19b-4e6f-a1c1-5c71e23d77dc, NumberOfSaves: 10]','CoordinateReference [CoordinateBase: Internal Origin, ProjectSite: Default Site]'),'2;1');
FILE_NAME('IfcSign.MARKER.ifc','2026-03-21T13:22:01-05:00',(''),(''),'ODA SDAI 25.12','Autodesk - Revit 26.4.0.32 (ENU) - 26.4.0.32','');
FILE_SCHEMA(('IFC4X3_ADD2'));
ENDSEC;

DATA;
#1=IFCORGANIZATION($,'Autodesk Revit 2026 (ENU)',$,$,$);
#2=IFCAPPLICATION(#1,'2026','Autodesk Revit 2026 (ENU)','Revit');
#3=IFCPERSON($,'','alejandro.hernandez3L92L',$,$,$,$,$);
#4=IFCORGANIZATION($,'Organization Name','Organization Description',$,$);
#5=IFCPERSONANDORGANIZATION(#3,#4,$);
#6=IFCOWNERHISTORY(#5,#2,$,.NOCHANGE.,$,$,$,1774110271);
#7=IFCSIUNIT(*,.LENGTHUNIT.,.MILLI.,.METRE.);
#8=IFCSIUNIT(*,.AREAUNIT.,$,.SQUARE_METRE.);
#9=IFCSIUNIT(*,.VOLUMEUNIT.,$,.CUBIC_METRE.);
#10=IFCCARTESIANPOINT((0.,0.,0.));
#11=IFCAXIS2PLACEMENT3D(#10,$,$);
#12=IFCDIRECTION((0.,1.));
#13=IFCGEOMETRICREPRESENTATIONCONTEXT($,'Model',3,0.01,#11,#12);
#14=IFCGEOMETRICREPRESENTATIONSUBCONTEXT('Axis','Model',*,*,*,*,#13,$,.GRAPH_VIEW.,$);
#15=IFCGEOMETRICREPRESENTATIONSUBCONTEXT('Body','Model',*,*,*,*,#13,$,.MODEL_VIEW.,$);
#16=IFCGEOMETRICREPRESENTATIONSUBCONTEXT('Box','Model',*,*,*,*,#13,$,.MODEL_VIEW.,$);
#17=IFCGEOMETRICREPRESENTATIONSUBCONTEXT('FootPrint','Model',*,*,*,*,#13,$,.MODEL_VIEW.,$);
#18=IFCPROJECT('0jUfLUsAn3lBzo53KEa_a1',#6,'Project Number',$,$,'Project Name','Project Status',(#13),#959);
#19=IFCPOSTALADDRESS($,$,$,$,('Enter address here\X\0D\X\0AAddress Line 2'),$,'','Boston','','MA');
#20=IFCAXIS2PLACEMENT3D(#10,$,$);
#21=IFCLOCALPLACEMENT(#31,#20);
#22=IFCBUILDING('0jUfLUsAn3lBzo53KEa_a0',#6,'Building Name',$,$,#21,$,'Building Name',.ELEMENT.,$,$,#19);
#23=IFCAXIS2PLACEMENT3D(#10,$,$);
#24=IFCLOCALPLACEMENT(#21,#23);
#25=IFCBUILDINGSTOREY('2JF4e6axWHqu3u0C1FZlmi',#6,'L1',$,$,#24,$,'L1',.ELEMENT.,0.);
#26=IFCCARTESIANPOINT((0.,0.,3600.));
#27=IFCAXIS2PLACEMENT3D(#26,$,$);
#28=IFCLOCALPLACEMENT(#21,#27);
#29=IFCBUILDINGSTOREY('1ZGO8hrFCHqw0v0026FpFv',#6,'L2',$,$,#28,$,'L2',.ELEMENT.,3600.0000000000005);
#30=IFCAXIS2PLACEMENT3D(#10,$,$);
#31=IFCLOCALPLACEMENT($,#30);
#32=IFCSITE('0jUfLUsAn3lBzo53KEa_a3',#6,'Default',$,$,#31,$,$,.ELEMENT.,(42,21,31,401672),(-71,-3,-24,-345703),0.,$,$);
#33=IFCPROPERTYSINGLEVALUE('Reference',$,IFCIDENTIFIER('Project Information'),$);
#34=IFCPROPERTYSET('0Xc$fPgffLDLF5vmbvzDHG',#6,'Pset_SiteCommon',$,(#33));
#35=IFCPROPERTYSINGLEVALUE('IsExternal',$,IFCBOOLEAN(.F.),$);
#36=IFCPROPERTYSET('12UC4EkfUpg3hubOD__xOP',#6,'Pset_SpaceCommon',$,(#33,#35));
#37=IFCRELDEFINESBYPROPERTIES('0l45bTVUVhMvGrjeX0Q44$',#6,$,$,(#32),#34);
#38=IFCRELDEFINESBYPROPERTIES('1Qw$vbmNFcmw0o_JkT40It',#6,$,$,(#32),#36);
#39=IFCCARTESIANPOINT((-1.1521940143678718E-033,-1.6155445744325867E-013));
#40=IFCDIRECTION((1.,0.));
#41=IFCAXIS2PLACEMENT2D(#39,#40);
#42=IFCCIRCLEPROFILEDEF(.AREA.,'SENAL-PARADERO-BUSES-SI08_METAL_H3.40m',#41,100.);
#43=IFCAXIS2PLACEMENT3D(#10,$,$);
#44=IFCDIRECTION((0.,0.,1.));
#45=IFCEXTRUDEDAREASOLID(#42,#43,#44,5.0000000000000142);
#46=IFCSIUNIT(*,.PLANEANGLEUNIT.,$,.RADIAN.);
#47=IFCDIMENSIONALEXPONENTS(0,0,0,0,0,0,0);
#48=IFCMEASUREWITHUNIT(IFCPLANEANGLEMEASURE(0.017453292519943278),#46);
#49=IFCCONVERSIONBASEDUNIT(#47,.PLANEANGLEUNIT.,'DEGREE',#48);
#50=IFCCARTESIANPOINT((-3.8233089601993315E-037,-3.2310891488651735E-014));
#51=IFCAXIS2PLACEMENT2D(#50,#40);
#52=IFCCIRCLEPROFILEDEF(.AREA.,'SENAL-PARADERO-BUSES-SI08_METAL_H3.40m',#51,20.);
#53=IFCCARTESIANPOINT((0.,0.,5.));
#54=IFCAXIS2PLACEMENT3D(#53,$,$);
#55=IFCEXTRUDEDAREASOLID(#52,#54,#44,3395.0000000000005);
#56=IFCCARTESIANPOINT((-175.,225.));
#57=IFCAXIS2PLACEMENT2D(#56,#40);
#58=IFCCIRCLE(#57,75.);
#59=IFCTRIMMEDCURVE(#58,(IFCPARAMETERVALUE(90.000000000000085)),(IFCPARAMETERVALUE(180.00000000000017)),.T.,.PARAMETER.);
#60=IFCCOMPOSITECURVESEGMENT(.CONTINUOUS.,.T.,#59);
#61=IFCCARTESIANPOINT((-250.,225.));
#62=IFCCARTESIANPOINT((-250.,-225.));
#63=IFCPOLYLINE((#61,#62));
#64=IFCCOMPOSITECURVESEGMENT(.CONTINUOUS.,.T.,#63);
#65=IFCCARTESIANPOINT((-175.,-225.));
#66=IFCAXIS2PLACEMENT2D(#65,#40);
#67=IFCCIRCLE(#66,75.);
#68=IFCTRIMMEDCURVE(#67,(IFCPARAMETERVALUE(179.99999999999977)),(IFCPARAMETERVALUE(269.99999999999955)),.T.,.PARAMETER.);
#69=IFCCOMPOSITECURVESEGMENT(.CONTINUOUS.,.T.,#68);
#70=IFCCARTESIANPOINT((-175.,-300.));
#71=IFCCARTESIANPOINT((175.,-300.));
#72=IFCPOLYLINE((#70,#71));
#73=IFCCOMPOSITECURVESEGMENT(.CONTINUOUS.,.T.,#72);
#74=IFCCARTESIANPOINT((175.,-225.));
#75=IFCAXIS2PLACEMENT2D(#74,#40);
#76=IFCCIRCLE(#75,75.);
#77=IFCTRIMMEDCURVE(#76,(IFCPARAMETERVALUE(269.99999999999955)),(IFCPARAMETERVALUE(359.9999999999996)),.T.,.PARAMETER.);
#78=IFCCOMPOSITECURVESEGMENT(.CONTINUOUS.,.T.,#77);
#79=IFCCARTESIANPOINT((250.,-225.));
#80=IFCCARTESIANPOINT((250.,225.));
#81=IFCPOLYLINE((#79,#80));
#82=IFCCOMPOSITECURVESEGMENT(.CONTINUOUS.,.T.,#81);
#83=IFCCARTESIANPOINT((175.,225.));
#84=IFCAXIS2PLACEMENT2D(#83,#40);
#85=IFCCIRCLE(#84,75.);
#86=IFCTRIMMEDCURVE(#85,(IFCPARAMETERVALUE(0.)),(IFCPARAMETERVALUE(90.000000000000085)),.T.,.PARAMETER.);
#87=IFCCOMPOSITECURVESEGMENT(.CONTINUOUS.,.T.,#86);
#88=IFCCARTESIANPOINT((175.,300.));
#89=IFCCARTESIANPOINT((-175.,300.));
#90=IFCPOLYLINE((#88,#89));
#91=IFCCOMPOSITECURVESEGMENT(.CONTINUOUS.,.T.,#90);
#92=IFCCOMPOSITECURVE((#60,#64,#69,#73,#78,#82,#87,#91),.F.);
#93=IFCCARTESIANPOINT((-175.,-125.));
#94=IFCCARTESIANPOINT((-175.,225.));
#95=IFCCARTESIANPOINT((175.,225.));
#96=IFCCARTESIANPOINT((175.,-125.));
#97=IFCPOLYLINE((#93,#94,#95,#96,#93));
#98=IFCARBITRARYPROFILEDEFWITHVOIDS(.AREA.,'SENAL-PARADERO-BUSES-SI08_METAL_H3.40m',#92,(#97));
#99=IFCCARTESIANPOINT((0.,-30.,3100.));
#100=IFCDIRECTION((0.,1.,0.));
#101=IFCDIRECTION((-1.,0.,0.));
#102=IFCAXIS2PLACEMENT3D(#99,#100,#101);
#103=IFCEXTRUDEDAREASOLID(#98,#102,#44,10.000000000000007);
#104=IFCCARTESIANPOINT((-175.,225.));
#105=IFCAXIS2PLACEMENT2D(#104,#40);
#106=IFCCIRCLE(#105,75.);
#107=IFCTRIMMEDCURVE(#106,(IFCPARAMETERVALUE(90.000000000000497)),(IFCPARAMETERVALUE(180.00000000000023)),.T.,.PARAMETER.);
#108=IFCCOMPOSITECURVESEGMENT(.CONTINUOUS.,.T.,#107);
#109=IFCCARTESIANPOINT((-250.,225.));
#110=IFCCARTESIANPOINT((-250.,-225.));
#111=IFCPOLYLINE((#109,#110));
#112=IFCCOMPOSITECURVESEGMENT(.CONTINUOUS.,.T.,#111);
#113=IFCCARTESIANPOINT((-175.,-225.));
#114=IFCAXIS2PLACEMENT2D(#113,#40);
#115=IFCCIRCLE(#114,75.);
#116=IFCTRIMMEDCURVE(#115,(IFCPARAMETERVALUE(179.99999999999983)),(IFCPARAMETERVALUE(269.99999999999989)),.T.,.PARAMETER.);
#117=IFCCOMPOSITECURVESEGMENT(.CONTINUOUS.,.T.,#116);
#118=IFCCARTESIANPOINT((-175.,-300.));
#119=IFCCARTESIANPOINT((175.,-300.));
#120=IFCPOLYLINE((#118,#119));
#121=IFCCOMPOSITECURVESEGMENT(.CONTINUOUS.,.T.,#120);
#122=IFCCARTESIANPOINT((175.,-225.));
#123=IFCAXIS2PLACEMENT2D(#122,#40);
#124=IFCCIRCLE(#123,75.);
#125=IFCTRIMMEDCURVE(#124,(IFCPARAMETERVALUE(269.99999999999989)),(IFCPARAMETERVALUE(0.)),.T.,.PARAMETER.);
#126=IFCCOMPOSITECURVESEGMENT(.CONTINUOUS.,.T.,#125);
#127=IFCCARTESIANPOINT((250.,-225.));
#128=IFCCARTESIANPOINT((250.,225.));
#129=IFCPOLYLINE((#127,#128));
#130=IFCCOMPOSITECURVESEGMENT(.CONTINUOUS.,.T.,#129);
#131=IFCCARTESIANPOINT((175.,225.));
#132=IFCAXIS2PLACEMENT2D(#131,#40);
#133=IFCCIRCLE(#132,75.);
#134=IFCTRIMMEDCURVE(#133,(IFCPARAMETERVALUE(4.0711099922733055E-013)),(IFCPARAMETERVALUE(90.000000000000441)),.T.,.PARAMETER.);
#135=IFCCOMPOSITECURVESEGMENT(.CONTINUOUS.,.T.,#134);
#136=IFCCARTESIANPOINT((175.,300.));
#137=IFCCARTESIANPOINT((-175.,300.));
#138=IFCPOLYLINE((#136,#137));
#139=IFCCOMPOSITECURVESEGMENT(.CONTINUOUS.,.T.,#138);
#140=IFCCOMPOSITECURVE((#108,#112,#117,#121,#126,#130,#135,#139),.F.);
#141=IFCCARTESIANPOINT((175.,-125.));
#142=IFCCARTESIANPOINT((-175.,-125.));
#143=IFCCARTESIANPOINT((-175.,225.));
#144=IFCCARTESIANPOINT((175.,225.));
#145=IFCPOLYLINE((#141,#142,#143,#144,#141));
#146=IFCARBITRARYPROFILEDEFWITHVOIDS(.AREA.,'SENAL-PARADERO-BUSES-SI08_METAL_H3.40m',#140,(#145));
#147=IFCCARTESIANPOINT((-0.,20.,3100.));
#148=IFCAXIS2PLACEMENT3D(#147,#100,#101);
#149=IFCEXTRUDEDAREASOLID(#146,#148,#44,10.000000000011017);
#150=IFCCARTESIANPOINT((-60.708230348163468,-170.46475886958564));
#151=IFCCARTESIANPOINT((4.0404740740215246,-170.46475886958572));
#152=IFCPOLYLINE((#150,#151));
#153=IFCCOMPOSITECURVESEGMENT(.CONTINUOUS.,.T.,#152);
#154=IFCCARTESIANPOINT((4.0404740740215246,-170.46475886958572));
#155=IFCCARTESIANPOINT((32.107495034869451,-165.51578580607821));
#156=IFCPOLYLINE((#154,#155));
#157=IFCCOMPOSITECURVESEGMENT(.CONTINUOUS.,.T.,#156);
#158=IFCCARTESIANPOINT((32.107495034869451,-165.51578580607821));
#159=IFCCARTESIANPOINT((32.628439567870245,-168.47020906511483));
#160=IFCPOLYLINE((#158,#159));
#161=IFCCOMPOSITECURVESEGMENT(.CONTINUOUS.,.T.,#160);
#162=IFCCARTESIANPOINT((32.628439567870245,-168.47020906511483));
#163=IFCCARTESIANPOINT((45.430940357028952,-166.21278275544475));
#164=IFCPOLYLINE((#162,#163));
#165=IFCCOMPOSITECURVESEGMENT(.CONTINUOUS.,.T.,#164);
#166=IFCCARTESIANPOINT((45.430940357028952,-166.21278275544475));
#167=IFCCARTESIANPOINT((43.781282669193104,-156.85710910182874));
#168=IFCPOLYLINE((#166,#167));
#169=IFCCOMPOSITECURVESEGMENT(.CONTINUOUS.,.T.,#168);
#170=IFCCARTESIANPOINT((43.781282669193104,-156.85710910182874));
#171=IFCCARTESIANPOINT((41.31926328666303,-157.29122954599598));
#172=IFCPOLYLINE((#170,#171));
#173=IFCCOMPOSITECURVESEGMENT(.CONTINUOUS.,.T.,#172);
#174=IFCCARTESIANPOINT((41.31926328666303,-157.29122954599598));
#175=IFCCARTESIANPOINT((34.569197960612925,-88.119800342212372));
#176=IFCPOLYLINE((#174,#175));
#177=IFCCOMPOSITECURVESEGMENT(.CONTINUOUS.,.T.,#176);
#178=IFCCARTESIANPOINT((25.85307855237383,-62.494025493017965));
#179=IFCDIRECTION((-0.1736481776670189,0.98480775301220547));
#180=IFCAXIS2PLACEMENT2D(#178,#179);
#181=IFCCIRCLE(#180,27.06752803933696);
#182=IFCTRIMMEDCURVE(#181,(IFCPARAMETERVALUE(351.21524109294268)),(IFCPARAMETERVALUE(188.78475890705826)),.T.,.PARAMETER.);
#183=IFCCOMPOSITECURVESEGMENT(.CONTINUOUS.,.F.,#182);
#184=IFCCARTESIANPOINT((25.279020455432097,-35.432585556059138));
#185=IFCCARTESIANPOINT((0.81796243137734947,103.29296810436797));
#186=IFCPOLYLINE((#184,#185));
#187=IFCCOMPOSITECURVESEGMENT(.CONTINUOUS.,.T.,#186);
#188=IFCCARTESIANPOINT((-7.8981569768617632,128.91874295356246));
#189=IFCDIRECTION((-0.1736481776670189,0.98480775301220547));
#190=IFCAXIS2PLACEMENT2D(#188,#189);
#191=IFCCIRCLE(#190,27.06752803933696);
#192=IFCTRIMMEDCURVE(#191,(IFCPARAMETERVALUE(351.21524109294387)),(IFCPARAMETERVALUE(188.78475890705712)),.T.,.PARAMETER.);
#193=IFCCOMPOSITECURVESEGMENT(.CONTINUOUS.,.F.,#192);
#194=IFCCARTESIANPOINT((-8.4722150738039623,155.98018289052129));
#195=IFCCARTESIANPOINT((-10.907131237523402,169.78927866211922));
#196=IFCPOLYLINE((#194,#195));
#197=IFCCOMPOSITECURVESEGMENT(.CONTINUOUS.,.T.,#196);
#198=IFCCARTESIANPOINT((-10.907131237523402,169.78927866211922));
#199=IFCCARTESIANPOINT((-7.8065071120083545,170.33600235248301));
#200=IFCPOLYLINE((#198,#199));
#201=IFCCOMPOSITECURVESEGMENT(.CONTINUOUS.,.T.,#200);
#202=IFCCARTESIANPOINT((-7.8065071120083545,170.33600235248301));
#203=IFCCARTESIANPOINT((-8.9741667716681199,176.9581293518124));
#204=IFCPOLYLINE((#202,#203));
#205=IFCCOMPOSITECURVESEGMENT(.CONTINUOUS.,.T.,#204);
#206=IFCCARTESIANPOINT((-8.9741667716681199,176.9581293518124));
#207=IFCCARTESIANPOINT((-22.647670558901311,174.54712171330382));
#208=IFCPOLYLINE((#206,#207));
#209=IFCCOMPOSITECURVESEGMENT(.CONTINUOUS.,.T.,#208);
#210=IFCCARTESIANPOINT((-22.647670558901311,174.54712171330382));
#211=IFCCARTESIANPOINT((-22.272377414443497,172.41872852611309));
#212=IFCPOLYLINE((#210,#211));
#213=IFCCOMPOSITECURVESEGMENT(.CONTINUOUS.,.T.,#212);
#214=IFCCARTESIANPOINT((-22.272377414443497,172.41872852611309));
#215=IFCCARTESIANPOINT((-118.18577732055927,155.50660831118412));
#216=IFCPOLYLINE((#214,#215));
#217=IFCCOMPOSITECURVESEGMENT(.CONTINUOUS.,.T.,#216);
#218=IFCCARTESIANPOINT((-118.18577732055927,155.50660831118412));
#219=IFCCARTESIANPOINT((-60.708230348163468,-170.46475886958564));
#220=IFCPOLYLINE((#218,#219));
#221=IFCCOMPOSITECURVESEGMENT(.CONTINUOUS.,.T.,#220);
#222=IFCCOMPOSITECURVE((#153,#157,#161,#165,#169,#173,#177,#183,#187,#193,#197,#201,#205,#209,#213,#217,#221),.F.);
#223=IFCCARTESIANPOINT((-112.42119217455242,151.32513558072978));
#224=IFCCARTESIANPOINT((-112.93446246344458,154.2360360386738));
#225=IFCCARTESIANPOINT((-49.856744140807017,165.35833966048341));
#226=IFCCARTESIANPOINT((-49.368485161048149,162.58928538531183));
#227=IFCCARTESIANPOINT((-61.655765825381685,153.98563884004662));
#228=IFCPOLYLINE((#223,#224,#225,#226,#227,#223));
#229=IFCCARTESIANPOINT((-101.49492575497237,89.359199479066248));
#230=IFCCARTESIANPOINT((-111.41127450685171,145.59760787258799));
#231=IFCCARTESIANPOINT((-60.00464260144323,148.29171529117119));
#232=IFCCARTESIANPOINT((-50.088293849563883,92.053306897649364));
#233=IFCPOLYLINE((#229,#230,#231,#232,#229));
#234=IFCCARTESIANPOINT((-6.4324220671976731,-155.53144506124477));
#235=IFCCARTESIANPOINT((-57.682189012436503,-159.11517787657317));
#236=IFCCARTESIANPOINT((-67.57138315717134,-103.03077091286886));
#237=IFCCARTESIANPOINT((-16.164751251762837,-100.33666349428576));
#238=IFCPOLYLINE((#234,#235,#236,#237,#234));
#239=IFCCARTESIANPOINT((-49.220052961229221,87.129268132588308));
#240=IFCCARTESIANPOINT((-39.225607065902217,30.447948829267688));
#241=IFCCARTESIANPOINT((-90.632238971310727,27.75384141068459));
#242=IFCCARTESIANPOINT((-100.62668486663772,84.435160714005178));
#243=IFCPOLYLINE((#239,#240,#241,#242,#239));
#244=IFCCARTESIANPOINT((-38.192704994556152,24.590070090594146));
#245=IFCCARTESIANPOINT((-28.316112603374506,-31.422868777288667));
#246=IFCCARTESIANPOINT((-79.722744508782455,-34.1169761958717));
#247=IFCCARTESIANPOINT((-89.599336899964115,21.895962672011148));
#248=IFCPOLYLINE((#244,#245,#246,#247,#244));
#249=IFCCARTESIANPOINT((-27.331837417253645,-37.004970745833589));
#250=IFCCARTESIANPOINT((-17.414387028061203,-93.249626835021019));
#251=IFCCARTESIANPOINT((-68.821018933469688,-95.943734253604134));
#252=IFCCARTESIANPOINT((-78.738469322662141,-39.699078164416704));
#253=IFCPOLYLINE((#249,#250,#251,#252,#249));
#254=IFCARBITRARYPROFILEDEFWITHVOIDS(.AREA.,'SENAL-PARADERO-BUSES-SI08_METAL_H3.40m',#222,(#228,#233,#238,#243,#248,#253));
#255=IFCCARTESIANPOINT((2.0718145909730059,-30.,3128.3769894522356));
#256=IFCDIRECTION((0.17364817766693114,-0.,-0.98480775301220802));
#257=IFCAXIS2PLACEMENT3D(#255,#100,#256);
#258=IFCEXTRUDEDAREASOLID(#254,#257,#44,10.000000000000037);
#259=IFCCARTESIANPOINT((-1.3664916092328737E-029,-5.4143356464919636E-013));
#260=IFCAXIS2PLACEMENT2D(#259,#40);
#261=IFCCIRCLEHOLLOWPROFILEDEF(.AREA.,'SENAL-PARADERO-BUSES-SI08_METAL_H3.40m',#260,22.500000000000011,10.643620360982197);
#262=IFCCARTESIANPOINT((68.238469033521454,-30.,3115.0207065522968));
#263=IFCAXIS2PLACEMENT3D(#262,#100,#101);
#264=IFCEXTRUDEDAREASOLID(#261,#263,#44,10.000000000000041);
#265=IFCCARTESIANPOINT((0.,0.));
#266=IFCAXIS2PLACEMENT2D(#265,#40);
#267=IFCCIRCLEHOLLOWPROFILEDEF(.AREA.,'SENAL-PARADERO-BUSES-SI08_METAL_H3.40m',#266,22.500000000000011,10.643620360982197);
#268=IFCCARTESIANPOINT((-127.06464990186058,-30.,3115.0207065522968));
#269=IFCAXIS2PLACEMENT3D(#268,#100,#101);
#270=IFCEXTRUDEDAREASOLID(#267,#269,#44,10.000000000000041);
#271=IFCCARTESIANPOINT((-175.,-175.));
#272=IFCCARTESIANPOINT((175.,-175.));
#273=IFCCARTESIANPOINT((175.,175.));
#274=IFCCARTESIANPOINT((-175.,175.));
#275=IFCPOLYLINE((#271,#272,#273,#274,#271));
#276=IFCCARTESIANPOINT((-67.763820104894876,-159.40495717174494));
#277=IFCCARTESIANPOINT((-67.763820104894876,171.59504377638484));
#278=IFCPOLYLINE((#276,#277));
#279=IFCCOMPOSITECURVESEGMENT(.CONTINUOUS.,.T.,#278);
#280=IFCCARTESIANPOINT((-67.763820104894876,171.59504377638484));
#281=IFCCARTESIANPOINT((29.629198596215247,171.59504377638484));
#282=IFCPOLYLINE((#280,#281));
#283=IFCCOMPOSITECURVESEGMENT(.CONTINUOUS.,.T.,#282);
#284=IFCCARTESIANPOINT((29.629198596215247,171.59504377638484));
#285=IFCCARTESIANPOINT((29.629198596215247,173.75627085921775));
#286=IFCPOLYLINE((#284,#285));
#287=IFCCOMPOSITECURVESEGMENT(.CONTINUOUS.,.T.,#286);
#288=IFCCARTESIANPOINT((29.629198596215247,173.75627085921775));
#289=IFCCARTESIANPOINT((43.513638219492805,173.75627085921775));
#290=IFCPOLYLINE((#288,#289));
#291=IFCCOMPOSITECURVESEGMENT(.CONTINUOUS.,.T.,#290);
#292=IFCCARTESIANPOINT((43.513638219492805,173.75627085921775));
#293=IFCCARTESIANPOINT((43.513638219492805,167.03198687681186));
#294=IFCPOLYLINE((#292,#293));
#295=IFCCOMPOSITECURVESEGMENT(.CONTINUOUS.,.T.,#294);
#296=IFCCARTESIANPOINT((43.513638219492805,167.03198687681186));
#297=IFCCARTESIANPOINT((40.365181968989418,167.03198687681186));
#298=IFCPOLYLINE((#296,#297));
#299=IFCCOMPOSITECURVESEGMENT(.CONTINUOUS.,.T.,#298);
#300=IFCCARTESIANPOINT((40.365181968989418,167.03198687681186));
#301=IFCCARTESIANPOINT((40.365181968988963,153.00986354425271));
#302=IFCPOLYLINE((#300,#301));
#303=IFCCOMPOSITECURVESEGMENT(.CONTINUOUS.,.T.,#302);
#304=IFCCARTESIANPOINT((36.231349103441062,126.25986354425251));
#305=IFCAXIS2PLACEMENT2D(#304,#12);
#306=IFCCIRCLE(#305,27.06752803933696);
#307=IFCTRIMMEDCURVE(#306,(IFCPARAMETERVALUE(351.21524109294387)),(IFCPARAMETERVALUE(188.78475890705718)),.T.,.PARAMETER.);
#308=IFCCOMPOSITECURVESEGMENT(.CONTINUOUS.,.T.,#307);
#309=IFCCARTESIANPOINT((40.365181968989418,99.50986354425244));
#310=IFCCARTESIANPOINT((40.365181968988963,-41.355755391129428));
#311=IFCPOLYLINE((#309,#310));
#312=IFCCOMPOSITECURVESEGMENT(.CONTINUOUS.,.T.,#311);
#313=IFCCARTESIANPOINT((36.231349103441062,-68.105755391129563));
#314=IFCAXIS2PLACEMENT2D(#313,#12);
#315=IFCCIRCLE(#314,27.06752803933696);
#316=IFCTRIMMEDCURVE(#315,(IFCPARAMETERVALUE(351.21524109294262)),(IFCPARAMETERVALUE(188.78475890705718)),.T.,.PARAMETER.);
#317=IFCCOMPOSITECURVESEGMENT(.CONTINUOUS.,.T.,#316);
#318=IFCCARTESIANPOINT((40.365181968989873,-94.855755391129577));
#319=IFCCARTESIANPOINT((35.001206007568726,-164.14845170095211));
#320=IFCPOLYLINE((#318,#319));
#321=IFCCOMPOSITECURVESEGMENT(.CONTINUOUS.,.T.,#320);
#322=IFCCARTESIANPOINT((35.001206007568726,-164.14845170095211));
#323=IFCCARTESIANPOINT((37.501206007568271,-164.14845170095211));
#324=IFCPOLYLINE((#322,#323));
#325=IFCCOMPOSITECURVESEGMENT(.CONTINUOUS.,.T.,#324);
#326=IFCCARTESIANPOINT((37.501206007568271,-164.14845170095211));
#327=IFCCARTESIANPOINT((37.501206007568271,-173.64845170095211));
#328=IFCPOLYLINE((#326,#327));
#329=IFCCOMPOSITECURVESEGMENT(.CONTINUOUS.,.T.,#328);
#330=IFCCARTESIANPOINT((37.501206007568271,-173.64845170095211));
#331=IFCCARTESIANPOINT((24.501206007568726,-173.64845170095211));
#332=IFCPOLYLINE((#330,#331));
#333=IFCCOMPOSITECURVESEGMENT(.CONTINUOUS.,.T.,#332);
#334=IFCCARTESIANPOINT((24.501206007568726,-173.64845170095211));
#335=IFCCARTESIANPOINT((24.501206007568726,-170.64845170095211));
#336=IFCPOLYLINE((#334,#335));
#337=IFCCOMPOSITECURVESEGMENT(.CONTINUOUS.,.T.,#336);
#338=IFCCARTESIANPOINT((24.501206007568726,-170.64845170095211));
#339=IFCCARTESIANPOINT((-3.9987939924312741,-170.64845170095211));
#340=IFCPOLYLINE((#338,#339));
#341=IFCCOMPOSITECURVESEGMENT(.CONTINUOUS.,.T.,#340);
#342=IFCCARTESIANPOINT((-3.9987939924312741,-170.64845170095211));
#343=IFCCARTESIANPOINT((-67.763820104894876,-159.40495717174494));
#344=IFCPOLYLINE((#342,#343));
#345=IFCCOMPOSITECURVESEGMENT(.CONTINUOUS.,.T.,#344);
#346=IFCCOMPOSITECURVE((#279,#283,#287,#291,#295,#299,#303,#308,#312,#317,#321,#325,#329,#333,#337,#341,#345),.F.);
#347=IFCCARTESIANPOINT((34.979293447703185,127.06464990187042));
#348=IFCAXIS2PLACEMENT2D(#347,#12);
#349=IFCCIRCLE(#348,22.500000000000011);
#350=IFCTRIMMEDCURVE(#349,(IFCPARAMETERVALUE(359.99999999999864)),(IFCPARAMETERVALUE(179.99999999999983)),.T.,.PARAMETER.);
#351=IFCCOMPOSITECURVESEGMENT(.CONTINUOUS.,.F.,#350);
#352=IFCCARTESIANPOINT((34.979293447703185,127.06464990187042));
#353=IFCAXIS2PLACEMENT2D(#352,#12);
#354=IFCCIRCLE(#353,22.500000000000011);
#355=IFCTRIMMEDCURVE(#354,(IFCPARAMETERVALUE(179.99999999999989)),(IFCPARAMETERVALUE(1.3739996223922406E-012)),.T.,.PARAMETER.);
#356=IFCCOMPOSITECURVESEGMENT(.CONTINUOUS.,.F.,#355);
#357=IFCCOMPOSITECURVE((#351,#356),.F.);
#358=IFCCARTESIANPOINT((34.979293447703185,-68.238469033511635));
#359=IFCAXIS2PLACEMENT2D(#358,#12);
#360=IFCCIRCLE(#359,22.500000000000011);
#361=IFCTRIMMEDCURVE(#360,(IFCPARAMETERVALUE(359.99999999999864)),(IFCPARAMETERVALUE(179.99999999999983)),.T.,.PARAMETER.);
#362=IFCCOMPOSITECURVESEGMENT(.CONTINUOUS.,.F.,#361);
#363=IFCCARTESIANPOINT((34.979293447703185,-68.238469033511635));
#364=IFCAXIS2PLACEMENT2D(#363,#12);
#365=IFCCIRCLE(#364,22.500000000000011);
#366=IFCTRIMMEDCURVE(#365,(IFCPARAMETERVALUE(179.99999999999983)),(IFCPARAMETERVALUE(0.)),.T.,.PARAMETER.);
#367=IFCCOMPOSITECURVESEGMENT(.CONTINUOUS.,.F.,#366);
#368=IFCCOMPOSITECURVE((#362,#367),.F.);
#369=IFCARBITRARYPROFILEDEFWITHVOIDS(.AREA.,'SENAL-PARADERO-BUSES-SI08_METAL_H3.40m',#275,(#346,#357,#368));
#370=IFCCARTESIANPOINT((0.,-30.,3150.));
#371=IFCDIRECTION((0.,0.,-1.));
#372=IFCAXIS2PLACEMENT3D(#370,#100,#371);
#373=IFCEXTRUDEDAREASOLID(#369,#372,#44,9.9999999999999947);
#374=IFCCARTESIANPOINT((-1.3664916092328737E-029,0.));
#375=IFCAXIS2PLACEMENT2D(#374,#40);
#376=IFCCIRCLEPROFILEDEF(.AREA.,'SENAL-PARADERO-BUSES-SI08_METAL_H3.40m',#375,11.856379639017813);
#377=IFCCARTESIANPOINT((68.238469033521341,-30.,3115.0207065522968));
#378=IFCAXIS2PLACEMENT3D(#377,#100,#101);
#379=IFCEXTRUDEDAREASOLID(#376,#378,#44,9.9999999999999947);
#380=IFCCARTESIANPOINT((0.,0.));
#381=IFCAXIS2PLACEMENT2D(#380,#40);
#382=IFCCIRCLEPROFILEDEF(.AREA.,'SENAL-PARADERO-BUSES-SI08_METAL_H3.40m',#381,11.856379639017813);
#383=IFCCARTESIANPOINT((-127.06464990186061,-30.,3115.0207065522968));
#384=IFCAXIS2PLACEMENT3D(#383,#100,#101);
#385=IFCEXTRUDEDAREASOLID(#382,#384,#44,9.9999999999999947);
#386=IFCCARTESIANPOINT((-28.339240881846447,-2.9837245034374438));
#387=IFCCARTESIANPOINT((35.711552919993871,-2.9837245034374438));
#388=IFCCARTESIANPOINT((35.711552919993871,-0.027918713890674685));
#389=IFCCARTESIANPOINT((-14.744624076296466,6.1673208234380343));
#390=IFCCARTESIANPOINT((-28.339240881846447,-0.1719531026723371));
#391=IFCPOLYLINE((#386,#387,#388,#389,#390,#386));
#392=IFCARBITRARYCLOSEDPROFILEDEF(.AREA.,'SENAL-PARADERO-BUSES-SI08_METAL_H3.40m',#391);
#393=IFCCARTESIANPOINT((-166.44816859291711,-30.,3177.1013641598229));
#394=IFCAXIS2PLACEMENT3D(#393,#100,#44);
#395=IFCEXTRUDEDAREASOLID(#392,#394,#44,10.000000000000007);
#396=IFCCARTESIANPOINT((-31.914605047242752,-25.54673825018347));
#397=IFCCARTESIANPOINT((25.641114970142279,-25.54673825018347));
#398=IFCCARTESIANPOINT((31.914605047242802,25.54673825018347));
#399=IFCCARTESIANPOINT((-25.641114970142297,25.54673825018347));
#400=IFCPOLYLINE((#396,#397,#398,#399,#396));
#401=IFCARBITRARYCLOSEDPROFILEDEF(.AREA.,'SENAL-PARADERO-BUSES-SI08_METAL_H3.40m',#400);
#402=IFCCARTESIANPOINT((-66.639621711524498,-30.,3187.2661788296332));
#403=IFCDIRECTION((1.,0.,0.));
#404=IFCAXIS2PLACEMENT3D(#402,#100,#403);
#405=IFCEXTRUDEDAREASOLID(#401,#404,#44,10.000000000000007);
#406=IFCCARTESIANPOINT((-22.258855865636704,-28.340158601864172));
#407=IFCCARTESIANPOINT((29.218323725333754,-28.340158601864175));
#408=IFCCARTESIANPOINT((22.258855865636711,28.340158601864122));
#409=IFCCARTESIANPOINT((-29.218323725333764,28.340158601864228));
#410=IFCPOLYLINE((#406,#407,#408,#409,#406));
#411=IFCARBITRARYCLOSEDPROFILEDEF(.AREA.,'SENAL-PARADERO-BUSES-SI08_METAL_H3.40m',#410);
#412=IFCCARTESIANPOINT((-128.97046996665725,-30.,3187.2661788296332));
#413=IFCDIRECTION((-0.12186934340514605,0.,0.99254615164132221));
#414=IFCAXIS2PLACEMENT3D(#412,#100,#413);
#415=IFCEXTRUDEDAREASOLID(#411,#414,#44,10.000000000000005);
#416=IFCCARTESIANPOINT((-31.575259406739093,-25.54673825018347));
#417=IFCCARTESIANPOINT((25.301769329638603,-25.54673825018347));
#418=IFCCARTESIANPOINT((31.575259406739061,25.54673825018347));
#419=IFCCARTESIANPOINT((-25.301769329638571,25.54673825018347));
#420=IFCPOLYLINE((#416,#417,#418,#419,#416));
#421=IFCARBITRARYCLOSEDPROFILEDEF(.AREA.,'SENAL-PARADERO-BUSES-SI08_METAL_H3.40m',#420);
#422=IFCCARTESIANPOINT((-3.4750013741944485,-30.,3187.2661788296332));
#423=IFCAXIS2PLACEMENT3D(#422,#100,#101);
#424=IFCEXTRUDEDAREASOLID(#421,#423,#44,10.000000000000007);
#425=IFCCARTESIANPOINT((-31.692905323211541,-25.54673825018347));
#426=IFCCARTESIANPOINT((25.419415246111051,-25.54673825018347));
#427=IFCCARTESIANPOINT((31.692905323211576,25.54673825018347));
#428=IFCCARTESIANPOINT((-25.419415246111086,25.54673825018347));
#429=IFCPOLYLINE((#425,#426,#427,#428,#425));
#430=IFCARBITRARYCLOSEDPROFILEDEF(.AREA.,'SENAL-PARADERO-BUSES-SI08_METAL_H3.40m',#429);
#431=IFCCARTESIANPOINT((59.187888167776045,-30.,3187.2661788296332));
#432=IFCAXIS2PLACEMENT3D(#431,#100,#101);
#433=IFCEXTRUDEDAREASOLID(#430,#432,#44,10.000000000000007);
#434=IFCCARTESIANPOINT((-22.295907302529297,-28.038398864156218));
#435=IFCCARTESIANPOINT((29.181272288441168,-28.038398864156218));
#436=IFCCARTESIANPOINT((22.24086200935087,28.486706801030795));
#437=IFCCARTESIANPOINT((-29.126226995262737,27.590090927281675));
#438=IFCPOLYLINE((#434,#435,#436,#437,#434));
#439=IFCARBITRARYCLOSEDPROFILEDEF(.AREA.,'SENAL-PARADERO-BUSES-SI08_METAL_H3.40m',#438);
#440=IFCCARTESIANPOINT((123.18937642143621,-30.,3187.2661788296332));
#441=IFCDIRECTION((-0.12186934340514799,0.,0.99254615164132198));
#442=IFCAXIS2PLACEMENT3D(#440,#100,#441);
#443=IFCEXTRUDEDAREASOLID(#439,#442,#44,10.000000000000007);
#444=IFCCARTESIANPOINT((-175.,-175.));
#445=IFCCARTESIANPOINT((175.,-175.));
#446=IFCCARTESIANPOINT((175.,175.));
#447=IFCCARTESIANPOINT((-175.,175.));
#448=IFCPOLYLINE((#444,#445,#446,#447,#444));
#449=IFCCARTESIANPOINT((-67.76382010489624,-159.40495717174491));
#450=IFCCARTESIANPOINT((-67.76382010489624,171.59504377638484));
#451=IFCPOLYLINE((#449,#450));
#452=IFCCOMPOSITECURVESEGMENT(.CONTINUOUS.,.T.,#451);
#453=IFCCARTESIANPOINT((-67.76382010489624,171.59504377638484));
#454=IFCCARTESIANPOINT((29.629198596215247,171.59504377638484));
#455=IFCPOLYLINE((#453,#454));
#456=IFCCOMPOSITECURVESEGMENT(.CONTINUOUS.,.T.,#455);
#457=IFCCARTESIANPOINT((29.629198596215247,171.59504377638484));
#458=IFCCARTESIANPOINT((29.629198596215247,173.75627085920794));
#459=IFCPOLYLINE((#457,#458));
#460=IFCCOMPOSITECURVESEGMENT(.CONTINUOUS.,.T.,#459);
#461=IFCCARTESIANPOINT((29.629198596215247,173.75627085920794));
#462=IFCCARTESIANPOINT((43.513638219491895,173.75627085920794));
#463=IFCPOLYLINE((#461,#462));
#464=IFCCOMPOSITECURVESEGMENT(.CONTINUOUS.,.T.,#463);
#465=IFCCARTESIANPOINT((43.513638219491895,173.75627085920794));
#466=IFCCARTESIANPOINT((43.513638219491895,167.03198687680199));
#467=IFCPOLYLINE((#465,#466));
#468=IFCCOMPOSITECURVESEGMENT(.CONTINUOUS.,.T.,#467);
#469=IFCCARTESIANPOINT((43.513638219491895,167.03198687680199));
#470=IFCCARTESIANPOINT((40.365181968988509,167.03198687680199));
#471=IFCPOLYLINE((#469,#470));
#472=IFCCOMPOSITECURVESEGMENT(.CONTINUOUS.,.T.,#471);
#473=IFCCARTESIANPOINT((40.365181968988509,167.03198687680199));
#474=IFCCARTESIANPOINT((40.365181968988963,153.00986354424273));
#475=IFCPOLYLINE((#473,#474));
#476=IFCCOMPOSITECURVESEGMENT(.CONTINUOUS.,.T.,#475);
#477=IFCCARTESIANPOINT((36.231349103440607,126.25986354424266));
#478=IFCAXIS2PLACEMENT2D(#477,#12);
#479=IFCCIRCLE(#478,27.06752803933696);
#480=IFCTRIMMEDCURVE(#479,(IFCPARAMETERVALUE(351.21524109294268)),(IFCPARAMETERVALUE(188.78475890705712)),.T.,.PARAMETER.);
#481=IFCCOMPOSITECURVESEGMENT(.CONTINUOUS.,.T.,#480);
#482=IFCCARTESIANPOINT((40.365181968988509,99.509863544242577));
#483=IFCCARTESIANPOINT((40.365181968989418,-41.355755391129563));
#484=IFCPOLYLINE((#482,#483));
#485=IFCCOMPOSITECURVESEGMENT(.CONTINUOUS.,.T.,#484);
#486=IFCCARTESIANPOINT((36.231349103440607,-68.105755391129577));
#487=IFCAXIS2PLACEMENT2D(#486,#12);
#488=IFCCIRCLE(#487,27.06752803933696);
#489=IFCTRIMMEDCURVE(#488,(IFCPARAMETERVALUE(351.21524109294154)),(IFCPARAMETERVALUE(188.78475890705826)),.T.,.PARAMETER.);
#490=IFCCOMPOSITECURVESEGMENT(.CONTINUOUS.,.T.,#489);
#491=IFCCARTESIANPOINT((40.365181968988509,-94.85575539112962));
#492=IFCCARTESIANPOINT((35.001206007567362,-164.14845170095205));
#493=IFCPOLYLINE((#491,#492));
#494=IFCCOMPOSITECURVESEGMENT(.CONTINUOUS.,.T.,#493);
#495=IFCCARTESIANPOINT((35.001206007567362,-164.14845170095205));
#496=IFCCARTESIANPOINT((37.501206007566907,-164.14845170095205));
#497=IFCPOLYLINE((#495,#496));
#498=IFCCOMPOSITECURVESEGMENT(.CONTINUOUS.,.T.,#497);
#499=IFCCARTESIANPOINT((37.501206007566907,-164.14845170095205));
#500=IFCCARTESIANPOINT((37.501206007566907,-173.64845170095205));
#501=IFCPOLYLINE((#499,#500));
#502=IFCCOMPOSITECURVESEGMENT(.CONTINUOUS.,.T.,#501);
#503=IFCCARTESIANPOINT((37.501206007566907,-173.64845170095205));
#504=IFCCARTESIANPOINT((24.501206007566907,-173.64845170095205));
#505=IFCPOLYLINE((#503,#504));
#506=IFCCOMPOSITECURVESEGMENT(.CONTINUOUS.,.T.,#505);
#507=IFCCARTESIANPOINT((24.501206007566907,-173.64845170095205));
#508=IFCCARTESIANPOINT((24.501206007566907,-170.64845170095205));
#509=IFCPOLYLINE((#507,#508));
#510=IFCCOMPOSITECURVESEGMENT(.CONTINUOUS.,.T.,#509);
#511=IFCCARTESIANPOINT((24.501206007566907,-170.64845170095205));
#512=IFCCARTESIANPOINT((-3.9987939924330931,-170.64845170095205));
#513=IFCPOLYLINE((#511,#512));
#514=IFCCOMPOSITECURVESEGMENT(.CONTINUOUS.,.T.,#513);
#515=IFCCARTESIANPOINT((-3.9987939924330931,-170.64845170095205));
#516=IFCCARTESIANPOINT((-67.76382010489624,-159.40495717174491));
#517=IFCPOLYLINE((#515,#516));
#518=IFCCOMPOSITECURVESEGMENT(.CONTINUOUS.,.T.,#517);
#519=IFCCOMPOSITECURVE((#452,#456,#460,#464,#468,#472,#476,#481,#485,#490,#494,#498,#502,#506,#510,#514,#518),.F.);
#520=IFCCARTESIANPOINT((34.979293447701821,127.06464990186058));
#521=IFCAXIS2PLACEMENT2D(#520,#12);
#522=IFCCIRCLE(#521,22.500000000000011);
#523=IFCTRIMMEDCURVE(#522,(IFCPARAMETERVALUE(359.99999999999864)),(IFCPARAMETERVALUE(180.00000000000011)),.T.,.PARAMETER.);
#524=IFCCOMPOSITECURVESEGMENT(.CONTINUOUS.,.F.,#523);
#525=IFCCARTESIANPOINT((34.979293447701821,127.06464990186058));
#526=IFCAXIS2PLACEMENT2D(#525,#12);
#527=IFCCIRCLE(#526,22.500000000000011);
#528=IFCTRIMMEDCURVE(#527,(IFCPARAMETERVALUE(179.99999999999881)),(IFCPARAMETERVALUE(359.99999999999864)),.T.,.PARAMETER.);
#529=IFCCOMPOSITECURVESEGMENT(.CONTINUOUS.,.F.,#528);
#530=IFCCOMPOSITECURVE((#524,#529),.F.);
#531=IFCCARTESIANPOINT((34.979293447701366,-68.238469033511649));
#532=IFCAXIS2PLACEMENT2D(#531,#12);
#533=IFCCIRCLE(#532,22.500000000000011);
#534=IFCTRIMMEDCURVE(#533,(IFCPARAMETERVALUE(359.99999999999864)),(IFCPARAMETERVALUE(180.00000000000011)),.T.,.PARAMETER.);
#535=IFCCOMPOSITECURVESEGMENT(.CONTINUOUS.,.F.,#534);
#536=IFCCARTESIANPOINT((34.979293447701366,-68.238469033511649));
#537=IFCAXIS2PLACEMENT2D(#536,#12);
#538=IFCCIRCLE(#537,22.500000000000011);
#539=IFCTRIMMEDCURVE(#538,(IFCPARAMETERVALUE(179.99999999999881)),(IFCPARAMETERVALUE(359.99999999999864)),.T.,.PARAMETER.);
#540=IFCCOMPOSITECURVESEGMENT(.CONTINUOUS.,.F.,#539);
#541=IFCCOMPOSITECURVE((#535,#540),.F.);
#542=IFCARBITRARYPROFILEDEFWITHVOIDS(.AREA.,'SENAL-PARADERO-BUSES-SI08_METAL_H3.40m',#448,(#519,#530,#541));
#543=IFCCARTESIANPOINT((0.,20.,3150.));
#544=IFCAXIS2PLACEMENT3D(#543,#100,#371);
#545=IFCEXTRUDEDAREASOLID(#542,#544,#44,9.9999999999999947);
#546=IFCCARTESIANPOINT((0.,0.));
#547=IFCAXIS2PLACEMENT2D(#546,#40);
#548=IFCCIRCLEPROFILEDEF(.AREA.,'SENAL-PARADERO-BUSES-SI08_METAL_H3.40m',#547,11.856379639017813);
#549=IFCCARTESIANPOINT((-127.06464990186058,20.,3115.0207065522982));
#550=IFCAXIS2PLACEMENT3D(#549,#100,#101);
#551=IFCEXTRUDEDAREASOLID(#548,#550,#44,9.9999999999999947);
#552=IFCCARTESIANPOINT((0.,0.));
#553=IFCAXIS2PLACEMENT2D(#552,#40);
#554=IFCCIRCLEPROFILEDEF(.AREA.,'SENAL-PARADERO-BUSES-SI08_METAL_H3.40m',#553,11.856379639017813);
#555=IFCCARTESIANPOINT((68.238469033511535,20.,3115.0207065522982));
#556=IFCAXIS2PLACEMENT3D(#555,#100,#101);
#557=IFCEXTRUDEDAREASOLID(#554,#556,#44,9.9999999999999947);
#558=IFCCARTESIANPOINT((-28.339240881846447,-2.9837245034374775));
#559=IFCCARTESIANPOINT((35.711552919993871,-2.9837245034374775));
#560=IFCCARTESIANPOINT((35.711552919993871,-0.027918713890708526));
#561=IFCCARTESIANPOINT((-14.744624076296466,6.1673208234380006));
#562=IFCCARTESIANPOINT((-28.339240881846447,-0.17195310267237093));
#563=IFCPOLYLINE((#558,#559,#560,#561,#562,#558));
#564=IFCARBITRARYCLOSEDPROFILEDEF(.AREA.,'SENAL-PARADERO-BUSES-SI08_METAL_H3.40m',#563);
#565=IFCCARTESIANPOINT((-166.44816859291703,20.,3177.1013641598229));
#566=IFCAXIS2PLACEMENT3D(#565,#100,#44);
#567=IFCEXTRUDEDAREASOLID(#564,#566,#44,10.000000000000007);
#568=IFCCARTESIANPOINT((-22.295907302529319,-28.038398864156221));
#569=IFCCARTESIANPOINT((29.18127228844115,-28.038398864156221));
#570=IFCCARTESIANPOINT((22.240862009350895,28.486706801030731));
#571=IFCCARTESIANPOINT((-29.126226995262726,27.590090927281711));
#572=IFCPOLYLINE((#568,#569,#570,#571,#568));
#573=IFCARBITRARYCLOSEDPROFILEDEF(.AREA.,'SENAL-PARADERO-BUSES-SI08_METAL_H3.40m',#572);
#574=IFCCARTESIANPOINT((123.18937642142639,20.,3187.2661788296332));
#575=IFCDIRECTION((-0.12186934340514735,-0.,0.99254615164132209));
#576=IFCAXIS2PLACEMENT3D(#574,#100,#575);
#577=IFCEXTRUDEDAREASOLID(#573,#576,#44,10.000000000000005);
#578=IFCCARTESIANPOINT((-22.258855865636708,-28.340158601864154));
#579=IFCCARTESIANPOINT((29.218323725333754,-28.340158601864161));
#580=IFCCARTESIANPOINT((22.258855865636711,28.340158601864122));
#581=IFCCARTESIANPOINT((-29.218323725333764,28.340158601864228));
#582=IFCPOLYLINE((#578,#579,#580,#581,#578));
#583=IFCARBITRARYCLOSEDPROFILEDEF(.AREA.,'SENAL-PARADERO-BUSES-SI08_METAL_H3.40m',#582);
#584=IFCCARTESIANPOINT((-128.97046996665719,20.,3187.2661788296332));
#585=IFCDIRECTION((-0.12186934340514605,-0.,0.99254615164132221));
#586=IFCAXIS2PLACEMENT3D(#584,#100,#585);
#587=IFCEXTRUDEDAREASOLID(#583,#586,#44,10.000000000000005);
#588=IFCCARTESIANPOINT((-31.914605047242752,-25.54673825018347));
#589=IFCCARTESIANPOINT((25.641114970142262,-25.54673825018347));
#590=IFCCARTESIANPOINT((31.914605047242802,25.54673825018347));
#591=IFCCARTESIANPOINT((-25.641114970142297,25.54673825018347));
#592=IFCPOLYLINE((#588,#589,#590,#591,#588));
#593=IFCARBITRARYCLOSEDPROFILEDEF(.AREA.,'SENAL-PARADERO-BUSES-SI08_METAL_H3.40m',#592);
#594=IFCCARTESIANPOINT((-66.639621711524455,20.,3187.2661788296332));
#595=IFCAXIS2PLACEMENT3D(#594,#100,#403);
#596=IFCEXTRUDEDAREASOLID(#593,#595,#44,10.000000000000007);
#597=IFCCARTESIANPOINT((-31.575259406739089,-25.54673825018347));
#598=IFCCARTESIANPOINT((25.301769329638592,-25.54673825018347));
#599=IFCCARTESIANPOINT((31.575259406739065,25.54673825018347));
#600=IFCCARTESIANPOINT((-25.301769329638567,25.54673825018347));
#601=IFCPOLYLINE((#597,#598,#599,#600,#597));
#602=IFCARBITRARYCLOSEDPROFILEDEF(.AREA.,'SENAL-PARADERO-BUSES-SI08_METAL_H3.40m',#601);
#603=IFCCARTESIANPOINT((-3.4750013741944104,20.,3187.2661788296332));
#604=IFCAXIS2PLACEMENT3D(#603,#100,#101);
#605=IFCEXTRUDEDAREASOLID(#602,#604,#44,10.000000000000007);
#606=IFCCARTESIANPOINT((-31.692905323206627,-25.54673825018347));
#607=IFCCARTESIANPOINT((25.419415246106119,-25.54673825018347));
#608=IFCCARTESIANPOINT((31.692905323206642,25.54673825018347));
#609=IFCCARTESIANPOINT((-25.419415246106137,25.54673825018347));
#610=IFCPOLYLINE((#606,#607,#608,#609,#606));
#611=IFCARBITRARYCLOSEDPROFILEDEF(.AREA.,'SENAL-PARADERO-BUSES-SI08_METAL_H3.40m',#610);
#612=IFCCARTESIANPOINT((59.187888167771149,20.,3187.2661788296332));
#613=IFCAXIS2PLACEMENT3D(#612,#100,#101);
#614=IFCEXTRUDEDAREASOLID(#611,#613,#44,10.000000000000007);
#615=IFCCARTESIANPOINT((-60.708230348164733,-170.46475886958109));
#616=IFCCARTESIANPOINT((4.0404740740207075,-170.46475886958106));
#617=IFCPOLYLINE((#615,#616));
#618=IFCCOMPOSITECURVESEGMENT(.CONTINUOUS.,.T.,#617);
#619=IFCCARTESIANPOINT((4.0404740740207075,-170.46475886958106));
#620=IFCCARTESIANPOINT((32.107495034868634,-165.51578580607355));
#621=IFCPOLYLINE((#619,#620));
#622=IFCCOMPOSITECURVESEGMENT(.CONTINUOUS.,.T.,#621);
#623=IFCCARTESIANPOINT((32.107495034868634,-165.51578580607355));
#624=IFCCARTESIANPOINT((32.628439567869428,-168.4702090651102));
#625=IFCPOLYLINE((#623,#624));
#626=IFCCOMPOSITECURVESEGMENT(.CONTINUOUS.,.T.,#625);
#627=IFCCARTESIANPOINT((32.628439567869428,-168.4702090651102));
#628=IFCCARTESIANPOINT((45.430940357028135,-166.21278275544012));
#629=IFCPOLYLINE((#627,#628));
#630=IFCCOMPOSITECURVESEGMENT(.CONTINUOUS.,.T.,#629);
#631=IFCCARTESIANPOINT((45.430940357028135,-166.21278275544012));
#632=IFCCARTESIANPOINT((43.781282669192287,-156.85710910182414));
#633=IFCPOLYLINE((#631,#632));
#634=IFCCOMPOSITECURVESEGMENT(.CONTINUOUS.,.T.,#633);
#635=IFCCARTESIANPOINT((43.781282669192287,-156.85710910182414));
#636=IFCCARTESIANPOINT((41.319263286661766,-157.29122954599146));
#637=IFCPOLYLINE((#635,#636));
#638=IFCCOMPOSITECURVESEGMENT(.CONTINUOUS.,.T.,#637);
#639=IFCCARTESIANPOINT((41.319263286661766,-157.29122954599146));
#640=IFCCARTESIANPOINT((34.569197960612115,-88.119800342207782));
#641=IFCPOLYLINE((#639,#640));
#642=IFCCOMPOSITECURVESEGMENT(.CONTINUOUS.,.T.,#641);
#643=IFCCARTESIANPOINT((25.853078552373013,-62.494025493013304));
#644=IFCDIRECTION((-0.1736481776670189,0.98480775301220547));
#645=IFCAXIS2PLACEMENT2D(#643,#644);
#646=IFCCIRCLE(#645,27.06752803933696);
#647=IFCTRIMMEDCURVE(#646,(IFCPARAMETERVALUE(351.21524109294268)),(IFCPARAMETERVALUE(188.78475890705718)),.T.,.PARAMETER.);
#648=IFCCOMPOSITECURVESEGMENT(.CONTINUOUS.,.F.,#647);
#649=IFCCARTESIANPOINT((25.279020455430818,-35.432585556054498));
#650=IFCCARTESIANPOINT((0.81796243137869951,103.29296810436293));
#651=IFCPOLYLINE((#649,#650));
#652=IFCCOMPOSITECURVESEGMENT(.CONTINUOUS.,.T.,#651);
#653=IFCCARTESIANPOINT((-7.8981569768595232,128.91874295355763));
#654=IFCDIRECTION((-0.1736481776670189,0.98480775301220547));
#655=IFCAXIS2PLACEMENT2D(#653,#654);
#656=IFCCIRCLE(#655,27.06752803933696);
#657=IFCTRIMMEDCURVE(#656,(IFCPARAMETERVALUE(351.21524109294154)),(IFCPARAMETERVALUE(188.78475890705718)),.T.,.PARAMETER.);
#658=IFCCOMPOSITECURVESEGMENT(.CONTINUOUS.,.F.,#657);
#659=IFCCARTESIANPOINT((-8.4722150738012552,155.9801828905164));
#660=IFCCARTESIANPOINT((-10.90713123752202,169.78927866211401));
#661=IFCPOLYLINE((#659,#660));
#662=IFCCOMPOSITECURVESEGMENT(.CONTINUOUS.,.T.,#661);
#663=IFCCARTESIANPOINT((-10.90713123752202,169.78927866211401));
#664=IFCCARTESIANPOINT((-7.806507112006539,170.33600235247798));
#665=IFCPOLYLINE((#663,#664));
#666=IFCCOMPOSITECURVESEGMENT(.CONTINUOUS.,.T.,#665);
#667=IFCCARTESIANPOINT((-7.806507112006539,170.33600235247798));
#668=IFCCARTESIANPOINT((-8.9741667716663081,176.95812935180737));
#669=IFCPOLYLINE((#667,#668));
#670=IFCCOMPOSITECURVESEGMENT(.CONTINUOUS.,.T.,#669);
#671=IFCCARTESIANPOINT((-8.9741667716663081,176.95812935180737));
#672=IFCCARTESIANPOINT((-22.647670558899051,174.54712171329885));
#673=IFCPOLYLINE((#671,#672));
#674=IFCCOMPOSITECURVESEGMENT(.CONTINUOUS.,.T.,#673);
#675=IFCCARTESIANPOINT((-22.647670558899051,174.54712171329885));
#676=IFCCARTESIANPOINT((-22.272377414441245,172.41872852610814));
#677=IFCPOLYLINE((#675,#676));
#678=IFCCOMPOSITECURVESEGMENT(.CONTINUOUS.,.T.,#677);
#679=IFCCARTESIANPOINT((-22.272377414441245,172.41872852610814));
#680=IFCCARTESIANPOINT((-118.18577732055881,155.50660831117889));
#681=IFCPOLYLINE((#679,#680));
#682=IFCCOMPOSITECURVESEGMENT(.CONTINUOUS.,.T.,#681);
#683=IFCCARTESIANPOINT((-118.18577732055881,155.50660831117889));
#684=IFCCARTESIANPOINT((-60.708230348164733,-170.46475886958109));
#685=IFCPOLYLINE((#683,#684));
#686=IFCCOMPOSITECURVESEGMENT(.CONTINUOUS.,.T.,#685);
#687=IFCCOMPOSITECURVE((#618,#622,#626,#630,#634,#638,#642,#648,#652,#658,#662,#666,#670,#674,#678,#682,#686),.F.);
#688=IFCCARTESIANPOINT((-112.42119217455151,151.32513558072458));
#689=IFCCARTESIANPOINT((-112.93446246344367,154.2360360386686));
#690=IFCCARTESIANPOINT((-49.856744140804516,165.35833966047861));
#691=IFCCARTESIANPOINT((-49.368485161045641,162.58928538530699));
#692=IFCCARTESIANPOINT((-61.655765825380755,153.98563884004139));
#693=IFCPOLYLINE((#688,#689,#690,#691,#692,#688));
#694=IFCCARTESIANPOINT((-101.49492575497148,89.359199479061118));
#695=IFCCARTESIANPOINT((-111.41127450685079,145.59760787258284));
#696=IFCCARTESIANPOINT((-60.004642601442306,148.29171529116601));
#697=IFCCARTESIANPOINT((-50.088293849562987,92.053306897644262));
#698=IFCPOLYLINE((#694,#695,#696,#697,#694));
#699=IFCCARTESIANPOINT((-6.4324220671984902,-155.53144506124013));
#700=IFCCARTESIANPOINT((-57.682189012437313,-159.11517787656854));
#701=IFCCARTESIANPOINT((-67.57138315717215,-103.03077091286426));
#702=IFCCARTESIANPOINT((-16.164751251763654,-100.33666349428114));
#703=IFCPOLYLINE((#699,#700,#701,#702,#699));
#704=IFCCARTESIANPOINT((-49.220052961228326,87.129268132583235));
#705=IFCCARTESIANPOINT((-39.225607065901315,30.447948829262565));
#706=IFCCARTESIANPOINT((-90.632238971309803,27.753841410679488));
#707=IFCCARTESIANPOINT((-100.62668486663682,84.435160714000105));
#708=IFCPOLYLINE((#704,#705,#706,#707,#704));
#709=IFCCARTESIANPOINT((-38.192704994554717,24.590070090589172));
#710=IFCCARTESIANPOINT((-28.316112603373071,-31.422868777293672));
#711=IFCCARTESIANPOINT((-79.72274450878156,-34.116976195876802));
#712=IFCCARTESIANPOINT((-89.599336899963205,21.895962672006064));
#713=IFCPOLYLINE((#709,#710,#711,#712,#709));
#714=IFCCARTESIANPOINT((-27.33183741725275,-37.004970745838662));
#715=IFCCARTESIANPOINT((-17.414387028062023,-93.249626835016372));
#716=IFCCARTESIANPOINT((-68.821018933470512,-95.943734253599487));
#717=IFCCARTESIANPOINT((-78.738469322661246,-39.699078164421785));
#718=IFCPOLYLINE((#714,#715,#716,#717,#714));
#719=IFCARBITRARYPROFILEDEFWITHVOIDS(.AREA.,'SENAL-PARADERO-BUSES-SI08_METAL_H3.40m',#687,(#693,#698,#703,#708,#713,#718));
#720=IFCCARTESIANPOINT((2.0718145909678944,20.,3128.376989452237));
#721=IFCDIRECTION((0.17364817766693114,0.,-0.98480775301220802));
#722=IFCAXIS2PLACEMENT3D(#720,#100,#721);
#723=IFCEXTRUDEDAREASOLID(#719,#722,#44,10.000000000000043);
#724=IFCCARTESIANPOINT((0.,0.));
#725=IFCAXIS2PLACEMENT2D(#724,#40);
#726=IFCCIRCLEHOLLOWPROFILEDEF(.AREA.,'SENAL-PARADERO-BUSES-SI08_METAL_H3.40m',#725,22.500000000000011,10.643620360982197);
#727=IFCCARTESIANPOINT((-127.06464990186053,20.,3115.0207065522977));
#728=IFCAXIS2PLACEMENT3D(#727,#100,#101);
#729=IFCEXTRUDEDAREASOLID(#726,#728,#44,10.000000000000044);
#730=IFCCARTESIANPOINT((0.,0.));
#731=IFCAXIS2PLACEMENT2D(#730,#40);
#732=IFCCIRCLEHOLLOWPROFILEDEF(.AREA.,'SENAL-PARADERO-BUSES-SI08_METAL_H3.40m',#731,22.500000000000011,10.643620360982197);
#733=IFCCARTESIANPOINT((68.238469033511606,20.,3115.0207065522982));
#734=IFCAXIS2PLACEMENT3D(#733,#100,#101);
#735=IFCEXTRUDEDAREASOLID(#732,#734,#44,10.000000000000044);
#736=IFCCARTESIANPOINT((-175.,-175.));
#737=IFCCARTESIANPOINT((175.,-175.));
#738=IFCCARTESIANPOINT((175.,175.));
#739=IFCCARTESIANPOINT((-175.,175.));
#740=IFCPOLYLINE((#736,#737,#738,#739,#736));
#741=IFCCARTESIANPOINT((-67.76382010489624,-159.40495717174491));
#742=IFCCARTESIANPOINT((-67.76382010489624,171.59504377638484));
#743=IFCPOLYLINE((#741,#742));
#744=IFCCOMPOSITECURVESEGMENT(.CONTINUOUS.,.T.,#743);
#745=IFCCARTESIANPOINT((-67.76382010489624,171.59504377638484));
#746=IFCCARTESIANPOINT((29.629198596215247,171.59504377638484));
#747=IFCPOLYLINE((#745,#746));
#748=IFCCOMPOSITECURVESEGMENT(.CONTINUOUS.,.T.,#747);
#749=IFCCARTESIANPOINT((29.629198596215247,171.59504377638484));
#750=IFCCARTESIANPOINT((29.629198596215247,173.75627085920794));
#751=IFCPOLYLINE((#749,#750));
#752=IFCCOMPOSITECURVESEGMENT(.CONTINUOUS.,.T.,#751);
#753=IFCCARTESIANPOINT((29.629198596215247,173.75627085920794));
#754=IFCCARTESIANPOINT((43.513638219491895,173.75627085920794));
#755=IFCPOLYLINE((#753,#754));
#756=IFCCOMPOSITECURVESEGMENT(.CONTINUOUS.,.T.,#755);
#757=IFCCARTESIANPOINT((43.513638219491895,173.75627085920794));
#758=IFCCARTESIANPOINT((43.513638219491895,167.03198687680199));
#759=IFCPOLYLINE((#757,#758));
#760=IFCCOMPOSITECURVESEGMENT(.CONTINUOUS.,.T.,#759);
#761=IFCCARTESIANPOINT((43.513638219491895,167.03198687680199));
#762=IFCCARTESIANPOINT((40.365181968988509,167.03198687680199));
#763=IFCPOLYLINE((#761,#762));
#764=IFCCOMPOSITECURVESEGMENT(.CONTINUOUS.,.T.,#763);
#765=IFCCARTESIANPOINT((40.365181968988509,167.03198687680199));
#766=IFCCARTESIANPOINT((40.365181968988963,153.00986354424273));
#767=IFCPOLYLINE((#765,#766));
#768=IFCCOMPOSITECURVESEGMENT(.CONTINUOUS.,.T.,#767);
#769=IFCCARTESIANPOINT((36.231349103440607,126.25986354424266));
#770=IFCAXIS2PLACEMENT2D(#769,#12);
#771=IFCCIRCLE(#770,27.06752803933696);
#772=IFCTRIMMEDCURVE(#771,(IFCPARAMETERVALUE(351.21524109294268)),(IFCPARAMETERVALUE(188.78475890705712)),.T.,.PARAMETER.);
#773=IFCCOMPOSITECURVESEGMENT(.CONTINUOUS.,.T.,#772);
#774=IFCCARTESIANPOINT((40.365181968988509,99.509863544242577));
#775=IFCCARTESIANPOINT((40.365181968988963,-41.355755391129563));
#776=IFCPOLYLINE((#774,#775));
#777=IFCCOMPOSITECURVESEGMENT(.CONTINUOUS.,.T.,#776);
#778=IFCCARTESIANPOINT((36.231349103440152,-68.105755391129577));
#779=IFCAXIS2PLACEMENT2D(#778,#12);
#780=IFCCIRCLE(#779,27.06752803933696);
#781=IFCTRIMMEDCURVE(#780,(IFCPARAMETERVALUE(351.21524109294154)),(IFCPARAMETERVALUE(188.78475890705826)),.T.,.PARAMETER.);
#782=IFCCOMPOSITECURVESEGMENT(.CONTINUOUS.,.T.,#781);
#783=IFCCARTESIANPOINT((40.365181968988509,-94.85575539112962));
#784=IFCCARTESIANPOINT((35.001206007567362,-164.14845170095205));
#785=IFCPOLYLINE((#783,#784));
#786=IFCCOMPOSITECURVESEGMENT(.CONTINUOUS.,.T.,#785);
#787=IFCCARTESIANPOINT((35.001206007567362,-164.14845170095205));
#788=IFCCARTESIANPOINT((37.501206007566907,-164.14845170095205));
#789=IFCPOLYLINE((#787,#788));
#790=IFCCOMPOSITECURVESEGMENT(.CONTINUOUS.,.T.,#789);
#791=IFCCARTESIANPOINT((37.501206007566907,-164.14845170095205));
#792=IFCCARTESIANPOINT((37.501206007566907,-173.64845170095205));
#793=IFCPOLYLINE((#791,#792));
#794=IFCCOMPOSITECURVESEGMENT(.CONTINUOUS.,.T.,#793);
#795=IFCCARTESIANPOINT((37.501206007566907,-173.64845170095205));
#796=IFCCARTESIANPOINT((24.501206007566907,-173.64845170095205));
#797=IFCPOLYLINE((#795,#796));
#798=IFCCOMPOSITECURVESEGMENT(.CONTINUOUS.,.T.,#797);
#799=IFCCARTESIANPOINT((24.501206007566907,-173.64845170095205));
#800=IFCCARTESIANPOINT((24.501206007566907,-170.64845170095205));
#801=IFCPOLYLINE((#799,#800));
#802=IFCCOMPOSITECURVESEGMENT(.CONTINUOUS.,.T.,#801);
#803=IFCCARTESIANPOINT((24.501206007566907,-170.64845170095205));
#804=IFCCARTESIANPOINT((-3.9987939924330931,-170.64845170095205));
#805=IFCPOLYLINE((#803,#804));
#806=IFCCOMPOSITECURVESEGMENT(.CONTINUOUS.,.T.,#805);
#807=IFCCARTESIANPOINT((-3.9987939924330931,-170.64845170095205));
#808=IFCCARTESIANPOINT((-67.76382010489624,-159.40495717174491));
#809=IFCPOLYLINE((#807,#808));
#810=IFCCOMPOSITECURVESEGMENT(.CONTINUOUS.,.T.,#809);
#811=IFCCOMPOSITECURVE((#744,#748,#752,#756,#760,#764,#768,#773,#777,#782,#786,#790,#794,#798,#802,#806,#810),.F.);
#812=IFCCARTESIANPOINT((34.979293447701821,127.06464990186058));
#813=IFCAXIS2PLACEMENT2D(#812,#12);
#814=IFCCIRCLE(#813,22.500000000000011);
#815=IFCTRIMMEDCURVE(#814,(IFCPARAMETERVALUE(359.99999999999864)),(IFCPARAMETERVALUE(180.00000000000011)),.T.,.PARAMETER.);
#816=IFCCOMPOSITECURVESEGMENT(.CONTINUOUS.,.F.,#815);
#817=IFCCARTESIANPOINT((34.979293447701821,127.06464990186058));
#818=IFCAXIS2PLACEMENT2D(#817,#12);
#819=IFCCIRCLE(#818,22.500000000000011);
#820=IFCTRIMMEDCURVE(#819,(IFCPARAMETERVALUE(179.99999999999881)),(IFCPARAMETERVALUE(359.99999999999864)),.T.,.PARAMETER.);
#821=IFCCOMPOSITECURVESEGMENT(.CONTINUOUS.,.F.,#820);
#822=IFCCOMPOSITECURVE((#816,#821),.F.);
#823=IFCCARTESIANPOINT((34.979293447701366,-68.238469033511649));
#824=IFCAXIS2PLACEMENT2D(#823,#12);
#825=IFCCIRCLE(#824,22.500000000000011);
#826=IFCTRIMMEDCURVE(#825,(IFCPARAMETERVALUE(359.99999999999864)),(IFCPARAMETERVALUE(180.00000000000011)),.T.,.PARAMETER.);
#827=IFCCOMPOSITECURVESEGMENT(.CONTINUOUS.,.F.,#826);
#828=IFCCARTESIANPOINT((34.979293447701366,-68.238469033511649));
#829=IFCAXIS2PLACEMENT2D(#828,#12);
#830=IFCCIRCLE(#829,22.500000000000011);
#831=IFCTRIMMEDCURVE(#830,(IFCPARAMETERVALUE(179.99999999999881)),(IFCPARAMETERVALUE(359.99999999999864)),.T.,.PARAMETER.);
#832=IFCCOMPOSITECURVESEGMENT(.CONTINUOUS.,.F.,#831);
#833=IFCCOMPOSITECURVE((#827,#832),.F.);
#834=IFCARBITRARYPROFILEDEFWITHVOIDS(.AREA.,'SENAL-PARADERO-BUSES-SI08_METAL_H3.40m',#740,(#811,#822,#833));
#835=IFCCARTESIANPOINT((0.,20.,3150.));
#836=IFCAXIS2PLACEMENT3D(#835,#100,#371);
#837=IFCEXTRUDEDAREASOLID(#834,#836,#44,9.9999999999999947);
#838=IFCCARTESIANPOINT((0.,0.));
#839=IFCAXIS2PLACEMENT2D(#838,#40);
#840=IFCCIRCLEPROFILEDEF(.AREA.,'SENAL-PARADERO-BUSES-SI08_METAL_H3.40m',#839,11.856379639017813);
#841=IFCCARTESIANPOINT((-127.06464990186058,20.,3115.0207065522982));
#842=IFCAXIS2PLACEMENT3D(#841,#100,#101);
#843=IFCEXTRUDEDAREASOLID(#840,#842,#44,9.9999999999999947);
#844=IFCCARTESIANPOINT((0.,0.));
#845=IFCAXIS2PLACEMENT2D(#844,#40);
#846=IFCCIRCLEPROFILEDEF(.AREA.,'SENAL-PARADERO-BUSES-SI08_METAL_H3.40m',#845,11.856379639017813);
#847=IFCCARTESIANPOINT((68.238469033511535,20.,3115.0207065522982));
#848=IFCAXIS2PLACEMENT3D(#847,#100,#101);
#849=IFCEXTRUDEDAREASOLID(#846,#848,#44,9.9999999999999947);
#850=IFCCOLOURRGB($,0.99215686274509807,0.99215686274509807,0.99215686274509807);
#851=IFCSURFACESTYLERENDERING(#850,0.,$,$,$,$,IFCNORMALISEDRATIOMEASURE(0.5),IFCSPECULAREXPONENT(64.),.NOTDEFINED.);
#852=IFCSURFACESTYLE('Pintura blanca',.BOTH.,(#851));
#853=IFCSTYLEDITEM(#45,(#852),$);
#854=IFCSTYLEDITEM(#55,(#852),$);
#855=IFCCOLOURRGB($,0.,0.48627450980392156,0.75686274509803919);
#856=IFCSURFACESTYLERENDERING(#855,0.,$,$,$,$,IFCNORMALISEDRATIOMEASURE(0.5),IFCSPECULAREXPONENT(64.),.NOTDEFINED.);
#857=IFCSURFACESTYLE('Pintura azul',.BOTH.,(#856));
#858=IFCSTYLEDITEM(#103,(#857),$);
#859=IFCSTYLEDITEM(#149,(#857),$);
#860=IFCCOLOURRGB($,0.,0.,0.);
#861=IFCSURFACESTYLERENDERING(#860,0.,$,$,$,$,IFCNORMALISEDRATIOMEASURE(0.5),IFCSPECULAREXPONENT(64.),.NOTDEFINED.);
#862=IFCSURFACESTYLE('Pintura negra',.BOTH.,(#861));
#863=IFCSTYLEDITEM(#258,(#862),$);
#864=IFCSTYLEDITEM(#264,(#862),$);
#865=IFCSTYLEDITEM(#270,(#862),$);
#866=IFCSTYLEDITEM(#373,(#852),$);
#867=IFCSTYLEDITEM(#379,(#852),$);
#868=IFCSTYLEDITEM(#385,(#852),$);
#869=IFCSTYLEDITEM(#395,(#852),$);
#870=IFCSTYLEDITEM(#405,(#852),$);
#871=IFCSTYLEDITEM(#415,(#852),$);
#872=IFCSTYLEDITEM(#424,(#852),$);
#873=IFCSTYLEDITEM(#433,(#852),$);
#874=IFCSTYLEDITEM(#443,(#852),$);
#875=IFCSTYLEDITEM(#545,(#852),$);
#876=IFCSTYLEDITEM(#551,(#852),$);
#877=IFCSTYLEDITEM(#557,(#852),$);
#878=IFCSTYLEDITEM(#567,(#852),$);
#879=IFCSTYLEDITEM(#577,(#852),$);
#880=IFCSTYLEDITEM(#587,(#852),$);
#881=IFCSTYLEDITEM(#596,(#852),$);
#882=IFCSTYLEDITEM(#605,(#852),$);
#883=IFCSTYLEDITEM(#614,(#852),$);
#884=IFCSTYLEDITEM(#723,(#862),$);
#885=IFCSTYLEDITEM(#729,(#862),$);
#886=IFCSTYLEDITEM(#735,(#862),$);
#887=IFCSTYLEDITEM(#837,(#852),$);
#888=IFCSTYLEDITEM(#843,(#852),$);
#889=IFCSTYLEDITEM(#849,(#852),$);
#890=IFCSHAPEREPRESENTATION(#15,'Body','SweptSolid',(#45,#55,#103,#149,#258,#264,#270,#373,#379,#385,#395,#405,#415,#424,#433,#443,#545,#551,#557,#567,#577,#587,#596,#605,#614,#723,#729,#735,#837,#843,#849));
#891=IFCAXIS2PLACEMENT3D(#10,$,$);
#892=IFCREPRESENTATIONMAP(#891,#890);
#893=IFCSIGNALTYPE('0ZKrDyjLHBUgihg8qRW8jP',#6,'SENAL-PARADERO-BUSES-SI08:SENAL-PARADERO-BUSES-SI08_METAL_H3.40m',$,$,$,(#892),'1668543','SENAL-PARADERO-BUSES-SI08',.USERDEFINED.);
#894=IFCMATERIAL('Pintura blanca',$,$);
#895=IFCSTYLEDITEM($,(#852),$);
#896=IFCSTYLEDREPRESENTATION(#13,'Style','Material',(#895));
#897=IFCMATERIALDEFINITIONREPRESENTATION($,$,(#896),#894);
#898=IFCMATERIAL('Pintura azul',$,$);
#899=IFCSTYLEDITEM($,(#857),$);
#900=IFCSTYLEDREPRESENTATION(#13,'Style','Material',(#899));
#901=IFCMATERIALDEFINITIONREPRESENTATION($,$,(#900),#898);
#902=IFCMATERIAL('Pintura negra',$,$);
#903=IFCSTYLEDITEM($,(#862),$);
#904=IFCSTYLEDREPRESENTATION(#13,'Style','Material',(#903));
#905=IFCMATERIALDEFINITIONREPRESENTATION($,$,(#904),#902);
#906=IFCMATERIALCONSTITUENT('Pintura blanca',$,#894,0.6536593126230652,'');
#907=IFCSHAPEREPRESENTATION(#15,'Body','SweptSolid',(#45,#55,#373,#379,#385,#395,#405,#415,#424,#433,#443,#545,#551,#557,#567,#577,#587,#596,#605,#614,#837,#843,#849));
#908=IFCSHAPEASPECT((#907),'Pintura blanca',$,.U.,#892);
#909=IFCMATERIALCONSTITUENT('Pintura azul',$,#898,0.30859352133724616,'');
#910=IFCSHAPEREPRESENTATION(#15,'Body','SweptSolid',(#103,#149));
#911=IFCSHAPEASPECT((#910),'Pintura azul',$,.U.,#892);
#912=IFCMATERIALCONSTITUENT('Pintura negra',$,#902,0.037747166039688633,'');
#913=IFCSHAPEREPRESENTATION(#15,'Body','SweptSolid',(#258,#264,#270,#723,#729,#735));
#914=IFCSHAPEASPECT((#913),'Pintura negra',$,.U.,#892);
#915=IFCMATERIALCONSTITUENTSET($,$,(#906,#909,#912));
#916=IFCCARTESIANTRANSFORMATIONOPERATOR3D($,$,#10,1.,$);
#917=IFCMAPPEDITEM(#892,#916);
#918=IFCSHAPEREPRESENTATION(#15,'Body','MappedRepresentation',(#917));
#919=IFCPRODUCTDEFINITIONSHAPE($,$,(#918));
#920=IFCAXIS2PLACEMENT3D(#10,$,$);
#921=IFCLOCALPLACEMENT(#24,#920);
#922=IFCSIGNAL('0ZKrDyjLHBUgihg8qRW8if',#6,'SENAL-PARADERO-BUSES-SI08:SENAL-PARADERO-BUSES-SI08_METAL_H3.40m:1668559',$,$,#921,#919,'1668559',.USERDEFINED.);
#923=IFCMATERIALCONSTITUENT('Pintura blanca',$,#894,0.6536593126230652,'');
#924=IFCMATERIALCONSTITUENT('Pintura azul',$,#898,0.30859352133724616,'');
#925=IFCMATERIALCONSTITUENT('Pintura negra',$,#902,0.037747166039688633,'');
#926=IFCMATERIALCONSTITUENTSET($,$,(#923,#924,#925));
#927=IFCPROPERTYSINGLEVALUE('Reference',$,IFCIDENTIFIER('SENAL-PARADERO-BUSES-SI08_METAL_H3.40m'),$);
#928=IFCPROPERTYSET('19M_dPaIqPIwnoKKq8qyaK',#6,'Pset_EnvironmentalImpactIndicators',$,(#927));
#929=IFCRELDEFINESBYPROPERTIES('2YS8l4CFzh3IFbrgY5VghX',#6,$,$,(#922),#928);
#930=IFCQUANTITYAREA('GrossSurfaceArea','',$,0.0016280910562088613,$);
#931=IFCQUANTITYAREA('NetSurfaceArea','',$,2.079790187799484,$);
#932=IFCQUANTITYVOLUME('GrossVolume','',$,4.4156637638333134E-006,$);
#933=IFCQUANTITYVOLUME('NetVolume','',$,0.011190784173029012,$);
#934=IFCELEMENTQUANTITY('2MqyqnZ76CB8zB3ASRm9$V',#6,'Qto_BodyGeometryValidation',$,$,(#930,#931,#932,#933));
#935=IFCRELDEFINESBYPROPERTIES('2imzGljkGBaeIc_VP6LTDE',#6,$,$,(#922),#934);
#936=IFCPROPERTYSINGLEVALUE('Reference',$,IFCIDENTIFIER('8mm Head'),$);
#937=IFCPROPERTYSINGLEVALUE('AboveGround',$,IFCLOGICAL(.U.),$);
#938=IFCPROPERTYSET('16L50AfyZF4hYq5TGET4H4',#6,'Pset_BuildingStoreyCommon',$,(#936,#937));
#939=IFCPROPERTYSET('2J7ac_h5ujdwWuzVwBIIta',#6,'Pset_SpaceCommon',$,(#35,#936));
#940=IFCRELDEFINESBYPROPERTIES('2VdfSfkgzGoZi_3SgzE8$0',#6,$,$,(#25),#938);
#941=IFCRELDEFINESBYPROPERTIES('3$YdOpA8iaPobC8MDiWxoI',#6,$,$,(#25),#939);
#942=IFCRELCONTAINEDINSPATIALSTRUCTURE('2JF4e6axWHqu3u0C5FZlmi',#6,$,$,(#922),#25);
#943=IFCPROPERTYSET('1n34enW33Z_3Qq2Pm1kjQZ',#6,'Pset_BuildingStoreyCommon',$,(#936,#937));
#944=IFCPROPERTYSET('0qNc4$IaPwTvoqOd7IlIE4',#6,'Pset_SpaceCommon',$,(#35,#936));
#945=IFCRELDEFINESBYPROPERTIES('36oM8gyLQ5_Z6XoGK5uP1E',#6,$,$,(#29),#943);
#946=IFCRELDEFINESBYPROPERTIES('0jA6Vdz$3CfPvu_I1iTL6J',#6,$,$,(#29),#944);
#947=IFCRELAGGREGATES('0PN3_VuVmIgbokgOQnVjEB',#6,$,$,#18,(#32));
#948=IFCRELAGGREGATES('0CovtW4OaOep_OtNqpJooX',#6,$,$,#32,(#22));
#949=IFCRELAGGREGATES('1yhDISh1T5aQqAoygxGIhP',#6,$,$,#22,(#25,#29));
#950=IFCPROPERTYSINGLEVALUE('NumberOfStoreys',$,IFCCOUNTMEASURE(2),$);
#951=IFCPROPERTYSINGLEVALUE('IsLandmarked',$,IFCLOGICAL(.U.),$);
#952=IFCPROPERTYSET('0XX7wmeXt6npcl4Fr9tjz8',#6,'Pset_BuildingCommon',$,(#33,#950,#951));
#953=IFCPROPERTYSET('3M_YymEMRqMM3cEV2cV2zM',#6,'Pset_SpaceCommon',$,(#33,#35));
#954=IFCRELDEFINESBYPROPERTIES('3oOkLIvXI$piAbiC0VjwKL',#6,$,$,(#22),#952);
#955=IFCRELDEFINESBYPROPERTIES('2ln1rw7kvW6wdVZcmBDDrf',#6,$,$,(#22),#953);
#956=IFCRELASSOCIATESMATERIAL('20NVDUZLdUEVMAeYOvVm9U',#6,$,$,(#893),#915);
#957=IFCRELASSOCIATESMATERIAL('3wUUvdzXMhxRAFPjQF0INZ',#6,$,$,(#922),#926);
#958=IFCRELDEFINESBYTYPE('3m0IIEvLb7EseNeoYKjGel',#6,$,$,(#922),#893);
#959=IFCUNITASSIGNMENT((#7,#8,#9,#49));
ENDSEC;

END-ISO-10303-21;