ISO-10303-21;
HEADER;
FILE_DESCRIPTION(('ViewDefinition [CoordinationView_V2.0]','RevitIdentifiers [ContentGUID: fc608f23-287a-487c-852f-19290f2dcc94, VersionGUID: 6e4acd00-5c26-4518-902d-ddc1529124fc, NumberOfSaves: 0]','CoordinateReference [CoordinateBase: Shared Coordinates, ProjectSite: Default Site]'),'2;1');
FILE_NAME('TORNIQUETES.ifc','2026-03-19T16:31:55-05:00',(''),(''),'ODA SDAI 25.12','Autodesk - Revit 26.4.0.32 (ENU) - 26.4.0.32','');
FILE_SCHEMA(('IFC2X3'));
ENDSEC;

DATA;
#1=IFCORGANIZATION($,'Autodesk Revit 2026 (ENU)',$,$,$);
#2=IFCAPPLICATION(#1,'2026','Autodesk Revit 2026 (ENU)','Revit');
#3=IFCPERSON($,'','alejandro.hernandez3L92L',$,$,$,$,$);
#4=IFCORGANIZATION($,'Organization Name','Organization Description',$,$);
#5=IFCPERSONANDORGANIZATION(#3,#4,$);
#6=IFCOWNERHISTORY(#5,#2,$,.NOCHANGE.,$,$,$,1773955914);
#7=IFCSIUNIT(*,.LENGTHUNIT.,.MILLI.,.METRE.);
#8=IFCSIUNIT(*,.AREAUNIT.,$,.SQUARE_METRE.);
#9=IFCSIUNIT(*,.VOLUMEUNIT.,$,.CUBIC_METRE.);
#10=IFCCARTESIANPOINT((0.,0.,0.));
#11=IFCAXIS2PLACEMENT3D(#10,$,$);
#12=IFCDIRECTION((0.,1.));
#13=IFCGEOMETRICREPRESENTATIONCONTEXT($,'Model',3,0.01,#11,#12);
#14=IFCGEOMETRICREPRESENTATIONSUBCONTEXT('Axis','Model',*,*,*,*,#13,$,.GRAPH_VIEW.,$);
#15=IFCGEOMETRICREPRESENTATIONSUBCONTEXT('Body','Model',*,*,*,*,#13,$,.MODEL_VIEW.,$);
#16=IFCGEOMETRICREPRESENTATIONSUBCONTEXT('Box','Model',*,*,*,*,#13,$,.MODEL_VIEW.,$);
#17=IFCGEOMETRICREPRESENTATIONSUBCONTEXT('FootPrint','Model',*,*,*,*,#13,$,.MODEL_VIEW.,$);
#18=IFCPROJECT('3yO8yZA7f8V8Kl6IdmqZDa',#6,'Project Number',$,$,'Project Name','Project Status',(#13),#969);
#19=IFCPOSTALADDRESS($,$,$,$,('Enter address here\X\0D\X\0AAddress Line 2'),$,'','Boston','','MA');
#20=IFCAXIS2PLACEMENT3D(#10,$,$);
#21=IFCLOCALPLACEMENT(#31,#20);
#22=IFCBUILDING('3yO8yZA7f8V8Kl6IdmqZDb',#6,'Building Name',$,$,#21,$,'Building Name',.ELEMENT.,$,$,#19);
#23=IFCAXIS2PLACEMENT3D(#10,$,$);
#24=IFCLOCALPLACEMENT(#21,#23);
#25=IFCBUILDINGSTOREY('2JF4e6axWHqu3u0C1FZlmi',#6,'L1',$,$,#24,$,'L1',.ELEMENT.,0.);
#26=IFCCARTESIANPOINT((0.,0.,3600.));
#27=IFCAXIS2PLACEMENT3D(#26,$,$);
#28=IFCLOCALPLACEMENT(#21,#27);
#29=IFCBUILDINGSTOREY('1ZGO8hrFCHqw0v0026FpFv',#6,'L2',$,$,#28,$,'L2',.ELEMENT.,3600.0000000000005);
#30=IFCAXIS2PLACEMENT3D(#10,$,$);
#31=IFCLOCALPLACEMENT($,#30);
#32=IFCSITE('3yO8yZA7f8V8Kl6IdmqZDc',#6,'Default',$,$,#31,$,$,.ELEMENT.,(42,21,31,401672),(-71,-3,-24,-345703),0.,$,$);
#33=IFCCARTESIANPOINT((120.,-40.,200.));
#34=IFCCARTESIANPOINT((340.,-40.,200.));
#35=IFCCARTESIANPOINT((352.940952255132,-40.,201.70370868552291));
#36=IFCCARTESIANPOINT((365.,-40.,206.6987298107544));
#37=IFCCARTESIANPOINT((375.35533905933335,-40.,214.64466094064895));
#38=IFCCARTESIANPOINT((383.30127018922792,-40.,225.));
#39=IFCCARTESIANPOINT((388.29629131445944,-40.,237.05904774485029));
#40=IFCCARTESIANPOINT((390.,-40.,250.));
#41=IFCCARTESIANPOINT((390.,-40.,1750.));
#42=IFCCARTESIANPOINT((388.29629131445233,-40.,1762.9409522551059));
#43=IFCCARTESIANPOINT((383.30127018922093,-40.,1775.));
#44=IFCCARTESIANPOINT((375.35533905932647,-40.,1785.3553390593072));
#45=IFCCARTESIANPOINT((365.,-40.,1793.3012701892019));
#46=IFCCARTESIANPOINT((352.94095225512524,-40.,1798.2962913144333));
#47=IFCCARTESIANPOINT((340.,-40.,1800.));
#48=IFCCARTESIANPOINT((170.,-40.,1800.));
#49=IFCCARTESIANPOINT((157.05904774487362,-40.,1798.2962913144356));
#50=IFCCARTESIANPOINT((145.,-40.,1793.3012701892044));
#51=IFCCARTESIANPOINT((134.64466094067228,-40.,1785.3553390593095));
#52=IFCCARTESIANPOINT((126.69872981077773,-40.,1775.));
#53=IFCCARTESIANPOINT((121.70370868554625,-40.,1762.9409522551084));
#54=IFCCARTESIANPOINT((120.,-40.,1750.));
#55=IFCCARTESIANPOINT((120.,-30.,200.));
#56=IFCCARTESIANPOINT((120.,-30.,1750.));
#57=IFCCARTESIANPOINT((121.70370868554625,-30.,1762.9409522551084));
#58=IFCCARTESIANPOINT((126.69872981077773,-30.,1775.));
#59=IFCCARTESIANPOINT((134.64466094067228,-30.,1785.3553390593095));
#60=IFCCARTESIANPOINT((145.,-30.,1793.3012701892044));
#61=IFCCARTESIANPOINT((157.05904774487362,-30.,1798.2962913144356));
#62=IFCCARTESIANPOINT((170.,-30.,1800.));
#63=IFCCARTESIANPOINT((340.,-30.,1800.));
#64=IFCCARTESIANPOINT((352.94095225512524,-30.,1798.2962913144333));
#65=IFCCARTESIANPOINT((365.,-30.,1793.3012701892019));
#66=IFCCARTESIANPOINT((375.35533905932647,-30.,1785.3553390593072));
#67=IFCCARTESIANPOINT((383.30127018922093,-30.,1775.));
#68=IFCCARTESIANPOINT((388.29629131445233,-30.,1762.9409522551059));
#69=IFCCARTESIANPOINT((390.,-30.,1750.));
#70=IFCCARTESIANPOINT((390.,-30.,250.));
#71=IFCCARTESIANPOINT((388.29629131445944,-30.,237.05904774485029));
#72=IFCCARTESIANPOINT((383.30127018922792,-30.,225.));
#73=IFCCARTESIANPOINT((375.35533905933335,-30.,214.64466094064895));
#74=IFCCARTESIANPOINT((365.,-30.,206.6987298107544));
#75=IFCCARTESIANPOINT((352.940952255132,-30.,201.70370868552291));
#76=IFCCARTESIANPOINT((340.,-30.,200.));
#77=IFCPOLYLOOP((#40,#41,#42,#43,#44,#45,#46,#47,#48,#49,#50,#51,#52,#53,#54,#33,#34,#35,#36,#37,#38,#39));
#78=IFCFACEOUTERBOUND(#77,.T.);
#79=IFCFACE((#78));
#80=IFCPOLYLOOP((#76,#55,#56,#57,#58,#59,#60,#61,#62,#63,#64,#65,#66,#67,#68,#69,#70,#71,#72,#73,#74,#75));
#81=IFCFACEOUTERBOUND(#80,.T.);
#82=IFCFACE((#81));
#83=IFCPOLYLOOP((#34,#33,#55,#76));
#84=IFCFACEOUTERBOUND(#83,.T.);
#85=IFCFACE((#84));
#86=IFCPOLYLOOP((#41,#40,#70,#69));
#87=IFCFACEOUTERBOUND(#86,.T.);
#88=IFCFACE((#87));
#89=IFCPOLYLOOP((#48,#47,#63,#62));
#90=IFCFACEOUTERBOUND(#89,.T.);
#91=IFCFACE((#90));
#92=IFCPOLYLOOP((#33,#54,#56,#55));
#93=IFCFACEOUTERBOUND(#92,.T.);
#94=IFCFACE((#93));
#95=IFCPOLYLOOP((#35,#34,#76,#75));
#96=IFCFACEOUTERBOUND(#95,.T.);
#97=IFCFACE((#96));
#98=IFCPOLYLOOP((#36,#35,#75,#74));
#99=IFCFACEOUTERBOUND(#98,.T.);
#100=IFCFACE((#99));
#101=IFCPOLYLOOP((#37,#36,#74,#73));
#102=IFCFACEOUTERBOUND(#101,.T.);
#103=IFCFACE((#102));
#104=IFCPOLYLOOP((#38,#37,#73,#72));
#105=IFCFACEOUTERBOUND(#104,.T.);
#106=IFCFACE((#105));
#107=IFCPOLYLOOP((#39,#38,#72,#71));
#108=IFCFACEOUTERBOUND(#107,.T.);
#109=IFCFACE((#108));
#110=IFCPOLYLOOP((#40,#39,#71,#70));
#111=IFCFACEOUTERBOUND(#110,.T.);
#112=IFCFACE((#111));
#113=IFCPOLYLOOP((#42,#41,#69,#68));
#114=IFCFACEOUTERBOUND(#113,.T.);
#115=IFCFACE((#114));
#116=IFCPOLYLOOP((#43,#42,#68,#67));
#117=IFCFACEOUTERBOUND(#116,.T.);
#118=IFCFACE((#117));
#119=IFCPOLYLOOP((#44,#43,#67,#66));
#120=IFCFACEOUTERBOUND(#119,.T.);
#121=IFCFACE((#120));
#122=IFCPOLYLOOP((#45,#44,#66,#65));
#123=IFCFACEOUTERBOUND(#122,.T.);
#124=IFCFACE((#123));
#125=IFCPOLYLOOP((#46,#45,#65,#64));
#126=IFCFACEOUTERBOUND(#125,.T.);
#127=IFCFACE((#126));
#128=IFCPOLYLOOP((#47,#46,#64,#63));
#129=IFCFACEOUTERBOUND(#128,.T.);
#130=IFCFACE((#129));
#131=IFCPOLYLOOP((#49,#48,#62,#61));
#132=IFCFACEOUTERBOUND(#131,.T.);
#133=IFCFACE((#132));
#134=IFCPOLYLOOP((#50,#49,#61,#60));
#135=IFCFACEOUTERBOUND(#134,.T.);
#136=IFCFACE((#135));
#137=IFCPOLYLOOP((#51,#50,#60,#59));
#138=IFCFACEOUTERBOUND(#137,.T.);
#139=IFCFACE((#138));
#140=IFCPOLYLOOP((#52,#51,#59,#58));
#141=IFCFACEOUTERBOUND(#140,.T.);
#142=IFCFACE((#141));
#143=IFCPOLYLOOP((#53,#52,#58,#57));
#144=IFCFACEOUTERBOUND(#143,.T.);
#145=IFCFACE((#144));
#146=IFCPOLYLOOP((#54,#53,#57,#56));
#147=IFCFACEOUTERBOUND(#146,.T.);
#148=IFCFACE((#147));
#149=IFCCARTESIANPOINT((-150.,50.,1000.));
#150=IFCCARTESIANPOINT((-150.,40.,1000.));
#151=IFCCARTESIANPOINT((-120.,40.,1000.));
#152=IFCCARTESIANPOINT((-120.,30.,1000.));
#153=IFCCARTESIANPOINT((-150.,30.,1000.));
#154=IFCCARTESIANPOINT((-150.,-0.,1000.));
#155=IFCCARTESIANPOINT((-150.,-50.,1000.));
#156=IFCCARTESIANPOINT((-148.61606802342948,-175.0460557855084,1000.));
#157=IFCCARTESIANPOINT((-144.46631666803296,-300.,1000.));
#158=IFCCARTESIANPOINT((144.46631666803185,-300.,1000.));
#159=IFCCARTESIANPOINT((148.61606802342948,-175.04605578556402,1000.));
#160=IFCCARTESIANPOINT((150.,-50.,1000.));
#161=IFCCARTESIANPOINT((150.,-40.,1000.));
#162=IFCCARTESIANPOINT((120.,-40.,1000.));
#163=IFCCARTESIANPOINT((120.,-30.,1000.));
#164=IFCCARTESIANPOINT((150.,-30.,1000.));
#165=IFCCARTESIANPOINT((150.,-0.,1000.));
#166=IFCCARTESIANPOINT((150.,50.,1000.));
#167=IFCCARTESIANPOINT((148.61606802343164,175.04605578551326,1000.));
#168=IFCCARTESIANPOINT((144.46631666803401,300.,1000.));
#169=IFCCARTESIANPOINT((-144.46631666803188,300.,1000.));
#170=IFCCARTESIANPOINT((-148.6160680234284,175.04605578555592,1000.));
#171=IFCCARTESIANPOINT((100.,800.,-0.));
#172=IFCCARTESIANPOINT((127.75953051163121,550.82199106620942,-0.));
#173=IFCCARTESIANPOINT((144.43714409996511,300.65778724116609,-0.));
#174=IFCCARTESIANPOINT((150.,50.,-0.));
#175=IFCCARTESIANPOINT((150.,-30.,-0.));
#176=IFCCARTESIANPOINT((120.,-30.,-0.));
#177=IFCCARTESIANPOINT((120.,-40.,-0.));
#178=IFCCARTESIANPOINT((150.,-40.,-0.));
#179=IFCCARTESIANPOINT((150.,-50.,-0.));
#180=IFCCARTESIANPOINT((144.43714409996295,-300.65778724119644,-0.));
#181=IFCCARTESIANPOINT((127.75953051162688,-550.82199106623898,-0.));
#182=IFCCARTESIANPOINT((100.,-800.,-0.));
#183=IFCCARTESIANPOINT((-100.,-800.,-0.));
#184=IFCCARTESIANPOINT((-127.75953051162907,-550.82199106620806,-0.));
#185=IFCCARTESIANPOINT((-144.43714409996298,-300.65778724116711,-0.));
#186=IFCCARTESIANPOINT((-150.,-50.,-0.));
#187=IFCCARTESIANPOINT((-150.,30.,-0.));
#188=IFCCARTESIANPOINT((-120.,30.,-0.));
#189=IFCCARTESIANPOINT((-120.,40.,-0.));
#190=IFCCARTESIANPOINT((-150.,40.,-0.));
#191=IFCCARTESIANPOINT((-150.,50.,-0.));
#192=IFCCARTESIANPOINT((-144.43714409996082,300.65778724120912,-0.));
#193=IFCCARTESIANPOINT((-127.75953051162473,550.82199106624512,-0.));
#194=IFCCARTESIANPOINT((-100.,800.,-0.));
#195=IFCCARTESIANPOINT((-100.,800.,877.10966802642281));
#196=IFCCARTESIANPOINT((100.,800.,877.10966802636244));
#197=IFCCARTESIANPOINT((50.,800.,777.10966802636199));
#198=IFCCARTESIANPOINT((-50.,800.,777.10966802636199));
#199=IFCCARTESIANPOINT((-50.,800.,677.10966802636199));
#200=IFCCARTESIANPOINT((50.,800.,677.1096680263621));
#201=IFCCARTESIANPOINT((-138.159830136827,415.58682940095412,993.78882732863644));
#202=IFCCARTESIANPOINT((-129.59916262946513,529.70122797591466,975.25763355482081));
#203=IFCCARTESIANPOINT((-124.53816065907088,585.78958490236778,961.44962249505954));
#204=IFCCARTESIANPOINT((-113.03668211241319,695.22802578658604,924.98089102743199));
#205=IFCCARTESIANPOINT((-100.,-800.,877.10966802636233));
#206=IFCCARTESIANPOINT((-113.03668211241644,-695.22802578655637,924.98089102744461));
#207=IFCCARTESIANPOINT((-124.53816065907522,-585.78958490233322,961.44962249506875));
#208=IFCCARTESIANPOINT((-129.59916262946945,-529.70122797588022,975.25763355482832));
#209=IFCCARTESIANPOINT((-138.15983013683024,-415.58682940092217,993.78882732863997));
#210=IFCCARTESIANPOINT((100.,-800.,877.10966802632129));
#211=IFCCARTESIANPOINT((-50.,-800.,777.10966802636199));
#212=IFCCARTESIANPOINT((50.,-800.,777.10966802636199));
#213=IFCCARTESIANPOINT((50.,-800.,677.10966802636199));
#214=IFCCARTESIANPOINT((-50.,-800.,677.10966802636199));
#215=IFCCARTESIANPOINT((138.15983013682592,-415.58682940099339,993.78882732863224));
#216=IFCCARTESIANPOINT((129.59916262946405,-529.70122797595002,975.2576335548124));
#217=IFCCARTESIANPOINT((124.5381606590698,-585.78958490240234,961.44962249504943));
#218=IFCCARTESIANPOINT((113.03668211241103,-695.2280257866214,924.98089102741665));
#219=IFCCARTESIANPOINT((113.03668211241968,695.22802578655421,924.9808910274445));
#220=IFCCARTESIANPOINT((124.53816065907739,585.78958490233231,961.44962249506898));
#221=IFCCARTESIANPOINT((129.59916262947161,529.70122797588124,975.25763355482843));
#222=IFCCARTESIANPOINT((138.1598301368324,415.58682940093212,993.78882732864008));
#223=IFCCARTESIANPOINT((75.,-632.95974255023123,947.32254088747561));
#224=IFCCARTESIANPOINT((-75.,-632.95974255024475,947.32254088747095));
#225=IFCCARTESIANPOINT((-75.,-567.02071428827787,966.42570320952393));
#226=IFCCARTESIANPOINT((-75.,-500.,981.29547506813151));
#227=IFCCARTESIANPOINT((75.,-500.,981.29547506812889));
#228=IFCCARTESIANPOINT((75.,-567.02071428827787,966.42570320952393));
#229=IFCCARTESIANPOINT((-118.78742138574621,-640.50880534444423,943.21525676125657));
#230=IFCCARTESIANPOINT((118.78742138573988,-640.5088053445146,943.21525676123315));
#231=IFCCARTESIANPOINT((-75.,632.95974255021792,947.32254088747993));
#232=IFCCARTESIANPOINT((75.,632.95974255021156,947.32254088748186));
#233=IFCCARTESIANPOINT((75.,567.02071428824411,966.42570320953268));
#234=IFCCARTESIANPOINT((75.,500.,981.29547506813412));
#235=IFCCARTESIANPOINT((-75.,500.,981.29547506813537));
#236=IFCCARTESIANPOINT((-75.,567.02071428824411,966.42570320953268));
#237=IFCCARTESIANPOINT((118.78742138574901,640.50880534444377,943.2152567612568));
#238=IFCCARTESIANPOINT((-118.78742138574196,640.5088053444764,943.21525676124588));
#239=IFCCARTESIANPOINT((-50.,-789.49024589812564,777.10966802636199));
#240=IFCCARTESIANPOINT((50.,-789.49024589812586,777.10966802636199));
#241=IFCCARTESIANPOINT((50.,-789.49024589812586,677.10966802636199));
#242=IFCCARTESIANPOINT((-50.,-789.49024589812564,677.10966802636199));
#243=IFCCARTESIANPOINT((50.,789.49024589812586,777.10966802636199));
#244=IFCCARTESIANPOINT((-50.,789.49024589812564,777.10966802636199));
#245=IFCCARTESIANPOINT((-50.,789.49024589812564,677.10966802636199));
#246=IFCCARTESIANPOINT((50.,789.49024589812586,677.10966802636199));
#247=IFCCARTESIANPOINT((75.,-500.,947.32254088747754));
#248=IFCCARTESIANPOINT((-75.,-500.,947.32254088747754));
#249=IFCCARTESIANPOINT((-75.,500.,947.32254088747754));
#250=IFCCARTESIANPOINT((75.,500.,947.32254088747754));
#251=IFCPOLYLOOP((#165,#166,#167,#168,#169,#170,#149,#150,#151,#152,#153,#154,#155,#156,#157,#158,#159,#160,#161,#162,#163,#164));
#252=IFCFACEOUTERBOUND(#251,.T.);
#253=IFCFACE((#252));
#254=IFCPOLYLOOP((#190,#191,#192,#193,#194,#171,#172,#173,#174,#175,#176,#177,#178,#179,#180,#181,#182,#183,#184,#185,#186,#187,#188,#189));
#255=IFCFACEOUTERBOUND(#254,.T.);
#256=IFCFACE((#255));
#257=IFCPOLYLOOP((#196,#197,#198));
#258=IFCFACEOUTERBOUND(#257,.T.);
#259=IFCFACE((#258));
#260=IFCPOLYLOOP((#197,#196,#200));
#261=IFCFACEOUTERBOUND(#260,.T.);
#262=IFCFACE((#261));
#263=IFCPOLYLOOP((#198,#195,#196));
#264=IFCFACEOUTERBOUND(#263,.T.);
#265=IFCFACE((#264));
#266=IFCPOLYLOOP((#171,#200,#196));
#267=IFCFACEOUTERBOUND(#266,.T.);
#268=IFCFACE((#267));
#269=IFCPOLYLOOP((#200,#171,#194));
#270=IFCFACEOUTERBOUND(#269,.T.);
#271=IFCFACE((#270));
#272=IFCPOLYLOOP((#199,#194,#195));
#273=IFCFACEOUTERBOUND(#272,.T.);
#274=IFCFACE((#273));
#275=IFCPOLYLOOP((#194,#199,#200));
#276=IFCFACEOUTERBOUND(#275,.T.);
#277=IFCFACE((#276));
#278=IFCPOLYLOOP((#195,#198,#199));
#279=IFCFACEOUTERBOUND(#278,.T.);
#280=IFCFACE((#279));
#281=IFCPOLYLOOP((#195,#194,#193));
#282=IFCFACEOUTERBOUND(#281,.T.);
#283=IFCFACE((#282));
#284=IFCPOLYLOOP((#195,#193,#204));
#285=IFCFACEOUTERBOUND(#284,.T.);
#286=IFCFACE((#285));
#287=IFCPOLYLOOP((#193,#203,#238,#204));
#288=IFCFACEOUTERBOUND(#287,.T.);
#289=IFCFACE((#288));
#290=IFCPOLYLOOP((#203,#193,#202));
#291=IFCFACEOUTERBOUND(#290,.T.);
#292=IFCFACE((#291));
#293=IFCPOLYLOOP((#193,#201,#202));
#294=IFCFACEOUTERBOUND(#293,.T.);
#295=IFCFACE((#294));
#296=IFCPOLYLOOP((#169,#201,#192));
#297=IFCFACEOUTERBOUND(#296,.T.);
#298=IFCFACE((#297));
#299=IFCPOLYLOOP((#192,#201,#193));
#300=IFCFACEOUTERBOUND(#299,.T.);
#301=IFCFACE((#300));
#302=IFCPOLYLOOP((#170,#192,#191));
#303=IFCFACEOUTERBOUND(#302,.T.);
#304=IFCFACE((#303));
#305=IFCPOLYLOOP((#170,#169,#192));
#306=IFCFACEOUTERBOUND(#305,.T.);
#307=IFCFACE((#306));
#308=IFCPOLYLOOP((#149,#170,#191));
#309=IFCFACEOUTERBOUND(#308,.T.);
#310=IFCFACE((#309));
#311=IFCPOLYLOOP((#150,#149,#191,#190));
#312=IFCFACEOUTERBOUND(#311,.T.);
#313=IFCFACE((#312));
#314=IFCPOLYLOOP((#154,#153,#187,#186,#155));
#315=IFCFACEOUTERBOUND(#314,.T.);
#316=IFCFACE((#315));
#317=IFCPOLYLOOP((#156,#186,#185));
#318=IFCFACEOUTERBOUND(#317,.T.);
#319=IFCFACE((#318));
#320=IFCPOLYLOOP((#209,#185,#184));
#321=IFCFACEOUTERBOUND(#320,.T.);
#322=IFCFACE((#321));
#323=IFCPOLYLOOP((#157,#185,#209));
#324=IFCFACEOUTERBOUND(#323,.T.);
#325=IFCFACE((#324));
#326=IFCPOLYLOOP((#156,#155,#186));
#327=IFCFACEOUTERBOUND(#326,.T.);
#328=IFCFACE((#327));
#329=IFCPOLYLOOP((#157,#156,#185));
#330=IFCFACEOUTERBOUND(#329,.T.);
#331=IFCFACE((#330));
#332=IFCPOLYLOOP((#184,#183,#205));
#333=IFCFACEOUTERBOUND(#332,.T.);
#334=IFCFACE((#333));
#335=IFCPOLYLOOP((#184,#205,#206));
#336=IFCFACEOUTERBOUND(#335,.T.);
#337=IFCFACE((#336));
#338=IFCPOLYLOOP((#184,#207,#208));
#339=IFCFACEOUTERBOUND(#338,.T.);
#340=IFCFACE((#339));
#341=IFCPOLYLOOP((#184,#206,#229,#207));
#342=IFCFACEOUTERBOUND(#341,.T.);
#343=IFCFACE((#342));
#344=IFCPOLYLOOP((#184,#208,#209));
#345=IFCFACEOUTERBOUND(#344,.T.);
#346=IFCFACE((#345));
#347=IFCPOLYLOOP((#205,#211,#212));
#348=IFCFACEOUTERBOUND(#347,.T.);
#349=IFCFACE((#348));
#350=IFCPOLYLOOP((#211,#205,#214));
#351=IFCFACEOUTERBOUND(#350,.T.);
#352=IFCFACE((#351));
#353=IFCPOLYLOOP((#212,#210,#205));
#354=IFCFACEOUTERBOUND(#353,.T.);
#355=IFCFACE((#354));
#356=IFCPOLYLOOP((#183,#214,#205));
#357=IFCFACEOUTERBOUND(#356,.T.);
#358=IFCFACE((#357));
#359=IFCPOLYLOOP((#214,#183,#182));
#360=IFCFACEOUTERBOUND(#359,.T.);
#361=IFCFACE((#360));
#362=IFCPOLYLOOP((#213,#182,#210));
#363=IFCFACEOUTERBOUND(#362,.T.);
#364=IFCFACE((#363));
#365=IFCPOLYLOOP((#182,#213,#214));
#366=IFCFACEOUTERBOUND(#365,.T.);
#367=IFCFACE((#366));
#368=IFCPOLYLOOP((#210,#212,#213));
#369=IFCFACEOUTERBOUND(#368,.T.);
#370=IFCFACE((#369));
#371=IFCPOLYLOOP((#210,#182,#181));
#372=IFCFACEOUTERBOUND(#371,.T.);
#373=IFCFACE((#372));
#374=IFCPOLYLOOP((#210,#181,#218));
#375=IFCFACEOUTERBOUND(#374,.T.);
#376=IFCFACE((#375));
#377=IFCPOLYLOOP((#181,#217,#230,#218));
#378=IFCFACEOUTERBOUND(#377,.T.);
#379=IFCFACE((#378));
#380=IFCPOLYLOOP((#217,#181,#216));
#381=IFCFACEOUTERBOUND(#380,.T.);
#382=IFCFACE((#381));
#383=IFCPOLYLOOP((#181,#215,#216));
#384=IFCFACEOUTERBOUND(#383,.T.);
#385=IFCFACE((#384));
#386=IFCPOLYLOOP((#158,#215,#180));
#387=IFCFACEOUTERBOUND(#386,.T.);
#388=IFCFACE((#387));
#389=IFCPOLYLOOP((#180,#215,#181));
#390=IFCFACEOUTERBOUND(#389,.T.);
#391=IFCFACE((#390));
#392=IFCPOLYLOOP((#159,#180,#179));
#393=IFCFACEOUTERBOUND(#392,.T.);
#394=IFCFACE((#393));
#395=IFCPOLYLOOP((#159,#158,#180));
#396=IFCFACEOUTERBOUND(#395,.T.);
#397=IFCFACE((#396));
#398=IFCPOLYLOOP((#160,#159,#179));
#399=IFCFACEOUTERBOUND(#398,.T.);
#400=IFCFACE((#399));
#401=IFCPOLYLOOP((#165,#164,#175,#174,#166));
#402=IFCFACEOUTERBOUND(#401,.T.);
#403=IFCFACE((#402));
#404=IFCPOLYLOOP((#161,#160,#179,#178));
#405=IFCFACEOUTERBOUND(#404,.T.);
#406=IFCFACE((#405));
#407=IFCPOLYLOOP((#167,#174,#173));
#408=IFCFACEOUTERBOUND(#407,.T.);
#409=IFCFACE((#408));
#410=IFCPOLYLOOP((#222,#173,#172));
#411=IFCFACEOUTERBOUND(#410,.T.);
#412=IFCFACE((#411));
#413=IFCPOLYLOOP((#168,#173,#222));
#414=IFCFACEOUTERBOUND(#413,.T.);
#415=IFCFACE((#414));
#416=IFCPOLYLOOP((#167,#166,#174));
#417=IFCFACEOUTERBOUND(#416,.T.);
#418=IFCFACE((#417));
#419=IFCPOLYLOOP((#168,#167,#173));
#420=IFCFACEOUTERBOUND(#419,.T.);
#421=IFCFACE((#420));
#422=IFCPOLYLOOP((#172,#171,#196));
#423=IFCFACEOUTERBOUND(#422,.T.);
#424=IFCFACE((#423));
#425=IFCPOLYLOOP((#172,#196,#219));
#426=IFCFACEOUTERBOUND(#425,.T.);
#427=IFCFACE((#426));
#428=IFCPOLYLOOP((#172,#220,#221));
#429=IFCFACEOUTERBOUND(#428,.T.);
#430=IFCFACE((#429));
#431=IFCPOLYLOOP((#172,#219,#237,#220));
#432=IFCFACEOUTERBOUND(#431,.T.);
#433=IFCFACE((#432));
#434=IFCPOLYLOOP((#172,#221,#222));
#435=IFCFACEOUTERBOUND(#434,.T.);
#436=IFCFACE((#435));
#437=IFCPOLYLOOP((#162,#161,#178,#177));
#438=IFCFACEOUTERBOUND(#437,.T.);
#439=IFCFACE((#438));
#440=IFCPOLYLOOP((#163,#162,#177,#176));
#441=IFCFACEOUTERBOUND(#440,.T.);
#442=IFCFACE((#441));
#443=IFCPOLYLOOP((#164,#163,#176,#175));
#444=IFCFACEOUTERBOUND(#443,.T.);
#445=IFCFACE((#444));
#446=IFCPOLYLOOP((#205,#210,#218,#206));
#447=IFCFACEOUTERBOUND(#446,.T.);
#448=IFCFACE((#447));
#449=IFCPOLYLOOP((#223,#217,#228));
#450=IFCFACEOUTERBOUND(#449,.T.);
#451=IFCFACE((#450));
#452=IFCPOLYLOOP((#217,#223,#218,#230));
#453=IFCFACEOUTERBOUND(#452,.T.);
#454=IFCFACE((#453));
#455=IFCPOLYLOOP((#206,#218,#223,#224));
#456=IFCFACEOUTERBOUND(#455,.T.);
#457=IFCFACE((#456));
#458=IFCPOLYLOOP((#207,#224,#225));
#459=IFCFACEOUTERBOUND(#458,.T.);
#460=IFCFACE((#459));
#461=IFCPOLYLOOP((#224,#207,#229,#206));
#462=IFCFACEOUTERBOUND(#461,.T.);
#463=IFCFACE((#462));
#464=IFCPOLYLOOP((#217,#216,#228));
#465=IFCFACEOUTERBOUND(#464,.T.);
#466=IFCFACE((#465));
#467=IFCPOLYLOOP((#227,#216,#215));
#468=IFCFACEOUTERBOUND(#467,.T.);
#469=IFCFACE((#468));
#470=IFCPOLYLOOP((#227,#215,#209,#226));
#471=IFCFACEOUTERBOUND(#470,.T.);
#472=IFCFACE((#471));
#473=IFCPOLYLOOP((#209,#215,#158,#157));
#474=IFCFACEOUTERBOUND(#473,.T.);
#475=IFCFACE((#474));
#476=IFCPOLYLOOP((#225,#208,#207));
#477=IFCFACEOUTERBOUND(#476,.T.);
#478=IFCFACE((#477));
#479=IFCPOLYLOOP((#208,#225,#226));
#480=IFCFACEOUTERBOUND(#479,.T.);
#481=IFCFACE((#480));
#482=IFCPOLYLOOP((#226,#209,#208));
#483=IFCFACEOUTERBOUND(#482,.T.);
#484=IFCFACE((#483));
#485=IFCPOLYLOOP((#227,#228,#216));
#486=IFCFACEOUTERBOUND(#485,.T.);
#487=IFCFACE((#486));
#488=IFCPOLYLOOP((#169,#168,#222,#201));
#489=IFCFACEOUTERBOUND(#488,.T.);
#490=IFCFACE((#489));
#491=IFCPOLYLOOP((#234,#221,#233));
#492=IFCFACEOUTERBOUND(#491,.T.);
#493=IFCFACE((#492));
#494=IFCPOLYLOOP((#221,#234,#222));
#495=IFCFACEOUTERBOUND(#494,.T.);
#496=IFCFACE((#495));
#497=IFCPOLYLOOP((#201,#222,#234,#235));
#498=IFCFACEOUTERBOUND(#497,.T.);
#499=IFCFACE((#498));
#500=IFCPOLYLOOP((#202,#235,#236));
#501=IFCFACEOUTERBOUND(#500,.T.);
#502=IFCFACE((#501));
#503=IFCPOLYLOOP((#235,#202,#201));
#504=IFCFACEOUTERBOUND(#503,.T.);
#505=IFCFACE((#504));
#506=IFCPOLYLOOP((#221,#220,#233));
#507=IFCFACEOUTERBOUND(#506,.T.);
#508=IFCFACE((#507));
#509=IFCPOLYLOOP((#231,#204,#238,#203));
#510=IFCFACEOUTERBOUND(#509,.T.);
#511=IFCFACE((#510));
#512=IFCPOLYLOOP((#232,#220,#237,#219));
#513=IFCFACEOUTERBOUND(#512,.T.);
#514=IFCFACE((#513));
#515=IFCPOLYLOOP((#232,#219,#204,#231));
#516=IFCFACEOUTERBOUND(#515,.T.);
#517=IFCFACE((#516));
#518=IFCPOLYLOOP((#204,#219,#196,#195));
#519=IFCFACEOUTERBOUND(#518,.T.);
#520=IFCFACE((#519));
#521=IFCPOLYLOOP((#236,#203,#202));
#522=IFCFACEOUTERBOUND(#521,.T.);
#523=IFCFACE((#522));
#524=IFCPOLYLOOP((#203,#236,#231));
#525=IFCFACEOUTERBOUND(#524,.T.);
#526=IFCFACE((#525));
#527=IFCPOLYLOOP((#232,#233,#220));
#528=IFCFACEOUTERBOUND(#527,.T.);
#529=IFCFACE((#528));
#530=IFCPOLYLOOP((#239,#240,#212,#211));
#531=IFCFACEOUTERBOUND(#530,.T.);
#532=IFCFACE((#531));
#533=IFCPOLYLOOP((#198,#197,#243,#244));
#534=IFCFACEOUTERBOUND(#533,.T.);
#535=IFCFACE((#534));
#536=IFCPOLYLOOP((#213,#241,#242,#214));
#537=IFCFACEOUTERBOUND(#536,.T.);
#538=IFCFACE((#537));
#539=IFCPOLYLOOP((#246,#200,#199,#245));
#540=IFCFACEOUTERBOUND(#539,.T.);
#541=IFCFACE((#540));
#542=IFCPOLYLOOP((#214,#242,#239,#211));
#543=IFCFACEOUTERBOUND(#542,.T.);
#544=IFCFACE((#543));
#545=IFCPOLYLOOP((#245,#199,#198,#244));
#546=IFCFACEOUTERBOUND(#545,.T.);
#547=IFCFACE((#546));
#548=IFCPOLYLOOP((#241,#213,#212,#240));
#549=IFCFACEOUTERBOUND(#548,.T.);
#550=IFCFACE((#549));
#551=IFCPOLYLOOP((#200,#246,#243,#197));
#552=IFCFACEOUTERBOUND(#551,.T.);
#553=IFCFACE((#552));
#554=IFCPOLYLOOP((#242,#241,#240,#239));
#555=IFCFACEOUTERBOUND(#554,.T.);
#556=IFCFACE((#555));
#557=IFCPOLYLOOP((#246,#245,#244,#243));
#558=IFCFACEOUTERBOUND(#557,.T.);
#559=IFCFACE((#558));
#560=IFCPOLYLOOP((#223,#247,#248,#224));
#561=IFCFACEOUTERBOUND(#560,.T.);
#562=IFCFACE((#561));
#563=IFCPOLYLOOP((#250,#232,#231,#249));
#564=IFCFACEOUTERBOUND(#563,.T.);
#565=IFCFACE((#564));
#566=IFCPOLYLOOP((#247,#223,#228,#227));
#567=IFCFACEOUTERBOUND(#566,.T.);
#568=IFCFACE((#567));
#569=IFCPOLYLOOP((#250,#234,#233,#232));
#570=IFCFACEOUTERBOUND(#569,.T.);
#571=IFCFACE((#570));
#572=IFCPOLYLOOP((#247,#227,#226,#248));
#573=IFCFACEOUTERBOUND(#572,.T.);
#574=IFCFACE((#573));
#575=IFCPOLYLOOP((#248,#226,#225,#224));
#576=IFCFACEOUTERBOUND(#575,.T.);
#577=IFCFACE((#576));
#578=IFCPOLYLOOP((#249,#231,#236,#235));
#579=IFCFACEOUTERBOUND(#578,.T.);
#580=IFCFACE((#579));
#581=IFCPOLYLOOP((#250,#249,#235,#234));
#582=IFCFACEOUTERBOUND(#581,.T.);
#583=IFCFACE((#582));
#584=IFCPOLYLOOP((#151,#150,#190,#189));
#585=IFCFACEOUTERBOUND(#584,.T.);
#586=IFCFACE((#585));
#587=IFCPOLYLOOP((#152,#151,#189,#188));
#588=IFCFACEOUTERBOUND(#587,.T.);
#589=IFCFACE((#588));
#590=IFCPOLYLOOP((#153,#152,#188,#187));
#591=IFCFACEOUTERBOUND(#590,.T.);
#592=IFCFACE((#591));
#593=IFCCARTESIANPOINT((45.,-800.,682.41928789171618));
#594=IFCCARTESIANPOINT((11.864293931836849,-800.,727.41928789174494));
#595=IFCCARTESIANPOINT((45.,-800.,772.41928789176404));
#596=IFCCARTESIANPOINT((-0.,-800.,739.28358182356612));
#597=IFCCARTESIANPOINT((-45.,-800.,772.41928789173699));
#598=IFCCARTESIANPOINT((-11.864293931815192,-800.,727.41928789173778));
#599=IFCCARTESIANPOINT((-45.,-800.,682.41928789171641));
#600=IFCCARTESIANPOINT((0.,-800.,715.5549939599091));
#601=IFCPOLYLOOP((#593,#594,#595,#596,#597,#598,#599,#600));
#602=IFCFACEOUTERBOUND(#601,.T.);
#603=IFCFACE((#602));
#604=IFCCARTESIANPOINT((45.,-789.49024589812575,682.41928789171618));
#605=IFCCARTESIANPOINT((0.,-789.49024589812575,715.5549939599091));
#606=IFCCARTESIANPOINT((-45.,-789.49024589812575,682.41928789171641));
#607=IFCCARTESIANPOINT((-11.864293931815201,-789.49024589812575,727.41928789173778));
#608=IFCCARTESIANPOINT((-45.,-789.49024589812575,772.41928789173699));
#609=IFCCARTESIANPOINT((-0.,-789.49024589812575,739.28358182356612));
#610=IFCCARTESIANPOINT((45.,-789.49024589812575,772.41928789176404));
#611=IFCCARTESIANPOINT((11.864293931836835,-789.49024589812575,727.41928789174494));
#612=IFCPOLYLOOP((#604,#605,#606,#607,#608,#609,#610,#611));
#613=IFCFACEOUTERBOUND(#612,.T.);
#614=IFCFACE((#613));
#615=IFCPOLYLOOP((#594,#593,#604,#611));
#616=IFCFACEOUTERBOUND(#615,.T.);
#617=IFCFACE((#616));
#618=IFCPOLYLOOP((#595,#594,#611,#610));
#619=IFCFACEOUTERBOUND(#618,.T.);
#620=IFCFACE((#619));
#621=IFCPOLYLOOP((#596,#595,#610,#609));
#622=IFCFACEOUTERBOUND(#621,.T.);
#623=IFCFACE((#622));
#624=IFCPOLYLOOP((#597,#596,#609,#608));
#625=IFCFACEOUTERBOUND(#624,.T.);
#626=IFCFACE((#625));
#627=IFCPOLYLOOP((#598,#597,#608,#607));
#628=IFCFACEOUTERBOUND(#627,.T.);
#629=IFCFACE((#628));
#630=IFCPOLYLOOP((#599,#598,#607,#606));
#631=IFCFACEOUTERBOUND(#630,.T.);
#632=IFCFACE((#631));
#633=IFCPOLYLOOP((#600,#599,#606,#605));
#634=IFCFACEOUTERBOUND(#633,.T.);
#635=IFCFACE((#634));
#636=IFCPOLYLOOP((#593,#600,#605,#604));
#637=IFCFACEOUTERBOUND(#636,.T.);
#638=IFCFACE((#637));
#639=IFCCARTESIANPOINT((-120.,40.,200.));
#640=IFCCARTESIANPOINT((-340.,40.,200.));
#641=IFCCARTESIANPOINT((-352.940952255132,40.,201.70370868552291));
#642=IFCCARTESIANPOINT((-365.,40.,206.69872981075434));
#643=IFCCARTESIANPOINT((-375.35533905933335,40.,214.64466094064892));
#644=IFCCARTESIANPOINT((-383.30127018922792,40.,225.));
#645=IFCCARTESIANPOINT((-388.29629131445938,40.,237.05904774485018));
#646=IFCCARTESIANPOINT((-390.,40.,250.));
#647=IFCCARTESIANPOINT((-390.,40.,1750.));
#648=IFCCARTESIANPOINT((-388.29629131445233,40.,1762.9409522551059));
#649=IFCCARTESIANPOINT((-383.30127018922093,40.,1775.));
#650=IFCCARTESIANPOINT((-375.35533905932647,40.,1785.3553390593072));
#651=IFCCARTESIANPOINT((-365.,40.,1793.3012701892019));
#652=IFCCARTESIANPOINT((-352.94095225512524,40.,1798.2962913144333));
#653=IFCCARTESIANPOINT((-340.,40.,1800.));
#654=IFCCARTESIANPOINT((-170.,40.,1800.));
#655=IFCCARTESIANPOINT((-157.05904774487362,40.,1798.2962913144356));
#656=IFCCARTESIANPOINT((-145.,40.,1793.3012701892044));
#657=IFCCARTESIANPOINT((-134.64466094067228,40.,1785.3553390593095));
#658=IFCCARTESIANPOINT((-126.69872981077773,40.,1775.));
#659=IFCCARTESIANPOINT((-121.70370868554625,40.,1762.9409522551084));
#660=IFCCARTESIANPOINT((-120.,40.,1750.));
#661=IFCCARTESIANPOINT((-120.,30.,200.));
#662=IFCCARTESIANPOINT((-120.,30.,1750.));
#663=IFCCARTESIANPOINT((-121.70370868554625,30.,1762.9409522551084));
#664=IFCCARTESIANPOINT((-126.69872981077773,30.,1775.));
#665=IFCCARTESIANPOINT((-134.64466094067228,30.,1785.3553390593095));
#666=IFCCARTESIANPOINT((-145.,30.,1793.3012701892044));
#667=IFCCARTESIANPOINT((-157.05904774487362,30.,1798.2962913144356));
#668=IFCCARTESIANPOINT((-170.,30.,1800.));
#669=IFCCARTESIANPOINT((-340.,30.,1800.));
#670=IFCCARTESIANPOINT((-352.94095225512524,30.,1798.2962913144333));
#671=IFCCARTESIANPOINT((-365.,30.,1793.3012701892019));
#672=IFCCARTESIANPOINT((-375.35533905932647,30.,1785.3553390593072));
#673=IFCCARTESIANPOINT((-383.30127018922093,30.,1775.));
#674=IFCCARTESIANPOINT((-388.29629131445233,30.,1762.9409522551059));
#675=IFCCARTESIANPOINT((-390.,30.,1750.));
#676=IFCCARTESIANPOINT((-390.,30.,250.));
#677=IFCCARTESIANPOINT((-388.29629131445938,30.,237.05904774485018));
#678=IFCCARTESIANPOINT((-383.30127018922792,30.,225.));
#679=IFCCARTESIANPOINT((-375.35533905933335,30.,214.64466094064892));
#680=IFCCARTESIANPOINT((-365.,30.,206.69872981075434));
#681=IFCCARTESIANPOINT((-352.940952255132,30.,201.70370868552291));
#682=IFCCARTESIANPOINT((-340.,30.,200.));
#683=IFCPOLYLOOP((#646,#647,#648,#649,#650,#651,#652,#653,#654,#655,#656,#657,#658,#659,#660,#639,#640,#641,#642,#643,#644,#645));
#684=IFCFACEOUTERBOUND(#683,.T.);
#685=IFCFACE((#684));
#686=IFCPOLYLOOP((#682,#661,#662,#663,#664,#665,#666,#667,#668,#669,#670,#671,#672,#673,#674,#675,#676,#677,#678,#679,#680,#681));
#687=IFCFACEOUTERBOUND(#686,.T.);
#688=IFCFACE((#687));
#689=IFCPOLYLOOP((#640,#639,#661,#682));
#690=IFCFACEOUTERBOUND(#689,.T.);
#691=IFCFACE((#690));
#692=IFCPOLYLOOP((#647,#646,#676,#675));
#693=IFCFACEOUTERBOUND(#692,.T.);
#694=IFCFACE((#693));
#695=IFCPOLYLOOP((#654,#653,#669,#668));
#696=IFCFACEOUTERBOUND(#695,.T.);
#697=IFCFACE((#696));
#698=IFCPOLYLOOP((#639,#660,#662,#661));
#699=IFCFACEOUTERBOUND(#698,.T.);
#700=IFCFACE((#699));
#701=IFCPOLYLOOP((#641,#640,#682,#681));
#702=IFCFACEOUTERBOUND(#701,.T.);
#703=IFCFACE((#702));
#704=IFCPOLYLOOP((#642,#641,#681,#680));
#705=IFCFACEOUTERBOUND(#704,.T.);
#706=IFCFACE((#705));
#707=IFCPOLYLOOP((#643,#642,#680,#679));
#708=IFCFACEOUTERBOUND(#707,.T.);
#709=IFCFACE((#708));
#710=IFCPOLYLOOP((#644,#643,#679,#678));
#711=IFCFACEOUTERBOUND(#710,.T.);
#712=IFCFACE((#711));
#713=IFCPOLYLOOP((#645,#644,#678,#677));
#714=IFCFACEOUTERBOUND(#713,.T.);
#715=IFCFACE((#714));
#716=IFCPOLYLOOP((#646,#645,#677,#676));
#717=IFCFACEOUTERBOUND(#716,.T.);
#718=IFCFACE((#717));
#719=IFCPOLYLOOP((#648,#647,#675,#674));
#720=IFCFACEOUTERBOUND(#719,.T.);
#721=IFCFACE((#720));
#722=IFCPOLYLOOP((#649,#648,#674,#673));
#723=IFCFACEOUTERBOUND(#722,.T.);
#724=IFCFACE((#723));
#725=IFCPOLYLOOP((#650,#649,#673,#672));
#726=IFCFACEOUTERBOUND(#725,.T.);
#727=IFCFACE((#726));
#728=IFCPOLYLOOP((#651,#650,#672,#671));
#729=IFCFACEOUTERBOUND(#728,.T.);
#730=IFCFACE((#729));
#731=IFCPOLYLOOP((#652,#651,#671,#670));
#732=IFCFACEOUTERBOUND(#731,.T.);
#733=IFCFACE((#732));
#734=IFCPOLYLOOP((#653,#652,#670,#669));
#735=IFCFACEOUTERBOUND(#734,.T.);
#736=IFCFACE((#735));
#737=IFCPOLYLOOP((#655,#654,#668,#667));
#738=IFCFACEOUTERBOUND(#737,.T.);
#739=IFCFACE((#738));
#740=IFCPOLYLOOP((#656,#655,#667,#666));
#741=IFCFACEOUTERBOUND(#740,.T.);
#742=IFCFACE((#741));
#743=IFCPOLYLOOP((#657,#656,#666,#665));
#744=IFCFACEOUTERBOUND(#743,.T.);
#745=IFCFACE((#744));
#746=IFCPOLYLOOP((#658,#657,#665,#664));
#747=IFCFACEOUTERBOUND(#746,.T.);
#748=IFCFACE((#747));
#749=IFCPOLYLOOP((#659,#658,#664,#663));
#750=IFCFACEOUTERBOUND(#749,.T.);
#751=IFCFACE((#750));
#752=IFCPOLYLOOP((#660,#659,#663,#662));
#753=IFCFACEOUTERBOUND(#752,.T.);
#754=IFCFACE((#753));
#755=IFCCARTESIANPOINT((-29.108419540908766,-800.,740.5324814246668));
#756=IFCCARTESIANPOINT((45.,-800.,682.41928789170663));
#757=IFCCARTESIANPOINT((-13.113193532927291,-800.,756.52770743264796));
#758=IFCCARTESIANPOINT((45.,-800.,772.41928789173699));
#759=IFCCARTESIANPOINT((-45.,-800.,772.41928789173699));
#760=IFCCARTESIANPOINT((-45.,-800.,682.41928789172846));
#761=IFCPOLYLOOP((#755,#756,#757,#758,#759,#760));
#762=IFCFACEOUTERBOUND(#761,.T.);
#763=IFCFACE((#762));
#764=IFCCARTESIANPOINT((-29.108419540908766,-789.49024589812575,740.5324814246668));
#765=IFCCARTESIANPOINT((-45.,-789.49024589812575,682.41928789172846));
#766=IFCCARTESIANPOINT((-45.,-789.49024589812575,772.41928789173699));
#767=IFCCARTESIANPOINT((45.,-789.49024589812575,772.41928789173699));
#768=IFCCARTESIANPOINT((-13.113193532927291,-789.49024589812575,756.52770743264796));
#769=IFCCARTESIANPOINT((45.,-789.49024589812575,682.41928789170663));
#770=IFCPOLYLOOP((#764,#765,#766,#767,#768,#769));
#771=IFCFACEOUTERBOUND(#770,.T.);
#772=IFCFACE((#771));
#773=IFCPOLYLOOP((#756,#755,#764,#769));
#774=IFCFACEOUTERBOUND(#773,.T.);
#775=IFCFACE((#774));
#776=IFCPOLYLOOP((#757,#756,#769,#768));
#777=IFCFACEOUTERBOUND(#776,.T.);
#778=IFCFACE((#777));
#779=IFCPOLYLOOP((#758,#757,#768,#767));
#780=IFCFACEOUTERBOUND(#779,.T.);
#781=IFCFACE((#780));
#782=IFCPOLYLOOP((#759,#758,#767,#766));
#783=IFCFACEOUTERBOUND(#782,.T.);
#784=IFCFACE((#783));
#785=IFCPOLYLOOP((#760,#759,#766,#765));
#786=IFCFACEOUTERBOUND(#785,.T.);
#787=IFCFACE((#786));
#788=IFCPOLYLOOP((#755,#760,#765,#764));
#789=IFCFACEOUTERBOUND(#788,.T.);
#790=IFCFACE((#789));
#791=IFCCARTESIANPOINT((45.,800.,682.41928789171618));
#792=IFCCARTESIANPOINT((0.,800.,715.5549939599091));
#793=IFCCARTESIANPOINT((-45.,800.,682.41928789171641));
#794=IFCCARTESIANPOINT((-11.864293931815208,800.,727.41928789173778));
#795=IFCCARTESIANPOINT((-45.,800.,772.4192878917371));
#796=IFCCARTESIANPOINT((-0.,800.,739.28358182356612));
#797=IFCCARTESIANPOINT((45.,800.,772.41928789176427));
#798=IFCCARTESIANPOINT((11.864293931836826,800.,727.41928789174494));
#799=IFCPOLYLOOP((#791,#792,#793,#794,#795,#796,#797,#798));
#800=IFCFACEOUTERBOUND(#799,.T.);
#801=IFCFACE((#800));
#802=IFCCARTESIANPOINT((45.,789.49024589812564,682.41928789171618));
#803=IFCCARTESIANPOINT((11.864293931836832,789.49024589812564,727.41928789174494));
#804=IFCCARTESIANPOINT((45.,789.49024589812564,772.41928789176427));
#805=IFCCARTESIANPOINT((-0.,789.49024589812564,739.28358182356612));
#806=IFCCARTESIANPOINT((-45.,789.49024589812564,772.4192878917371));
#807=IFCCARTESIANPOINT((-11.864293931815192,789.49024589812564,727.41928789173778));
#808=IFCCARTESIANPOINT((-45.,789.49024589812564,682.41928789171641));
#809=IFCCARTESIANPOINT((0.,789.49024589812564,715.5549939599091));
#810=IFCPOLYLOOP((#802,#803,#804,#805,#806,#807,#808,#809));
#811=IFCFACEOUTERBOUND(#810,.T.);
#812=IFCFACE((#811));
#813=IFCPOLYLOOP((#791,#798,#803,#802));
#814=IFCFACEOUTERBOUND(#813,.T.);
#815=IFCFACE((#814));
#816=IFCPOLYLOOP((#798,#797,#804,#803));
#817=IFCFACEOUTERBOUND(#816,.T.);
#818=IFCFACE((#817));
#819=IFCPOLYLOOP((#797,#796,#805,#804));
#820=IFCFACEOUTERBOUND(#819,.T.);
#821=IFCFACE((#820));
#822=IFCPOLYLOOP((#796,#795,#806,#805));
#823=IFCFACEOUTERBOUND(#822,.T.);
#824=IFCFACE((#823));
#825=IFCPOLYLOOP((#795,#794,#807,#806));
#826=IFCFACEOUTERBOUND(#825,.T.);
#827=IFCFACE((#826));
#828=IFCPOLYLOOP((#794,#793,#808,#807));
#829=IFCFACEOUTERBOUND(#828,.T.);
#830=IFCFACE((#829));
#831=IFCPOLYLOOP((#793,#792,#809,#808));
#832=IFCFACEOUTERBOUND(#831,.T.);
#833=IFCFACE((#832));
#834=IFCPOLYLOOP((#792,#791,#802,#809));
#835=IFCFACEOUTERBOUND(#834,.T.);
#836=IFCFACE((#835));
#837=IFCCARTESIANPOINT((29.108419540908756,800.,740.5324814246668));
#838=IFCCARTESIANPOINT((-45.,800.,682.41928789170629));
#839=IFCCARTESIANPOINT((13.113193532927308,800.,756.52770743264796));
#840=IFCCARTESIANPOINT((-45.,800.,772.41928789173699));
#841=IFCCARTESIANPOINT((45.,800.,772.41928789173699));
#842=IFCCARTESIANPOINT((45.,800.,682.41928789172846));
#843=IFCPOLYLOOP((#837,#838,#839,#840,#841,#842));
#844=IFCFACEOUTERBOUND(#843,.T.);
#845=IFCFACE((#844));
#846=IFCCARTESIANPOINT((29.108419540908756,789.49024589812575,740.5324814246668));
#847=IFCCARTESIANPOINT((45.,789.49024589812575,682.41928789172846));
#848=IFCCARTESIANPOINT((45.,789.49024589812575,772.41928789173699));
#849=IFCCARTESIANPOINT((-45.,789.49024589812575,772.41928789173699));
#850=IFCCARTESIANPOINT((13.113193532927308,789.49024589812575,756.52770743264796));
#851=IFCCARTESIANPOINT((-45.,789.49024589812575,682.41928789170629));
#852=IFCPOLYLOOP((#846,#847,#848,#849,#850,#851));
#853=IFCFACEOUTERBOUND(#852,.T.);
#854=IFCFACE((#853));
#855=IFCPOLYLOOP((#838,#837,#846,#851));
#856=IFCFACEOUTERBOUND(#855,.T.);
#857=IFCFACE((#856));
#858=IFCPOLYLOOP((#839,#838,#851,#850));
#859=IFCFACEOUTERBOUND(#858,.T.);
#860=IFCFACE((#859));
#861=IFCPOLYLOOP((#840,#839,#850,#849));
#862=IFCFACEOUTERBOUND(#861,.T.);
#863=IFCFACE((#862));
#864=IFCPOLYLOOP((#841,#840,#849,#848));
#865=IFCFACEOUTERBOUND(#864,.T.);
#866=IFCFACE((#865));
#867=IFCPOLYLOOP((#842,#841,#848,#847));
#868=IFCFACEOUTERBOUND(#867,.T.);
#869=IFCFACE((#868));
#870=IFCPOLYLOOP((#837,#842,#847,#846));
#871=IFCFACEOUTERBOUND(#870,.T.);
#872=IFCFACE((#871));
#873=IFCCLOSEDSHELL((#79,#82,#85,#88,#91,#94,#97,#100,#103,#106,#109,#112,#115,#118,#121,#124,#127,#130,#133,#136,#139,#142,#145,#148));
#874=IFCFACETEDBREP(#873);
#875=IFCCOLOURRGB($,0.,1.,0.);
#876=IFCSURFACESTYLERENDERING(#875,0.,$,$,$,$,IFCNORMALISEDRATIOMEASURE(0.5),IFCSPECULAREXPONENT(64.),.NOTDEFINED.);
#877=IFCSURFACESTYLE('LUZ_VERDE',.BOTH.,(#876));
#878=IFCPRESENTATIONSTYLEASSIGNMENT((#877));
#879=IFCSTYLEDITEM(#874,(#878),$);
#880=IFCCLOSEDSHELL((#253,#256,#259,#262,#265,#268,#271,#274,#277,#280,#283,#286,#289,#292,#295,#298,#301,#304,#307,#310,#313,#316,#319,#322,#325,#328,#331,#334,#337,#340,#343,#346,#349,#352,#355,#358,#361,#364,#367,#370,#373,#376,#379,#382,#385,#388,#391,#394,#397,#400,#403,#406,#409,#412,#415,#418,#421,#424,#427,#430,#433,#436,#439,#442,#445,#448,#451,#454,#457,#460,#463,#466,#469,#472,#475,#478,#481,#484,#487,#490,#493,#496,#499,#502,#505,#508,#511,#514,#517,#520,#523,#526,#529,#532,#535,#538,#541,#544,#547,#550,#553,#556,#559,#562,#565,#568,#571,#574,#577,#580,#583,#586,#589,#592));
#881=IFCFACETEDBREP(#880);
#882=IFCSTYLEDITEM(#881,(#878),$);
#883=IFCCLOSEDSHELL((#603,#614,#617,#620,#623,#626,#629,#632,#635,#638));
#884=IFCFACETEDBREP(#883);
#885=IFCCOLOURRGB($,1.,0.,0.);
#886=IFCSURFACESTYLERENDERING(#885,0.,$,$,$,$,IFCNORMALISEDRATIOMEASURE(0.5),IFCSPECULAREXPONENT(64.),.NOTDEFINED.);
#887=IFCSURFACESTYLE('LUZ_ROJA',.BOTH.,(#886));
#888=IFCPRESENTATIONSTYLEASSIGNMENT((#887));
#889=IFCSTYLEDITEM(#884,(#888),$);
#890=IFCCLOSEDSHELL((#685,#688,#691,#694,#697,#700,#703,#706,#709,#712,#715,#718,#721,#724,#727,#730,#733,#736,#739,#742,#745,#748,#751,#754));
#891=IFCFACETEDBREP(#890);
#892=IFCSTYLEDITEM(#891,(#878),$);
#893=IFCCLOSEDSHELL((#763,#772,#775,#778,#781,#784,#787,#790));
#894=IFCFACETEDBREP(#893);
#895=IFCSTYLEDITEM(#894,(#878),$);
#896=IFCCLOSEDSHELL((#801,#812,#815,#818,#821,#824,#827,#830,#833,#836));
#897=IFCFACETEDBREP(#896);
#898=IFCSTYLEDITEM(#897,(#888),$);
#899=IFCCLOSEDSHELL((#845,#854,#857,#860,#863,#866,#869,#872));
#900=IFCFACETEDBREP(#899);
#901=IFCSTYLEDITEM(#900,(#878),$);
#902=IFCSHAPEREPRESENTATION(#15,'Body','Brep',(#874,#881,#884,#891,#894,#897,#900));
#903=IFCAXIS2PLACEMENT3D(#10,$,$);
#904=IFCREPRESENTATIONMAP(#903,#902);
#905=IFCBUILDINGELEMENTPROXYTYPE('1kIiq0N2P5690jtS5IY4sA',#6,'TORNIQUETE-BARRERA-ABATIBLE:TORNIQUETE-BARRERA-ABATIBLE_ACERO-INOXIDABLE_A0.30m',$,$,$,(#904),'1665075',$,.NOTDEFINED.);
#906=IFCMATERIAL('<Unnamed>');
#907=IFCMATERIAL('LUZ_ROJA');
#908=IFCPRESENTATIONSTYLEASSIGNMENT((#887));
#909=IFCSTYLEDITEM($,(#908),$);
#910=IFCSTYLEDREPRESENTATION(#13,'Style','Material',(#909));
#911=IFCMATERIALDEFINITIONREPRESENTATION($,$,(#910),#907);
#912=IFCMATERIAL('LUZ_VERDE');
#913=IFCPRESENTATIONSTYLEASSIGNMENT((#877));
#914=IFCSTYLEDITEM($,(#913),$);
#915=IFCSTYLEDREPRESENTATION(#13,'Style','Material',(#914));
#916=IFCMATERIALDEFINITIONREPRESENTATION($,$,(#915),#912);
#917=IFCMATERIALLIST((#906,#907,#912));
#918=IFCCARTESIANTRANSFORMATIONOPERATOR3D($,$,#10,1.,$);
#919=IFCMAPPEDITEM(#904,#918);
#920=IFCSHAPEREPRESENTATION(#15,'Body','MappedRepresentation',(#919));
#921=IFCPRODUCTDEFINITIONSHAPE($,$,(#920));
#922=IFCCARTESIANPOINT((20.,-20.,0.));
#923=IFCAXIS2PLACEMENT3D(#922,$,$);
#924=IFCLOCALPLACEMENT(#24,#923);
#925=IFCBUILDINGELEMENTPROXY('1kIiq0N2P5690jtS5IY4oV',#6,'TORNIQUETE-BARRERA-ABATIBLE:TORNIQUETE-BARRERA-ABATIBLE_ACERO-INOXIDABLE_A0.30m:1665123',$,$,#924,#921,'1665123',$);
#926=IFCPROPERTYSINGLEVALUE('Reference',$,IFCIDENTIFIER('TORNIQUETE-BARRERA-ABATIBLE_ACERO-INOXIDABLE_A0.30m'),$);
#927=IFCPROPERTYSET('1DJyR_CL4yvJfNqKSvVKSn',#6,'Pset_BuildingElementProxyCommon',$,(#926));
#928=IFCPROPERTYSET('1tAjwf$7Gcb3cSNjp16UEu',#6,'Pset_QuantityTakeOff',$,(#926));
#929=IFCRELDEFINESBYPROPERTIES('2teDsw3SeEN9vwBd23sORf',#6,$,$,(#925),#927);
#930=IFCRELDEFINESBYPROPERTIES('01reEOWdKCr2jeWMIvRL5v',#6,$,$,(#925),#928);
#931=IFCMAPPEDITEM(#904,#918);
#932=IFCSHAPEREPRESENTATION(#15,'Body','MappedRepresentation',(#931));
#933=IFCPRODUCTDEFINITIONSHAPE($,$,(#932));
#934=IFCCARTESIANPOINT((860.,-20.,0.));
#935=IFCAXIS2PLACEMENT3D(#934,$,$);
#936=IFCLOCALPLACEMENT(#24,#935);
#937=IFCBUILDINGELEMENTPROXY('1kIiq0N2P5690jtS5IY4ry',#6,'TORNIQUETE-BARRERA-ABATIBLE:TORNIQUETE-BARRERA-ABATIBLE_ACERO-INOXIDABLE_A0.30m:1665408',$,$,#936,#933,'1665408',$);
#938=IFCPROPERTYSET('1mzN_ffJu9Ly59sOP9bWHB',#6,'Pset_BuildingElementProxyCommon',$,(#926));
#939=IFCPROPERTYSET('3vUBGVAYLS$7NzHv96PSWS',#6,'Pset_QuantityTakeOff',$,(#926));
#940=IFCRELDEFINESBYPROPERTIES('0w9kHkstN5IxYCm4z1j0Cy',#6,$,$,(#937),#938);
#941=IFCRELDEFINESBYPROPERTIES('1EeCROuLRuLhQLlzKer7rM',#6,$,$,(#937),#939);
#942=IFCPROPERTYSINGLEVALUE('Name',$,IFCLABEL('L1'),$);
#943=IFCPROPERTYSET('2l4vqu11LCaZAypUbzwyea',#6,'Pset_AirSideSystemInformation',$,(#942));
#944=IFCPROPERTYSINGLEVALUE('AboveGround',$,IFCLOGICAL(.U.),$);
#945=IFCPROPERTYSET('16L50AfyZF4hYq5TGET4H4',#6,'Pset_BuildingStoreyCommon',$,(#944));
#946=IFCPROPERTYSINGLEVALUE('Name',$,IFCLABEL('L1'),$);
#947=IFCPROPERTYSET('0Fxv$pCHYe$d1NPq668uup',#6,'Pset_ProductRequirements',$,(#946));
#948=IFCRELDEFINESBYPROPERTIES('3NFes7CBV81H0RHVpWu5ZF',#6,$,$,(#25),#943);
#949=IFCRELDEFINESBYPROPERTIES('2VdfSfkgzGoZi_3SgzE8$0',#6,$,$,(#25),#945);
#950=IFCRELDEFINESBYPROPERTIES('0Vxl9G1EBUZpUdM$cyum7J',#6,$,$,(#25),#947);
#951=IFCRELCONTAINEDINSPATIALSTRUCTURE('2JF4e6axWHqu3u0C5FZlmi',#6,$,$,(#925,#937),#25);
#952=IFCPROPERTYSINGLEVALUE('Name',$,IFCLABEL('L2'),$);
#953=IFCPROPERTYSET('2rmMSkA7gc4STb1LnLF8UH',#6,'Pset_AirSideSystemInformation',$,(#952));
#954=IFCPROPERTYSET('1n34enW33Z_3Qq2Pm1kjQZ',#6,'Pset_BuildingStoreyCommon',$,(#944));
#955=IFCPROPERTYSINGLEVALUE('Name',$,IFCLABEL('L2'),$);
#956=IFCPROPERTYSET('3b2aIDv9vaOvbWU0hVWzaG',#6,'Pset_ProductRequirements',$,(#955));
#957=IFCRELDEFINESBYPROPERTIES('1kaSOYlg8iono8iflzrHRz',#6,$,$,(#29),#953);
#958=IFCRELDEFINESBYPROPERTIES('36oM8gyLQ5_Z6XoGK5uP1E',#6,$,$,(#29),#954);
#959=IFCRELDEFINESBYPROPERTIES('2r$5AllCk4VpjESRla$JzH',#6,$,$,(#29),#956);
#960=IFCRELAGGREGATES('185cv45lTkbsrk$A2b0491',#6,$,$,#18,(#32));
#961=IFCRELAGGREGATES('37aZXjtucgD5WtPPZH9joY',#6,$,$,#32,(#22));
#962=IFCRELAGGREGATES('1yhDISh1T5aQqAoygxGIhP',#6,$,$,#22,(#25,#29));
#963=IFCPROPERTYSINGLEVALUE('NumberOfStoreys',$,IFCINTEGER(2),$);
#964=IFCPROPERTYSINGLEVALUE('IsLandmarked',$,IFCLOGICAL(.U.),$);
#965=IFCPROPERTYSET('2FoV9WLblTDdC9koFebZ2u',#6,'Pset_BuildingCommon',$,(#963,#964));
#966=IFCRELDEFINESBYPROPERTIES('01gOcokr0L0hFgyTCPbKXe',#6,$,$,(#22),#965);
#967=IFCRELASSOCIATESMATERIAL('2vmQZ127NioJL_7LFNXcm9',#6,$,$,(#905,#925,#937),#917);
#968=IFCRELDEFINESBYTYPE('1I3OIuY0zVHsMuD60kP0VF',#6,$,$,(#925,#937),#905);
#969=IFCUNITASSIGNMENT((#7,#8,#9));
ENDSEC;

END-ISO-10303-21;